<?xml version="1.0" encoding="utf-8"?>
<!-- Generator: Adobe Illustrator 16.0.0, SVG Export Plug-In . SVG Version: 6.00 Build 0)  -->
<!DOCTYPE svg PUBLIC "-//W3C//DTD SVG 1.1//EN" "http://www.w3.org/Graphics/SVG/1.1/DTD/svg11.dtd">
<svg version="1.1" id="Layer_1" xmlns="http://www.w3.org/2000/svg" xmlns:xlink="http://www.w3.org/1999/xlink" x="0px" y="0px"
	 width="513.797px" height="395.165px" viewBox="0 0 513.797 395.165" enable-background="new 0 0 513.797 395.165"
	 xml:space="preserve">
<g>
	<g>
		<g>
			<circle fill="none" stroke="#0BA7AF" stroke-miterlimit="10" cx="97.676" cy="201.083" r="77"/>
			<g>
				<linearGradient id="SVGID_1_" gradientUnits="userSpaceOnUse" x1="235.4473" y1="114.9995" x2="401.4473" y2="-36.0007">
					<stop  offset="0" style="stop-color:#0BA7AF"/>
					<stop  offset="0.1286" style="stop-color:#0AA0AB"/>
					<stop  offset="0.3179" style="stop-color:#098CA1"/>
					<stop  offset="0.5446" style="stop-color:#066C90"/>
					<stop  offset="0.7981" style="stop-color:#033F78"/>
					<stop  offset="1" style="stop-color:#001663"/>
				</linearGradient>
				<path fill="url(#SVGID_1_)" d="M352.367,7.051L193.643,165.775c-1.613,1.612-4.227,1.612-5.84,0l0,0
					c-1.613-1.612-1.613-4.228,0-5.841L346.527,1.21c1.613-1.613,4.229-1.613,5.84,0l0,0C353.98,2.823,353.98,5.438,352.367,7.051z"
					/>
				<linearGradient id="SVGID_2_" gradientUnits="userSpaceOnUse" x1="248.8413" y1="129.7241" x2="414.841" y2="-21.2758">
					<stop  offset="0" style="stop-color:#0BA7AF"/>
					<stop  offset="0.1286" style="stop-color:#0AA0AB"/>
					<stop  offset="0.3179" style="stop-color:#098CA1"/>
					<stop  offset="0.5446" style="stop-color:#066C90"/>
					<stop  offset="0.7981" style="stop-color:#033F78"/>
					<stop  offset="1" style="stop-color:#001663"/>
				</linearGradient>
				<path fill="url(#SVGID_2_)" d="M366.457,21.141L207.732,179.866c-1.611,1.612-4.227,1.612-5.84,0l0,0
					c-1.613-1.613-1.613-4.229,0-5.841L360.617,15.3c1.613-1.612,4.229-1.612,5.84,0l0,0
					C368.07,16.913,368.07,19.528,366.457,21.141z"/>
				<linearGradient id="SVGID_3_" gradientUnits="userSpaceOnUse" x1="262.2344" y1="144.4478" x2="428.2343" y2="-6.5524">
					<stop  offset="0" style="stop-color:#0BA7AF"/>
					<stop  offset="0.1286" style="stop-color:#0AA0AB"/>
					<stop  offset="0.3179" style="stop-color:#098CA1"/>
					<stop  offset="0.5446" style="stop-color:#066C90"/>
					<stop  offset="0.7981" style="stop-color:#033F78"/>
					<stop  offset="1" style="stop-color:#001663"/>
				</linearGradient>
				<path fill="url(#SVGID_3_)" d="M380.549,35.231L221.824,193.956c-1.613,1.613-4.229,1.613-5.842,0l0,0
					c-1.613-1.613-1.613-4.229,0-5.841L374.707,29.391c1.613-1.612,4.229-1.612,5.842,0l0,0
					C382.16,31.003,382.16,33.618,380.549,35.231z"/>
			</g>
			<g>
				
					<linearGradient id="SVGID_4_" gradientUnits="userSpaceOnUse" x1="1011.9307" y1="-200.0815" x2="645.2964" y2="-101.8422" gradientTransform="matrix(0.7071 -0.7071 0.7071 0.7071 -110.4628 909.2599)">
					<stop  offset="0" style="stop-color:#A5E151"/>
					<stop  offset="0.2268" style="stop-color:#8FDA53"/>
					<stop  offset="0.6949" style="stop-color:#58C958"/>
					<stop  offset="1" style="stop-color:#31BC5B"/>
				</linearGradient>
				<path fill="url(#SVGID_4_)" d="M412.367,207.051L253.643,365.775c-1.613,1.613-4.227,1.613-5.84,0l0,0
					c-1.613-1.611-1.613-4.227,0-5.84L406.527,201.21c1.613-1.613,4.229-1.613,5.84,0l0,0
					C413.98,202.823,413.98,205.438,412.367,207.051z"/>
				
					<linearGradient id="SVGID_5_" gradientUnits="userSpaceOnUse" x1="1011.9307" y1="-180.1563" x2="645.2972" y2="-81.9172" gradientTransform="matrix(0.7071 -0.7071 0.7071 0.7071 -110.4628 909.2599)">
					<stop  offset="0" style="stop-color:#A5E151"/>
					<stop  offset="0.2268" style="stop-color:#8FDA53"/>
					<stop  offset="0.6949" style="stop-color:#58C958"/>
					<stop  offset="1" style="stop-color:#31BC5B"/>
				</linearGradient>
				<path fill="url(#SVGID_5_)" d="M426.459,221.14L267.732,379.865c-1.611,1.613-4.227,1.613-5.84,0l0,0
					c-1.613-1.611-1.613-4.227,0-5.84L420.617,215.3c1.613-1.613,4.229-1.613,5.842,0l0,0
					C428.07,216.914,428.07,219.529,426.459,221.14z"/>
				
					<linearGradient id="SVGID_6_" gradientUnits="userSpaceOnUse" x1="1011.9316" y1="-160.23" x2="645.2958" y2="-61.9902" gradientTransform="matrix(0.7071 -0.7071 0.7071 0.7071 -110.4628 909.2599)">
					<stop  offset="0" style="stop-color:#A5E151"/>
					<stop  offset="0.2268" style="stop-color:#8FDA53"/>
					<stop  offset="0.6949" style="stop-color:#58C958"/>
					<stop  offset="1" style="stop-color:#31BC5B"/>
				</linearGradient>
				<path fill="url(#SVGID_6_)" d="M440.549,235.232L281.824,393.957c-1.613,1.611-4.229,1.611-5.842,0l0,0
					c-1.613-1.613-1.613-4.229,0-5.842L434.707,229.39c1.613-1.613,4.229-1.613,5.842,0l0,0
					C442.16,231.003,442.16,233.619,440.549,235.232z"/>
			</g>
			<g>
				<defs>
					<circle id="SVGID_7_" cx="144.489" cy="244.921" r="95.245"/>
				</defs>
				<clipPath id="SVGID_8_">
					<use xlink:href="#SVGID_7_"  overflow="visible"/>
				</clipPath>
				<g clip-path="url(#SVGID_8_)">
					
						<rect x="132.115" y="-120.311" transform="matrix(0.7071 0.7071 -0.7071 0.7071 117.506 -62.3286)" fill="#0BA7AF" width="3.751" height="461.977"/>
					
						<rect x="132.115" y="-102.312" transform="matrix(0.7074 0.7068 -0.7068 0.7074 130.1648 -57.0554)" fill="#0BA7AF" width="3.75" height="461.977"/>
					
						<rect x="132.115" y="-84.313" transform="matrix(0.7071 0.7071 -0.7071 0.7071 142.9604 -51.785)" fill="#0BA7AF" width="3.751" height="461.977"/>
					
						<rect x="132.115" y="-66.313" transform="matrix(0.7071 0.7071 -0.7071 0.7071 155.6884 -46.5129)" fill="#0BA7AF" width="3.751" height="461.977"/>
					
						<rect x="132.115" y="-48.315" transform="matrix(0.7074 0.7068 -0.7068 0.7074 168.3324 -41.2541)" fill="#0BA7AF" width="3.75" height="461.979"/>
					
						<rect x="132.115" y="-30.315" transform="matrix(0.7071 0.7071 -0.7071 0.7071 181.1428 -35.9693)" fill="#0BA7AF" width="3.751" height="461.977"/>
					
						<rect x="132.115" y="-12.316" transform="matrix(0.7074 0.7068 -0.7068 0.7074 193.7779 -30.7197)" fill="#0BA7AF" width="3.75" height="461.978"/>
					
						<rect x="132.115" y="5.684" transform="matrix(0.7071 0.7071 -0.7071 0.7071 206.5973 -25.4258)" fill="#0BA7AF" width="3.751" height="461.977"/>
					
						<rect x="132.115" y="23.682" transform="matrix(0.7074 0.7068 -0.7068 0.7074 219.223 -20.1855)" fill="#0BA7AF" width="3.75" height="461.978"/>
					
						<rect x="132.115" y="41.682" transform="matrix(0.7071 0.7071 -0.7071 0.7071 232.0518 -14.8821)" fill="#0BA7AF" width="3.751" height="461.977"/>
					
						<rect x="132.115" y="59.68" transform="matrix(0.7074 0.7068 -0.7068 0.7074 244.668 -9.6513)" fill="#0BA7AF" width="3.75" height="461.978"/>
					
						<rect x="132.115" y="77.68" transform="matrix(0.7071 0.7071 -0.7071 0.7071 257.5062 -4.3386)" fill="#0BA7AF" width="3.751" height="461.977"/>
					
						<rect x="132.115" y="95.678" transform="matrix(0.7074 0.7068 -0.7068 0.7074 270.1131 0.8829)" fill="#0BA7AF" width="3.75" height="461.978"/>
					
						<rect x="132.115" y="113.678" transform="matrix(0.7071 0.7071 -0.7071 0.7071 282.9607 6.205)" fill="#0BA7AF" width="3.751" height="461.977"/>
					
						<rect x="132.115" y="131.678" transform="matrix(0.7071 0.7071 -0.7071 0.7071 295.6886 11.4771)" fill="#0BA7AF" width="3.751" height="461.977"/>
					
						<rect x="132.115" y="149.676" transform="matrix(0.7071 0.7071 -0.7071 0.7071 308.4153 16.7487)" fill="#0BA7AF" width="3.751" height="461.977"/>
					
						<rect x="132.115" y="167.676" transform="matrix(0.7071 0.7071 -0.7071 0.7071 321.1432 22.0208)" fill="#0BA7AF" width="3.751" height="461.977"/>
				</g>
			</g>
			<g>
				<defs>
					<circle id="SVGID_9_" cx="461.489" cy="244.921" r="34.187"/>
				</defs>
				<clipPath id="SVGID_10_">
					<use xlink:href="#SVGID_9_"  overflow="visible"/>
				</clipPath>
				<g clip-path="url(#SVGID_10_)">
					
						<rect x="457.047" y="113.83" transform="matrix(0.7071 0.7071 -0.7071 0.7071 273.1781 -266.0342)" fill="#0BA7AF" width="1.348" height="165.816"/>
					
						<rect x="457.047" y="120.29" transform="matrix(0.7078 0.7064 -0.7064 0.7078 277.2667 -263.9573)" fill="#0BA7AF" width="1.347" height="165.816"/>
					
						<rect x="457.047" y="126.75" transform="matrix(0.7078 0.7064 -0.7064 0.7078 281.8303 -262.0697)" fill="#0BA7AF" width="1.347" height="165.817"/>
					
						<rect x="457.047" y="133.212" transform="matrix(0.7071 0.7071 -0.7071 0.7071 286.8828 -260.3575)" fill="#0BA7AF" width="1.348" height="165.816"/>
					
						<rect x="457.047" y="139.671" transform="matrix(0.7078 0.7064 -0.7064 0.7078 290.957 -258.2948)" fill="#0BA7AF" width="1.347" height="165.816"/>
					
						<rect x="457.047" y="146.131" transform="matrix(0.7078 0.7064 -0.7064 0.7078 295.5205 -256.4073)" fill="#0BA7AF" width="1.347" height="165.817"/>
					
						<rect x="457.047" y="152.592" transform="matrix(0.7078 0.7064 -0.7064 0.7078 300.0844 -254.5196)" fill="#0BA7AF" width="1.347" height="165.817"/>
					
						<rect x="457.047" y="159.053" transform="matrix(0.7071 0.7071 -0.7071 0.7071 305.1553 -252.7888)" fill="#0BA7AF" width="1.348" height="165.816"/>
					
						<rect x="457.047" y="165.512" transform="matrix(0.7078 0.7064 -0.7064 0.7078 309.2108 -250.7448)" fill="#0BA7AF" width="1.347" height="165.817"/>
					
						<rect x="457.047" y="171.973" transform="matrix(0.7078 0.7064 -0.7064 0.7078 313.7747 -248.8571)" fill="#0BA7AF" width="1.347" height="165.817"/>
					
						<rect x="457.047" y="178.434" transform="matrix(0.7071 0.7071 -0.7071 0.7071 318.86 -247.1121)" fill="#0BA7AF" width="1.348" height="165.816"/>
					
						<rect x="457.047" y="184.894" transform="matrix(0.7078 0.7064 -0.7064 0.7078 322.9016 -245.0821)" fill="#0BA7AF" width="1.347" height="165.816"/>
					
						<rect x="457.047" y="191.354" transform="matrix(0.7078 0.7064 -0.7064 0.7078 327.4651 -243.1946)" fill="#0BA7AF" width="1.347" height="165.817"/>
					
						<rect x="457.047" y="197.815" transform="matrix(0.7078 0.7064 -0.7064 0.7078 332.029 -241.3069)" fill="#0BA7AF" width="1.347" height="165.817"/>
					
						<rect x="457.047" y="204.275" transform="matrix(0.7071 0.7071 -0.7071 0.7071 337.1324 -239.5435)" fill="#0BA7AF" width="1.348" height="165.817"/>
					
						<rect x="457.047" y="210.735" transform="matrix(0.7078 0.7064 -0.7064 0.7078 341.1554 -237.5321)" fill="#0BA7AF" width="1.347" height="165.817"/>
					
						<rect x="457.047" y="217.196" transform="matrix(0.7078 0.7064 -0.7064 0.7078 345.7193 -235.6444)" fill="#0BA7AF" width="1.347" height="165.817"/>
				</g>
			</g>
			<g>
				<defs>
					<circle id="SVGID_11_" cx="401.578" cy="118.978" r="66"/>
				</defs>
				<clipPath id="SVGID_12_">
					<use xlink:href="#SVGID_11_"  overflow="visible"/>
				</clipPath>
				<g clip-path="url(#SVGID_12_)">
					<g>
						<g>
							<circle fill="#A5E151" cx="411.249" cy="50.012" r="4.085"/>
							<circle fill="#A5E151" cx="427.28" cy="50.012" r="4.085"/>
							<circle fill="#A5E151" cx="443.31" cy="50.012" r="4.085"/>
							<circle fill="#A5E151" cx="459.339" cy="50.012" r="4.085"/>
							<circle fill="#A5E151" cx="475.369" cy="50.012" r="4.086"/>
							<circle fill="#A5E151" cx="491.399" cy="50.012" r="4.085"/>
							<circle fill="#A5E151" cx="507.429" cy="50.012" r="4.085"/>
						</g>
						<g>
							<circle fill="#A5E151" cx="411.249" cy="64.234" r="4.085"/>
							<circle fill="#A5E151" cx="427.28" cy="64.234" r="4.085"/>
							<circle fill="#A5E151" cx="443.31" cy="64.234" r="4.085"/>
							<circle fill="#A5E151" cx="459.339" cy="64.234" r="4.085"/>
							<circle fill="#A5E151" cx="475.369" cy="64.234" r="4.086"/>
							<circle fill="#A5E151" cx="491.399" cy="64.234" r="4.085"/>
							<circle fill="#A5E151" cx="507.429" cy="64.234" r="4.085"/>
						</g>
						<g>
							<circle fill="#A5E151" cx="411.249" cy="78.457" r="4.085"/>
							<circle fill="#A5E151" cx="427.28" cy="78.457" r="4.085"/>
							<circle fill="#A5E151" cx="443.31" cy="78.457" r="4.085"/>
							<circle fill="#A5E151" cx="459.339" cy="78.457" r="4.085"/>
							<circle fill="#A5E151" cx="475.369" cy="78.457" r="4.086"/>
							<circle fill="#A5E151" cx="491.399" cy="78.457" r="4.085"/>
							<circle fill="#A5E151" cx="507.429" cy="78.457" r="4.085"/>
						</g>
						<g>
							<circle fill="#A5E151" cx="411.249" cy="92.679" r="4.085"/>
							<circle fill="#A5E151" cx="427.28" cy="92.679" r="4.085"/>
							<circle fill="#A5E151" cx="443.31" cy="92.679" r="4.085"/>
							<circle fill="#A5E151" cx="459.339" cy="92.679" r="4.085"/>
							<circle fill="#A5E151" cx="475.369" cy="92.679" r="4.086"/>
							<circle fill="#A5E151" cx="491.399" cy="92.679" r="4.085"/>
							<circle fill="#A5E151" cx="507.429" cy="92.679" r="4.085"/>
						</g>
						<g>
							<circle fill="#A5E151" cx="411.249" cy="106.901" r="4.085"/>
							<circle fill="#A5E151" cx="427.28" cy="106.901" r="4.085"/>
							<circle fill="#A5E151" cx="443.31" cy="106.901" r="4.085"/>
							<circle fill="#A5E151" cx="459.339" cy="106.901" r="4.085"/>
							<circle fill="#A5E151" cx="475.369" cy="106.901" r="4.086"/>
							<circle fill="#A5E151" cx="491.399" cy="106.901" r="4.085"/>
							<circle fill="#A5E151" cx="507.429" cy="106.901" r="4.085"/>
						</g>
						<g>
							<circle fill="#A5E151" cx="411.249" cy="121.124" r="4.085"/>
							<circle fill="#A5E151" cx="427.28" cy="121.124" r="4.085"/>
							<circle fill="#A5E151" cx="443.31" cy="121.124" r="4.085"/>
							<circle fill="#A5E151" cx="459.339" cy="121.124" r="4.085"/>
							<circle fill="#A5E151" cx="475.369" cy="121.124" r="4.086"/>
							<circle fill="#A5E151" cx="491.399" cy="121.124" r="4.085"/>
							<circle fill="#A5E151" cx="507.429" cy="121.124" r="4.085"/>
						</g>
						<g>
							<circle fill="#A5E151" cx="411.249" cy="135.347" r="4.085"/>
							<circle fill="#A5E151" cx="427.28" cy="135.347" r="4.085"/>
							<circle fill="#A5E151" cx="443.31" cy="135.347" r="4.085"/>
							<circle fill="#A5E151" cx="459.339" cy="135.347" r="4.085"/>
							<circle fill="#A5E151" cx="475.369" cy="135.347" r="4.086"/>
							<circle fill="#A5E151" cx="491.399" cy="135.347" r="4.085"/>
							<circle fill="#A5E151" cx="507.429" cy="135.347" r="4.085"/>
						</g>
						<g>
							<circle fill="#A5E151" cx="411.249" cy="149.569" r="4.085"/>
							<circle fill="#A5E151" cx="427.28" cy="149.569" r="4.085"/>
							<circle fill="#A5E151" cx="443.31" cy="149.569" r="4.085"/>
							<circle fill="#A5E151" cx="459.339" cy="149.569" r="4.085"/>
							<circle fill="#A5E151" cx="475.369" cy="149.569" r="4.086"/>
							<circle fill="#A5E151" cx="491.399" cy="149.569" r="4.085"/>
							<circle fill="#A5E151" cx="507.429" cy="149.569" r="4.085"/>
						</g>
						<g>
							<circle fill="#A5E151" cx="411.249" cy="163.792" r="4.085"/>
							<circle fill="#A5E151" cx="427.28" cy="163.792" r="4.085"/>
							<circle fill="#A5E151" cx="443.31" cy="163.792" r="4.085"/>
							<circle fill="#A5E151" cx="459.339" cy="163.792" r="4.085"/>
							<circle fill="#A5E151" cx="475.369" cy="163.792" r="4.086"/>
							<circle fill="#A5E151" cx="491.399" cy="163.792" r="4.085"/>
							<circle fill="#A5E151" cx="507.429" cy="163.792" r="4.085"/>
						</g>
						<g>
							<circle fill="#A5E151" cx="411.249" cy="178.015" r="4.085"/>
							<circle fill="#A5E151" cx="427.28" cy="178.015" r="4.085"/>
							<circle fill="#A5E151" cx="443.31" cy="178.015" r="4.085"/>
							<circle fill="#A5E151" cx="459.339" cy="178.015" r="4.085"/>
							<circle fill="#A5E151" cx="475.369" cy="178.015" r="4.086"/>
							<circle fill="#A5E151" cx="491.399" cy="178.015" r="4.085"/>
							<circle fill="#A5E151" cx="507.429" cy="178.015" r="4.085"/>
						</g>
						<g>
							<circle fill="#A5E151" cx="411.249" cy="192.237" r="4.085"/>
							<circle fill="#A5E151" cx="427.28" cy="192.237" r="4.085"/>
							<circle fill="#A5E151" cx="443.31" cy="192.237" r="4.085"/>
							<circle fill="#A5E151" cx="459.339" cy="192.237" r="4.085"/>
							<circle fill="#A5E151" cx="475.369" cy="192.237" r="4.086"/>
							<circle fill="#A5E151" cx="491.399" cy="192.237" r="4.085"/>
							<circle fill="#A5E151" cx="507.429" cy="192.237" r="4.085"/>
						</g>
					</g>
					<g>
						<g>
							<circle fill="#A5E151" cx="282.511" cy="50.012" r="4.085"/>
							<circle fill="#A5E151" cx="298.542" cy="50.012" r="4.085"/>
							<circle fill="#A5E151" cx="314.571" cy="50.012" r="4.085"/>
							<circle fill="#A5E151" cx="330.601" cy="50.012" r="4.085"/>
							<circle fill="#A5E151" cx="346.63" cy="50.012" r="4.085"/>
							<circle fill="#A5E151" cx="362.661" cy="50.012" r="4.085"/>
							<circle fill="#A5E151" cx="378.69" cy="50.012" r="4.085"/>
							<circle fill="#A5E151" cx="394.72" cy="50.012" r="4.085"/>
						</g>
						<g>
							<circle fill="#A5E151" cx="282.511" cy="64.234" r="4.085"/>
							<circle fill="#A5E151" cx="298.542" cy="64.234" r="4.085"/>
							<circle fill="#A5E151" cx="314.571" cy="64.234" r="4.085"/>
							<circle fill="#A5E151" cx="330.601" cy="64.234" r="4.085"/>
							<circle fill="#A5E151" cx="346.63" cy="64.234" r="4.085"/>
							<circle fill="#A5E151" cx="362.661" cy="64.234" r="4.085"/>
							<circle fill="#A5E151" cx="378.69" cy="64.234" r="4.085"/>
							<circle fill="#A5E151" cx="394.72" cy="64.234" r="4.085"/>
						</g>
						<g>
							<circle fill="#A5E151" cx="282.511" cy="78.457" r="4.085"/>
							<circle fill="#A5E151" cx="298.542" cy="78.457" r="4.085"/>
							<circle fill="#A5E151" cx="314.571" cy="78.457" r="4.085"/>
							<circle fill="#A5E151" cx="330.601" cy="78.457" r="4.085"/>
							<circle fill="#A5E151" cx="346.63" cy="78.457" r="4.085"/>
							<circle fill="#A5E151" cx="362.661" cy="78.457" r="4.085"/>
							<circle fill="#A5E151" cx="378.69" cy="78.457" r="4.085"/>
							<circle fill="#A5E151" cx="394.72" cy="78.457" r="4.085"/>
						</g>
						<g>
							<circle fill="#A5E151" cx="282.511" cy="92.679" r="4.085"/>
							<circle fill="#A5E151" cx="298.542" cy="92.679" r="4.085"/>
							<circle fill="#A5E151" cx="314.571" cy="92.679" r="4.085"/>
							<circle fill="#A5E151" cx="330.601" cy="92.679" r="4.085"/>
							<circle fill="#A5E151" cx="346.63" cy="92.679" r="4.085"/>
							<circle fill="#A5E151" cx="362.661" cy="92.679" r="4.085"/>
							<circle fill="#A5E151" cx="378.69" cy="92.679" r="4.085"/>
							<circle fill="#A5E151" cx="394.72" cy="92.679" r="4.085"/>
						</g>
						<g>
							<circle fill="#A5E151" cx="282.511" cy="106.901" r="4.085"/>
							<circle fill="#A5E151" cx="298.542" cy="106.901" r="4.085"/>
							<circle fill="#A5E151" cx="314.571" cy="106.901" r="4.085"/>
							<circle fill="#A5E151" cx="330.601" cy="106.901" r="4.085"/>
							<circle fill="#A5E151" cx="346.63" cy="106.901" r="4.085"/>
							<circle fill="#A5E151" cx="362.661" cy="106.901" r="4.085"/>
							<circle fill="#A5E151" cx="378.69" cy="106.901" r="4.085"/>
							<circle fill="#A5E151" cx="394.72" cy="106.901" r="4.085"/>
						</g>
						<g>
							<circle fill="#A5E151" cx="282.511" cy="121.124" r="4.085"/>
							<circle fill="#A5E151" cx="298.542" cy="121.124" r="4.085"/>
							<circle fill="#A5E151" cx="314.571" cy="121.124" r="4.085"/>
							<circle fill="#A5E151" cx="330.601" cy="121.124" r="4.085"/>
							<circle fill="#A5E151" cx="346.63" cy="121.124" r="4.085"/>
							<circle fill="#A5E151" cx="362.661" cy="121.124" r="4.085"/>
							<circle fill="#A5E151" cx="378.69" cy="121.124" r="4.085"/>
							<circle fill="#A5E151" cx="394.72" cy="121.124" r="4.085"/>
						</g>
						<g>
							<circle fill="#A5E151" cx="282.511" cy="135.347" r="4.085"/>
							<circle fill="#A5E151" cx="298.542" cy="135.347" r="4.085"/>
							<circle fill="#A5E151" cx="314.571" cy="135.347" r="4.085"/>
							<circle fill="#A5E151" cx="330.601" cy="135.347" r="4.085"/>
							<circle fill="#A5E151" cx="346.63" cy="135.347" r="4.085"/>
							<circle fill="#A5E151" cx="362.661" cy="135.347" r="4.085"/>
							<circle fill="#A5E151" cx="378.69" cy="135.347" r="4.085"/>
							<circle fill="#A5E151" cx="394.72" cy="135.347" r="4.085"/>
						</g>
						<g>
							<circle fill="#A5E151" cx="282.511" cy="149.569" r="4.085"/>
							<circle fill="#A5E151" cx="298.542" cy="149.569" r="4.085"/>
							<circle fill="#A5E151" cx="314.571" cy="149.569" r="4.085"/>
							<circle fill="#A5E151" cx="330.601" cy="149.569" r="4.085"/>
							<circle fill="#A5E151" cx="346.63" cy="149.569" r="4.085"/>
							<circle fill="#A5E151" cx="362.661" cy="149.569" r="4.085"/>
							<circle fill="#A5E151" cx="378.69" cy="149.569" r="4.085"/>
							<circle fill="#A5E151" cx="394.72" cy="149.569" r="4.085"/>
						</g>
						<g>
							<circle fill="#A5E151" cx="282.511" cy="163.792" r="4.085"/>
							<circle fill="#A5E151" cx="298.542" cy="163.792" r="4.085"/>
							<circle fill="#A5E151" cx="314.571" cy="163.792" r="4.085"/>
							<circle fill="#A5E151" cx="330.601" cy="163.792" r="4.085"/>
							<circle fill="#A5E151" cx="346.63" cy="163.792" r="4.085"/>
							<circle fill="#A5E151" cx="362.661" cy="163.792" r="4.085"/>
							<circle fill="#A5E151" cx="378.69" cy="163.792" r="4.085"/>
							<circle fill="#A5E151" cx="394.72" cy="163.792" r="4.085"/>
						</g>
						<g>
							<circle fill="#A5E151" cx="282.511" cy="178.015" r="4.085"/>
							<circle fill="#A5E151" cx="298.542" cy="178.015" r="4.085"/>
							<circle fill="#A5E151" cx="314.571" cy="178.015" r="4.085"/>
							<circle fill="#A5E151" cx="330.601" cy="178.015" r="4.085"/>
							<circle fill="#A5E151" cx="346.63" cy="178.015" r="4.085"/>
							<circle fill="#A5E151" cx="362.661" cy="178.015" r="4.085"/>
							<circle fill="#A5E151" cx="378.69" cy="178.015" r="4.085"/>
							<circle fill="#A5E151" cx="394.72" cy="178.015" r="4.085"/>
						</g>
						<g>
							<circle fill="#A5E151" cx="282.511" cy="192.237" r="4.085"/>
							<circle fill="#A5E151" cx="298.542" cy="192.237" r="4.085"/>
							<circle fill="#A5E151" cx="314.571" cy="192.237" r="4.085"/>
							<circle fill="#A5E151" cx="330.601" cy="192.237" r="4.085"/>
							<circle fill="#A5E151" cx="346.63" cy="192.237" r="4.085"/>
							<circle fill="#A5E151" cx="362.661" cy="192.237" r="4.085"/>
							<circle fill="#A5E151" cx="378.69" cy="192.237" r="4.085"/>
							<circle fill="#A5E151" cx="394.72" cy="192.237" r="4.085"/>
						</g>
					</g>
				</g>
			</g>
			<linearGradient id="SVGID_13_" gradientUnits="userSpaceOnUse" x1="166.915" y1="-63.0029" x2="348.9154" y2="424.9992">
				<stop  offset="0" style="stop-color:#0BA7AF"/>
				<stop  offset="0.1286" style="stop-color:#0AA0AB"/>
				<stop  offset="0.3179" style="stop-color:#098CA1"/>
				<stop  offset="0.5446" style="stop-color:#066C90"/>
				<stop  offset="0.7981" style="stop-color:#033F78"/>
				<stop  offset="1" style="stop-color:#001663"/>
			</linearGradient>
			<circle fill="url(#SVGID_13_)" cx="261.676" cy="191.083" r="164"/>
			<linearGradient id="SVGID_14_" gradientUnits="userSpaceOnUse" x1="113.3462" y1="51.7861" x2="162.1338" y2="100.5737">
				<stop  offset="0" style="stop-color:#A5E151"/>
				<stop  offset="0.2268" style="stop-color:#8FDA53"/>
				<stop  offset="0.6949" style="stop-color:#58C958"/>
				<stop  offset="1" style="stop-color:#31BC5B"/>
			</linearGradient>
			<circle fill="url(#SVGID_14_)" cx="137.739" cy="76.18" r="34.499"/>
			<linearGradient id="SVGID_15_" gradientUnits="userSpaceOnUse" x1="3.6294" y1="114.6348" x2="30.0261" y2="242.067">
				<stop  offset="0" style="stop-color:#A5E151"/>
				<stop  offset="0.2268" style="stop-color:#8FDA53"/>
				<stop  offset="0.6949" style="stop-color:#58C958"/>
				<stop  offset="1" style="stop-color:#31BC5B"/>
			</linearGradient>
			<path fill="url(#SVGID_15_)" d="M20.936,177.244C9.373,177.244,0,186.617,0,198.18c0,11.563,9.373,20.935,20.936,20.935
				s20.936-9.372,20.936-20.935C41.871,186.617,32.498,177.244,20.936,177.244z M20.936,213.919c-8.693,0-15.738-7.047-15.738-15.74
				c0-8.692,7.045-15.739,15.738-15.739s15.74,7.047,15.74,15.739C36.676,206.873,29.629,213.919,20.936,213.919z"/>
			<path fill="#001663" d="M475.936,166.244c-8.801,0-15.936,7.135-15.936,15.936c0,8.802,7.135,15.937,15.936,15.937
				s15.936-7.135,15.936-15.937C491.871,173.379,484.736,166.244,475.936,166.244z M475.936,194.16
				c-6.617,0-11.98-5.364-11.98-11.98s5.363-11.98,11.98-11.98s11.98,5.364,11.98,11.98S482.553,194.16,475.936,194.16z"/>
			<linearGradient id="SVGID_16_" gradientUnits="userSpaceOnUse" x1="502.291" y1="338.7065" x2="486.291" y2="281.7065">
				<stop  offset="0" style="stop-color:#A5E151"/>
				<stop  offset="0.2268" style="stop-color:#8FDA53"/>
				<stop  offset="0.6949" style="stop-color:#58C958"/>
				<stop  offset="1" style="stop-color:#31BC5B"/>
			</linearGradient>
			<path fill="url(#SVGID_16_)" d="M482.797,283.273L482.797,283.273c0,1.307,0.986,2.404,2.287,2.543
				c13.26,1.41,23.592,12.631,23.592,26.268c0,13.635-10.332,24.855-23.592,26.266c-1.301,0.139-2.287,1.236-2.287,2.545l0,0
				c0,1.52,1.316,2.709,2.828,2.549c15.836-1.682,28.172-15.078,28.172-31.359s-12.336-29.68-28.172-31.359
				C484.113,280.564,482.797,281.753,482.797,283.273z"/>
			<circle fill="#001663" cx="169.008" cy="25.749" r="10"/>
			<circle fill="#297BFC" cx="240.718" cy="53.068" r="40.573"/>
			<linearGradient id="SVGID_17_" gradientUnits="userSpaceOnUse" x1="108.6445" y1="207.8208" x2="208.1992" y2="207.8208">
				<stop  offset="0" style="stop-color:#A5E151"/>
				<stop  offset="0.2268" style="stop-color:#8FDA53"/>
				<stop  offset="0.6949" style="stop-color:#58C958"/>
				<stop  offset="1" style="stop-color:#31BC5B"/>
			</linearGradient>
			<circle opacity="0.6" fill="url(#SVGID_17_)" cx="158.422" cy="207.821" r="49.777"/>
			<circle fill="#8ACFE4" cx="191.472" cy="121.057" r="43.734"/>
			<g>
				<path fill="#FFFFFF" d="M253.015,27.266c-8.079-4.461-18.244-1.528-22.705,6.55c-4.46,8.079-1.526,18.244,6.553,22.705
					c8.08,4.461,18.244,1.528,22.704-6.551C264.027,41.891,261.096,31.727,253.015,27.266z M239.18,52.321
					c-5.759-3.18-7.85-10.427-4.669-16.187c3.18-5.76,10.428-7.851,16.186-4.671c5.761,3.181,7.852,10.428,4.672,16.188
					S244.94,55.502,239.18,52.321z"/>
				
					<rect x="226.399" y="60.259" transform="matrix(0.8755 0.4833 -0.4833 0.8755 62.2763 -102.2768)" fill="#FFFFFF" width="6.377" height="18.877"/>
				
					<rect x="232.076" y="55.582" transform="matrix(0.8754 0.4834 -0.4834 0.8754 59.567 -104.8779)" fill="#FFFFFF" width="2.297" height="15.052"/>
			</g>
			<linearGradient id="SVGID_18_" gradientUnits="userSpaceOnUse" x1="317.4268" y1="123.0366" x2="390.9814" y2="123.0366">
				<stop  offset="0" style="stop-color:#A5E151"/>
				<stop  offset="0.2268" style="stop-color:#8FDA53"/>
				<stop  offset="0.6949" style="stop-color:#58C958"/>
				<stop  offset="1" style="stop-color:#31BC5B"/>
			</linearGradient>
			<circle opacity="0.3" fill="url(#SVGID_18_)" cx="354.204" cy="123.036" r="36.777"/>
			<g>
				<g>
					<path fill="#FFFFFF" d="M364.309,142.168h-20.212c-0.086,0-0.173-0.012-0.257-0.035c-1.876-0.523-3.072-1.479-3.561-2.838
						c-0.774-2.153,0.629-4.479,0.926-4.934l8.199-17.527v-14.339c0-0.533,0.432-0.965,0.965-0.965h7.72
						c0.53,0,0.964,0.432,0.964,0.965v14.445l8.148,17.421c0.296,0.455,1.701,2.78,0.929,4.934
						c-0.489,1.359-1.688,2.314-3.562,2.838C364.482,142.156,364.395,142.168,364.309,142.168z M344.236,140.238h19.937
						c1.161-0.347,1.88-0.882,2.138-1.592c0.424-1.168-0.395-2.75-0.747-3.261c-0.028-0.044-0.058-0.093-0.079-0.141l-8.321-17.788
						c-0.106-0.227-0.117-0.482-0.04-0.714v-13.284h-5.789v13.59c0,0.142-0.031,0.28-0.09,0.408l-8.321,17.788
						c-0.022,0.05-0.052,0.097-0.081,0.142c-0.352,0.51-1.169,2.092-0.747,3.26C342.354,139.356,343.072,139.892,344.236,140.238z"
						/>
				</g>
				<path fill="#FFFFFF" d="M363.964,134.984c-0.026-0.038-0.052-0.079-0.069-0.12l-4.65-9.94h-10.083l-4.647,9.94
					c-0.021,0.042-0.045,0.082-0.07,0.121c-0.301,0.438-1.004,1.797-0.641,2.801c0.221,0.609,0.84,1.07,1.838,1.367h17.125
					c0.997-0.297,1.617-0.758,1.838-1.367C364.969,136.782,364.266,135.423,363.964,134.984z M350.729,136.919
					c-0.633,0-1.144-0.512-1.144-1.146c0-0.633,0.511-1.146,1.144-1.146c0.635,0,1.147,0.513,1.147,1.146
					C351.877,136.407,351.364,136.919,350.729,136.919z M352.117,132.28c-0.766,0-1.388-0.621-1.388-1.387
					c0-0.767,0.622-1.387,1.388-1.387c0.768,0,1.388,0.62,1.388,1.387C353.505,131.659,352.885,132.28,352.117,132.28z
					 M355.916,130.652c-0.316,0-0.573-0.256-0.573-0.573c0-0.315,0.257-0.572,0.573-0.572s0.574,0.257,0.574,0.572
					C356.49,130.396,356.232,130.652,355.916,130.652z M358.111,136.403c-0.384,0-0.693-0.311-0.693-0.693
					c0-0.382,0.31-0.693,0.693-0.693c0.382,0,0.693,0.312,0.693,0.693C358.805,136.093,358.493,136.403,358.111,136.403z"/>
				<rect x="348.776" y="97.068" fill="#FFFFFF" width="10.854" height="3.738"/>
			</g>
			<g>
				<path fill="#FFFFFF" d="M200.231,149.821h5.223c-8.384-8.501-24.746-12.021-24.746-25.754c0-13.717,16.322-17.245,24.717-25.723
					h-5.214c-8.395,8.48-24.722,12.008-24.722,25.727C175.489,137.804,191.847,141.324,200.231,149.821z"/>
				<path fill="#FFFFFF" d="M205.643,124.067c0,13.733-16.362,17.253-24.745,25.754h5.222c8.385-8.497,24.742-12.018,24.742-25.75
					c0-13.719-16.328-17.246-24.721-25.727h-5.214C189.32,106.822,205.643,110.351,205.643,124.067z"/>
				<rect x="181.293" y="114.792" fill="#FFFFFF" width="23.191" height="2.174"/>
				<rect x="179.12" y="121.023" fill="#FFFFFF" width="27.536" height="2.174"/>
				<rect x="179.12" y="126.386" fill="#FFFFFF" width="27.536" height="2.174"/>
				<rect x="182.236" y="131.893" fill="#FFFFFF" width="21.305" height="2.174"/>
			</g>
			<circle fill="#1B306A" cx="302.484" cy="72.91" r="37.278"/>
			<g>
				<g>
					<path fill="#FFFFFF" d="M136.721,98.167c-4.43,0-7.074-11.18-7.074-21.986c0-10.808,2.645-21.987,7.074-21.987
						c4.428,0,7.072,11.18,7.072,21.987C143.793,86.987,141.148,98.167,136.721,98.167z M136.721,55.214
						c-2.925,0-6.057,8.425-6.057,20.967c0,12.541,3.132,20.967,6.057,20.967c2.924,0,6.053-8.426,6.053-20.967
						C142.773,63.639,139.645,55.214,136.721,55.214z"/>
				</g>
				<g>
					<path fill="#FFFFFF" d="M122.957,90.66c-1.655,0-2.811-0.46-3.437-1.368c-1.149-1.667-0.266-4.433,2.563-7.998
						c2.666-3.362,6.758-7.022,11.521-10.307c7.069-4.876,14.403-8.026,18.679-8.026c1.654,0,2.813,0.46,3.438,1.368
						c1.15,1.667,0.263,4.434-2.565,7.998c-2.665,3.362-6.757,7.022-11.519,10.307C134.566,87.51,127.234,90.66,122.957,90.66z
						 M152.283,63.98c-4.084,0-11.188,3.08-18.1,7.847c-4.682,3.229-8.696,6.815-11.301,10.101
						c-2.449,3.088-3.367,5.561-2.523,6.786c0.526,0.766,1.705,0.927,2.598,0.927c4.084,0,11.189-3.08,18.102-7.846
						c4.682-3.229,8.693-6.816,11.299-10.101c2.449-3.088,3.369-5.562,2.523-6.786C154.354,64.142,153.178,63.98,152.283,63.98z"/>
				</g>
				<g>
					<path fill="#FFFFFF" d="M150.863,92.945c-4.208,0-11.51-3.731-18.608-9.505c-4.488-3.651-8.276-7.623-10.668-11.187
						c-2.537-3.777-3.202-6.604-1.923-8.176c0.603-0.741,1.582-1.117,2.912-1.117c4.205,0,11.511,3.73,18.607,9.505
						c4.487,3.65,8.277,7.624,10.667,11.186c2.537,3.778,3.203,6.605,1.925,8.177C153.171,92.569,152.193,92.945,150.863,92.945z
						 M122.576,63.98c-1.009,0-1.722,0.25-2.122,0.741c-0.938,1.155-0.219,3.692,1.979,6.965c2.336,3.48,6.054,7.374,10.465,10.963
						c6.819,5.548,14.04,9.275,17.965,9.275c1.008,0,1.721-0.248,2.12-0.74c0.94-1.154,0.217-3.692-1.979-6.964
						c-2.334-3.481-6.054-7.375-10.467-10.964C133.721,67.709,126.5,63.98,122.576,63.98z"/>
				</g>
				<g>
					<circle fill="#FFFFFF" cx="136.72" cy="77.735" r="3.505"/>
				</g>
				<g>
					<circle fill="#FFFFFF" cx="152.806" cy="72.91" r="2.208"/>
				</g>
				<g>
					<circle fill="#FFFFFF" cx="124.765" cy="63.989" r="2.207"/>
				</g>
				<g>
					<circle fill="#FFFFFF" cx="132.361" cy="92.435" r="2.207"/>
				</g>
			</g>
			<g>
				<g>
					<ellipse opacity="0.07" fill="#575756" cx="257.573" cy="293.705" rx="69.932" ry="15.084"/>
					<ellipse opacity="0.07" fill="#575756" cx="257.572" cy="293.705" rx="64.397" ry="13.891"/>
					<ellipse opacity="0.07" fill="#575756" cx="257.572" cy="293.705" rx="96.632" ry="20.844"/>
					<path opacity="0.07" fill="#575756" d="M346.556,293.705c0,10.6-39.841,19.193-88.983,19.193
						c-49.146,0-88.983-8.594-88.983-19.193c0-10.604,39.838-19.195,88.983-19.195C306.715,274.509,346.556,283.101,346.556,293.705
						z"/>
					<path opacity="0.07" fill="#575756" d="M340.085,293.705c0,9.828-36.943,17.797-82.513,17.797
						c-45.571,0-82.512-7.969-82.512-17.797c0-9.832,36.94-17.799,82.512-17.799C303.142,275.906,340.085,283.873,340.085,293.705z"
						/>
					<ellipse opacity="0.07" fill="#575756" cx="257.572" cy="293.705" rx="75.453" ry="16.275"/>
					<ellipse opacity="0.07" fill="#575756" cx="257.572" cy="293.705" rx="31.234" ry="6.736"/>
					<ellipse opacity="0.07" fill="#575756" cx="257.571" cy="293.705" rx="28.762" ry="6.203"/>
					<path opacity="0.07" fill="#575756" d="M284.242,293.705c0,3.176-11.941,5.752-26.67,5.752c-14.73,0-26.67-2.576-26.67-5.752
						c0-3.18,11.939-5.754,26.67-5.754C272.301,287.951,284.242,290.525,284.242,293.705z"/>
					<ellipse opacity="0.07" fill="#575756" cx="257.572" cy="293.705" rx="24.388" ry="5.26"/>
					<path opacity="0.07" fill="#575756" d="M300.405,293.705c0,5.102-19.177,9.238-42.833,9.238
						c-23.657,0-42.834-4.137-42.834-9.238c0-5.105,19.177-9.24,42.834-9.24C281.229,284.464,300.405,288.599,300.405,293.705z"/>
					<ellipse opacity="0.07" fill="#575756" cx="257.571" cy="293.705" rx="39.444" ry="8.508"/>
					<ellipse opacity="0.07" fill="#575756" cx="257.572" cy="293.705" rx="36.576" ry="7.889"/>
					<ellipse opacity="0.07" fill="#575756" cx="257.572" cy="293.705" rx="33.446" ry="7.213"/>
					<ellipse opacity="0.07" fill="#575756" cx="257.571" cy="293.705" rx="59.188" ry="12.766"/>
					<ellipse opacity="0.07" fill="#575756" cx="257.572" cy="293.705" rx="54.504" ry="11.756"/>
					<path opacity="0.07" fill="#575756" d="M308.111,293.705c0,6.02-22.626,10.9-50.539,10.9s-50.539-4.881-50.539-10.9
						c0-6.023,22.626-10.902,50.539-10.902S308.111,287.681,308.111,293.705z"/>
					<ellipse opacity="0.07" fill="#575756" cx="257.571" cy="293.705" rx="46.216" ry="9.969"/>
					<ellipse opacity="0.07" fill="#575756" cx="257.572" cy="293.705" rx="21.537" ry="4.645"/>
					<ellipse opacity="0.07" fill="#575756" cx="257.572" cy="293.705" rx="19.634" ry="4.234"/>
					<ellipse opacity="0.07" fill="#575756" cx="257.572" cy="293.705" rx="18.303" ry="3.947"/>
					<ellipse opacity="0.07" fill="#575756" cx="257.572" cy="293.705" rx="16.854" ry="3.635"/>
					<ellipse opacity="0.07" fill="#575756" cx="257.572" cy="293.705" rx="15.629" ry="3.371"/>
					<path opacity="0.07" fill="#575756" d="M271.864,293.705c0,1.701-6.399,3.082-14.292,3.082c-7.892,0-14.292-1.381-14.292-3.082
						c0-1.705,6.4-3.084,14.292-3.084C265.465,290.621,271.864,292,271.864,293.705z"/>
					<path opacity="0.07" fill="#575756" d="M270.192,293.705c0,1.502-5.651,2.721-12.62,2.721c-6.97,0-12.62-1.219-12.62-2.721
						c0-1.506,5.65-2.725,12.62-2.725C264.541,290.98,270.192,292.199,270.192,293.705z"/>
					<path opacity="0.07" fill="#575756" d="M269.078,293.705c0,1.369-5.152,2.48-11.506,2.48c-6.354,0-11.506-1.111-11.506-2.48
						c0-1.373,5.151-2.484,11.506-2.484C263.926,291.22,269.078,292.332,269.078,293.705z"/>
					<path opacity="0.07" fill="#575756" d="M269.078,293.705c0,1.369-5.152,2.48-11.506,2.48c-6.354,0-11.506-1.111-11.506-2.48
						c0-1.373,5.151-2.484,11.506-2.484C263.926,291.22,269.078,292.332,269.078,293.705z"/>
					<ellipse opacity="0.07" fill="#575756" cx="257.571" cy="293.705" rx="10.595" ry="2.283"/>
					<ellipse opacity="0.07" fill="#575756" cx="257.572" cy="293.705" rx="9.824" ry="2.117"/>
					<ellipse opacity="0.07" fill="#575756" cx="257.572" cy="293.705" rx="8.984" ry="1.938"/>
					<path opacity="0.07" fill="#575756" d="M265.505,293.705c0,0.943-3.551,1.709-7.933,1.709s-7.934-0.766-7.934-1.709
						c0-0.947,3.552-1.713,7.934-1.713S265.505,292.757,265.505,293.705z"/>
					<ellipse opacity="0.07" fill="#575756" cx="257.572" cy="293.705" rx="7.232" ry="1.559"/>
					<ellipse opacity="0.07" fill="#575756" cx="257.572" cy="293.705" rx="6.742" ry="1.453"/>
					<ellipse opacity="0.07" fill="#575756" cx="257.571" cy="293.705" rx="6.208" ry="1.338"/>
					<ellipse opacity="0.07" fill="#575756" cx="257.571" cy="293.705" rx="5.757" ry="1.24"/>
					<ellipse opacity="0.07" fill="#575756" cx="257.571" cy="293.705" rx="5.265" ry="1.135"/>
					<ellipse opacity="0.07" fill="#575756" cx="257.572" cy="293.705" rx="4.648" ry="1.002"/>
					<ellipse opacity="0.07" fill="#575756" cx="257.573" cy="293.705" rx="4.239" ry="0.912"/>
					<path opacity="0.07" fill="#575756" d="M261.208,293.705c0,0.432-1.629,0.783-3.636,0.783c-2.008,0-3.639-0.352-3.639-0.783
						c0-0.436,1.631-0.785,3.639-0.785C259.579,292.919,261.208,293.269,261.208,293.705z"/>
					<ellipse opacity="0.07" fill="#575756" cx="257.571" cy="293.705" rx="2.995" ry="0.645"/>
					<ellipse opacity="0.07" fill="#575756" cx="257.572" cy="293.705" rx="2.069" ry="0.445"/>
					<ellipse opacity="0.07" fill="#575756" cx="257.572" cy="293.705" rx="1.403" ry="0.301"/>
				</g>
				<g>
					<g>
						<g>
							<polygon fill="#9E3730" points="301.207,211.928 306.86,262.775 213.918,264.593 221.518,186.819 301.642,184.801 							"/>
							<rect x="247.643" y="231.103" fill="#CC9571" width="23.071" height="14.926"/>
							<ellipse fill="#DFB18C" cx="261.068" cy="193.836" rx="41.417" ry="40.058"/>
							<path fill="#DFB18C" d="M229.123,203.743c0,4.52-3.403,8.186-7.605,8.186c-4.198,0-7.6-3.666-7.6-8.186
								c0-4.523,3.401-8.188,7.6-8.188C225.72,195.555,229.123,199.22,229.123,203.743z"/>
							<ellipse fill="#DFB18C" cx="299.258" cy="203.743" rx="7.602" ry="8.186"/>
							<polygon fill="#CC9571" points="247.643,245.005 217.206,251.269 260.592,288.863 302.484,250.707 270.714,245.005 							
								"/>
							<path fill="#1D2342" d="M270.714,245.005l35.233,5.846c0,0,21.565,5.922,14.325,46.785H197.179
								c0,0-5.554-37.135,14.472-45.174l35.992-7.457C247.643,245.005,258.279,256.48,270.714,245.005z"/>
							<path fill="#9E3730" d="M237.16,161.137c0,0-21.487,6.385-17.459,34.66c0,0,18.34-23.549,32.812-21.088
								C252.513,174.709,238.723,160.465,237.16,161.137z"/>
							<path fill="#AA4033" d="M238.098,159.082c-1.708,1.801,17.709,38.634,65.286,34.419c0,0,2.698-35.708-31.729-41.775
								C271.654,151.726,249.927,146.625,238.098,159.082z"/>
							<path fill="#9E3730" d="M270.714,243.835c0.298,4.219,0.284,9.482,1.285,13.641c2.008,8.354,5.947,17.73,12.057,23.883
								c2.167,2.184,4.704,3.932,7.449,5.307c7.185,3.602,15.355,5.09,23.255,3.219c1.683-0.398,3.928-1.211,5.146-2.512
								c2.104-2.252,1.193-6.924,0.896-9.676c-0.354-3.246-1.596-6.393-4.148-8.555c-1.661-1.41-3.951-2.031-6.091-2.207
								c0,0-10.83-1.061-5.045-16.264"/>
						</g>
						<g>
							<polygon fill="#9E3730" points="260.402,185.84 221.518,186.819 213.918,264.593 260.402,263.685 							"/>
							<rect x="247.643" y="231.103" fill="#CC9571" width="12.76" height="14.926"/>
							<path fill="#DFB18C" d="M260.402,153.797c-22.564,0.345-40.751,18.134-40.751,40.039c0,21.906,18.187,39.695,40.751,40.042
								V153.797z"/>
							<path fill="#DFB18C" d="M229.123,203.743c0,4.52-3.403,8.186-7.605,8.186c-4.198,0-7.6-3.666-7.6-8.186
								c0-4.523,3.401-8.188,7.6-8.188C225.72,195.555,229.123,199.22,229.123,203.743z"/>
							<polygon fill="#CC9571" points="260.402,245.005 247.643,245.005 217.206,251.269 260.402,288.699 							"/>
							<path fill="#00B0C2" d="M260.402,250.044c-7.475,0.65-12.76-5.039-12.76-5.039l-35.992,7.457
								c-20.025,8.039-14.472,45.174-14.472,45.174h63.224V250.044z"/>
							<path fill="#9E3730" d="M237.16,161.137c0,0-21.487,6.385-17.459,34.66c0,0,18.34-23.549,32.812-21.088
								C252.513,174.709,238.723,160.465,237.16,161.137z"/>
							<path fill="#AA4033" d="M260.402,150.703c-7.102,0.13-16.075,1.819-22.305,8.379c-1.045,1.104,5.851,15.373,22.305,25.28
								V150.703z"/>
						</g>
					</g>
					<polygon fill="#13152C" points="270.992,164.477 182.313,164.361 266.958,123.037 339.346,145.268 					"/>
					<polygon fill="#080619" points="267.242,119.618 182.313,164.361 266.958,123.037 339.346,145.268 					"/>
					<path fill="#1D2342" d="M300.932,176.524c-1.803-1.45-3.634-4.488-17.939-6.309c-26.749-3.402-56.774,2.786-62,6.309
						c0.65-12.081,10.045-26.504,10.045-26.504s26.846-11.687,51.3-7.695c10.473,1.711,11.541,5.13,11.541,5.13
						S299.98,161.239,300.932,176.524z"/>
				</g>
			</g>
			<linearGradient id="SVGID_19_" gradientUnits="userSpaceOnUse" x1="359.1973" y1="194.4072" x2="424.6431" y2="369.8887">
				<stop  offset="0" style="stop-color:#0BA7AF"/>
				<stop  offset="0.1286" style="stop-color:#0AA0AB"/>
				<stop  offset="0.3179" style="stop-color:#098CA1"/>
				<stop  offset="0.5446" style="stop-color:#066C90"/>
				<stop  offset="0.7981" style="stop-color:#033F78"/>
				<stop  offset="1" style="stop-color:#001663"/>
			</linearGradient>
			<circle fill="url(#SVGID_19_)" cx="392.919" cy="284.828" r="72.505"/>
			<circle fill="none" stroke="#0BA7AF" stroke-miterlimit="10" cx="392.919" cy="284.828" r="91.304"/>
			<linearGradient id="SVGID_20_" gradientUnits="userSpaceOnUse" x1="478.0977" y1="299.9976" x2="487.4311" y2="341.3312">
				<stop  offset="0" style="stop-color:#0BA7AF"/>
				<stop  offset="0.1286" style="stop-color:#0AA0AB"/>
				<stop  offset="0.3179" style="stop-color:#098CA1"/>
				<stop  offset="0.5446" style="stop-color:#066C90"/>
				<stop  offset="0.7981" style="stop-color:#033F78"/>
				<stop  offset="1" style="stop-color:#001663"/>
			</linearGradient>
			<circle fill="url(#SVGID_20_)" cx="480.676" cy="311.416" r="12.832"/>
			<linearGradient id="SVGID_21_" gradientUnits="userSpaceOnUse" x1="338.501" y1="354.4243" x2="346.1686" y2="368.0925">
				<stop  offset="0" style="stop-color:#0BA7AF"/>
				<stop  offset="0.1286" style="stop-color:#0AA0AB"/>
				<stop  offset="0.3179" style="stop-color:#098CA1"/>
				<stop  offset="0.5446" style="stop-color:#066C90"/>
				<stop  offset="0.7981" style="stop-color:#033F78"/>
				<stop  offset="1" style="stop-color:#001663"/>
			</linearGradient>
			<circle fill="url(#SVGID_21_)" cx="341.676" cy="360.083" r="6"/>
			<g>
				<g>
					<g>
						<path fill="#FFFFFF" d="M140.682,202.896h-0.469c-0.272,0-0.673,0.182-0.729,0.554c-0.079-0.339-0.48-0.492-0.695-0.492
							h-0.197c-0.537,0-0.932,0.435-0.939,0.933v0.783c0,0.227,0.148,0.363,0.367,0.363h3.22c0.231,0,0.375-0.137,0.375-0.363
							v-0.857C141.607,203.348,141.172,202.896,140.682,202.896z M139.259,204.574h-1.137v-0.683c0-0.262,0.216-0.47,0.47-0.47
							h0.197c0.255,0,0.47,0.169,0.47,0.406V204.574z M141.145,204.574h-1.413v-0.746c0-0.255,0.216-0.464,0.481-0.464h0.469
							c0.247,0,0.452,0.222,0.463,0.453V204.574z"/>
						<path fill="#FFFFFF" d="M138.574,199.831h2.107c0.638,0,0.961-0.524,0.961-1.062c0-0.538-0.323-1.068-0.961-1.068h-2.107
							c-0.631,0-0.954,0.53-0.954,1.068C137.62,199.307,137.943,199.831,138.574,199.831z M138.574,198.171h2.107
							c0.321,0,0.49,0.294,0.49,0.599c0,0.306-0.169,0.604-0.49,0.604h-2.107c-0.315,0-0.484-0.299-0.484-0.604
							C138.09,198.465,138.259,198.171,138.574,198.171z"/>
						<path fill="#FFFFFF" d="M141.607,196.724h-1.778v-0.248c0-0.277,0.179-0.537,0.485-0.627c0.027-0.011,0.074-0.018,0.113-0.028
							h-0.008c0.161-0.04,0.335-0.086,0.5-0.13c0.202-0.057,0.496-0.136,0.688-0.182v-0.491c-0.062,0.018-0.215,0.063-0.298,0.085
							c-0.057,0.011-0.107,0.022-0.153,0.034c-0.112,0.022-0.231,0.057-0.345,0.084c-0.208,0.058-0.431,0.108-0.623,0.158
							c-0.226,0.063-0.554,0.312-0.599,0.634c-0.015-0.329-0.388-0.571-0.586-0.634c-0.01,0-0.021,0-0.046-0.011
							c-0.181-0.046-0.366-0.097-0.56-0.151c-0.111-0.035-0.254-0.074-0.394-0.107c-0.097-0.029-0.267-0.074-0.353-0.098v0.504
							c0.194,0.044,0.432,0.118,0.635,0.175c0.197,0.051,0.412,0.108,0.593,0.158c0.298,0.09,0.479,0.35,0.479,0.627v0.248h-1.707
							v0.463h3.955V196.724z"/>
						<path fill="#FFFFFF" d="M130.535,185.313v48.613h16.954v-48.613H130.535z M135.921,231.08h-1.235v-17.543h1.235V231.08z
							 M138.396,231.08h-1.237v-17.543h1.237V231.08z M140.866,231.08h-1.237v-17.543h1.237V231.08z M143.34,231.08h-1.236v-17.543
							h1.236V231.08z M143.428,211.889h-8.829v-23.078h8.829V211.889z"/>
						<path fill="#FFFFFF" d="M138.574,202.477h2.107c0.638,0,0.961-0.525,0.961-1.063s-0.323-1.068-0.961-1.068h-2.107
							c-0.631,0-0.954,0.531-0.954,1.068S137.943,202.477,138.574,202.477z M138.574,200.815h2.107c0.321,0,0.49,0.294,0.49,0.599
							c0,0.306-0.169,0.605-0.49,0.605h-2.107c-0.315,0-0.484-0.3-0.484-0.605C138.09,201.109,138.259,200.815,138.574,200.815z"/>
					</g>
				</g>
				<g>
					<g>
						<path fill="#FFFFFF" d="M159.854,202.896h-0.47c-0.272,0-0.674,0.182-0.729,0.554c-0.08-0.339-0.482-0.492-0.695-0.492h-0.198
							c-0.536,0-0.933,0.435-0.937,0.933v0.783c0,0.227,0.146,0.363,0.365,0.363h3.218c0.234,0,0.376-0.137,0.376-0.363v-0.857
							C160.779,203.348,160.342,202.896,159.854,202.896z M158.427,204.574h-1.132v-0.683c0-0.262,0.214-0.47,0.468-0.47h0.198
							c0.255,0,0.466,0.169,0.466,0.406V204.574z M160.316,204.574h-1.412v-0.746c0-0.255,0.216-0.464,0.48-0.464h0.47
							c0.248,0,0.45,0.222,0.462,0.453V204.574z"/>
						<path fill="#FFFFFF" d="M157.744,199.831h2.11c0.638,0,0.958-0.524,0.958-1.062c0-0.538-0.32-1.068-0.958-1.068h-2.11
							c-0.633,0-0.955,0.53-0.955,1.068C156.789,199.307,157.111,199.831,157.744,199.831z M157.744,198.171h2.11
							c0.319,0,0.487,0.294,0.487,0.599c0,0.306-0.168,0.604-0.487,0.604h-2.11c-0.316,0-0.484-0.299-0.484-0.604
							C157.26,198.465,157.428,198.171,157.744,198.171z"/>
						<path fill="#FFFFFF" d="M160.779,196.724h-1.781v-0.248c0-0.277,0.182-0.537,0.487-0.627c0.029-0.011,0.072-0.018,0.111-0.028
							h-0.004c0.157-0.04,0.333-0.086,0.497-0.13c0.203-0.057,0.496-0.136,0.689-0.182v-0.491c-0.061,0.018-0.215,0.063-0.301,0.085
							c-0.055,0.011-0.106,0.022-0.151,0.034c-0.113,0.022-0.232,0.057-0.345,0.084c-0.209,0.058-0.429,0.108-0.623,0.158
							c-0.224,0.063-0.552,0.312-0.598,0.634c-0.017-0.329-0.389-0.571-0.588-0.634c-0.01,0-0.022,0-0.044-0.011
							c-0.181-0.046-0.367-0.097-0.56-0.151c-0.111-0.035-0.254-0.074-0.395-0.107c-0.098-0.029-0.267-0.074-0.35-0.098v0.504
							c0.191,0.044,0.429,0.118,0.633,0.175c0.196,0.051,0.41,0.108,0.592,0.158c0.299,0.09,0.48,0.35,0.48,0.627v0.248h-1.705
							v0.463h3.953V196.724z"/>
						<path fill="#FFFFFF" d="M149.705,185.313v48.613h16.956v-48.613H149.705z M155.093,231.08h-1.234v-17.543h1.234V231.08z
							 M157.565,231.08h-1.237v-17.543h1.237V231.08z M160.038,231.08h-1.237v-17.543h1.237V231.08z M162.512,231.08h-1.237v-17.543
							h1.237V231.08z M162.599,211.889h-8.832v-23.078h8.832V211.889z"/>
						<path fill="#FFFFFF" d="M157.744,202.477h2.11c0.638,0,0.958-0.525,0.958-1.063s-0.32-1.068-0.958-1.068h-2.11
							c-0.633,0-0.955,0.531-0.955,1.068S157.111,202.477,157.744,202.477z M157.744,200.815h2.11c0.319,0,0.487,0.294,0.487,0.599
							c0,0.306-0.168,0.605-0.487,0.605h-2.11c-0.316,0-0.484-0.3-0.484-0.605C157.26,201.109,157.428,200.815,157.744,200.815z"/>
					</g>
				</g>
				<g>
					<g>
						<path fill="#FFFFFF" d="M179.023,202.896h-0.471c-0.269,0-0.67,0.182-0.727,0.554c-0.079-0.339-0.482-0.492-0.694-0.492
							h-0.199c-0.534,0-0.932,0.435-0.937,0.933v0.783c0,0.227,0.147,0.363,0.366,0.363h3.22c0.231,0,0.373-0.137,0.373-0.363
							v-0.857C179.951,203.348,179.515,202.896,179.023,202.896z M177.6,204.574h-1.136v-0.683c0-0.262,0.215-0.47,0.469-0.47h0.199
							c0.253,0,0.468,0.169,0.468,0.406V204.574z M179.485,204.574h-1.412v-0.746c0-0.255,0.215-0.464,0.479-0.464h0.471
							c0.247,0,0.451,0.222,0.462,0.453V204.574z"/>
						<path fill="#FFFFFF" d="M176.916,199.831h2.107c0.638,0,0.961-0.524,0.961-1.062c0-0.538-0.323-1.068-0.961-1.068h-2.107
							c-0.632,0-0.953,0.53-0.953,1.068C175.963,199.307,176.284,199.831,176.916,199.831z M176.916,198.171h2.107
							c0.322,0,0.491,0.294,0.491,0.599c0,0.306-0.169,0.604-0.491,0.604h-2.107c-0.315,0-0.486-0.299-0.486-0.604
							C176.43,198.465,176.601,198.171,176.916,198.171z"/>
						<path fill="#FFFFFF" d="M179.951,196.724h-1.782v-0.248c0-0.277,0.183-0.537,0.486-0.627c0.028-0.011,0.073-0.018,0.114-0.028
							h-0.005c0.157-0.04,0.332-0.086,0.495-0.13c0.204-0.057,0.498-0.136,0.691-0.182v-0.491c-0.063,0.018-0.215,0.063-0.302,0.085
							c-0.058,0.011-0.107,0.022-0.151,0.034c-0.113,0.022-0.231,0.057-0.346,0.084c-0.208,0.058-0.43,0.108-0.621,0.158
							c-0.226,0.063-0.552,0.312-0.599,0.634c-0.018-0.329-0.391-0.571-0.589-0.634c-0.01,0-0.02,0-0.044-0.011
							c-0.181-0.046-0.367-0.097-0.558-0.151c-0.114-0.035-0.254-0.074-0.396-0.107c-0.097-0.029-0.266-0.074-0.35-0.098v0.504
							c0.19,0.044,0.429,0.118,0.632,0.175c0.198,0.051,0.413,0.108,0.595,0.158c0.299,0.09,0.479,0.35,0.479,0.627v0.248h-1.706
							v0.463h3.955V196.724z"/>
						<path fill="#FFFFFF" d="M168.878,185.313v48.613h16.952v-48.613H168.878z M174.265,231.08h-1.237v-17.543h1.237V231.08z
							 M176.735,231.08h-1.234v-17.543h1.234V231.08z M179.209,231.08h-1.235v-17.543h1.235V231.08z M181.682,231.08h-1.237v-17.543
							h1.237V231.08z M181.771,211.889h-8.831v-23.078h8.831V211.889z"/>
						<path fill="#FFFFFF" d="M176.916,202.477h2.107c0.638,0,0.961-0.525,0.961-1.063s-0.323-1.068-0.961-1.068h-2.107
							c-0.632,0-0.953,0.531-0.953,1.068S176.284,202.477,176.916,202.477z M176.916,200.815h2.107c0.322,0,0.491,0.294,0.491,0.599
							c0,0.306-0.169,0.605-0.491,0.605h-2.107c-0.315,0-0.486-0.3-0.486-0.605C176.43,201.109,176.601,200.815,176.916,200.815z"/>
					</g>
				</g>
			</g>
			<path fill="#FFFFFF" d="M317.92,69.592c-5.557,1.784-7.321-2.229-7.321-2.229c-3.1-4.659,2.794-12.993-3.144-13.998
				c-11.461-1.938-22.33,5.831-24.279,17.354c-1.949,11.523,5.76,22.436,17.22,24.374s23.575-5.688,24.278-17.354
				C325.176,69.431,317.92,69.592,317.92,69.592z M291.035,65.695l-0.115,0.058c0.49-0.151,0.742-0.278,1.268-0.115
				c0.654,0.204,0.562,0.628,1.047,0.914c0.459,0.273,1.203-0.093,1.725,0.068c0.64,0.198,1.117,0.695,1.055,1.378
				c-0.084,0.931-0.629,0.817-1.275,1.171c-0.797,0.436-0.369,1.197-0.574,1.903c-0.206,0.715-0.866,1.114-1.566,1.107
				c-0.672-0.008-2.061,0.008-2.492-0.637c-0.354-0.527,0.24-0.907,0.119-1.506c-0.148-0.75-0.82-0.724-1.348-1.04
				C287.065,67.91,289.691,65.588,291.035,65.695z M297.466,82.8c-0.472,0.054-1.128-0.098-1.491,0.29
				c-0.463,0.498,0.024,1.383-0.283,1.968c-0.689,1.31-3.792,0.605-3.781-0.794c0.007-0.839,0.246-1.374-0.635-1.738
				c-0.628-0.26-1.365-0.353-1.797-0.941c-0.439-0.597,0.096-1.229,0.521-1.735c0.757-0.901,1.274-0.649,2.259-0.928l-0.115-0.058
				c0.836-0.129,1.42-0.919,2.356-0.697c1.293,0.304,1.684,1.256,1.938,2.413c0.586-0.441,2.16-0.304,2.482,0.423
				C299.32,81.906,298.203,82.716,297.466,82.8z M301.028,63.666c-0.695,0.389-1.662,0.39-2.3-0.132
				c-0.613-0.5-0.296-1.005-0.117-1.637c0.438-1.576-1.205-1.443-1.621-2.647c-0.451-1.312,1.729-2.354,2.766-2.373l0.056-0.174
				c0.137,0.485,0.888,0.266,1.274,0.289c0.539,0.033,1.258,0.137,1.721,0.458c0.54,0.375,0.979,1.15,0.523,1.727
				c-0.334,0.423-1.023,0.334-1.143,0.942c-0.127,0.637,0.605,0.893,0.582,1.507C302.74,62.325,301.599,63.347,301.028,63.666z
				 M310.318,88.071c-0.582,0.127-1.039-0.148-1.504,0.344c-0.525,0.553-0.049,1.169-0.346,1.795
				c-0.357,0.755-1.23,1.012-1.914,0.626c-0.748-0.422-1.342-0.939-2.145-1.321c-0.845-0.4-1.436-1.02-1.099-2.037
				c0.188-0.563,1.202-1.519,1.796-1.607l-0.117-0.231c0.09,0.247,0.248,0.291,0.455,0.164c0.1-0.837,0.895-1.168,1.688-0.702
				c0.473,0.276,0.436,0.569,1.039,0.496c0.654-0.08,1.007-0.47,1.697-0.363c0.568,0.088,1.495,0.375,1.663,0.981
				C311.734,86.945,311.042,87.914,310.318,88.071z M317.746,76.616c-0.605,1.796-3.232,2.533-5.868,1.647
				c-2.638-0.887-4.286-3.061-3.682-4.856c0.602-1.796,3.229-2.533,5.866-1.646C316.699,72.646,318.347,74.82,317.746,76.616z"/>
		</g>
	</g>
	<g>
		<path fill="#FFFFFF" d="M368.261,256.638v54.777h-14.243v-54.777H368.261z"/>
		<path fill="#FFFFFF" d="M407.237,280.492h-14.243v-9.52c0-2.77-0.152-4.496-0.457-5.184c-0.305-0.686-0.977-1.029-2.014-1.029
			c-1.173,0-1.918,0.418-2.232,1.252c-0.316,0.834-0.475,2.639-0.475,5.412v25.443c0,2.662,0.158,4.398,0.475,5.211
			c0.314,0.813,1.025,1.219,2.131,1.219c1.061,0,1.754-0.406,2.081-1.221s0.491-2.725,0.491-5.732v-6.885h14.243v2.135
			c0,5.67-0.4,9.689-1.2,12.063c-0.802,2.371-2.572,4.449-5.313,6.234c-2.74,1.783-6.119,2.676-10.133,2.676
			c-4.174,0-7.613-0.756-10.32-2.266c-2.707-1.512-4.5-3.604-5.379-6.277c-0.88-2.672-1.32-6.693-1.32-12.061v-16.004
			c0-3.947,0.136-6.908,0.406-8.883c0.271-1.973,1.077-3.873,2.42-5.699c1.342-1.828,3.202-3.266,5.582-4.314
			c2.379-1.049,5.114-1.574,8.205-1.574c4.195,0,7.657,0.813,10.387,2.434c2.729,1.621,4.521,3.645,5.379,6.064
			c0.857,2.422,1.286,6.189,1.286,11.303V280.492z"/>
		<path fill="#FFFFFF" d="M439.854,280.865H427.74v-2.438c0-2.074-0.117-3.389-0.354-3.941s-0.829-0.828-1.776-0.828
			c-0.768,0-1.342,0.254-1.726,0.762c-0.384,0.506-0.575,1.268-0.575,2.283c0,1.375,0.096,2.385,0.287,3.027
			s0.768,1.348,1.727,2.115c0.958,0.768,2.926,1.883,5.903,3.35c3.97,1.939,6.575,3.768,7.815,5.48
			c1.24,1.715,1.861,4.207,1.861,7.479c0,3.654-0.474,6.41-1.421,8.271c-0.948,1.861-2.532,3.293-4.754,4.297
			s-4.9,1.506-8.036,1.506c-3.473,0-6.445-0.541-8.914-1.625c-2.471-1.082-4.168-2.547-5.093-4.396s-1.388-4.646-1.388-8.393v-2.164
			h12.113v2.842c0,2.414,0.152,3.98,0.457,4.703s0.907,1.082,1.811,1.082c0.969,0,1.646-0.242,2.029-0.727
			c0.383-0.486,0.575-1.506,0.575-3.063c0-2.143-0.249-3.484-0.744-4.027c-0.52-0.541-3.169-2.143-7.951-4.803
			c-4.015-2.256-6.462-4.303-7.342-6.141c-0.88-1.84-1.319-4.021-1.319-6.547c0-3.588,0.473-6.232,1.421-7.936
			c0.947-1.703,2.554-3.016,4.821-3.941c2.267-0.924,4.9-1.387,7.9-1.387c2.977,0,5.509,0.377,7.596,1.133
			c2.086,0.756,3.688,1.754,4.805,2.994c1.115,1.242,1.793,2.393,2.029,3.451c0.236,1.061,0.355,2.719,0.355,4.975V280.865z"/>
	</g>
</g>
</svg>
