<?xml version="1.0" encoding="utf-8"?>
<!-- Generator: Adobe Illustrator 16.0.0, SVG Export Plug-In . SVG Version: 6.00 Build 0)  -->
<!DOCTYPE svg PUBLIC "-//W3C//DTD SVG 1.1//EN" "http://www.w3.org/Graphics/SVG/1.1/DTD/svg11.dtd">
<svg version="1.1" id="Layer_1" xmlns="http://www.w3.org/2000/svg" xmlns:xlink="http://www.w3.org/1999/xlink" x="0px" y="0px"
	 width="513.797px" height="395.165px" viewBox="0 0 513.797 395.165" enable-background="new 0 0 513.797 395.165"
	 xml:space="preserve">
<g>
	<g>
		<g>
			<circle fill="none" stroke="#942BE5" stroke-miterlimit="10" cx="97.676" cy="201.083" r="77"/>
			<g>
				
					<linearGradient id="SVGID_1_" gradientUnits="userSpaceOnUse" x1="840.0566" y1="-377.3091" x2="858.4561" y2="-288.4842" gradientTransform="matrix(0.7071 -0.7071 0.7071 0.7071 -110.4628 909.2599)">
					<stop  offset="0" style="stop-color:#FFEC41"/>
					<stop  offset="0.1957" style="stop-color:#FFB44E"/>
					<stop  offset="0.4861" style="stop-color:#FF6860"/>
					<stop  offset="0.7264" style="stop-color:#FF306E"/>
					<stop  offset="0.9042" style="stop-color:#FF0D76"/>
					<stop  offset="1" style="stop-color:#FF0079"/>
				</linearGradient>
				<path fill="url(#SVGID_1_)" d="M352.367,7.051L193.643,165.775c-1.613,1.612-4.227,1.612-5.84,0l0,0
					c-1.613-1.612-1.613-4.228,0-5.841L346.527,1.21c1.613-1.613,4.229-1.613,5.84,0l0,0C353.98,2.823,353.98,5.438,352.367,7.051z"
					/>
				
					<linearGradient id="SVGID_2_" gradientUnits="userSpaceOnUse" x1="840.0566" y1="-357.3813" x2="858.4561" y2="-268.5565" gradientTransform="matrix(0.7071 -0.7071 0.7071 0.7071 -110.4628 909.2599)">
					<stop  offset="0" style="stop-color:#FFEC41"/>
					<stop  offset="0.1957" style="stop-color:#FFB44E"/>
					<stop  offset="0.4861" style="stop-color:#FF6860"/>
					<stop  offset="0.7264" style="stop-color:#FF306E"/>
					<stop  offset="0.9042" style="stop-color:#FF0D76"/>
					<stop  offset="1" style="stop-color:#FF0079"/>
				</linearGradient>
				<path fill="url(#SVGID_2_)" d="M366.457,21.141L207.733,179.866c-1.611,1.612-4.227,1.612-5.84,0l0,0
					c-1.613-1.613-1.613-4.229,0-5.841L360.617,15.3c1.613-1.612,4.229-1.612,5.84,0l0,0
					C368.07,16.913,368.07,19.528,366.457,21.141z"/>
				
					<linearGradient id="SVGID_3_" gradientUnits="userSpaceOnUse" x1="840.0566" y1="-337.4575" x2="858.4564" y2="-248.631" gradientTransform="matrix(0.7071 -0.7071 0.7071 0.7071 -110.4628 909.2599)">
					<stop  offset="0" style="stop-color:#FFEC41"/>
					<stop  offset="0.1957" style="stop-color:#FFB44E"/>
					<stop  offset="0.4861" style="stop-color:#FF6860"/>
					<stop  offset="0.7264" style="stop-color:#FF306E"/>
					<stop  offset="0.9042" style="stop-color:#FF0D76"/>
					<stop  offset="1" style="stop-color:#FF0079"/>
				</linearGradient>
				<path fill="url(#SVGID_3_)" d="M380.549,35.231L221.825,193.956c-1.613,1.613-4.229,1.613-5.842,0l0,0
					c-1.613-1.613-1.613-4.229,0-5.841L374.707,29.391c1.613-1.612,4.229-1.612,5.842,0l0,0
					C382.16,31.003,382.16,33.618,380.549,35.231z"/>
			</g>
			<g>
				
					<linearGradient id="SVGID_4_" gradientUnits="userSpaceOnUse" x1="741.0605" y1="-193.4609" x2="759.4603" y2="-104.6345" gradientTransform="matrix(0.7071 -0.7071 0.7071 0.7071 -110.4628 909.2599)">
					<stop  offset="0" style="stop-color:#FFEC41"/>
					<stop  offset="0.1957" style="stop-color:#FFB44E"/>
					<stop  offset="0.4861" style="stop-color:#FF6860"/>
					<stop  offset="0.7264" style="stop-color:#FF306E"/>
					<stop  offset="0.9042" style="stop-color:#FF0D76"/>
					<stop  offset="1" style="stop-color:#FF0079"/>
				</linearGradient>
				<path fill="url(#SVGID_4_)" d="M412.367,207.05L253.643,365.776c-1.613,1.613-4.227,1.613-5.84,0l0,0
					c-1.613-1.613-1.613-4.229,0-5.842L406.527,201.21c1.613-1.613,4.229-1.613,5.84,0l0,0
					C413.98,202.823,413.98,205.437,412.367,207.05z"/>
				
					<linearGradient id="SVGID_5_" gradientUnits="userSpaceOnUse" x1="741.0605" y1="-173.5337" x2="759.4603" y2="-84.7072" gradientTransform="matrix(0.7071 -0.7071 0.7071 0.7071 -110.4628 909.2599)">
					<stop  offset="0" style="stop-color:#FFEC41"/>
					<stop  offset="0.1957" style="stop-color:#FFB44E"/>
					<stop  offset="0.4861" style="stop-color:#FF6860"/>
					<stop  offset="0.7264" style="stop-color:#FF306E"/>
					<stop  offset="0.9042" style="stop-color:#FF0D76"/>
					<stop  offset="1" style="stop-color:#FF0079"/>
				</linearGradient>
				<path fill="url(#SVGID_5_)" d="M426.459,221.14L267.732,379.866c-1.611,1.613-4.227,1.613-5.84,0l0,0
					c-1.613-1.613-1.613-4.229,0-5.84l158.725-158.727c1.613-1.612,4.229-1.612,5.842,0l0,0
					C428.07,216.913,428.07,219.528,426.459,221.14z"/>
				
					<linearGradient id="SVGID_6_" gradientUnits="userSpaceOnUse" x1="741.0605" y1="-153.6074" x2="759.4603" y2="-64.7809" gradientTransform="matrix(0.7071 -0.7071 0.7071 0.7071 -110.4628 909.2599)">
					<stop  offset="0" style="stop-color:#FFEC41"/>
					<stop  offset="0.1957" style="stop-color:#FFB44E"/>
					<stop  offset="0.4861" style="stop-color:#FF6860"/>
					<stop  offset="0.7264" style="stop-color:#FF306E"/>
					<stop  offset="0.9042" style="stop-color:#FF0D76"/>
					<stop  offset="1" style="stop-color:#FF0079"/>
				</linearGradient>
				<path fill="url(#SVGID_6_)" d="M440.549,235.231L281.824,393.956c-1.613,1.613-4.229,1.613-5.842,0l0,0
					c-1.613-1.613-1.613-4.227,0-5.84L434.707,229.39c1.613-1.613,4.229-1.613,5.842,0l0,0
					C442.16,231.002,442.16,233.618,440.549,235.231z"/>
			</g>
			<g>
				<defs>
					<circle id="SVGID_7_" cx="144.49" cy="244.92" r="95.245"/>
				</defs>
				<clipPath id="SVGID_8_">
					<use xlink:href="#SVGID_7_"  overflow="visible"/>
				</clipPath>
				<g clip-path="url(#SVGID_8_)">
					
						<rect x="132.116" y="-120.311" transform="matrix(0.7074 0.7068 -0.7068 0.7074 117.442 -62.3228)" fill="#942BE5" width="3.75" height="461.978"/>
					
						<rect x="132.115" y="-102.311" transform="matrix(0.7071 0.7071 -0.7071 0.7071 130.2336 -57.0568)" fill="#942BE5" width="3.751" height="461.976"/>
					
						<rect x="132.115" y="-84.312" transform="matrix(0.7071 0.7071 -0.7071 0.7071 142.9609 -51.785)" fill="#942BE5" width="3.751" height="461.978"/>
					
						<rect x="132.115" y="-66.313" transform="matrix(0.7071 0.7071 -0.7071 0.7071 155.6881 -46.5132)" fill="#942BE5" width="3.751" height="461.976"/>
					
						<rect x="132.115" y="-48.314" transform="matrix(0.7071 0.7071 -0.7071 0.7071 168.4153 -41.2414)" fill="#942BE5" width="3.751" height="461.978"/>
					
						<rect x="132.116" y="-30.315" transform="matrix(0.7074 0.7068 -0.7068 0.7074 181.0554 -35.987)" fill="#942BE5" width="3.75" height="461.978"/>
					
						<rect x="132.115" y="-12.315" transform="matrix(0.7071 0.7071 -0.7071 0.7071 193.8701 -30.6977)" fill="#942BE5" width="3.751" height="461.977"/>
					
						<rect x="132.116" y="5.683" transform="matrix(0.7074 0.7068 -0.7068 0.7074 206.5005 -25.4528)" fill="#942BE5" width="3.75" height="461.978"/>
					
						<rect x="132.115" y="23.683" transform="matrix(0.7071 0.7071 -0.7071 0.7071 219.3246 -20.1541)" fill="#942BE5" width="3.751" height="461.977"/>
					
						<rect x="132.116" y="41.681" transform="matrix(0.7074 0.7068 -0.7068 0.7074 231.9456 -14.9186)" fill="#942BE5" width="3.75" height="461.978"/>
					
						<rect x="132.115" y="59.681" transform="matrix(0.7071 0.7071 -0.7071 0.7071 244.7791 -9.6105)" fill="#942BE5" width="3.751" height="461.977"/>
					
						<rect x="132.116" y="77.679" transform="matrix(0.7074 0.7068 -0.7068 0.7074 257.3907 -4.3844)" fill="#942BE5" width="3.75" height="461.978"/>
					
						<rect x="132.115" y="95.679" transform="matrix(0.7071 0.7071 -0.7071 0.7071 270.2335 0.933)" fill="#942BE5" width="3.751" height="461.977"/>
					
						<rect x="132.116" y="113.677" transform="matrix(0.7074 0.7068 -0.7068 0.7074 282.8357 6.1498)" fill="#942BE5" width="3.75" height="461.978"/>
					
						<rect x="132.115" y="131.678" transform="matrix(0.7071 0.7071 -0.7071 0.7071 295.6883 11.4768)" fill="#942BE5" width="3.751" height="461.976"/>
					
						<rect x="132.115" y="149.676" transform="matrix(0.7071 0.7071 -0.7071 0.7071 308.4154 16.7485)" fill="#942BE5" width="3.751" height="461.978"/>
					
						<rect x="132.115" y="167.675" transform="matrix(0.7071 0.7071 -0.7071 0.7071 321.1426 22.0203)" fill="#942BE5" width="3.751" height="461.977"/>
				</g>
			</g>
			<g>
				<defs>
					<circle id="SVGID_9_" cx="461.489" cy="244.92" r="34.187"/>
				</defs>
				<clipPath id="SVGID_10_">
					<use xlink:href="#SVGID_9_"  overflow="visible"/>
				</clipPath>
				<g clip-path="url(#SVGID_10_)">
					
						<rect x="457.047" y="113.829" transform="matrix(0.7078 0.7064 -0.7064 0.7078 272.7032 -265.8448)" fill="#942BE5" width="1.347" height="165.817"/>
					
						<rect x="457.047" y="120.291" transform="matrix(0.7071 0.7071 -0.7071 0.7071 277.7463 -264.142)" fill="#942BE5" width="1.348" height="165.816"/>
					
						<rect x="457.047" y="126.75" transform="matrix(0.7078 0.7064 -0.7064 0.7078 281.8299 -262.0699)" fill="#942BE5" width="1.347" height="165.816"/>
					
						<rect x="457.047" y="133.211" transform="matrix(0.7078 0.7064 -0.7064 0.7078 286.3938 -260.1822)" fill="#942BE5" width="1.347" height="165.816"/>
					
						<rect x="457.047" y="139.671" transform="matrix(0.7078 0.7064 -0.7064 0.7078 290.9573 -258.2946)" fill="#942BE5" width="1.347" height="165.817"/>
					
						<rect x="457.047" y="146.132" transform="matrix(0.7071 0.7071 -0.7071 0.7071 296.0189 -256.5732)" fill="#942BE5" width="1.348" height="165.816"/>
					
						<rect x="457.047" y="152.592" transform="matrix(0.7078 0.7064 -0.7064 0.7078 300.084 -254.5197)" fill="#942BE5" width="1.347" height="165.816"/>
					
						<rect x="457.047" y="159.052" transform="matrix(0.7078 0.7064 -0.7064 0.7078 304.6476 -252.6322)" fill="#942BE5" width="1.347" height="165.817"/>
					
						<rect x="457.047" y="165.513" transform="matrix(0.7071 0.7071 -0.7071 0.7071 309.7232 -250.8967)" fill="#942BE5" width="1.348" height="165.816"/>
					
						<rect x="457.047" y="171.973" transform="matrix(0.7078 0.7064 -0.7064 0.7078 313.7744 -248.8572)" fill="#942BE5" width="1.347" height="165.816"/>
					
						<rect x="457.047" y="178.433" transform="matrix(0.7078 0.7064 -0.7064 0.7078 318.3382 -246.9695)" fill="#942BE5" width="1.347" height="165.816"/>
					
						<rect x="457.047" y="184.893" transform="matrix(0.7078 0.7064 -0.7064 0.7078 322.9016 -245.0821)" fill="#942BE5" width="1.347" height="165.817"/>
					
						<rect x="457.047" y="191.354" transform="matrix(0.7071 0.7071 -0.7071 0.7071 327.996 -243.3279)" fill="#942BE5" width="1.348" height="165.817"/>
					
						<rect x="457.047" y="197.814" transform="matrix(0.7078 0.7064 -0.7064 0.7078 332.0283 -241.3071)" fill="#942BE5" width="1.347" height="165.817"/>
					
						<rect x="457.047" y="204.274" transform="matrix(0.7078 0.7064 -0.7064 0.7078 336.5919 -239.4196)" fill="#942BE5" width="1.347" height="165.817"/>
					
						<rect x="457.047" y="210.736" transform="matrix(0.7071 0.7071 -0.7071 0.7071 341.7006 -237.6512)" fill="#942BE5" width="1.348" height="165.816"/>
					
						<rect x="457.047" y="217.195" transform="matrix(0.7078 0.7064 -0.7064 0.7078 345.7186 -235.6447)" fill="#942BE5" width="1.347" height="165.817"/>
				</g>
			</g>
			<g>
				<defs>
					<circle id="SVGID_11_" cx="401.578" cy="118.978" r="66"/>
				</defs>
				<clipPath id="SVGID_12_">
					<use xlink:href="#SVGID_11_"  overflow="visible"/>
				</clipPath>
				<g clip-path="url(#SVGID_12_)">
					<g>
						<g>
							<circle fill="#FF2A8A" cx="411.249" cy="50.012" r="4.085"/>
							<circle fill="#FF2A8A" cx="427.28" cy="50.012" r="4.085"/>
							<circle fill="#FF2A8A" cx="443.31" cy="50.012" r="4.085"/>
							<circle fill="#FF2A8A" cx="459.339" cy="50.012" r="4.085"/>
							<circle fill="#FF2A8A" cx="475.369" cy="50.012" r="4.086"/>
							<circle fill="#FF2A8A" cx="491.399" cy="50.012" r="4.085"/>
							<circle fill="#FF2A8A" cx="507.429" cy="50.012" r="4.085"/>
						</g>
						<g>
							<circle fill="#FF2A8A" cx="411.249" cy="64.234" r="4.085"/>
							<circle fill="#FF2A8A" cx="427.28" cy="64.234" r="4.085"/>
							<circle fill="#FF2A8A" cx="443.31" cy="64.234" r="4.085"/>
							<circle fill="#FF2A8A" cx="459.339" cy="64.234" r="4.085"/>
							<circle fill="#FF2A8A" cx="475.369" cy="64.234" r="4.086"/>
							<circle fill="#FF2A8A" cx="491.399" cy="64.234" r="4.085"/>
							<circle fill="#FF2A8A" cx="507.429" cy="64.234" r="4.085"/>
						</g>
						<g>
							<circle fill="#FF2A8A" cx="411.249" cy="78.457" r="4.085"/>
							<circle fill="#FF2A8A" cx="427.28" cy="78.457" r="4.085"/>
							<circle fill="#FF2A8A" cx="443.31" cy="78.457" r="4.085"/>
							<circle fill="#FF2A8A" cx="459.339" cy="78.457" r="4.085"/>
							<circle fill="#FF2A8A" cx="475.369" cy="78.457" r="4.086"/>
							<circle fill="#FF2A8A" cx="491.399" cy="78.457" r="4.085"/>
							<circle fill="#FF2A8A" cx="507.429" cy="78.457" r="4.085"/>
						</g>
						<g>
							<circle fill="#FF2A8A" cx="411.249" cy="92.679" r="4.085"/>
							<circle fill="#FF2A8A" cx="427.28" cy="92.679" r="4.085"/>
							<circle fill="#FF2A8A" cx="443.31" cy="92.679" r="4.085"/>
							<circle fill="#FF2A8A" cx="459.339" cy="92.679" r="4.085"/>
							<circle fill="#FF2A8A" cx="475.369" cy="92.679" r="4.086"/>
							<circle fill="#FF2A8A" cx="491.399" cy="92.679" r="4.085"/>
							<circle fill="#FF2A8A" cx="507.429" cy="92.679" r="4.085"/>
						</g>
						<g>
							<circle fill="#FF2A8A" cx="411.249" cy="106.901" r="4.085"/>
							<circle fill="#FF2A8A" cx="427.28" cy="106.901" r="4.085"/>
							<circle fill="#FF2A8A" cx="443.31" cy="106.901" r="4.085"/>
							<circle fill="#FF2A8A" cx="459.339" cy="106.901" r="4.085"/>
							<circle fill="#FF2A8A" cx="475.369" cy="106.901" r="4.086"/>
							<circle fill="#FF2A8A" cx="491.399" cy="106.901" r="4.085"/>
							<circle fill="#FF2A8A" cx="507.429" cy="106.901" r="4.085"/>
						</g>
						<g>
							<circle fill="#FF2A8A" cx="411.249" cy="121.124" r="4.085"/>
							<circle fill="#FF2A8A" cx="427.28" cy="121.124" r="4.085"/>
							<circle fill="#FF2A8A" cx="443.31" cy="121.124" r="4.085"/>
							<circle fill="#FF2A8A" cx="459.339" cy="121.124" r="4.085"/>
							<circle fill="#FF2A8A" cx="475.369" cy="121.124" r="4.086"/>
							<circle fill="#FF2A8A" cx="491.399" cy="121.124" r="4.085"/>
							<circle fill="#FF2A8A" cx="507.429" cy="121.124" r="4.085"/>
						</g>
						<g>
							<circle fill="#FF2A8A" cx="411.249" cy="135.347" r="4.085"/>
							<circle fill="#FF2A8A" cx="427.28" cy="135.347" r="4.085"/>
							<circle fill="#FF2A8A" cx="443.31" cy="135.347" r="4.085"/>
							<circle fill="#FF2A8A" cx="459.339" cy="135.347" r="4.085"/>
							<circle fill="#FF2A8A" cx="475.369" cy="135.347" r="4.086"/>
							<circle fill="#FF2A8A" cx="491.399" cy="135.347" r="4.085"/>
							<circle fill="#FF2A8A" cx="507.429" cy="135.347" r="4.085"/>
						</g>
						<g>
							<circle fill="#FF2A8A" cx="411.249" cy="149.569" r="4.085"/>
							<circle fill="#FF2A8A" cx="427.28" cy="149.569" r="4.085"/>
							<circle fill="#FF2A8A" cx="443.31" cy="149.569" r="4.085"/>
							<circle fill="#FF2A8A" cx="459.339" cy="149.569" r="4.085"/>
							<circle fill="#FF2A8A" cx="475.369" cy="149.569" r="4.086"/>
							<circle fill="#FF2A8A" cx="491.399" cy="149.569" r="4.085"/>
							<circle fill="#FF2A8A" cx="507.429" cy="149.569" r="4.085"/>
						</g>
						<g>
							<circle fill="#FF2A8A" cx="411.249" cy="163.792" r="4.085"/>
							<circle fill="#FF2A8A" cx="427.28" cy="163.792" r="4.085"/>
							<circle fill="#FF2A8A" cx="443.31" cy="163.792" r="4.085"/>
							<circle fill="#FF2A8A" cx="459.339" cy="163.792" r="4.085"/>
							<circle fill="#FF2A8A" cx="475.369" cy="163.792" r="4.086"/>
							<circle fill="#FF2A8A" cx="491.399" cy="163.792" r="4.085"/>
							<circle fill="#FF2A8A" cx="507.429" cy="163.792" r="4.085"/>
						</g>
						<g>
							<circle fill="#FF2A8A" cx="411.249" cy="178.015" r="4.085"/>
							<circle fill="#FF2A8A" cx="427.28" cy="178.015" r="4.085"/>
							<circle fill="#FF2A8A" cx="443.31" cy="178.015" r="4.085"/>
							<circle fill="#FF2A8A" cx="459.339" cy="178.015" r="4.085"/>
							<circle fill="#FF2A8A" cx="475.369" cy="178.015" r="4.086"/>
							<circle fill="#FF2A8A" cx="491.399" cy="178.015" r="4.085"/>
							<circle fill="#FF2A8A" cx="507.429" cy="178.015" r="4.085"/>
						</g>
						<g>
							<circle fill="#FF2A8A" cx="411.249" cy="192.237" r="4.085"/>
							<circle fill="#FF2A8A" cx="427.28" cy="192.237" r="4.085"/>
							<circle fill="#FF2A8A" cx="443.31" cy="192.237" r="4.085"/>
							<circle fill="#FF2A8A" cx="459.339" cy="192.237" r="4.085"/>
							<circle fill="#FF2A8A" cx="475.369" cy="192.237" r="4.086"/>
							<circle fill="#FF2A8A" cx="491.399" cy="192.237" r="4.085"/>
							<circle fill="#FF2A8A" cx="507.429" cy="192.237" r="4.085"/>
						</g>
					</g>
					<g>
						<g>
							<circle fill="#FF2A8A" cx="282.511" cy="50.012" r="4.085"/>
							<circle fill="#FF2A8A" cx="298.542" cy="50.012" r="4.085"/>
							<circle fill="#FF2A8A" cx="314.571" cy="50.012" r="4.085"/>
							<circle fill="#FF2A8A" cx="330.601" cy="50.012" r="4.085"/>
							<circle fill="#FF2A8A" cx="346.63" cy="50.012" r="4.085"/>
							<circle fill="#FF2A8A" cx="362.661" cy="50.012" r="4.085"/>
							<circle fill="#FF2A8A" cx="378.69" cy="50.012" r="4.085"/>
							<circle fill="#FF2A8A" cx="394.72" cy="50.012" r="4.085"/>
						</g>
						<g>
							<circle fill="#FF2A8A" cx="282.511" cy="64.234" r="4.085"/>
							<circle fill="#FF2A8A" cx="298.542" cy="64.234" r="4.085"/>
							<circle fill="#FF2A8A" cx="314.571" cy="64.234" r="4.085"/>
							<circle fill="#FF2A8A" cx="330.601" cy="64.234" r="4.085"/>
							<circle fill="#FF2A8A" cx="346.63" cy="64.234" r="4.085"/>
							<circle fill="#FF2A8A" cx="362.661" cy="64.234" r="4.085"/>
							<circle fill="#FF2A8A" cx="378.69" cy="64.234" r="4.085"/>
							<circle fill="#FF2A8A" cx="394.72" cy="64.234" r="4.085"/>
						</g>
						<g>
							<circle fill="#FF2A8A" cx="282.511" cy="78.457" r="4.085"/>
							<circle fill="#FF2A8A" cx="298.542" cy="78.457" r="4.085"/>
							<circle fill="#FF2A8A" cx="314.571" cy="78.457" r="4.085"/>
							<circle fill="#FF2A8A" cx="330.601" cy="78.457" r="4.085"/>
							<circle fill="#FF2A8A" cx="346.63" cy="78.457" r="4.085"/>
							<circle fill="#FF2A8A" cx="362.661" cy="78.457" r="4.085"/>
							<circle fill="#FF2A8A" cx="378.69" cy="78.457" r="4.085"/>
							<circle fill="#FF2A8A" cx="394.72" cy="78.457" r="4.085"/>
						</g>
						<g>
							<circle fill="#FF2A8A" cx="282.511" cy="92.679" r="4.085"/>
							<circle fill="#FF2A8A" cx="298.542" cy="92.679" r="4.085"/>
							<circle fill="#FF2A8A" cx="314.571" cy="92.679" r="4.085"/>
							<circle fill="#FF2A8A" cx="330.601" cy="92.679" r="4.085"/>
							<circle fill="#FF2A8A" cx="346.63" cy="92.679" r="4.085"/>
							<circle fill="#FF2A8A" cx="362.661" cy="92.679" r="4.085"/>
							<circle fill="#FF2A8A" cx="378.69" cy="92.679" r="4.085"/>
							<circle fill="#FF2A8A" cx="394.72" cy="92.679" r="4.085"/>
						</g>
						<g>
							<circle fill="#FF2A8A" cx="282.511" cy="106.901" r="4.085"/>
							<circle fill="#FF2A8A" cx="298.542" cy="106.901" r="4.085"/>
							<circle fill="#FF2A8A" cx="314.571" cy="106.901" r="4.085"/>
							<circle fill="#FF2A8A" cx="330.601" cy="106.901" r="4.085"/>
							<circle fill="#FF2A8A" cx="346.63" cy="106.901" r="4.085"/>
							<circle fill="#FF2A8A" cx="362.661" cy="106.901" r="4.085"/>
							<circle fill="#FF2A8A" cx="378.69" cy="106.901" r="4.085"/>
							<circle fill="#FF2A8A" cx="394.72" cy="106.901" r="4.085"/>
						</g>
						<g>
							<circle fill="#FF2A8A" cx="282.511" cy="121.124" r="4.085"/>
							<circle fill="#FF2A8A" cx="298.542" cy="121.124" r="4.085"/>
							<circle fill="#FF2A8A" cx="314.571" cy="121.124" r="4.085"/>
							<circle fill="#FF2A8A" cx="330.601" cy="121.124" r="4.085"/>
							<circle fill="#FF2A8A" cx="346.63" cy="121.124" r="4.085"/>
							<circle fill="#FF2A8A" cx="362.661" cy="121.124" r="4.085"/>
							<circle fill="#FF2A8A" cx="378.69" cy="121.124" r="4.085"/>
							<circle fill="#FF2A8A" cx="394.72" cy="121.124" r="4.085"/>
						</g>
						<g>
							<circle fill="#FF2A8A" cx="282.511" cy="135.347" r="4.085"/>
							<circle fill="#FF2A8A" cx="298.542" cy="135.347" r="4.085"/>
							<circle fill="#FF2A8A" cx="314.571" cy="135.347" r="4.085"/>
							<circle fill="#FF2A8A" cx="330.601" cy="135.347" r="4.085"/>
							<circle fill="#FF2A8A" cx="346.63" cy="135.347" r="4.085"/>
							<circle fill="#FF2A8A" cx="362.661" cy="135.347" r="4.085"/>
							<circle fill="#FF2A8A" cx="378.69" cy="135.347" r="4.085"/>
							<circle fill="#FF2A8A" cx="394.72" cy="135.347" r="4.085"/>
						</g>
						<g>
							<circle fill="#FF2A8A" cx="282.511" cy="149.569" r="4.085"/>
							<circle fill="#FF2A8A" cx="298.542" cy="149.569" r="4.085"/>
							<circle fill="#FF2A8A" cx="314.571" cy="149.569" r="4.085"/>
							<circle fill="#FF2A8A" cx="330.601" cy="149.569" r="4.085"/>
							<circle fill="#FF2A8A" cx="346.63" cy="149.569" r="4.085"/>
							<circle fill="#FF2A8A" cx="362.661" cy="149.569" r="4.085"/>
							<circle fill="#FF2A8A" cx="378.69" cy="149.569" r="4.085"/>
							<circle fill="#FF2A8A" cx="394.72" cy="149.569" r="4.085"/>
						</g>
						<g>
							<circle fill="#FF2A8A" cx="282.511" cy="163.792" r="4.085"/>
							<circle fill="#FF2A8A" cx="298.542" cy="163.792" r="4.085"/>
							<circle fill="#FF2A8A" cx="314.571" cy="163.792" r="4.085"/>
							<circle fill="#FF2A8A" cx="330.601" cy="163.792" r="4.085"/>
							<circle fill="#FF2A8A" cx="346.63" cy="163.792" r="4.085"/>
							<circle fill="#FF2A8A" cx="362.661" cy="163.792" r="4.085"/>
							<circle fill="#FF2A8A" cx="378.69" cy="163.792" r="4.085"/>
							<circle fill="#FF2A8A" cx="394.72" cy="163.792" r="4.085"/>
						</g>
						<g>
							<circle fill="#FF2A8A" cx="282.511" cy="178.015" r="4.085"/>
							<circle fill="#FF2A8A" cx="298.542" cy="178.015" r="4.085"/>
							<circle fill="#FF2A8A" cx="314.571" cy="178.015" r="4.085"/>
							<circle fill="#FF2A8A" cx="330.601" cy="178.015" r="4.085"/>
							<circle fill="#FF2A8A" cx="346.63" cy="178.015" r="4.085"/>
							<circle fill="#FF2A8A" cx="362.661" cy="178.015" r="4.085"/>
							<circle fill="#FF2A8A" cx="378.69" cy="178.015" r="4.085"/>
							<circle fill="#FF2A8A" cx="394.72" cy="178.015" r="4.085"/>
						</g>
						<g>
							<circle fill="#FF2A8A" cx="282.511" cy="192.237" r="4.085"/>
							<circle fill="#FF2A8A" cx="298.542" cy="192.237" r="4.085"/>
							<circle fill="#FF2A8A" cx="314.571" cy="192.237" r="4.085"/>
							<circle fill="#FF2A8A" cx="330.601" cy="192.237" r="4.085"/>
							<circle fill="#FF2A8A" cx="346.63" cy="192.237" r="4.085"/>
							<circle fill="#FF2A8A" cx="362.661" cy="192.237" r="4.085"/>
							<circle fill="#FF2A8A" cx="378.69" cy="192.237" r="4.085"/>
							<circle fill="#FF2A8A" cx="394.72" cy="192.237" r="4.085"/>
						</g>
					</g>
				</g>
			</g>
			<linearGradient id="SVGID_13_" gradientUnits="userSpaceOnUse" x1="166.9155" y1="-63.0024" x2="348.9153" y2="424.9982">
				<stop  offset="1.100000e-007" style="stop-color:#8A2A8A"/>
				<stop  offset="0.3198" style="stop-color:#872A89"/>
				<stop  offset="0.5104" style="stop-color:#7F2A88"/>
				<stop  offset="0.6672" style="stop-color:#702A85"/>
				<stop  offset="0.8055" style="stop-color:#5C2982"/>
				<stop  offset="0.9306" style="stop-color:#42297E"/>
				<stop  offset="1" style="stop-color:#30297B"/>
			</linearGradient>
			<circle fill="url(#SVGID_13_)" cx="261.676" cy="191.083" r="164"/>
			<linearGradient id="SVGID_14_" gradientUnits="userSpaceOnUse" x1="109.2222" y1="-61.4888" x2="152.7203" y2="148.5022">
				<stop  offset="0" style="stop-color:#FFEC41"/>
				<stop  offset="0.1957" style="stop-color:#FFB44E"/>
				<stop  offset="0.4861" style="stop-color:#FF6860"/>
				<stop  offset="0.7264" style="stop-color:#FF306E"/>
				<stop  offset="0.9042" style="stop-color:#FF0D76"/>
				<stop  offset="1" style="stop-color:#FF0079"/>
			</linearGradient>
			<circle fill="url(#SVGID_14_)" cx="137.74" cy="76.18" r="34.499"/>
			<linearGradient id="SVGID_15_" gradientUnits="userSpaceOnUse" x1="3.6299" y1="114.6348" x2="30.0266" y2="242.067">
				<stop  offset="0" style="stop-color:#FFEC41"/>
				<stop  offset="0.1957" style="stop-color:#FFB44E"/>
				<stop  offset="0.4861" style="stop-color:#FF6860"/>
				<stop  offset="0.7264" style="stop-color:#FF306E"/>
				<stop  offset="0.9042" style="stop-color:#FF0D76"/>
				<stop  offset="1" style="stop-color:#FF0079"/>
			</linearGradient>
			<path fill="url(#SVGID_15_)" d="M20.936,177.244C9.374,177.244,0,186.617,0,198.18c0,11.562,9.373,20.935,20.936,20.935
				s20.936-9.373,20.936-20.935C41.872,186.617,32.499,177.244,20.936,177.244z M20.936,213.918
				c-8.693,0-15.738-7.047-15.738-15.739c0-8.692,7.045-15.739,15.738-15.739s15.74,7.047,15.74,15.739
				C36.676,206.872,29.629,213.918,20.936,213.918z"/>
			<path fill="#942BE5" d="M475.936,166.244c-8.801,0-15.936,7.135-15.936,15.936c0,8.802,7.135,15.937,15.936,15.937
				s15.936-7.135,15.936-15.937C491.871,173.379,484.736,166.244,475.936,166.244z M475.936,194.16
				c-6.617,0-11.98-5.364-11.98-11.98s5.363-11.98,11.98-11.98s11.98,5.364,11.98,11.98S482.553,194.16,475.936,194.16z"/>
			
				<linearGradient id="SVGID_16_" gradientUnits="userSpaceOnUse" x1="1447.2432" y1="34.7739" x2="1459.8699" y2="95.7305" gradientTransform="matrix(0 -1 1 0 417.5591 1766.2378)">
				<stop  offset="0" style="stop-color:#FFEC41"/>
				<stop  offset="0.1957" style="stop-color:#FFB44E"/>
				<stop  offset="0.4861" style="stop-color:#FF6860"/>
				<stop  offset="0.7264" style="stop-color:#FF306E"/>
				<stop  offset="0.9042" style="stop-color:#FF0D76"/>
				<stop  offset="1" style="stop-color:#FF0079"/>
			</linearGradient>
			<path fill="url(#SVGID_16_)" d="M482.797,283.272L482.797,283.272c0,1.309,0.986,2.406,2.287,2.545
				c13.26,1.41,23.592,12.631,23.592,26.266c0,13.637-10.332,24.857-23.592,26.268c-1.301,0.139-2.287,1.236-2.287,2.543l0,0
				c0,1.52,1.316,2.709,2.828,2.549c15.836-1.68,28.172-15.078,28.172-31.359s-12.336-29.678-28.172-31.359
				C484.113,280.563,482.797,281.752,482.797,283.272z"/>
			<circle fill="#942BE5" cx="169.008" cy="25.749" r="10"/>
			<g>
				<g opacity="0.61">
					<g>
						<g>
							<g opacity="0.68">
								<g opacity="0.47">
									<path fill="#AEADE7" d="M80.882,161.485c1.81-17.515,10.519-35.059,25.6-47.597c23.5-19.536,59.048-24.46,90.203-19.944
										c13.05,1.892,25.991,5.242,39.353,4.188c19.488-1.537,36.656-12.082,54.398-19.813
										c24.152-10.522,51.84-16.185,77.518-11.606c29.113,5.191,52.984,24.801,55.832,50.818
										c1.291,11.789-11.824,32.558-7.686,43.73c4.199,11.332,34.848,46.041,34.092,72.442
										c-0.752,26.303-7.811,34.484-17.787,47.852h-7.973H123.963h-17.294c-6.212-13.545-11.077-24.379-3.806-42.166
										c5.812-14.211-9.975-25.916-16.083-39.144C81.346,188.472,79.555,174.313,80.882,161.485z"/>
								</g>
							</g>
							<g opacity="0.41">
								<path fill="#AEADE7" d="M226.09,73.954c-3.002-4.451-9.041-5.742-13.49-2.884c-4.449,2.857-8.713,10.77-5.711,15.221
									c3,4.451,10.133,0.213,15.478-0.14C229.822,85.66,229.091,78.406,226.09,73.954z"/>
							</g>
						</g>
						<g opacity="0.43">
							<g>
								<path fill="#AEADE7" d="M101.817,266.059c-3.175-15.361,1.913-28.465,3.183-43.528c1.201-14.261-4.002-26.253-6.888-39.836
									c-2.57-12.087-1.714-25.778,1.512-37.659c4.402-16.22,14.543-31.238,29.151-40.396
									c22.765-14.267,53.122-12.586,78.269-2.773c10.531,4.11,20.732,9.581,32.012,10.964c16.451,2.018,32.462-4.886,48.49-9.026
									c21.814-5.637,45.762-6.055,66.344,2.842c23.336,10.088,39.93,32.86,37.99,57.94c-0.877,11.364-5.371,22.58-3.781,33.869
									c1.613,11.45,8.602,21.029,12.301,31.812c5.049,14.72,5.51,36.353-2.609,51.288H107.281
									C104.775,276.672,102.928,271.442,101.817,266.059z"/>
							</g>
						</g>
						<g>
							<g>
								<g opacity="0.47">
									<path fill="#AEADE7" d="M155.835,217.93c0.928-9.28,5.389-18.576,13.115-25.219c12.04-10.352,30.252-12.961,46.214-10.568
										c6.686,1.002,13.315,2.778,20.161,2.22c9.983-0.815,18.778-6.402,27.87-10.499c12.373-5.575,26.559-8.575,39.713-6.15
										c14.916,2.752,27.145,13.142,28.604,26.928c0.662,6.248-6.057,17.251-3.938,23.172c2.15,6.004,17.854,24.396,17.467,38.387
										c-0.387,13.938-4.002,18.271-9.113,25.355h-4.084H177.907h-8.859c-3.182-7.178-5.676-12.918-1.949-22.344
										c2.977-7.529-5.111-13.732-8.24-20.742C156.073,232.231,155.157,224.728,155.835,217.93z"/>
								</g>
							</g>
						</g>
					</g>
				</g>
				<g>
					<g>
						<path fill="#390028" d="M260.049,153.578c0.98-2.859,2.963-5.33,5.455-7.021c0.318-0.217,0.646-0.421,0.982-0.612
							c1.004-0.571,2.078-1.023,3.193-1.332c1.49-0.414,2.889-0.429,3.805-1.895c0.502-0.806,0.602-1.786,0.723-2.728
							c0.598-4.685,2.354-8.893,6.023-12c5.264-4.459,14.17-7.115,22.766-7.978c6.979-0.698,17.145,0.855,23.752,9.803
							c1.006,1.365,1.428,3.071,0.947,4.697c-0.008,0.028-0.018,0.061-0.025,0.089c-0.152,0.505-0.352,1.07-0.596,1.677l3.385,2.785
							c3.387,2.787,4.479,7.499,2.668,11.492l-1.445,3.182c0.133,0.142,0.26,0.279,0.375,0.411c0.537,0.617,1.115,1.312,1.723,2.081
							c2.674,2.909,4.352,6.526,4.545,10.516c0.285,5.873-2.68,11.261-7.541,14.916c-5.945,4.473-11.729,9.139-16.621,14.446
							c-4.092,4.438-10.469,7.336-17.697,7.339c-8.9,0.005-16.785-4.656-20.074-11.397c-5.025-2.668-8.729-7.035-9.859-12.211
							c-0.303-1.379-0.438-2.818-0.336-4.229c0.09-1.241,0.605-2.496,0.307-3.75c-0.367-1.542-1.771-2.564-2.914-3.663
							C259.77,164.529,258.332,158.586,260.049,153.578z"/>
						<g>
							<g>
								<g>
									<path fill="#A74F30" d="M294.504,154.837c19.447,0.686,27.441-13.454,29.279-19.572c0.979,1.678,1.66,3.565,1.955,5.606
										l3.58,24.808c0.541,3.763-0.314,7.404-2.176,10.401l0,0c-2.131,4.716-6.547,8.279-12.051,9.074l-0.977,0.141l0.027,5.048
										c0.029,5.386-4.354,9.813-9.738,9.843l-3.102,0.016c-5.385,0.029-9.814-4.354-9.842-9.738l-0.117-22.072
										c-0.002-0.372,0.021-0.739,0.061-1.102l-2.033,0.293c-3.52,0.509-6.816-1.957-7.324-5.479
										c-0.508-3.521,1.957-6.816,5.479-7.325l2.279-0.329l-0.035-0.248C291.139,154.552,292.703,154.773,294.504,154.837z"/>
								</g>
								<path opacity="0.32" fill="#852B0F" d="M293.705,170.816c1.225,8.489,9.1,14.379,17.59,13.154l4.869-0.703
									c4.725-0.682,8.643-3.426,10.979-7.188c-2.131,4.716-6.547,8.279-12.051,9.074l-1.07,0.154
									c0.029,0.178,0.051,0.358,0.051,0.542c0,2.305-2.475,4.173-5.529,4.173s-5.529-1.868-5.529-4.173
									c0-0.203,0.025-0.403,0.063-0.6c-5.488-1.794-9.773-6.563-10.654-12.666l-0.77-5.331l1.508-0.219L293.705,170.816z"/>
							</g>
						</g>
					</g>
					<g>
						<g>
							<path fill="#FFFFFF" d="M266.594,200.612c2.947-4.929,8-8.197,13.764-8.243l9.572-0.073l13.381,6.96l8.723-7.144
								c2.068-0.017,3.996,0.072,5.785,0.277l40.836-7.944l-8.193-19.487c-0.504-1.202,0.244-2.561,1.527-2.776l18.523-3.12
								c0.949-0.162,1.891,0.327,2.305,1.199l11.297,23.854c5.512,8.207,1.785,19.409-7.545,22.68l-37.836,16.67l-0.215,0.813
								l4.324,11.824c1.896,5.187,1.295,11.073-1.602,15.657l-3.926,6.211l-1.535,23.615l-92.285,0.025l-2.092-49.506
								L266.594,200.612z"/>
							<path fill="#EFF7FE" d="M333.506,205.036l9.385,16.553l-4.373,2.688l-4.137-11.314
								C334.357,209.939,334.063,207.311,333.506,205.036z"/>
						</g>
						<g>
							<g>
								<path fill="#A74F30" d="M369.35,159.3l0.111-2.644c1.742-3.781,0.627-9.48-0.578-13.478c-0.01-0.027,0,0,0,0l-2.809,0.86
									c0,0-11.764-7.239-17.984-3.981c-2.393,1.254,0.818,17.902,4.199,22.362L369.35,159.3z"/>
							</g>
							<path opacity="0.32" fill="#852B0F" d="M359.215,140.881c0,0,0.061,0.057,0.168,0.161c1.42,1.388,11.217,11.406,1.545,14.651
								c-10.402,3.488-11.324-5.793-11.324-5.793"/>
							<g>
								<g>
									<path fill="#DFF5FF" d="M357.236,165.52L357.236,165.52c2.559-0.258,4.424-2.542,4.164-5.101l-3.129-30.934l-9.266,0.937
										l3.129,30.934C352.393,163.914,354.678,165.779,357.236,165.52z"/>
									<path opacity="0.43" fill="#FFFFFF" d="M357.002,163.271L357.002,163.271c2.1-0.213,3.605-2.328,3.363-4.726l-2.932-28.976
										l-7.602,0.769l2.93,28.976C353.006,161.712,354.904,163.482,357.002,163.271z"/>
									<path fill="#9F9FDD" d="M356.842,161.617L356.842,161.617c1.916-0.193,3.313-1.904,3.119-3.821l-2.344-23.175l-6.941,0.703
										l2.344,23.174C353.213,160.415,354.924,161.812,356.842,161.617z"/>
									<path fill="#C5E4EF" d="M349.418,130.933l8.482-0.857c1.023-0.104,1.77-1.018,1.666-2.041l0,0
										c-0.104-1.023-1.018-1.77-2.041-1.666l-8.482,0.857c-1.023,0.104-1.77,1.017-1.666,2.041l0,0
										C347.48,130.29,348.395,131.036,349.418,130.933z"/>
								</g>
								<circle opacity="0.43" fill="#FFFFFF" cx="354.143" cy="142.371" r="0.424"/>
								<circle opacity="0.43" fill="#FFFFFF" cx="356.91" cy="147.588" r="0.424"/>
								<circle opacity="0.43" fill="#FFFFFF" cx="353.719" cy="150.361" r="0.424"/>
							</g>
							<g>
								<g>
									<g>
										<path opacity="0.32" fill="#852B0F" d="M368.414,141.782l0.465,0.405c0.912,0.797,1.006,2.195,0.209,3.107l-3.121,3.574
											c-0.797,0.912-2.195,1.007-3.107,0.21l-0.463-0.405c-0.912-0.797-1.008-2.194-0.211-3.107l3.123-3.574
											C366.105,141.081,367.502,140.986,368.414,141.782z"/>
										<g>
											<path fill="#A74F30" d="M367.152,135.7L367.152,135.7c0.996,0.87,1.1,2.398,0.229,3.395l-5.365,6.143
												c-0.871,0.997-2.398,1.1-3.395,0.229l0,0c-0.998-0.871-1.1-2.399-0.229-3.396l5.365-6.142
												C364.629,134.933,366.156,134.829,367.152,135.7z"/>
										</g>
										<g>
											<path fill="#A74F30" d="M363.529,132.535L363.529,132.535c0.996,0.869,1.1,2.397,0.229,3.395l-5.365,6.142
												c-0.871,0.996-2.398,1.101-3.396,0.229l0,0c-0.996-0.87-1.1-2.398-0.229-3.395l5.365-6.143
												C361.004,131.768,362.531,131.663,363.529,132.535z"/>
										</g>
										<g>
											<path fill="#A74F30" d="M369.26,140.502L369.26,140.502c0.996,0.871,1.1,2.398,0.229,3.396l-3.229,3.694
												c-0.869,0.996-2.396,1.101-3.395,0.229l0,0c-0.996-0.869-1.1-2.397-0.229-3.395l3.229-3.694
												C366.736,139.735,368.264,139.632,369.26,140.502z"/>
										</g>
									</g>
								</g>
							</g>
							<path fill="#A74F30" d="M347.529,145.146c2.832-1.195,6.951-2.319,10.121-0.652c0,0,2.393,1.652-0.174,3.279
								s-6.701,3.133-7.781,4.851c-0.963,1.531-2.557-0.541-3.793-2.687C344.889,148.18,345.658,145.934,347.529,145.146z"/>
						</g>
						<g>
							<path fill="#FFA97C" d="M290.504,185.909L290.504,185.909c6.729,0,12.232,5.226,12.686,11.84
								c0.453-6.614,5.959-11.84,12.688-11.84c0,0,0.877,2.854,0.719,6.262h0.02l0.123,3.875l-8.502,40.086
								c-0.189,0.968-1.523,1.089-1.885,0.172l-15.787-39.534c-0.156-0.39-0.232-0.802-0.24-1.213
								C288.973,190.896,290.504,185.909,290.504,185.909z"/>
							<g>
								<path opacity="0.54" fill="#74CAF3" d="M311.328,236.436c0.096,0,0.189-0.049,0.242-0.139l14.408-24.532
									c0.17-0.288,0.215-0.625,0.127-0.946c-0.088-0.323-0.297-0.59-0.588-0.753l-5.047-2.826l7.531-4.583
									c0.287-0.174,0.465-0.465,0.49-0.799c0.027-0.334-0.105-0.649-0.359-0.865l-7.357-6.231
									c-0.119-0.099-0.295-0.085-0.395,0.033c-0.1,0.117-0.086,0.294,0.031,0.394l7.357,6.232
									c0.117,0.099,0.178,0.241,0.166,0.395c-0.012,0.152-0.094,0.285-0.225,0.364l-8.35,5.08l5.885,3.295
									c0.158,0.089,0.271,0.234,0.32,0.41c0.047,0.176,0.023,0.359-0.07,0.517l-14.408,24.533c-0.078,0.133-0.033,0.305,0.1,0.383
									C311.232,236.423,311.281,236.436,311.328,236.436z"/>
								<path opacity="0.54" fill="#74CAF3" d="M301.559,237.93c0.059,0,0.117-0.018,0.166-0.055
									c0.125-0.092,0.15-0.266,0.061-0.391l-18.439-25.101c-0.092-0.139-0.125-0.321-0.086-0.499
									c0.041-0.179,0.146-0.329,0.303-0.426l5.725-3.562l-8.574-4.69c-0.135-0.073-0.223-0.202-0.24-0.354
									c-0.02-0.152,0.033-0.298,0.146-0.402l7.063-6.564c0.113-0.104,0.119-0.281,0.014-0.395s-0.281-0.12-0.395-0.015
									l-7.063,6.564c-0.246,0.227-0.363,0.549-0.32,0.881c0.041,0.332,0.232,0.613,0.525,0.774l7.734,4.23l-4.91,3.056
									c-0.285,0.178-0.48,0.454-0.553,0.779c-0.072,0.326-0.012,0.66,0.17,0.939l18.449,25.112
									C301.389,237.891,301.473,237.93,301.559,237.93z"/>
								<g>
									<path fill="#74CAF3" d="M272.313,242.627v-2.854c0-0.361,0.295-0.656,0.658-0.656h17.992c0.361,0,0.658,0.295,0.658,0.656
										v2.854c0,0.363-0.297,0.658-0.658,0.658h-17.992C272.607,243.286,272.313,242.991,272.313,242.627z M272.971,239.676
										c-0.055,0-0.1,0.045-0.1,0.098v2.854c0,0.055,0.045,0.1,0.1,0.1h17.992c0.055,0,0.098-0.045,0.098-0.1v-2.854
										c0-0.053-0.043-0.098-0.098-0.098H272.971z"/>
								</g>
							</g>
							<path fill="#FFFFFF" d="M303.359,207.681c0.002,0,0.004,0,0.004,0c0.156-0.003,0.277-0.13,0.275-0.284l-0.197-10.993
								c-0.004-0.156-0.117-0.263-0.285-0.275c-0.154,0.003-0.277,0.13-0.275,0.284l0.199,10.994
								C303.082,207.56,303.207,207.681,303.359,207.681z"/>
						</g>
					</g>
				</g>
				<g opacity="0.52">
					<g>
						<path fill="#FFFFFF" d="M260.361,119.97c-1.322-0.164-2.501-0.832-3.321-1.883c-0.818-1.051-1.179-2.357-1.015-3.68
							c0.162-1.322,0.832-2.502,1.882-3.319c1.051-0.819,2.354-1.181,3.68-1.017c1.322,0.163,2.502,0.833,3.32,1.883
							c0.818,1.051,1.18,2.358,1.016,3.681c-0.313,2.521-2.467,4.373-4.945,4.373C260.773,120.008,260.568,119.996,260.361,119.97z
							 M258.596,111.97c-0.814,0.636-1.333,1.55-1.46,2.575l0,0c-0.127,1.025,0.152,2.039,0.789,2.854
							c0.635,0.815,1.549,1.334,2.574,1.461c2.121,0.259,4.053-1.247,4.314-3.362c0.127-1.026-0.152-2.039-0.787-2.854
							c-0.635-0.814-1.551-1.333-2.576-1.461c-0.162-0.021-0.322-0.03-0.482-0.03C260.109,111.151,259.281,111.435,258.596,111.97z"
							/>
						
							<rect x="263.555" y="108.927" transform="matrix(-0.7752 0.6318 -0.6318 -0.7752 545.6355 24.7918)" fill="#FFFFFF" width="9.703" height="1.12"/>
						<path fill="#FFFFFF" d="M272.746,107.678c-1.158-0.144-1.982-1.202-1.84-2.359c0.07-0.561,0.354-1.061,0.799-1.407
							c0.445-0.348,0.998-0.502,1.561-0.43c0.561,0.068,1.061,0.352,1.408,0.797c0.348,0.446,0.5,1,0.43,1.561
							c-0.133,1.07-1.045,1.855-2.096,1.855C272.92,107.694,272.834,107.689,272.746,107.678z M272.393,104.794
							c-0.209,0.163-0.344,0.398-0.375,0.662c-0.068,0.545,0.32,1.044,0.865,1.111c0.551,0.067,1.043-0.321,1.111-0.866
							c0.033-0.264-0.039-0.524-0.203-0.734s-0.398-0.343-0.662-0.375c-0.043-0.006-0.084-0.009-0.125-0.009
							C272.783,104.583,272.57,104.656,272.393,104.794z"/>
						
							<rect x="250.383" y="118.809" transform="matrix(-0.8724 0.4887 -0.4887 -0.8724 534.0272 99.3525)" fill="#FFFFFF" width="7.329" height="1.119"/>
						<path fill="#FFFFFF" d="M249.741,123.127c-0.889-0.196-1.451-1.079-1.255-1.967c0.095-0.431,0.353-0.798,0.724-1.036
							c0.373-0.236,0.814-0.314,1.244-0.219l0,0c0.43,0.096,0.798,0.352,1.034,0.724c0.237,0.371,0.315,0.813,0.221,1.244
							s-0.353,0.798-0.724,1.034c-0.27,0.172-0.574,0.26-0.885,0.26C249.981,123.167,249.86,123.153,249.741,123.127z
							 M249.811,121.068c-0.119,0.076-0.202,0.194-0.232,0.334c-0.063,0.284,0.118,0.569,0.403,0.633
							c0.14,0.029,0.281,0.005,0.401-0.071c0.119-0.076,0.201-0.194,0.232-0.332c0.031-0.14,0.006-0.281-0.07-0.401
							c-0.077-0.119-0.195-0.202-0.334-0.232l0,0c-0.039-0.009-0.077-0.013-0.116-0.013
							C249.996,120.985,249.897,121.014,249.811,121.068z"/>
						
							<rect x="265.559" y="117.349" transform="matrix(-0.6736 0.7391 -0.7391 -0.6736 534.3 4.6733)" fill="#FFFFFF" width="1.119" height="5.921"/>
						<path fill="#FFFFFF" d="M267.828,124.335c-0.365-0.298-0.594-0.718-0.641-1.186c-0.1-0.967,0.605-1.831,1.57-1.932
							c0.469-0.048,0.926,0.089,1.291,0.386s0.594,0.717,0.641,1.186c0.1,0.966-0.605,1.832-1.57,1.931
							c-0.063,0.007-0.123,0.01-0.184,0.01C268.533,124.729,268.145,124.593,267.828,124.335z M268.873,122.331
							c-0.352,0.036-0.607,0.352-0.572,0.704l0,0c0.018,0.17,0.1,0.323,0.234,0.432c0.131,0.108,0.301,0.158,0.469,0.14
							c0.352-0.035,0.609-0.352,0.572-0.703c-0.018-0.171-0.1-0.323-0.232-0.433c-0.115-0.093-0.258-0.143-0.404-0.143
							C268.918,122.328,268.895,122.329,268.873,122.331z"/>
						
							<rect x="257.332" y="103.321" transform="matrix(-0.9388 0.3444 -0.3444 -0.9388 536.9433 119.1271)" fill="#FFFFFF" width="1.117" height="7.867"/>
						<path fill="#FFFFFF" d="M255.539,104.298c-0.774-0.358-1.116-1.279-0.759-2.057c0.357-0.774,1.28-1.114,2.055-0.758
							c0.376,0.173,0.662,0.482,0.806,0.87s0.126,0.81-0.046,1.185c-0.174,0.376-0.482,0.662-0.871,0.806
							c-0.174,0.064-0.355,0.097-0.537,0.097C255.965,104.44,255.746,104.392,255.539,104.298z M255.796,102.711
							c-0.099,0.215-0.005,0.471,0.21,0.57l0,0c0.105,0.046,0.223,0.051,0.329,0.013c0.107-0.04,0.194-0.119,0.241-0.224
							c0.049-0.104,0.053-0.221,0.014-0.329c-0.04-0.107-0.119-0.193-0.225-0.241c-0.058-0.027-0.118-0.039-0.178-0.039
							C256.024,102.461,255.87,102.554,255.796,102.711z"/>
						
							<rect x="252.63" y="107.744" transform="matrix(-0.4663 0.8846 -0.8846 -0.4663 470.0486 -60.2204)" fill="#FFFFFF" width="1.118" height="7.867"/>
						<path fill="#FFFFFF" d="M248.283,110.946c-0.366-0.192-0.636-0.516-0.759-0.911c-0.254-0.815,0.203-1.686,1.018-1.938
							c0.396-0.124,0.814-0.085,1.182,0.107c0.366,0.192,0.636,0.516,0.758,0.911c0.254,0.815-0.203,1.686-1.018,1.939l0,0
							c-0.152,0.047-0.308,0.07-0.462,0.07C248.753,111.125,248.508,111.065,248.283,110.946z M249.413,109.447
							c-0.033-0.109-0.109-0.199-0.211-0.253c-0.101-0.053-0.216-0.063-0.327-0.03c-0.226,0.071-0.353,0.313-0.282,0.539
							c0.07,0.226,0.311,0.351,0.538,0.282C249.356,109.915,249.483,109.674,249.413,109.447z"/>
					</g>
					<g>
						<path fill="#FFFFFF" d="M404.133,185.536c-2.729-0.338-4.674-2.833-4.336-5.562l0,0c0.338-2.729,2.828-4.675,5.563-4.337
							c1.322,0.163,2.502,0.832,3.32,1.883c0.818,1.052,1.18,2.358,1.016,3.679c-0.164,1.323-0.832,2.503-1.883,3.322
							c-0.885,0.688-1.951,1.053-3.057,1.053C404.549,185.574,404.342,185.563,404.133,185.536z M400.906,180.112L400.906,180.112
							c-0.26,2.115,1.248,4.052,3.363,4.313c1.025,0.128,2.039-0.152,2.855-0.788c0.814-0.635,1.332-1.55,1.461-2.575
							c0.127-1.025-0.154-2.038-0.789-2.854c-0.635-0.814-1.549-1.333-2.574-1.461c-0.162-0.02-0.32-0.029-0.479-0.029
							C402.82,176.719,401.15,178.155,400.906,180.112z"/>
						
							<rect x="407.328" y="174.494" transform="matrix(-0.7753 0.6316 -0.6316 -0.7753 842.2972 50.4221)" fill="#FFFFFF" width="9.702" height="1.119"/>
						<path fill="#FFFFFF" d="M416.518,173.244c-0.561-0.069-1.061-0.353-1.408-0.799c-0.348-0.445-0.5-1-0.43-1.561l0,0
							c0.068-0.561,0.352-1.06,0.797-1.408c0.445-0.346,0.998-0.5,1.563-0.43c1.156,0.143,1.98,1.201,1.838,2.359
							c-0.133,1.069-1.047,1.854-2.098,1.854C416.693,173.261,416.605,173.256,416.518,173.244z M416.166,170.36
							c-0.211,0.162-0.344,0.399-0.377,0.662v0.001c-0.033,0.264,0.039,0.525,0.203,0.735c0.164,0.208,0.398,0.343,0.664,0.375
							c0.547,0.068,1.041-0.321,1.109-0.865c0.068-0.546-0.32-1.044-0.865-1.111c-0.041-0.005-0.084-0.008-0.125-0.008
							C416.555,170.149,416.342,170.223,416.166,170.36z"/>
						
							<rect x="394.155" y="184.375" transform="matrix(-0.8724 0.4888 -0.4888 -0.8724 835.2727 151.8079)" fill="#FFFFFF" width="7.33" height="1.119"/>
						<path fill="#FFFFFF" d="M393.514,188.693c-0.432-0.094-0.799-0.352-1.035-0.724c-0.238-0.371-0.316-0.813-0.221-1.244
							c0.094-0.431,0.352-0.798,0.725-1.034c0.371-0.237,0.813-0.314,1.242-0.22h0.002c0.887,0.196,1.451,1.08,1.254,1.968
							c-0.096,0.431-0.352,0.797-0.725,1.035c-0.268,0.17-0.572,0.259-0.883,0.259C393.752,188.733,393.633,188.72,393.514,188.693z
							 M393.982,186.563c-0.139-0.03-0.279-0.004-0.398,0.071c-0.121,0.076-0.203,0.195-0.234,0.333
							c-0.029,0.138-0.004,0.28,0.072,0.4s0.193,0.202,0.332,0.233c0.141,0.031,0.281,0.004,0.4-0.07
							c0.121-0.077,0.203-0.195,0.234-0.334C394.451,186.911,394.27,186.628,393.982,186.563L393.982,186.563z"/>
						
							<rect x="409.331" y="182.915" transform="matrix(-0.6741 0.7387 -0.7387 -0.6741 823.4836 8.3906)" fill="#FFFFFF" width="1.118" height="5.92"/>
						<path fill="#FFFFFF" d="M410.959,188.716c-0.098-0.966,0.605-1.833,1.572-1.932c0.967-0.092,1.832,0.605,1.93,1.57
							c0.1,0.967-0.605,1.833-1.57,1.933c-0.061,0.006-0.121,0.01-0.182,0.01C411.818,190.297,411.053,189.62,410.959,188.716z
							 M412.645,187.898c-0.352,0.035-0.607,0.351-0.57,0.702c0.035,0.352,0.35,0.617,0.701,0.572
							c0.354-0.035,0.609-0.351,0.572-0.703c-0.033-0.329-0.313-0.575-0.637-0.575C412.689,187.895,412.668,187.896,412.645,187.898
							z"/>
						
							<rect x="401.102" y="168.887" transform="matrix(-0.9387 0.3446 -0.3446 -0.9387 838.2767 196.6372)" fill="#FFFFFF" width="1.119" height="7.868"/>
						<path fill="#FFFFFF" d="M399.311,169.864L399.311,169.864c-0.775-0.358-1.115-1.279-0.758-2.056
							c0.172-0.375,0.48-0.662,0.869-0.805c0.389-0.144,0.809-0.127,1.186,0.047c0.773,0.356,1.115,1.277,0.758,2.054
							c-0.26,0.566-0.822,0.9-1.408,0.9C399.74,170.005,399.52,169.96,399.311,169.864z M399.811,168.053
							c-0.107,0.041-0.193,0.12-0.242,0.225c-0.1,0.215-0.006,0.471,0.211,0.569c0.215,0.1,0.471,0.005,0.57-0.209
							c0.098-0.216,0.004-0.473-0.211-0.571c-0.057-0.026-0.119-0.039-0.18-0.039C399.908,168.027,399.859,168.036,399.811,168.053z
							"/>
						
							<rect x="396.403" y="173.31" transform="matrix(-0.4667 0.8844 -0.8844 -0.4667 738.9758 -91.1228)" fill="#FFFFFF" width="1.117" height="7.868"/>
						<path fill="#FFFFFF" d="M391.295,175.602c-0.123-0.396-0.084-0.813,0.107-1.18c0.193-0.367,0.518-0.637,0.912-0.76
							c0.396-0.123,0.814-0.084,1.18,0.108c0.367,0.191,0.637,0.516,0.76,0.911c0.123,0.395,0.084,0.814-0.107,1.18
							c-0.193,0.366-0.516,0.636-0.912,0.76c-0.152,0.048-0.307,0.069-0.459,0.069C392.115,176.69,391.502,176.266,391.295,175.602z
							 M392.646,174.731c-0.227,0.07-0.354,0.312-0.283,0.538c0.072,0.227,0.314,0.354,0.539,0.282l0,0
							c0.109-0.034,0.199-0.108,0.252-0.21c0.055-0.102,0.064-0.218,0.031-0.328c-0.057-0.184-0.229-0.302-0.412-0.302
							C392.732,174.712,392.689,174.718,392.646,174.731z"/>
					</g>
					<g>
						<path fill="#FFFFFF" d="M95.433,149.469c-1.323-0.165-2.501-0.834-3.321-1.884c-0.818-1.052-1.179-2.358-1.015-3.681
							c0.163-1.321,0.832-2.501,1.883-3.319c1.05-0.819,2.354-1.18,3.68-1.017c2.729,0.339,4.675,2.834,4.336,5.563
							c-0.313,2.523-2.467,4.375-4.946,4.375C95.846,149.506,95.64,149.492,95.433,149.469z M93.668,141.468
							c-0.815,0.635-1.334,1.55-1.461,2.574l0,0c-0.127,1.026,0.152,2.039,0.787,2.854c0.636,0.815,1.551,1.333,2.576,1.461
							c2.111,0.26,4.053-1.246,4.314-3.364c0.262-2.115-1.247-4.052-3.363-4.314c-0.162-0.02-0.322-0.029-0.483-0.029
							C95.182,140.649,94.354,140.933,93.668,141.468z"/>
						
							<rect x="98.629" y="138.424" transform="matrix(-0.7751 0.6318 -0.6318 -0.7751 271.4983 181.3389)" fill="#FFFFFF" width="9.701" height="1.12"/>
						<path fill="#FFFFFF" d="M107.817,137.176c-0.561-0.069-1.061-0.354-1.407-0.799c-0.348-0.445-0.5-1-0.431-1.561
							c0.068-0.561,0.353-1.061,0.798-1.408c0.446-0.347,0.999-0.503,1.562-0.431c1.156,0.145,1.981,1.202,1.838,2.359
							c-0.068,0.561-0.353,1.061-0.799,1.408c-0.375,0.293-0.827,0.447-1.295,0.447
							C107.995,137.192,107.906,137.187,107.817,137.176z M107.465,134.291c-0.21,0.164-0.344,0.399-0.377,0.663l0,0
							c-0.032,0.264,0.04,0.525,0.203,0.734c0.164,0.21,0.399,0.344,0.664,0.376c0.262,0.032,0.524-0.039,0.734-0.202
							c0.21-0.164,0.344-0.399,0.377-0.663c0.066-0.545-0.322-1.043-0.867-1.111c-0.041-0.005-0.082-0.007-0.125-0.007
							C107.855,134.081,107.642,134.153,107.465,134.291z"/>
						
							<rect x="85.455" y="148.306" transform="matrix(-0.8725 0.4886 -0.4886 -0.8725 239.6145 235.2057)" fill="#FFFFFF" width="7.329" height="1.119"/>
						<path fill="#FFFFFF" d="M84.813,152.625c-0.432-0.096-0.799-0.352-1.035-0.724c-0.237-0.372-0.315-0.813-0.221-1.244
							c0.197-0.888,1.078-1.452,1.968-1.255l0,0c0.431,0.096,0.798,0.353,1.036,0.725c0.236,0.371,0.314,0.813,0.219,1.244
							c-0.17,0.769-0.854,1.293-1.611,1.293C85.051,152.664,84.932,152.651,84.813,152.625z M84.883,150.566
							c-0.119,0.076-0.202,0.193-0.232,0.333c-0.031,0.138-0.006,0.28,0.07,0.4c0.076,0.118,0.194,0.202,0.333,0.232
							c0.286,0.063,0.569-0.117,0.634-0.403c0.029-0.139,0.004-0.28-0.071-0.4c-0.076-0.12-0.194-0.202-0.333-0.233l0,0
							c-0.039-0.008-0.078-0.013-0.115-0.013C85.068,150.482,84.969,150.512,84.883,150.566z"/>
						
							<rect x="100.631" y="146.846" transform="matrix(-0.6741 0.7387 -0.7387 -0.6741 280.0574 176.0388)" fill="#FFFFFF" width="1.118" height="5.921"/>
						<path fill="#FFFFFF" d="M102.258,152.646L102.258,152.646c-0.098-0.966,0.607-1.832,1.572-1.931
							c0.967-0.098,1.832,0.605,1.932,1.57c0.099,0.966-0.606,1.832-1.571,1.932c-0.062,0.006-0.122,0.01-0.182,0.01
							C103.119,154.228,102.352,153.551,102.258,152.646z M103.945,151.828c-0.353,0.037-0.608,0.353-0.572,0.704
							c0.036,0.353,0.354,0.608,0.704,0.573c0.352-0.037,0.607-0.353,0.571-0.704c-0.034-0.329-0.313-0.576-0.638-0.576
							C103.989,151.825,103.967,151.826,103.945,151.828z"/>
						
							<rect x="92.404" y="132.818" transform="matrix(-0.9389 0.3441 -0.3441 -0.9389 227.3079 233.1606)" fill="#FFFFFF" width="1.118" height="7.868"/>
						<path fill="#FFFFFF" d="M90.611,133.795L90.611,133.795c-0.376-0.173-0.662-0.482-0.806-0.869
							c-0.143-0.389-0.127-0.81,0.047-1.187c0.357-0.775,1.279-1.115,2.055-0.759c0.775,0.358,1.116,1.279,0.759,2.057
							c-0.261,0.565-0.823,0.9-1.409,0.9C91.041,133.938,90.82,133.892,90.611,133.795z M90.868,132.208
							c-0.048,0.104-0.052,0.222-0.012,0.329c0.039,0.107,0.119,0.193,0.223,0.241h0.001c0.216,0.1,0.471,0.005,0.569-0.211
							c0.1-0.215,0.005-0.471-0.211-0.569c-0.057-0.027-0.119-0.041-0.179-0.041C91.096,131.957,90.941,132.051,90.868,132.208z"/>
						
							<rect x="87.703" y="137.241" transform="matrix(-0.4663 0.8846 -0.8846 -0.4663 254.3055 128.9301)" fill="#FFFFFF" width="1.118" height="7.867"/>
						<path fill="#FFFFFF" d="M83.354,140.443c-0.366-0.191-0.636-0.516-0.758-0.91c-0.124-0.396-0.086-0.813,0.106-1.181
							c0.193-0.366,0.517-0.636,0.912-0.759c0.396-0.122,0.813-0.084,1.181,0.107c0.365,0.193,0.635,0.517,0.758,0.911
							c0.123,0.396,0.085,0.813-0.107,1.181c-0.192,0.366-0.516,0.636-0.91,0.759l0,0c-0.152,0.048-0.308,0.07-0.463,0.07
							C83.825,140.622,83.58,140.563,83.354,140.443z M83.948,138.662c-0.227,0.07-0.354,0.312-0.283,0.538
							c0.033,0.11,0.108,0.2,0.21,0.253c0.101,0.054,0.218,0.064,0.327,0.03h0.001c0.108-0.034,0.198-0.109,0.253-0.211
							c0.053-0.102,0.063-0.218,0.029-0.327c-0.034-0.11-0.109-0.2-0.211-0.253c-0.063-0.033-0.131-0.05-0.199-0.05
							C84.032,138.643,83.989,138.649,83.948,138.662z"/>
					</g>
					<g>
						<path fill="#FFFFFF" d="M249.573,167.404c-0.122-1.077,0.411-2.119,1.357-2.651c0.314-0.177,0.657-0.287,1.019-0.328
							c0.716-0.081,1.418,0.121,1.981,0.569c0.563,0.449,0.918,1.09,0.998,1.806c0.167,1.477-0.898,2.813-2.375,2.98
							c-0.102,0.011-0.204,0.017-0.305,0.017C250.897,169.797,249.729,168.778,249.573,167.404z M252.074,165.537
							c-0.212,0.023-0.411,0.088-0.595,0.191c-0.554,0.311-0.865,0.92-0.793,1.551l0,0c0.096,0.862,0.879,1.485,1.741,1.388
							c0.418-0.047,0.793-0.254,1.056-0.583c0.262-0.328,0.381-0.74,0.333-1.158c-0.047-0.419-0.254-0.794-0.583-1.056
							c-0.281-0.225-0.624-0.344-0.979-0.344C252.194,165.526,252.133,165.53,252.074,165.537z"/>
						<path fill="#FFFFFF" d="M238.907,150.132L238.907,150.132c-0.122-1.078,0.41-2.119,1.355-2.651
							c0.314-0.178,0.658-0.288,1.02-0.328c0.716-0.081,1.418,0.121,1.982,0.57c0.563,0.448,0.917,1.09,0.998,1.804
							c0.166,1.478-0.899,2.813-2.375,2.98c-0.103,0.012-0.204,0.019-0.305,0.019C240.231,152.525,239.061,151.507,238.907,150.132z
							 M241.407,148.265c-0.211,0.023-0.412,0.088-0.595,0.19c-0.554,0.313-0.864,0.921-0.793,1.551l0,0
							c0.097,0.863,0.881,1.49,1.742,1.389c0.863-0.097,1.486-0.879,1.388-1.742c-0.047-0.418-0.254-0.793-0.582-1.055
							c-0.282-0.225-0.625-0.345-0.979-0.345C241.528,148.253,241.467,148.257,241.407,148.265z"/>
						<path fill="#FFFFFF" d="M232.371,168.804c-0.122-1.078,0.411-2.119,1.356-2.652c0.314-0.177,0.658-0.287,1.02-0.327
							c1.475-0.165,2.813,0.897,2.979,2.375c0.166,1.477-0.899,2.813-2.376,2.979c-0.102,0.012-0.203,0.017-0.304,0.017
							C233.696,171.195,232.526,170.178,232.371,168.804z M234.872,166.936c-0.212,0.024-0.412,0.088-0.596,0.191
							c-0.553,0.313-0.864,0.921-0.793,1.551l0,0c0.098,0.863,0.878,1.488,1.742,1.389c0.863-0.097,1.486-0.879,1.389-1.742
							c-0.09-0.803-0.773-1.398-1.564-1.398C234.991,166.926,234.93,166.929,234.872,166.936z"/>
						<path fill="#FFFFFF" d="M221.465,143.065c-0.563-0.449-0.917-1.09-0.997-1.806l0,0c-0.122-1.078,0.411-2.118,1.356-2.651
							c0.314-0.177,0.658-0.287,1.019-0.328c0.718-0.082,1.419,0.123,1.981,0.57c0.563,0.449,0.918,1.09,0.998,1.806
							c0.167,1.476-0.898,2.813-2.375,2.979c-0.103,0.012-0.205,0.018-0.307,0.018C222.534,143.653,221.948,143.45,221.465,143.065z
							 M222.969,139.393c-0.212,0.024-0.412,0.089-0.596,0.191c-0.553,0.312-0.864,0.92-0.793,1.551l0,0
							c0.047,0.418,0.254,0.794,0.584,1.056c0.328,0.262,0.739,0.38,1.158,0.333c0.863-0.097,1.486-0.879,1.389-1.742
							c-0.047-0.418-0.254-0.793-0.584-1.056c-0.281-0.224-0.623-0.343-0.979-0.343
							C223.089,139.383,223.029,139.386,222.969,139.393z"/>
						<path fill="#FFFFFF" d="M235.165,166.236c0.406,0,0.766-0.229,0.939-0.596l5.951-12.57l8.604,12.998l0.934-0.617
							l-8.682-13.116c-0.207-0.312-0.557-0.492-0.941-0.463c-0.373,0.026-0.705,0.253-0.865,0.591l-5.939,12.546l-10.611-22.648
							l-1.014,0.475l10.684,22.802c0.174,0.37,0.533,0.599,0.939,0.6C235.165,166.236,235.165,166.236,235.165,166.236z"/>
					</g>
					<g>
						<g>
							<path fill="#FFFFFF" d="M127.299,139.909c-3.497-1.773-1.676-10.889,2.105-18.677c3.271-6.735,7.639-11.992,10.871-13.08
								c0.923-0.31,1.742-0.29,2.436,0.063c3.498,1.772,1.677,10.888-2.104,18.676c-3.271,6.736-7.64,11.992-10.87,13.08
								c-0.434,0.146-0.844,0.219-1.229,0.219C128.072,140.189,127.668,140.097,127.299,139.909z M140.632,109.213
								c-2.919,0.982-7.122,6.127-10.221,12.508c-4.25,8.754-4.784,16.086-2.605,17.191c0.416,0.21,0.945,0.21,1.573-0.002
								c2.919-0.982,7.122-6.126,10.221-12.508c4.251-8.753,4.784-16.085,2.605-17.191c-0.208-0.104-0.443-0.157-0.706-0.157
								S140.947,109.106,140.632,109.213z"/>
							<path fill="#FFFFFF" d="M132.126,129.97L132.126,129.97c-8.386-4.251-13.696-10.176-12.088-13.487
								c0.382-0.786,1.101-1.363,2.136-1.711c3.301-1.111,9.469,0.216,15.711,3.381c8.386,4.253,13.695,10.178,12.088,13.488
								c-0.383,0.787-1.102,1.363-2.137,1.712c-0.774,0.26-1.706,0.387-2.761,0.387C141.637,133.739,136.904,132.393,132.126,129.97
								z M122.532,115.832c-0.74,0.249-1.24,0.632-1.486,1.14c-1.152,2.373,3.229,7.763,11.587,12l0,0
								c5.896,2.99,11.865,4.323,14.847,3.32c0.741-0.25,1.24-0.633,1.487-1.141c1.153-2.372-3.228-7.762-11.587-12
								c-4.588-2.327-9.217-3.649-12.453-3.649C124.004,115.502,123.194,115.609,122.532,115.832z"/>
							<path fill="#FFFFFF" d="M120.754,131.807c-0.932-0.463-1.531-1.105-1.78-1.912c-1.067-3.456,5.122-8.731,14.093-12.012
								c6.766-2.473,13.12-3.088,16.189-1.566c0.933,0.462,1.532,1.106,1.781,1.913c1.068,3.455-5.123,8.73-14.092,12.01
								c-4.299,1.573-8.43,2.394-11.66,2.394C123.432,132.633,121.875,132.361,120.754,131.807z M133.452,118.935
								c-8.973,3.28-14.177,8.145-13.408,10.629c0.155,0.503,0.563,0.92,1.209,1.241c2.766,1.371,8.918,0.721,15.309-1.615
								c8.971-3.28,14.176-8.145,13.408-10.63c-0.156-0.502-0.563-0.92-1.21-1.241c-0.966-0.479-2.345-0.711-4.004-0.711
								C141.667,116.607,137.61,117.414,133.452,118.935z"/>
						</g>
						<path fill="#FFFFFF" d="M134.393,126.385c-1.451-0.241-2.438-1.618-2.197-3.069l0,0c0.24-1.452,1.621-2.438,3.068-2.197
							c1.452,0.241,2.438,1.618,2.197,3.069c-0.217,1.305-1.35,2.232-2.631,2.232C134.686,126.42,134.54,126.408,134.393,126.385z
							 M133.299,123.498L133.299,123.498c-0.139,0.843,0.434,1.643,1.275,1.781c0.84,0.14,1.643-0.432,1.783-1.274
							c0.14-0.843-0.434-1.643-1.276-1.782c-0.085-0.015-0.169-0.021-0.254-0.021C134.084,122.201,133.426,122.741,133.299,123.498z
							"/>
					</g>
					<g>
						<g>
							<path fill="#FFFFFF" d="M318.189,115.778c-3.813-1.933-2.645-12.007,2.662-22.934l0,0
								c4.033-8.303,9.406-14.779,13.373-16.115c1.107-0.373,2.088-0.351,2.912,0.068c3.811,1.933,2.643,12.007-2.664,22.933
								c-4.031,8.304-9.404,14.78-13.373,16.116c-0.521,0.176-1.014,0.264-1.477,0.264C319.104,116.11,318.625,116,318.189,115.778z
								 M334.582,77.79c-3.643,1.227-8.875,7.617-12.725,15.544c-5.371,11.063-5.973,20.021-3.162,21.445
								c0.545,0.278,1.234,0.28,2.049,0.007c3.643-1.228,8.875-7.618,12.723-15.544c5.371-11.063,5.973-20.021,3.164-21.446
								c-0.275-0.14-0.588-0.21-0.934-0.21C335.357,77.586,334.984,77.654,334.582,77.79z"/>
							<path fill="#FFFFFF" d="M324.16,103.481L324.16,103.481c-10.311-5.229-16.854-12.482-14.896-16.514
								c0.455-0.94,1.32-1.63,2.566-2.049c4.051-1.365,11.641,0.275,19.336,4.176c10.311,5.229,16.854,12.482,14.896,16.513
								c-0.457,0.94-1.32,1.631-2.566,2.049c-0.947,0.319-2.088,0.475-3.379,0.475C335.887,108.131,330.053,106.47,324.16,103.481z
								 M312.186,85.979c-0.951,0.32-1.596,0.817-1.916,1.478c-1.453,2.993,3.984,9.745,14.396,15.025l0,0
								c7.326,3.716,14.75,5.367,18.473,4.114c0.951-0.32,1.596-0.817,1.916-1.479c1.453-2.992-3.984-9.744-14.395-15.024
								c-5.693-2.887-11.445-4.529-15.475-4.529C314.029,85.564,313.016,85.7,312.186,85.979z"/>
							<path fill="#FFFFFF" d="M310.09,105.753c-1.121-0.556-1.838-1.324-2.137-2.288c-1.301-4.207,6.322-10.662,17.355-14.696
								c8.338-3.05,16.158-3.813,19.926-1.945c1.121,0.555,1.84,1.325,2.137,2.288c1.301,4.207-6.322,10.662-17.355,14.696
								c-5.307,1.94-10.402,2.955-14.379,2.955C313.365,106.763,311.459,106.431,310.09,105.753z M325.693,89.818
								c-11.172,4.086-17.639,10.184-16.672,13.315c0.205,0.659,0.73,1.203,1.564,1.616c3.453,1.711,11.105,0.909,19.045-1.992
								c11.172-4.086,17.641-10.184,16.672-13.316c-0.203-0.658-0.73-1.202-1.564-1.615c-1.211-0.601-2.938-0.892-5.012-0.892
								C335.885,86.935,330.848,87.934,325.693,89.818z"/>
						</g>
						<path fill="#FFFFFF" d="M326.926,99.03c-0.836-0.139-1.566-0.593-2.061-1.281c-0.49-0.689-0.686-1.528-0.549-2.363
							c0.287-1.724,1.92-2.895,3.645-2.607c1.725,0.285,2.895,1.92,2.607,3.644c-0.137,0.835-0.592,1.565-1.279,2.06
							c-0.545,0.388-1.184,0.592-1.838,0.592C327.275,99.073,327.102,99.06,326.926,99.03z M326.25,94.237
							c-0.445,0.318-0.738,0.791-0.83,1.332c-0.088,0.539,0.039,1.082,0.357,1.528c0.318,0.444,0.791,0.739,1.33,0.829
							c0.543,0.088,1.084-0.037,1.529-0.356c0.445-0.317,0.74-0.791,0.828-1.331c0.09-0.54-0.037-1.083-0.355-1.529
							c-0.318-0.444-0.791-0.739-1.33-0.828c-0.115-0.019-0.229-0.028-0.34-0.028C327.016,93.854,326.602,93.985,326.25,94.237z"/>
					</g>
					<circle fill="#9F9FDD" cx="437.816" cy="140.75" r="1.646"/>
					<circle fill="#9F9FDD" cx="302.662" cy="113.107" r="1.646"/>
					<circle fill="#9F9FDD" cx="154.42" cy="146.675" r="1.646"/>
					<circle fill="#9F9FDD" cx="370.691" cy="88.085" r="1.646"/>
					<circle fill="#9F9FDD" cx="132.629" cy="70.904" r="1.646"/>
					<circle fill="#9F9FDD" cx="383.276" cy="142.592" r="0.823"/>
					<circle fill="#9F9FDD" cx="200.831" cy="91.002" r="1.646"/>
					<circle fill="#9F9FDD" cx="429.019" cy="200.417" r="1.646"/>
					<circle fill="#9F9FDD" cx="69.433" cy="199.997" r="1.646"/>
					<circle fill="#9F9FDD" cx="107.153" cy="115.668" r="1.646"/>
					<circle fill="#9F9FDD" cx="107.977" cy="209.047" r="0.823"/>
					<circle fill="#9F9FDD" cx="238.484" cy="129.13" r="0.823"/>
					<circle fill="#9F9FDD" cx="437.517" cy="258.151" r="0.823"/>
					<circle opacity="0.47" fill="#FFFFFF" cx="318.888" cy="88.206" r="0.823"/>
					<circle fill="#FFFFFF" cx="289.023" cy="84.772" r="1.646"/>
					<circle fill="#FFFFFF" cx="91.908" cy="91.202" r="1.273"/>
					<circle fill="#FFFFFF" cx="222.273" cy="114.396" r="1.646"/>
					<circle fill="#FFFFFF" cx="135.419" cy="162.938" r="1.013"/>
					<circle fill="#FFFFFF" cx="120.607" cy="208.36" r="1.012"/>
					<circle fill="#FFFFFF" cx="366.605" cy="221.981" r="1.646"/>
					<circle fill="#FFFFFF" cx="259.879" cy="194.466" r="1.646"/>
					<circle fill="#FFFFFF" cx="434.428" cy="80.119" r="1.646"/>
					<circle fill="#FFFFFF" cx="354.87" cy="114.615" r="1.405"/>
				</g>
				<g>
					<path fill="#EFF7FE" d="M253.344,217.161l15.125,45.736c3.248,9.309-3.746,19.012-13.603,18.877l-20.331-0.279l14.169-60.021
						L253.344,217.161z"/>
					<g>
						<g>
							<path fill="#390028" d="M159.422,113.444c1.605-5.178,6.914-8.075,11.967-6.61c1.391-2.682,4.485-4.05,7.405-3.096
								c1.618,0.529,2.871,1.678,3.609,3.105c0.49-0.054,0.983-0.089,1.478-0.1l14.197-0.311
								c8.873-0.193,16.229,6.609,16.428,15.194l0.158,6.745c1.386,0.968,2.314,2.581,2.354,4.433
								c0.067,3.043-2.28,5.566-5.243,5.635c-1.799,0.042-3.406-0.834-4.41-2.208l-0.931,0.021
								c-0.188,0.004-0.371,0.021-0.554,0.039c-4.624-3.593-7.907-11.171-7.907-11.171c-0.604,2.315-3.816,3.607-8.013,4.275
								c-2.287,2.331-5.912,2.82-8.744,0.968c-0.164-0.107-0.321-0.223-0.474-0.343c-0.344,0.001-0.684-0.005-1.026-0.007
								c-1.137,3.486-4.294,6.037-8.078,6.125c-4.822,0.112-8.821-3.813-8.93-8.768c-0.021-0.947,0.104-1.863,0.35-2.727
								C159.702,122.182,158.104,117.701,159.422,113.444z"/>
							<g>
								<g>
									<g>
										<path fill="#FDBEA6" d="M198.69,122.088c0,0,0.066,7.058,4.54,10.65c0.177-0.02,0.355-0.035,0.536-0.039l2.97-0.066
											l2.014-0.046l2.606-0.06c0.185-0.004,0.365,0.004,0.547,0.016c3.133,0.206,5.645,2.774,5.717,5.974l0.043,1.854
											c0.076,3.383-2.605,6.188-5.988,6.264l-2.563,0.058l0.777,34.479c0.135,5.937-4.57,10.858-10.507,10.992l-6.254,0.142
											c-5.937,0.134-10.858-4.57-10.992-10.508l-0.212-9.402c-7.021-2.244-12.18-8.734-12.354-16.518l-0.048-2.147v-0.001
											l-0.412-18.222l-0.213-9.469C177.497,126.77,197.255,127.771,198.69,122.088z"/>
									</g>
									<path opacity="0.46" fill="#FF8E77" d="M187.059,170.493l3.37-0.076c9.472-0.215,16.978-8.066,16.764-17.538l-0.14-6.141
										l2.014-0.046l0.188,8.29c0.181,7.978-4.928,14.847-12.119,17.253c0.001,0.038,0.008,0.074,0.008,0.113
										c0,3.017-3.375,5.463-7.538,5.463c-4.116,0-7.456-2.393-7.53-5.364c-7.098-2.198-12.328-8.731-12.505-16.57l-0.048-2.147
										C169.735,163.202,177.586,170.706,187.059,170.493z"/>
								</g>
							</g>
						</g>
						<path fill="#FFFFFF" d="M181.827,174.953l8.47,11.586l18.959-11.586h14.163c9.993,0,18.29,6.002,19.955,13.896l13.378,45.011
							l-0.054,0.009l7.814,26.354c2.021,8.83-4.125,17.781-13.728,19.994l0,0c-2.32,0.535-4.629,0.557-6.789,0.146l0.004,1.262
							l-90.926-0.197l-1.64-79.87C151.433,186.865,164.114,174.953,181.827,174.953z"/>
						<g>
							<path opacity="0.54" fill="#74CAF3" d="M200.204,243.723c0.102,0,0.199-0.055,0.249-0.152l24.511-47.389
								c0.162-0.275,0.207-0.611,0.12-0.934c-0.088-0.322-0.296-0.59-0.587-0.753l-5.049-2.826l7.531-4.584
								c0.285-0.173,0.465-0.464,0.491-0.797c0.026-0.334-0.104-0.649-0.36-0.866l-7.358-6.231
								c-0.118-0.099-0.294-0.084-0.395,0.033c-0.1,0.118-0.085,0.294,0.032,0.394l7.359,6.232c0.115,0.099,0.176,0.242,0.164,0.395
								c-0.013,0.152-0.094,0.284-0.225,0.363l-8.349,5.081l5.884,3.295c0.158,0.089,0.272,0.235,0.32,0.411
								c0.047,0.176,0.022,0.358-0.069,0.516l-24.519,47.405c-0.071,0.139-0.018,0.307,0.12,0.377
								C200.116,243.713,200.16,243.723,200.204,243.723z"/>
							<path opacity="0.54" fill="#74CAF3" d="M185.157,244.487c0.037,0,0.076-0.008,0.113-0.023
								c0.141-0.063,0.205-0.227,0.143-0.369l-21.573-48.798c-0.089-0.178-0.103-0.361-0.044-0.534
								c0.059-0.172,0.182-0.311,0.345-0.391l6.074-2.929l-8.024-5.581c-0.125-0.087-0.198-0.225-0.201-0.377
								c-0.002-0.152,0.066-0.293,0.189-0.385l7.724-5.771c0.124-0.093,0.149-0.268,0.058-0.392
								c-0.093-0.124-0.268-0.148-0.392-0.057l-7.725,5.771c-0.269,0.199-0.419,0.506-0.413,0.842
								c0.006,0.334,0.166,0.637,0.441,0.826l7.236,5.034l-5.21,2.514c-0.301,0.144-0.525,0.398-0.632,0.714
								c-0.107,0.316-0.083,0.655,0.068,0.953l21.566,48.786C184.947,244.426,185.049,244.487,185.157,244.487z"/>
							<g>
								<path fill="#74CAF3" d="M154.304,223.896v-2.853c0-0.363,0.296-0.658,0.659-0.658h15.424c0.363,0,0.658,0.295,0.658,0.658
									v2.853c0,0.363-0.295,0.659-0.658,0.659h-15.424C154.6,224.555,154.304,224.259,154.304,223.896z M154.963,220.945
									c-0.056,0-0.1,0.044-0.1,0.099v2.853c0,0.055,0.044,0.099,0.1,0.099h15.424c0.055,0,0.1-0.044,0.1-0.099v-2.853
									c0-0.055-0.045-0.099-0.1-0.099H154.963z"/>
							</g>
							<g>
								<polygon fill="#74CAF3" points="209.255,174.953 218.867,174.948 191.02,259.045 171.955,175.729 181.903,174.816 
									190.296,186.501 								"/>
								<g>
									<g>
										<polygon fill="#9F9FDD" points="197.407,196.046 201.62,227.25 190.955,260.295 183.713,227.25 188.19,196.376 										
											"/>
										<path fill="#8F8FCC" d="M197.734,185.417l2.095,9.061c0.132,0.571-0.022,1.17-0.415,1.604l-5.757,6.386
											c-0.753,0.836-2.081,0.778-2.76-0.118l-5.153-6.801c-0.308-0.406-0.429-0.924-0.331-1.424l1.646-8.504
											c0.16-0.831,0.879-1.436,1.725-1.452l7.168-0.142C196.799,184.012,197.543,184.591,197.734,185.417z"/>
										<path fill="#9F9FDD" d="M197.734,183.64l2.095,9.061c0.132,0.57-0.022,1.17-0.415,1.604l-5.757,6.385
											c-0.753,0.836-2.081,0.78-2.76-0.117l-5.153-6.801c-0.308-0.406-0.429-0.923-0.331-1.423l1.646-8.505
											c0.16-0.831,0.879-1.437,1.725-1.452l7.168-0.141C196.799,182.234,197.543,182.813,197.734,183.64z"/>
									</g>
									<path fill="#FFFFFF" d="M204.561,195.315c0.054,0,0.107-0.006,0.16-0.017c0.213-0.045,0.398-0.178,0.51-0.364l9.598-16.124
										c0.078-0.133,0.035-0.305-0.098-0.384c-0.131-0.079-0.304-0.035-0.384,0.098l-9.597,16.123
										c-0.032,0.055-0.084,0.091-0.145,0.104c-0.063,0.013-0.123,0-0.174-0.037l-4.297-3.044
										c-0.126-0.088-0.301-0.061-0.391,0.067c-0.089,0.125-0.06,0.3,0.066,0.39l4.298,3.044
										C204.242,195.266,204.401,195.315,204.561,195.315z"/>
									<path fill="#FFFFFF" d="M181.124,193.908c0.182,0,0.359-0.066,0.498-0.19l4.121-3.684c0.115-0.103,0.125-0.28,0.022-0.395
										s-0.28-0.125-0.396-0.022l-4.121,3.684c-0.068,0.061-0.142,0.049-0.172,0.042c-0.029-0.008-0.1-0.034-0.13-0.119
										l-5.101-14.354c-0.051-0.145-0.213-0.223-0.356-0.169c-0.146,0.052-0.222,0.212-0.17,0.356l5.1,14.354
										c0.083,0.235,0.276,0.413,0.519,0.475C181,193.9,181.062,193.908,181.124,193.908z"/>
								</g>
							</g>
						</g>
						<g>
							<path fill="#EFF7FE" d="M126.409,240.877l20.098-69.731l17.646,3.242l-3.776,58.49c-1.11,7.249-10.687,14.821-17.856,13.286
								l-9.447-2.023"/>
							<path fill="#FFFFFF" d="M125.026,240.284l20.098-69.73l18.493,3.228l-7.214,61.259c-1.11,7.249-8.095,12.065-15.266,10.53
								l-9.447-2.023"/>
							<g>
								<path opacity="0.46" fill="#FF8E77" d="M166.902,152.878c3.892-0.425,7.821,0.485,11.1,2.625
									c0.329,0.215,0.55,0.377,0.598,0.451c1.075,1.65-0.315,4.476-2.28,4.328c-0.561-0.042-5.291-2.847-5.291-2.847
									s3.109,1.013,4.656,3.316c1.101,1.639,0.963,3.814-0.23,5.388l-0.44,0.58l-0.14-0.252c-0.869-1.558-2.259-2.759-3.926-3.393
									l-1.914-0.727c0,0,6.6,2.498,5.887,5.897c-0.714,3.399-2.149,2.868-2.149,2.868s-2.325-3.349-5.724-3.188
									c0,0,9.081,2.76,6.213,7.492c-2.287,3.775-8.846,3.025-11.406,2.566c-0.596-0.105-1.014-0.645-0.971-1.248l0,0
									c0.047-0.669,0.445-1.263,1.047-1.558l3.209-1.58l-9.282,1.992c-3.136,0.674-6.364-0.653-8.118-3.339l-1.627-2.488
									l2.461-6.182c2.227-5.596,7.361-9.503,13.349-10.159L166.902,152.878z"/>
								<path fill="#FDBEA6" d="M165.915,153.668c3.892-0.426,7.821,0.485,11.1,2.625c0.33,0.215,0.549,0.377,0.598,0.451
									c1.075,1.65-0.316,4.475-2.281,4.329c-0.561-0.043-5.29-2.848-5.29-2.848s3.108,1.012,4.656,3.316
									c1.1,1.639,0.963,3.815-0.229,5.387l-0.441,0.58l-0.141-0.251c-0.867-1.558-2.258-2.76-3.926-3.393l-1.912-0.727
									c0,0,6.6,2.498,5.885,5.897c-0.713,3.398-2.148,2.868-2.148,2.868s-2.324-3.349-5.725-3.189c0,0,9.082,2.761,6.213,7.493
									c-2.287,3.775-8.845,3.025-11.406,2.567c-0.595-0.107-1.012-0.646-0.969-1.249l0,0c0.046-0.669,0.445-1.262,1.046-1.559
									l3.21-1.579l-9.283,1.992c-3.137,0.674-6.363-0.654-8.119-3.339l-1.627-2.488l2.462-6.183
									c2.228-5.595,7.362-9.502,13.349-10.158L165.915,153.668z"/>
								<path fill="#FF8970" d="M164.214,168.979c0.661-0.129,1.401-0.112,2.095,0.002c0.701,0.114,1.383,0.333,2.026,0.633
									c0.312,0.172,0.636,0.319,0.927,0.527c0.146,0.101,0.301,0.19,0.442,0.3l0.418,0.333c0.144,0.105,0.274,0.228,0.401,0.354
									l0.387,0.369c0.247,0.26,0.477,0.535,0.716,0.803l0.021,0.023c0.12,0.134,0.325,0.146,0.46,0.025
									c0.133-0.12,0.145-0.326,0.023-0.459l-0.002-0.003c-0.258-0.279-0.504-0.565-0.77-0.834l-0.418-0.386
									c-0.137-0.13-0.277-0.258-0.433-0.369l-0.452-0.348c-0.152-0.112-0.318-0.206-0.477-0.312
									c-0.314-0.215-0.665-0.371-1.002-0.546c-0.697-0.312-1.434-0.532-2.188-0.643c-0.761-0.105-1.516-0.121-2.301,0.046
									c-0.134,0.028-0.221,0.16-0.191,0.294c0.028,0.134,0.158,0.219,0.291,0.193L164.214,168.979z"/>
								<path fill="#FF8970" d="M167.217,163.2c0.688,0.03,1.404,0.222,2.057,0.498c0.658,0.277,1.272,0.65,1.83,1.095
									c0.264,0.241,0.545,0.461,0.779,0.733c0.119,0.132,0.248,0.256,0.359,0.396l0.33,0.422c0.114,0.138,0.213,0.286,0.307,0.439
									l0.291,0.451c0.179,0.31,0.338,0.633,0.507,0.947l0.015,0.028c0.086,0.158,0.283,0.218,0.441,0.133
									c0.158-0.086,0.217-0.283,0.133-0.441c-0.002-0.002-0.004-0.006-0.005-0.008c-0.188-0.327-0.366-0.661-0.564-0.983
									l-0.322-0.468c-0.104-0.157-0.214-0.313-0.34-0.455l-0.362-0.438c-0.123-0.144-0.265-0.272-0.396-0.409
									c-0.259-0.279-0.564-0.508-0.854-0.753c-0.607-0.456-1.274-0.835-1.981-1.108c-0.713-0.271-1.445-0.451-2.232-0.462
									c-0.105-0.002-0.193,0.082-0.194,0.188c-0.001,0.104,0.079,0.19,0.183,0.195L167.217,163.2z"/>
								<path fill="#FF8970" d="M168.281,158.23c0.688-0.021,1.416,0.115,2.087,0.341c0.678,0.228,1.319,0.554,1.908,0.955
									c0.281,0.219,0.578,0.419,0.832,0.672c0.129,0.123,0.268,0.236,0.389,0.366l0.361,0.398c0.124,0.127,0.233,0.269,0.34,0.413
									l0.322,0.429c0.202,0.295,0.385,0.605,0.577,0.906l0.018,0.027c0.097,0.152,0.298,0.196,0.45,0.099
									c0.15-0.098,0.195-0.298,0.098-0.449c-0.002-0.002-0.004-0.005-0.005-0.008c-0.213-0.313-0.415-0.633-0.638-0.938
									l-0.355-0.442c-0.116-0.148-0.236-0.295-0.373-0.428l-0.395-0.41c-0.135-0.134-0.285-0.251-0.426-0.378
									c-0.277-0.259-0.601-0.465-0.907-0.687c-0.641-0.409-1.333-0.735-2.06-0.955c-0.73-0.217-1.475-0.342-2.261-0.294
									c-0.105,0.007-0.187,0.098-0.18,0.203c0.007,0.104,0.094,0.183,0.196,0.18H168.281z"/>
							</g>
						</g>
						<g>
							<g>
								<path fill="#FDBEA6" d="M195.602,257.883l-9.905-1.75c-1.76-0.313-3.56,0.275-4.796,1.566l-7.305,7.617
									c-1.474,1.539-1.358,3.998,0.254,5.391l1.675,1.447l3.108-6.244l-4.437,8.912c-0.496,0.996,0.13,2.188,1.232,2.342l0,0
									c0.985,0.139,1.972-0.242,2.607-1.006l6.677-8.025l-6.346,10.064c-0.454,0.721,0.176,1.633,1.01,1.465l0,0
									c3.181-0.643,6.043-2.359,8.107-4.863l1.794-2.176c0,0,5.389,6.275,14.382,4.67
									C203.661,277.293,213.805,265.061,195.602,257.883z"/>
								<g>
									<path fill="#FF8E77" d="M175.016,271.739c-0.093-0.129-0.108-0.307-0.026-0.457l3.489-6.354
										c0.115-0.209,0.377-0.287,0.586-0.172c0.209,0.117,0.284,0.377,0.17,0.586l-3.49,6.355
										c-0.114,0.207-0.376,0.285-0.585,0.17C175.1,271.836,175.052,271.792,175.016,271.739z"/>
									<path fill="#FF8E77" d="M182.969,268.305c-0.105-0.15-0.109-0.355,0.006-0.51c0.143-0.189,0.413-0.229,0.604-0.086
										c0,0,0.702,0.527,1.475,1.129c0.191,0.148,0.222,0.418,0.075,0.605s-0.417,0.221-0.604,0.074
										c-0.767-0.596-1.462-1.117-1.464-1.119C183.026,268.372,182.995,268.34,182.969,268.305z"/>
									<path fill="#FF8E77" d="M178.058,264.649c-0.106-0.15-0.11-0.354,0.007-0.51c0.142-0.189,0.412-0.229,0.604-0.086
										c0,0,0.701,0.525,1.474,1.129c0.187,0.145,0.222,0.418,0.075,0.605c-0.146,0.188-0.416,0.221-0.604,0.074
										c-0.766-0.596-1.462-1.117-1.463-1.119C178.114,264.715,178.083,264.684,178.058,264.649z"/>
									<path fill="#FF8E77" d="M188.438,273.067c-0.111-0.158-0.107-0.377,0.024-0.529c0.44-0.514,0.796-1.338,0.799-1.346
										c0.093-0.219,0.347-0.322,0.565-0.229c0.219,0.096,0.32,0.348,0.228,0.566c-0.017,0.037-0.409,0.953-0.937,1.568
										c-0.156,0.18-0.429,0.201-0.608,0.047C188.482,273.122,188.458,273.094,188.438,273.067z"/>
								</g>
							</g>
							<g>
								<g>
									<polyline opacity="0.32" fill="#EFF7FE" points="226.861,247.422 240.284,251.624 228.302,252.688 									"/>
								</g>
								<polygon fill="#EFF7FE" points="218.932,218.56 222.75,248.973 191.086,257.071 228.478,252.594 								"/>
							</g>
						</g>
					</g>
					<g>
						<g>
							<path fill="#3A4451" d="M92.831,222.115h59.752c2.137,0,4.011,1.418,4.579,3.463l13.766,49.571h1.699h38.335
								c0.729,0,1.162,0.807,0.759,1.408l-3.161,4.711h-35.933h-68.272L88.25,228.242C87.323,225.191,89.622,222.115,92.831,222.115
								z"/>
							<path fill="#525F72" d="M99.221,281.389h68.271l-15.464-55.688c-0.568-2.047-2.442-3.464-4.579-3.464H87.697
								c-3.208,0-5.507,3.075-4.581,6.126L99.221,281.389z"/>
							<path fill="#FFFFFF" d="M124.229,249.01h0.95c2.724,0,4.938,2.201,4.938,4.904v0.945c0,2.703-2.215,4.904-4.938,4.904h-0.95
								c-2.723,0-4.938-2.201-4.938-4.904v-0.945C119.292,251.211,121.506,249.01,124.229,249.01 M124.229,247.758
								c-3.408,0-6.198,2.771-6.198,6.156v0.945c0,3.387,2.79,6.156,6.198,6.156h0.95c3.409,0,6.198-2.77,6.198-6.156v-0.945
								c0-3.385-2.789-6.156-6.198-6.156H124.229L124.229,247.758z"/>
							<path opacity="0.18" fill="#FFFFFF" d="M124.342,252.122h0.428c1.223,0,2.218,0.988,2.218,2.203v0.426
								c0,1.215-0.995,2.203-2.218,2.203h-0.428c-1.223,0-2.217-0.988-2.217-2.203v-0.426
								C122.125,253.11,123.12,252.122,124.342,252.122 M124.342,251.559c-1.53,0-2.783,1.244-2.783,2.766v0.426
								c0,1.52,1.253,2.764,2.783,2.764h0.428c1.531,0,2.783-1.244,2.783-2.764v-0.426c0-1.521-1.252-2.766-2.783-2.766H124.342
								L124.342,251.559z"/>
						</g>
					</g>
				</g>
				<g>
					<g>
						<g>
							<g>
								<path fill="#DFF5FF" d="M232.796,304.958L232.796,304.958c-4.556,0-8.249-3.584-8.249-8.004v-53.461h16.495v53.461
									C241.042,301.374,237.35,304.958,232.796,304.958z"/>
								<path opacity="0.43" fill="#FFFFFF" d="M232.805,301.071L232.805,301.071c-3.736,0-6.765-3.359-6.765-7.504v-50.074h13.531
									v50.074C239.572,297.711,236.542,301.071,232.805,301.071z"/>
								<path fill="#74CAF3" d="M232.796,298.213L232.796,298.213c-3.413,0-6.179-2.686-6.179-5.996v-40.055h12.355v40.055
									C238.973,295.528,236.208,298.213,232.796,298.213z"/>
								<path fill="#C5E4EF" d="M240.408,244.461H225.31c-1.822,0-3.298-1.475-3.298-3.297l0,0c0-1.822,1.476-3.299,3.298-3.299
									h15.098c1.822,0,3.298,1.477,3.298,3.299l0,0C243.706,242.987,242.23,244.461,240.408,244.461z"/>
							</g>
							<circle opacity="0.43" fill="#FFFFFF" cx="234.122" cy="265.459" r="0.752"/>
							<circle opacity="0.43" fill="#FFFFFF" cx="230.175" cy="275.145" r="0.751"/>
							<circle opacity="0.43" fill="#FFFFFF" cx="236.292" cy="279.461" r="0.752"/>
						</g>
						<g>
							<g>
								<path fill="#DFF5FF" d="M267.016,308.991L267.016,308.991c-4.557,0-8.248-3.82-8.248-8.533v-56.965h16.492v56.965
									C275.26,305.17,271.57,308.991,267.016,308.991z"/>
								<path opacity="0.43" fill="#FFFFFF" d="M267.025,304.846L267.025,304.846c-3.738,0-6.768-3.578-6.768-7.992v-53.361h13.533
									v53.361C273.791,301.268,270.762,304.846,267.025,304.846z"/>
								<path fill="#AEADE7" d="M267.016,301.805L267.016,301.805c-3.414,0-6.18-2.863-6.18-6.395v-42.676h12.355v42.676
									C273.191,298.942,270.426,301.805,267.016,301.805z"/>
								<path fill="#C5E4EF" d="M274.627,244.461h-15.098c-1.822,0-3.298-1.475-3.298-3.297l0,0c0-1.822,1.477-3.299,3.298-3.299
									h15.098c1.822,0,3.299,1.477,3.299,3.299l0,0C277.926,242.987,276.449,244.461,274.627,244.461z"/>
							</g>
							<circle opacity="0.43" fill="#FFFFFF" cx="268.34" cy="265.459" r="0.752"/>
							<circle opacity="0.43" fill="#FFFFFF" cx="264.394" cy="275.145" r="0.751"/>
							<circle opacity="0.43" fill="#FFFFFF" cx="270.511" cy="279.461" r="0.751"/>
						</g>
						<g>
							<g>
								<path fill="#DFF5FF" d="M302.463,312.848L302.463,312.848c-4.557,0-8.248-4.076-8.248-9.105v-60.789h16.494v60.789
									C310.709,308.772,307.016,312.848,302.463,312.848z"/>
								<path opacity="0.43" fill="#FFFFFF" d="M302.473,308.426L302.473,308.426c-3.738,0-6.766-3.818-6.766-8.529v-56.943h13.531
									v56.943C309.238,304.608,306.207,308.426,302.473,308.426z"/>
								<path fill="#FFA97C" d="M302.463,305.178L302.463,305.178c-3.412,0-6.18-3.053-6.18-6.82v-45.543h12.355v45.543
									C308.639,302.125,305.873,305.178,302.463,305.178z"/>
								<path fill="#C5E4EF" d="M310.074,244.461h-15.098c-1.822,0-3.299-1.475-3.299-3.297l0,0c0-1.822,1.477-3.299,3.299-3.299
									h15.098c1.82,0,3.299,1.477,3.299,3.299l0,0C313.373,242.987,311.895,244.461,310.074,244.461z"/>
							</g>
							<circle opacity="0.43" fill="#FFFFFF" cx="303.787" cy="265.459" r="0.752"/>
							<circle opacity="0.43" fill="#FFFFFF" cx="299.84" cy="275.145" r="0.752"/>
							<path opacity="0.43" fill="#FFFFFF" d="M306.711,279.461c0,0.416-0.338,0.75-0.754,0.75c-0.412,0-0.75-0.334-0.75-0.75
								s0.338-0.752,0.75-0.752C306.373,278.709,306.711,279.045,306.711,279.461z"/>
						</g>
						<rect x="209.48" y="259.155" fill="#A7B0BE" width="4.812" height="57.061"/>
						<rect x="322.92" y="259.155" fill="#A7B0BE" width="4.813" height="57.061"/>
						<path fill="#525F72" d="M327.885,264.237h-119.83c-1.758,0-3.182-1.424-3.182-3.18v-1.322c0-1.756,1.424-3.182,3.182-3.182
							h119.83c1.756,0,3.18,1.426,3.18,3.182v1.322C331.064,262.813,329.641,264.237,327.885,264.237z"/>
						<path fill="#3A4451" d="M328.861,282.833H208.837c-0.802,0-1.45-0.648-1.45-1.447l0,0c0-0.801,0.648-1.451,1.45-1.451h120.024
							c0.799,0,1.447,0.65,1.447,1.451l0,0C330.309,282.184,329.66,282.833,328.861,282.833z"/>
						<path fill="#525F72" d="M320.969,320.922h9.074c1.408,0,2.563-1.152,2.563-2.563l0,0c0-1.41-1.154-2.563-2.563-2.563h-9.074
							c-1.41,0-2.563,1.152-2.563,2.563l0,0C318.406,319.77,319.559,320.922,320.969,320.922z"/>
						<path fill="#525F72" d="M206.925,320.922H216c1.409,0,2.563-1.152,2.563-2.563l0,0c0-1.41-1.153-2.563-2.563-2.563h-9.075
							c-1.409,0-2.562,1.152-2.562,2.563l0,0C204.364,319.77,205.516,320.922,206.925,320.922z"/>
					</g>
				</g>
			</g>
			<linearGradient id="SVGID_17_" gradientUnits="userSpaceOnUse" x1="359.1973" y1="194.4082" x2="424.6426" y2="369.8885">
				<stop  offset="1.100000e-007" style="stop-color:#8A2A8A"/>
				<stop  offset="0.1799" style="stop-color:#832A88"/>
				<stop  offset="0.4292" style="stop-color:#712A86"/>
				<stop  offset="0.7178" style="stop-color:#542981"/>
				<stop  offset="1" style="stop-color:#30297B"/>
			</linearGradient>
			<circle fill="url(#SVGID_17_)" cx="392.919" cy="284.829" r="72.505"/>
			<linearGradient id="SVGID_18_" gradientUnits="userSpaceOnUse" x1="360.8311" y1="198.7891" x2="425.0077" y2="370.8675">
				<stop  offset="0" style="stop-color:#BD2AA3"/>
				<stop  offset="0.134" style="stop-color:#B62AA2"/>
				<stop  offset="0.3199" style="stop-color:#A42A9C"/>
				<stop  offset="0.5361" style="stop-color:#872A94"/>
				<stop  offset="0.7731" style="stop-color:#5E2988"/>
				<stop  offset="1" style="stop-color:#30297B"/>
			</linearGradient>
			<circle fill="none" stroke="url(#SVGID_18_)" stroke-miterlimit="10" cx="392.919" cy="284.829" r="91.304"/>
			<linearGradient id="SVGID_19_" gradientUnits="userSpaceOnUse" x1="478.0977" y1="299.9966" x2="487.4315" y2="341.3318">
				<stop  offset="0" style="stop-color:#BD2AA3"/>
				<stop  offset="0.2213" style="stop-color:#972A99"/>
				<stop  offset="0.5838" style="stop-color:#602989"/>
				<stop  offset="0.8542" style="stop-color:#3D297F"/>
				<stop  offset="1" style="stop-color:#30297B"/>
			</linearGradient>
			<circle fill="url(#SVGID_19_)" cx="480.676" cy="311.417" r="12.832"/>
			<circle fill="#942BE5" cx="341.676" cy="363.083" r="6"/>
		</g>
	</g>
	<g>
		<path fill="#FFFFFF" d="M348.018,256.639h14.346c3.879,0,6.863,0.305,8.949,0.914c2.086,0.607,3.654,1.488,4.703,2.639
			s1.76,2.543,2.131,4.178c0.373,1.637,0.559,4.168,0.559,7.596v4.771c0,3.496-0.361,6.045-1.082,7.646
			c-0.723,1.602-2.047,2.83-3.977,3.688c-1.928,0.857-4.449,1.285-7.563,1.285h-3.822v22.061h-14.244V256.639z M362.262,266.01
			v13.939c0.406,0.023,0.756,0.035,1.049,0.035c1.309,0,2.217-0.322,2.723-0.965c0.508-0.643,0.762-1.979,0.762-4.01v-4.5
			c0-1.871-0.293-3.09-0.879-3.654C365.328,266.293,364.111,266.01,362.262,266.01z"/>
		<path fill="#FFFFFF" d="M382.799,256.639h10.658c6.879,0,11.531,0.316,13.955,0.947c2.426,0.631,4.27,1.67,5.533,3.113
			c1.262,1.443,2.053,3.051,2.367,4.82c0.316,1.771,0.475,5.25,0.475,10.438v19.184c0,4.918-0.232,8.205-0.693,9.863
			c-0.463,1.658-1.27,2.955-2.42,3.891c-1.15,0.938-2.57,1.59-4.262,1.963c-1.693,0.371-4.242,0.559-7.646,0.559h-17.967V256.639z
			 M397.043,266.01v36.033c2.053,0,3.316-0.41,3.789-1.234c0.475-0.822,0.711-3.063,0.711-6.717v-21.281
			c0-2.48-0.08-4.07-0.236-4.77c-0.158-0.699-0.52-1.213-1.084-1.541C399.66,266.174,398.6,266.01,397.043,266.01z"/>
		<path fill="#FFFFFF" d="M438.523,256.639v36.607c0,5.482-0.057,9.006-0.17,10.574s-0.629,2.982-1.545,4.246
			c-0.918,1.264-2.16,2.137-3.727,2.621c-1.566,0.486-3.928,0.729-7.082,0.729h-7.135v-9.576c0.857,0.068,1.477,0.102,1.861,0.102
			c1.016,0,1.814-0.248,2.402-0.744c0.586-0.496,0.924-1.104,1.016-1.826c0.09-0.723,0.135-2.121,0.135-4.195v-38.537H438.523z"/>
	</g>
</g>
</svg>
