<?xml version="1.0" encoding="utf-8"?>
<!-- Generator: Adobe Illustrator 16.0.0, SVG Export Plug-In . SVG Version: 6.00 Build 0)  -->
<!DOCTYPE svg PUBLIC "-//W3C//DTD SVG 1.1//EN" "http://www.w3.org/Graphics/SVG/1.1/DTD/svg11.dtd">
<svg version="1.1" id="Layer_1" xmlns="http://www.w3.org/2000/svg" xmlns:xlink="http://www.w3.org/1999/xlink" x="0px" y="0px"
	 width="206.368px" height="194.305px" viewBox="0 0 206.368 194.305" enable-background="new 0 0 206.368 194.305"
	 xml:space="preserve">
<g>
	<path id="Floor_00000127751806494356932650000007035371365606452130_" fill="#FAFAFA" d="M31.154,90.963
		c-40.803,22.375-41.635,60.09-1.855,84.243c39.781,24.15,105.108,25.592,145.913,3.217c40.807-22.375,41.635-60.09,1.857-84.241
		C137.288,70.029,71.961,68.588,31.154,90.963z"/>
	<g id="Picture_1_">
		<g id="Frame_3_">
			<polygon id="XMLID_1141_" fill="#FAFAFA" points="67.271,39.16 67.986,39.607 83.029,31.359 82.314,30.912 			"/>
			<g id="XMLID_1137_">
				<g id="XMLID_1138_">
					<g id="XMLID_1139_">
						<polygon id="XMLID_1140_" fill="#FFFFFF" points="82.314,30.912 68.006,38.756 68.332,23.961 82.641,16.123 						"/>
					</g>
				</g>
			</g>
			<path id="XMLID_1134_" fill="#ECECEC" d="M84.793,13.377l-17.811,9.766l-0.414,18.801l17.811-9.764L84.793,13.377z
				 M83.029,31.359l-15.043,8.248l0.346-15.646l15.043-8.248L83.029,31.359z"/>
			<polygon id="XMLID_1133_" fill="#E1E1E1" points="83.029,31.359 82.314,30.912 82.641,16.123 83.375,15.713 			"/>
			<polygon id="XMLID_1132_" fill="#F5F5F5" points="84.793,13.377 84.066,12.941 66.258,22.705 66.982,23.143 			"/>
			<polygon id="XMLID_1131_" fill="#E1E1E1" points="66.258,22.705 66.982,23.143 66.568,41.943 65.844,41.506 			"/>
		</g>
		<g id="Land_1_">
			<polygon fill="#F0F0F0" points="81.773,30.459 68.582,37.691 68.664,33.932 72.088,26.482 74.074,28.406 73.275,31.543 
				77.986,22.023 81.855,26.697 			"/>
			<path fill="#F0F0F0" d="M74.074,22.895c-0.541,0.293-0.988,1.031-1.002,1.645c-0.014,0.615,0.412,0.875,0.951,0.58
				c0.539-0.297,0.988-1.033,1-1.648C75.037,22.857,74.611,22.598,74.074,22.895z"/>
		</g>
	</g>
	<g id="Picture_2_">
		<g id="Frame_4_">
			<polygon id="XMLID_1165_" fill="#FAFAFA" points="90.863,26.219 91.578,26.668 106.618,18.418 105.907,17.973 			"/>
			<g id="XMLID_1152_">
				<g id="XMLID_1161_">
					<g id="XMLID_1162_">
						<polygon id="XMLID_1163_" fill="#FFFFFF" points="105.907,17.973 91.598,25.816 91.924,11.02 106.231,3.18 						"/>
					</g>
				</g>
			</g>
			<path id="XMLID_1145_" fill="#ECECEC" d="M108.382,0.436l-17.806,9.766l-0.414,18.803l17.806-9.766L108.382,0.436z
				 M106.618,18.418l-15.04,8.25l0.346-15.648l15.04-8.246L106.618,18.418z"/>
			<polygon id="XMLID_1144_" fill="#E1E1E1" points="106.618,18.418 105.907,17.973 106.231,3.18 106.964,2.773 			"/>
			<polygon id="XMLID_1143_" fill="#F5F5F5" points="108.382,0.436 107.657,0 89.85,9.766 90.576,10.201 			"/>
			<polygon id="XMLID_1142_" fill="#E1E1E1" points="89.85,9.766 90.576,10.201 90.162,29.004 89.436,28.566 			"/>
		</g>
		<g id="Land_2_">
			<polygon fill="#F0F0F0" points="105.364,17.518 92.174,24.75 92.256,20.99 95.678,13.541 97.664,15.467 96.867,18.602 
				101.578,9.084 105.446,13.756 			"/>
			<path fill="#F0F0F0" d="M97.664,9.951c-0.539,0.297-0.986,1.035-0.998,1.648c-0.016,0.615,0.412,0.873,0.949,0.578
				c0.539-0.295,0.988-1.033,1-1.648C98.631,9.916,98.203,9.656,97.664,9.951z"/>
		</g>
	</g>
	<g id="Window_3_">
		<path fill="#E6E6E6" d="M202.44,40.65c0.24-10.875-6.637-23.984-15.359-29.281c-4.615-2.803-8.824-2.852-11.799-0.666
			c-3.67,1.428-6.092,5.559-6.229,11.756l-1.283,58.242l31.586,19.178l1.801-0.988L202.44,40.65z"/>
		<path fill="#F5F5F5" d="M199.356,99.879l1.285-58.242c0.24-10.875-6.639-23.984-15.359-29.279
			c-8.725-5.297-15.986-0.771-16.229,10.102l-1.283,58.242L199.356,99.879z"/>
		<path fill="#E1E1E1" d="M198.892,41.598l-1.217,55.209l-28.133-17.08l1.262-57.227c0.121-5.436,2.115-9.143,5.359-10.252
			c0.717-0.252,1.504-0.371,2.34-0.352c1.82,0.039,3.793,0.695,5.871,1.959C192.606,18.854,199.12,31.299,198.892,41.598z"/>
		<polygon fill="#ECECEC" points="169.542,79.727 171.372,78.725 197.72,94.725 197.675,96.807 		"/>
		<path fill="#FFFFFF" d="M198.892,41.598l-1.172,53.127l-26.348-16l1.26-57.23c0.094-4.318,1.377-7.547,3.531-9.246
			c0.717-0.252,1.504-0.371,2.34-0.352c1.82,0.039,3.793,0.695,5.871,1.959C192.606,18.854,199.12,31.299,198.892,41.598z"/>
		<polygon fill="#F5F5F5" points="184.472,88.791 182.745,87.742 184.388,13.225 186.138,13.264 		"/>
		<path fill="#E1E1E1" d="M187.817,16.461l-1.572,71.361l-1.773,0.969l1.627-73.764C186.685,15.469,187.257,15.945,187.817,16.461z"
			/>
		<g>
			<polygon fill="#F5F5F5" points="169.813,67.383 183.017,75.398 182.972,77.451 169.769,69.438 			"/>
			<polygon fill="#ECECEC" points="171.644,66.381 169.813,67.383 183.017,75.398 183.063,73.346 			"/>
		</g>
		<g>
			<polygon fill="#F5F5F5" points="184.743,76.445 197.946,84.461 197.901,86.514 184.698,78.5 			"/>
			<polygon fill="#ECECEC" points="186.575,75.443 184.743,76.445 197.946,84.461 197.991,82.408 			"/>
		</g>
		<g>
			<polygon fill="#F5F5F5" points="170.718,26.396 183.921,34.412 183.876,36.465 170.673,28.451 			"/>
			<polygon fill="#ECECEC" points="172.548,25.395 170.718,26.396 183.921,34.412 183.966,32.359 			"/>
		</g>
		<g>
			<polygon fill="#F5F5F5" points="185.647,35.459 198.851,43.475 198.804,45.527 185.603,37.514 			"/>
			<polygon fill="#ECECEC" points="187.479,34.457 185.647,35.459 198.851,43.475 198.896,41.424 			"/>
		</g>
	</g>
	<path id="Shadow_7_" fill="#E1E1E1" d="M35.566,173.284c-0.158,0.73-0.482,1.447-0.971,2.133c-0.771,1.109-1.957,2.137-3.545,3.01
		c-6.088,3.338-15.84,3.123-21.777-0.48c-1.545-0.941-2.684-2.02-3.404-3.162c-0.455-0.707-0.748-1.438-0.875-2.174H4.99
		c-0.477-2.621,1.053-5.309,4.561-7.234c6.092-3.342,15.842-3.127,21.777,0.48C34.752,167.934,36.162,170.686,35.566,173.284z"/>
	<path id="Shadow_24_" fill="#E1E1E1" d="M44.195,179.233L7.832,157.374c-0.531-0.32-0.52-0.822,0.023-1.121l118.767-65.12
		c0.543-0.299,1.412-0.279,1.943,0.043l36.361,21.86c0.531,0.322,0.52,0.824-0.023,1.121L46.139,179.276
		C45.594,179.575,44.725,179.555,44.195,179.233z"/>
	<path id="Shadow_00000132052528971137944850000017066176276789869964_" fill="#E1E1E1" d="M84.229,183.801l-5.932-3.57
		l28.606-15.82c-0.873-1.535-1.203-3.203-0.932-4.842c0.436-2.629,2.379-5.02,5.473-6.73c3.27-1.809,7.555-2.75,12.064-2.65
		c4.432,0.098,8.602,1.193,11.748,3.09c3.461,2.084,5.336,4.908,5.281,7.947c-0.057,3.041-2.033,5.793-5.57,7.748
		c-3.268,1.807-7.549,2.748-12.057,2.648l0,0c-1.934-0.043-3.818-0.273-5.619-0.689l-5.324,2.945l-4.031-0.988l-1.406,0.775
		l-0.215,3.338l-2.638,1.461l-3.758,0.26l-1.617,0.863l0.193,1.742l-4.789,2.648L84.229,183.801z M129.661,158.19
		c-0.566-0.34-1.387-0.547-2.26-0.564c-0.887-0.02-1.734,0.154-2.322,0.48c-0.268,0.146-0.387,0.273-0.438,0.34
		c0.047,0.066,0.162,0.199,0.426,0.357c0.564,0.338,1.389,0.545,2.26,0.564c0.887,0.02,1.732-0.156,2.32-0.48
		c0.27-0.15,0.389-0.275,0.438-0.342C130.04,158.479,129.923,158.348,129.661,158.19z"/>
	<path id="Shadow_00000181066709247660928030000016249956350757559683_" fill="#E1E1E1" d="M190.157,137.995
		c9.416,5.715,9.219,14.643-0.439,19.938s-25.119,4.955-34.533-0.762c-9.414-5.715-9.217-14.643,0.439-19.938
		C165.282,131.938,180.743,132.278,190.157,137.995z"/>
	<g id="Device_6_">
		<g id="Case">
			<g>
				<path fill="#1A8CD1" d="M127.708,95.188l2.17-1.189c0,0,12.211-36.908,13.318-39.039s-0.785-3.271-2.861-2.131L32.047,112.125
					c-2.076,1.139-2.758,2.754-4.66,6.256c-1.9,3.504-12.941,37.422-12.941,37.422c-0.17,0.791,0.182,1.604,0.873,2.025
					l24.035,14.637l113.265-62.102L127.708,95.188z"/>
				<path opacity="0.35" fill="#FFFFFF" d="M127.708,95.188l2.17-1.189c0,0,12.211-36.908,13.318-39.039s-0.785-3.271-2.861-2.131
					L32.047,112.125c-2.076,1.139-2.758,2.754-4.66,6.256c-1.9,3.504-12.941,37.422-12.941,37.422
					c-0.17,0.791,0.182,1.604,0.873,2.025l24.035,14.637l113.265-62.102L127.708,95.188z"/>
				<path fill="#1A8CD1" d="M28.713,119.268c-1.447,2.656-12.928,37.291-12.928,37.291l115.466-63.313
					c0,0,12.088-35.191,13.268-37.398c1.182-2.209-0.783-3.271-2.861-2.133L33.371,113.012
					C31.293,114.151,30.158,116.614,28.713,119.268z"/>
				<path opacity="0.15" d="M28.713,119.268c-1.447,2.656-12.928,37.291-12.928,37.291l115.466-63.313
					c0,0,12.088-35.191,13.268-37.398c1.182-2.209-0.783-3.271-2.861-2.133L33.371,113.012
					C31.293,114.151,30.158,116.614,28.713,119.268z"/>
				<polygon fill="#1A8CD1" points="129.052,94.455 15.785,156.559 40.238,171.409 153.505,109.305 				"/>
			</g>
			<path id="XMLID_1054_" fill="#1A8CD1" d="M138.636,13.193L29.512,72.914c-2.393,1.313-3.178,3.504-2.824,6.424l10.775,89.77
				c0.352,2.92,2.633,4.674,5.027,3.361l108.157-59.279c2.391-1.313,4.047-4.742,3.693-7.662l-10.736-89.426
				C143.253,13.184,141.028,11.881,138.636,13.193z"/>
			<path id="XMLID_00000173118713212910552770000012517010615826990470_" opacity="0.35" fill="#FFFFFF" d="M138.636,13.193
				L29.512,72.914c-2.393,1.313-3.178,3.504-2.824,6.424l10.775,89.77c0.352,2.92,2.633,4.674,5.027,3.361l108.157-59.279
				c2.391-1.313,4.047-4.742,3.693-7.662l-10.736-89.426C143.253,13.184,141.028,11.881,138.636,13.193z"/>
		</g>
		<g id="Tablet">
			<g>
				<path id="XMLID_00000013176452501046115070000005324614480953484732_" fill="#375A64" d="M145.856,15.252
					c-0.842-0.35-1.859-0.279-2.914,0.297L34.781,74.834c-1.146,0.629-2.123,1.748-2.795,3.066l-3.416-1.539
					c0.795-1.635,2.131-2.211,3.277-2.846L140.001,14.23c1.105-0.598,2.164-0.646,3.023-0.242v-0.004L145.856,15.252z"/>
			</g>
			<g>
				<path id="XMLID_00000024000271635857361750000004025636545948308370_" fill="#1A2E35" d="M40.838,173.333l-0.002-0.006
					c-1.049-0.459-1.813-1.574-2.006-3.178L28.15,81.176c-0.219-1.824-0.27-3.457,0.422-4.814l3.416,1.537
					c-0.096,0.188-0.184,0.381-0.271,0.578c-0.064,0.158-0.123,0.318-0.178,0.477c-0.01,0.021-0.02,0.051-0.023,0.074
					c-0.068,0.18-0.127,0.367-0.174,0.553c-0.057,0.193-0.104,0.391-0.139,0.584c-0.035,0.146-0.057,0.291-0.072,0.439
					c-0.102,0.631-0.115,1.273-0.039,1.889l10.732,89.424c0.197,1.621,0.975,2.748,2.035,3.201L40.838,173.333z"/>
			</g>
			<g>
				<path id="XMLID_7049_" fill="#2B454E" d="M142.94,15.555L33.818,75.275c-2.393,1.313-3.18,3.504-2.826,6.424l10.83,90.221
					c0.355,2.92,2.578,4.223,4.973,2.91l108.157-59.279c2.393-1.313,4.047-4.742,3.693-7.662l-10.734-89.424
					C147.558,15.545,145.333,14.242,142.94,15.555z"/>
			</g>
			<g>
				<path id="XMLID_7048_" fill="#1A2E35" d="M148.403,114.997l-96.54,52.91c-1.24,0.68-2.395,0.004-2.576-1.508l-10.629-88.5
					c-0.186-1.512,0.672-3.289,1.912-3.969l96.542-52.91c1.24-0.682,2.395-0.006,2.576,1.506l10.631,88.5
					C150.501,112.54,149.644,114.317,148.403,114.997z"/>
				<path fill="#FAFAFA" d="M38.658,77.898l10.629,88.5c0.006,0.061,0.018,0.117,0.029,0.176l96.54-52.912
					c1.24-0.68,2.098-2.457,1.914-3.971L137.112,21.02L40.57,73.93C39.33,74.609,38.473,76.387,38.658,77.898z"/>
			</g>
			<g>
				<path id="XMLID_7045_" fill="#1A2E35" d="M42.314,132.635c0.092,0.76-0.34,1.654-0.963,1.996s-1.205,0.004-1.297-0.758
					c-0.092-0.76,0.34-1.656,0.965-1.998C41.643,131.536,42.223,131.874,42.314,132.635z"/>
				<path id="XMLID_7042_" fill="#1A2E35" d="M38.602,111.885L38.602,111.885c-0.486,0.266-0.82,0.961-0.748,1.553l1.762,14.572
					c0.072,0.59,0.521,0.854,1.008,0.59l0,0c0.484-0.268,0.82-0.963,0.748-1.553l-1.762-14.572
					C39.535,111.881,39.084,111.62,38.602,111.885z"/>
			</g>
		</g>
		<g id="Articles_1_">
			<g>
				<path fill="#1A8CD1" d="M137.112,21.02L40.57,73.93c-1.24,0.68-2.098,2.457-1.914,3.969l0.354,2.938l98.784-54.141
					L137.112,21.02z"/>
				<g>
					<path fill="#FFFFFF" d="M129.313,29.256L129.313,29.256c-0.367,0.199-0.707,0-0.76-0.445l-0.029-0.25
						c-0.055-0.447,0.199-0.971,0.563-1.17l0,0c0.367-0.201,0.707-0.002,0.762,0.443l0.029,0.25
						C129.933,28.529,129.679,29.055,129.313,29.256z"/>
					<path fill="#FFFFFF" d="M131.97,27.799L131.97,27.799c-0.365,0.201-0.707,0.002-0.76-0.443l-0.029-0.25
						c-0.055-0.447,0.197-0.971,0.563-1.17l0,0c0.367-0.201,0.707-0.004,0.76,0.443l0.029,0.25
						C132.587,27.074,132.335,27.598,131.97,27.799z"/>
					<path fill="#FFFFFF" d="M134.624,26.342L134.624,26.342c-0.363,0.201-0.705,0.002-0.76-0.443l-0.029-0.25
						c-0.055-0.445,0.199-0.969,0.564-1.17l0,0c0.365-0.201,0.707-0.002,0.76,0.443l0.029,0.25
						C135.243,25.617,134.989,26.143,134.624,26.342z"/>
				</g>
			</g>
		</g>
	</g>
	<g id="Tab">
		<g id="Box_00000039849560965566770900000013924116042559169925_">
			<g opacity="0.2">
				<path d="M81.459,69.434l44.712-24.506c0.213-0.115,0.408-0.027,0.434,0.195l5.07,41.957c0.025,0.223-0.123,0.498-0.336,0.615
					l-44.712,24.506c-0.213,0.117-0.404,0.029-0.434-0.195l-5.068-41.956C81.098,69.826,81.248,69.551,81.459,69.434z"/>
			</g>
			<g id="XMLID_00000094575900145121169440000002103879030209805244_">
				<path id="XMLID_00000077311261622387083860000002499815863437398441_" fill="#1A8CD1" d="M129.185,46.326
					c-0.133-0.045-0.301-0.027-0.473,0.066L84.582,70.58c-0.371,0.205-0.637,0.691-0.59,1.088l5,41.387
					c0.021,0.189,0.113,0.326,0.244,0.393c-0.131-0.066-1.283-0.576-1.426-0.643c-0.135-0.064-0.23-0.199-0.254-0.395l-5-41.387
					c-0.049-0.396,0.217-0.883,0.592-1.088l44.126-24.189c0.191-0.104,0.375-0.113,0.512-0.051
					C127.909,45.754,128.911,46.197,129.185,46.326z"/>
				<g id="XMLID_00000167378015982281534880000015628854420653253277_" opacity="0.2">
					<path fill="#FFFFFF" d="M129.185,46.326c-0.273-0.129-1.275-0.572-1.398-0.631c-0.137-0.063-0.32-0.053-0.512,0.051
						L83.148,69.936c-0.188,0.104-0.346,0.275-0.455,0.473l1.436,0.646c0.107-0.199,0.268-0.371,0.453-0.475l44.13-24.188
						C128.884,46.299,129.052,46.281,129.185,46.326z"/>
				</g>
				<g>
					<path id="XMLID_00000085248726658796046960000009746848167440198529_" fill="#1A8CD1" d="M84.582,70.58l44.128-24.188
						c0.375-0.203,0.717-0.051,0.764,0.346l5,41.389c0.049,0.395-0.215,0.881-0.59,1.086l-44.128,24.188
						c-0.375,0.205-0.717,0.051-0.766-0.344l-5-41.387C83.943,71.273,84.209,70.787,84.582,70.58z"/>
				</g>
				<g opacity="0.7">
					<path id="XMLID_00000080897200260083041290000016630139142459270823_" fill="#FFFFFF" d="M84.582,70.58l44.128-24.188
						c0.375-0.203,0.717-0.051,0.764,0.346l5,41.389c0.049,0.395-0.215,0.881-0.59,1.086l-44.128,24.188
						c-0.375,0.205-0.717,0.051-0.766-0.344l-5-41.387C83.943,71.273,84.209,70.787,84.582,70.58z"/>
				</g>
				<path id="XMLID_00000129200289873066505260000015233198741937181373_" fill="#1A8CD1" d="M84.129,71.055l-1.436-0.646
					c-0.107,0.195-0.162,0.418-0.137,0.615l5,41.387c0.023,0.195,0.119,0.33,0.254,0.395c0.143,0.066,1.295,0.576,1.426,0.643
					c-0.131-0.066-0.223-0.203-0.244-0.393l-5-41.387C83.969,71.471,84.021,71.25,84.129,71.055z"/>
				<path id="XMLID_00000133488135619385415910000015921815609991613318_" opacity="0.15" d="M84.129,71.055l-1.436-0.646
					c-0.107,0.195-0.162,0.418-0.137,0.615l5,41.387c0.023,0.195,0.119,0.33,0.254,0.395c0.143,0.066,1.295,0.576,1.426,0.643
					c-0.131-0.066-0.223-0.203-0.244-0.393l-5-41.387C83.969,71.471,84.021,71.25,84.129,71.055z"/>
			</g>
			<path id="XMLID_00000178894517459199877830000014840571076272708535_" fill="#1A8CD1" d="M129.056,46.59
				c0.064-0.002,0.084,0.139,0.086,0.154l5,41.389c0.035,0.293-0.176,0.684-0.455,0.836l-44.128,24.188
				c-0.078,0.043-0.131,0.047-0.148,0.049c-0.064,0.002-0.084-0.139-0.086-0.156l-5-41.387c-0.035-0.293,0.178-0.684,0.455-0.836
				l44.128-24.188C128.985,46.594,129.038,46.59,129.056,46.59 M129.022,46.303c-0.098,0.002-0.201,0.031-0.313,0.09L84.582,70.58
				c-0.373,0.207-0.639,0.693-0.592,1.09l5,41.387c0.033,0.279,0.217,0.439,0.453,0.434c0.098,0,0.203-0.029,0.313-0.09
				l44.128-24.188c0.375-0.205,0.639-0.691,0.59-1.086l-5-41.389C129.44,46.459,129.259,46.297,129.022,46.303L129.022,46.303z"/>
		</g>
		<g>
			<path fill="#FFFFFF" d="M128.698,67.035L89.35,88.611c-0.223,0.121-0.428,0.002-0.461-0.27l-0.502-4.15
				c-0.031-0.271,0.121-0.59,0.344-0.711l39.349-21.578c0.223-0.119,0.43,0,0.461,0.271l0.502,4.148
				C129.073,66.596,128.923,66.914,128.698,67.035z"/>
			<path fill="#FFFFFF" d="M129.733,75.57L90.383,97.146c-0.221,0.121-0.43,0.002-0.459-0.27l-0.502-4.148
				c-0.031-0.271,0.121-0.592,0.342-0.713l39.349-21.576c0.225-0.121,0.43,0,0.465,0.27l0.498,4.15
				C130.108,75.131,129.954,75.449,129.733,75.57z"/>
			<g>
				<path fill="#E1E1E1" d="M91.863,92.248c0.223-0.123,0.404-0.152,0.541-0.092c0.139,0.061,0.225,0.213,0.254,0.459
					s-0.01,0.469-0.117,0.666c-0.105,0.197-0.271,0.359-0.494,0.48l-0.441,0.242l0.09,0.748c0.004,0.025,0,0.051-0.014,0.076
					c-0.012,0.027-0.029,0.045-0.049,0.057l-0.225,0.123c-0.02,0.01-0.039,0.012-0.055,0c-0.018-0.008-0.027-0.027-0.029-0.051
					l-0.264-2.174c-0.002-0.023,0.002-0.049,0.016-0.074c0.012-0.027,0.029-0.045,0.049-0.055L91.863,92.248z M91.555,93.584
					l0.428-0.234c0.104-0.059,0.186-0.131,0.242-0.213c0.057-0.086,0.076-0.191,0.063-0.316c-0.016-0.125-0.059-0.195-0.127-0.209
					s-0.154,0.008-0.258,0.064l-0.428,0.234L91.555,93.584z"/>
				<path fill="#E1E1E1" d="M92.938,92.764c0.002-0.051,0.012-0.111,0.033-0.18c0.02-0.068,0.051-0.139,0.094-0.213
					s0.098-0.145,0.166-0.215c0.066-0.068,0.146-0.129,0.24-0.18s0.182-0.082,0.26-0.094c0.08-0.012,0.15-0.004,0.211,0.025
					s0.109,0.08,0.15,0.152s0.068,0.166,0.082,0.279l0.119,0.99c0.002,0.023-0.002,0.049-0.016,0.074
					c-0.012,0.027-0.027,0.045-0.049,0.057l-0.209,0.115c-0.02,0.01-0.039,0.012-0.055,0.002c-0.018-0.01-0.027-0.027-0.029-0.053
					l-0.012-0.109c-0.033,0.084-0.082,0.17-0.148,0.258c-0.068,0.084-0.156,0.158-0.27,0.221c-0.08,0.043-0.152,0.068-0.217,0.076
					c-0.066,0.01-0.123,0-0.17-0.023c-0.047-0.021-0.088-0.061-0.119-0.111c-0.029-0.053-0.049-0.115-0.059-0.191
					c-0.02-0.154,0.012-0.301,0.092-0.438c0.078-0.137,0.191-0.264,0.34-0.377l0.438-0.34c-0.012-0.092-0.045-0.145-0.1-0.154
					c-0.055-0.012-0.117,0.004-0.191,0.043c-0.045,0.025-0.08,0.053-0.105,0.084c-0.023,0.029-0.045,0.064-0.066,0.105
					c-0.014,0.025-0.027,0.047-0.039,0.061c-0.014,0.014-0.029,0.025-0.045,0.035l-0.256,0.141c-0.02,0.01-0.035,0.012-0.051,0.006
					C92.943,92.805,92.938,92.789,92.938,92.764z M93.512,93.461c0.064-0.035,0.117-0.076,0.164-0.123
					c0.047-0.051,0.082-0.1,0.113-0.154c0.027-0.055,0.047-0.107,0.059-0.162c0.01-0.055,0.014-0.105,0.008-0.152l-0.002-0.033
					l-0.365,0.287c-0.074,0.057-0.127,0.109-0.156,0.158c-0.029,0.047-0.043,0.098-0.035,0.15c0.006,0.047,0.031,0.07,0.072,0.07
					C93.412,93.504,93.459,93.488,93.512,93.461z"/>
				<path fill="#E1E1E1" d="M95.391,92.289c-0.004-0.023-0.012-0.041-0.027-0.049c-0.014-0.01-0.037-0.012-0.072-0.008
					s-0.078,0.016-0.133,0.031s-0.125,0.035-0.209,0.057c-0.086,0.021-0.154,0.031-0.213,0.027c-0.057-0.006-0.105-0.02-0.143-0.047
					c-0.039-0.027-0.066-0.066-0.086-0.117c-0.021-0.049-0.035-0.107-0.041-0.176c-0.008-0.066-0.006-0.141,0.014-0.219
					s0.049-0.158,0.09-0.236c0.043-0.076,0.098-0.148,0.164-0.219c0.064-0.07,0.145-0.129,0.234-0.178
					c0.09-0.051,0.172-0.082,0.246-0.096c0.072-0.016,0.137-0.016,0.191-0.002s0.1,0.039,0.133,0.076s0.057,0.082,0.066,0.135
					c0.004,0.021,0,0.049-0.012,0.074c-0.016,0.027-0.031,0.047-0.051,0.055l-0.215,0.119c-0.027,0.014-0.047,0.02-0.063,0.014
					c-0.016-0.004-0.031-0.008-0.051-0.016s-0.043-0.008-0.072-0.008c-0.027,0.004-0.07,0.02-0.125,0.051s-0.102,0.068-0.143,0.111
					s-0.057,0.09-0.051,0.141c0.002,0.027,0.01,0.043,0.023,0.055c0.012,0.012,0.033,0.014,0.063,0.014
					c0.031-0.002,0.072-0.01,0.123-0.021c0.053-0.014,0.119-0.033,0.205-0.057c0.168-0.049,0.291-0.045,0.369,0.01
					s0.125,0.148,0.143,0.283c0.008,0.066,0.002,0.141-0.018,0.219c-0.021,0.08-0.055,0.158-0.1,0.238
					c-0.047,0.08-0.105,0.154-0.178,0.227s-0.158,0.135-0.252,0.188c-0.1,0.053-0.186,0.084-0.264,0.1
					c-0.078,0.012-0.146,0.01-0.203-0.008c-0.055-0.016-0.102-0.045-0.135-0.086c-0.037-0.039-0.057-0.088-0.064-0.141
					c-0.006-0.023,0-0.049,0.012-0.074c0.014-0.027,0.031-0.047,0.051-0.057l0.213-0.117c0.027-0.014,0.049-0.02,0.063-0.012
					c0.018,0.01,0.035,0.02,0.055,0.029c0.021,0.012,0.047,0.016,0.078,0.014c0.035,0,0.084-0.02,0.145-0.053
					c0.029-0.016,0.055-0.033,0.086-0.055c0.029-0.02,0.055-0.041,0.078-0.064s0.043-0.051,0.057-0.076S95.395,92.314,95.391,92.289
					z"/>
				<path fill="#E1E1E1" d="M96.824,91.504c-0.002-0.025-0.012-0.041-0.027-0.049c-0.014-0.01-0.039-0.014-0.072-0.008
					s-0.078,0.014-0.133,0.031c-0.055,0.014-0.125,0.033-0.211,0.057c-0.082,0.021-0.154,0.031-0.211,0.025
					c-0.057-0.004-0.105-0.02-0.143-0.047c-0.039-0.027-0.064-0.066-0.086-0.115c-0.02-0.051-0.033-0.109-0.043-0.176
					c-0.008-0.068-0.002-0.141,0.016-0.219c0.02-0.08,0.049-0.16,0.09-0.236c0.045-0.076,0.098-0.15,0.164-0.219
					c0.066-0.072,0.145-0.131,0.234-0.18s0.172-0.082,0.246-0.096c0.072-0.014,0.137-0.016,0.191-0.002
					c0.055,0.016,0.1,0.039,0.135,0.078c0.031,0.037,0.055,0.08,0.064,0.133c0.006,0.023,0,0.049-0.014,0.076
					c-0.012,0.025-0.029,0.045-0.051,0.057l-0.211,0.115c-0.027,0.016-0.051,0.02-0.064,0.016c-0.016-0.006-0.031-0.01-0.051-0.018
					c-0.018-0.006-0.041-0.008-0.07-0.006c-0.029,0.004-0.072,0.02-0.127,0.051c-0.057,0.031-0.104,0.066-0.143,0.109
					s-0.057,0.092-0.051,0.143c0.004,0.025,0.012,0.043,0.021,0.055c0.014,0.01,0.035,0.016,0.064,0.014
					c0.031-0.004,0.07-0.01,0.125-0.023c0.051-0.014,0.119-0.031,0.201-0.057c0.17-0.047,0.293-0.041,0.371,0.01
					c0.078,0.055,0.125,0.15,0.143,0.283c0.008,0.066,0.002,0.141-0.018,0.219c-0.021,0.08-0.053,0.16-0.1,0.238
					c-0.047,0.08-0.107,0.156-0.178,0.227c-0.074,0.072-0.158,0.135-0.254,0.188c-0.098,0.053-0.186,0.086-0.262,0.1
					c-0.078,0.014-0.146,0.012-0.203-0.006s-0.102-0.047-0.137-0.086c-0.033-0.041-0.055-0.088-0.064-0.143
					c-0.004-0.023,0-0.049,0.014-0.074s0.031-0.045,0.051-0.057l0.213-0.115c0.027-0.016,0.049-0.02,0.064-0.012
					c0.016,0.01,0.033,0.018,0.051,0.029c0.021,0.01,0.049,0.016,0.082,0.014s0.08-0.02,0.145-0.053
					c0.027-0.016,0.055-0.035,0.084-0.055c0.029-0.021,0.055-0.043,0.078-0.066s0.043-0.049,0.057-0.074
					C96.822,91.555,96.828,91.527,96.824,91.504z"/>
				<path fill="#E1E1E1" d="M98.816,90.191l0.133-1.098c0.004-0.021,0.01-0.043,0.018-0.066s0.025-0.041,0.051-0.057l0.209-0.115
					c0.02-0.01,0.039-0.01,0.057-0.002c0.018,0.01,0.027,0.027,0.029,0.053c0.002,0.01,0.002,0.018,0,0.023l-0.229,1.781
					c-0.004,0.021-0.008,0.047-0.018,0.068c-0.01,0.025-0.027,0.045-0.053,0.059l-0.209,0.115c-0.025,0.014-0.045,0.016-0.057,0.002
					c-0.014-0.012-0.023-0.027-0.035-0.043l-0.373-0.75l-0.162,1.043c-0.004,0.025-0.01,0.049-0.02,0.072
					c-0.006,0.023-0.023,0.043-0.049,0.057l-0.211,0.115c-0.023,0.014-0.045,0.016-0.057,0.002
					c-0.014-0.012-0.023-0.025-0.031-0.043l-0.605-1.322c-0.002-0.006-0.002-0.012-0.004-0.021
					c-0.004-0.025,0.002-0.051,0.014-0.076c0.014-0.027,0.029-0.045,0.049-0.055l0.211-0.117c0.023-0.014,0.045-0.014,0.057,0
					c0.012,0.012,0.021,0.025,0.029,0.041l0.363,0.824l0.15-1.107c0-0.02,0.006-0.041,0.02-0.068
					c0.012-0.025,0.027-0.043,0.047-0.055l0.211-0.115c0.018-0.01,0.037-0.01,0.053,0c0.018,0.012,0.027,0.023,0.033,0.039
					L98.816,90.191z"/>
				<path fill="#E1E1E1" d="M100.166,88.305c0.102-0.055,0.195-0.084,0.281-0.094c0.086-0.006,0.162,0.01,0.232,0.043
					c0.066,0.035,0.125,0.086,0.17,0.156c0.047,0.07,0.08,0.156,0.098,0.254c0.006,0.021,0.008,0.047,0.012,0.076
					c0.004,0.033,0.008,0.064,0.012,0.096s0.008,0.063,0.01,0.092c0.006,0.031,0.008,0.057,0.008,0.078
					c0.004,0.107-0.004,0.215-0.027,0.324c-0.025,0.109-0.063,0.213-0.115,0.311c-0.051,0.1-0.115,0.189-0.193,0.273
					c-0.076,0.082-0.166,0.15-0.268,0.207c-0.1,0.057-0.195,0.086-0.281,0.094c-0.086,0.006-0.164-0.006-0.23-0.039
					c-0.068-0.035-0.123-0.086-0.17-0.156c-0.045-0.07-0.08-0.156-0.1-0.254c-0.004-0.02-0.01-0.045-0.012-0.076
					c-0.006-0.027-0.01-0.059-0.014-0.09s-0.008-0.063-0.01-0.096c-0.004-0.031-0.004-0.059-0.006-0.078
					c-0.006-0.107,0.002-0.215,0.027-0.324s0.063-0.215,0.117-0.314c0.049-0.1,0.115-0.191,0.191-0.273
					C99.977,88.43,100.064,88.361,100.166,88.305z M100.592,88.879c-0.016-0.064-0.035-0.117-0.061-0.15
					c-0.027-0.035-0.059-0.057-0.094-0.066c-0.033-0.01-0.07-0.01-0.107,0s-0.076,0.025-0.115,0.047s-0.076,0.047-0.111,0.076
					c-0.037,0.033-0.068,0.068-0.096,0.113c-0.027,0.043-0.051,0.094-0.066,0.152c-0.014,0.057-0.021,0.121-0.018,0.193
					c0.002,0.02,0.002,0.043,0.004,0.07c0.002,0.029,0.008,0.055,0.01,0.084c0.002,0.031,0.006,0.059,0.01,0.086
					c0.006,0.027,0.008,0.049,0.014,0.064c0.014,0.066,0.033,0.117,0.061,0.15c0.025,0.035,0.057,0.057,0.09,0.066
					c0.035,0.01,0.072,0.01,0.109,0c0.041-0.01,0.076-0.025,0.115-0.049c0.039-0.02,0.076-0.045,0.113-0.076
					c0.035-0.031,0.066-0.068,0.094-0.111c0.027-0.045,0.049-0.096,0.064-0.152c0.018-0.057,0.023-0.123,0.02-0.195
					c0.002-0.018-0.002-0.039-0.006-0.066c-0.002-0.029-0.006-0.057-0.01-0.086s-0.006-0.057-0.01-0.086
					C100.6,88.918,100.596,88.896,100.592,88.879z"/>
				<path fill="#E1E1E1" d="M101.896,87.822c-0.109,0.061-0.186,0.133-0.227,0.219c-0.041,0.088-0.055,0.197-0.037,0.332
					l0.104,0.875c0.004,0.023-0.002,0.049-0.012,0.076c-0.014,0.025-0.031,0.045-0.051,0.055l-0.209,0.115
					c-0.02,0.01-0.039,0.012-0.057,0c-0.018-0.008-0.025-0.025-0.029-0.051l-0.189-1.566c-0.002-0.025,0.002-0.051,0.014-0.076
					c0.014-0.025,0.029-0.043,0.049-0.055l0.211-0.115c0.02-0.012,0.039-0.014,0.055-0.002c0.018,0.008,0.027,0.025,0.031,0.051
					l0.01,0.078c0.041-0.08,0.086-0.15,0.139-0.209c0.049-0.059,0.119-0.113,0.207-0.16l0.123-0.068
					c0.021-0.01,0.041-0.012,0.057-0.002c0.018,0.01,0.027,0.027,0.029,0.053l0.027,0.221c0.002,0.025-0.002,0.051-0.014,0.076
					s-0.031,0.045-0.051,0.055L101.896,87.822z"/>
				<path fill="#E1E1E1" d="M102.857,86.83c0.055-0.031,0.107-0.053,0.154-0.064s0.088-0.016,0.125-0.014s0.068,0.008,0.096,0.018
					c0.025,0.012,0.047,0.021,0.064,0.035l-0.086-0.717c-0.004-0.025,0.002-0.051,0.014-0.076c0.012-0.027,0.029-0.045,0.051-0.057
					l0.207-0.115c0.021-0.01,0.039-0.012,0.057,0c0.018,0.008,0.029,0.027,0.029,0.051l0.268,2.207
					c0.002,0.023-0.002,0.051-0.016,0.074c-0.012,0.027-0.027,0.045-0.049,0.057l-0.207,0.115c-0.021,0.012-0.041,0.012-0.059,0.002
					c-0.016-0.01-0.027-0.027-0.027-0.051l-0.01-0.078c-0.012,0.029-0.029,0.061-0.051,0.096c-0.021,0.037-0.047,0.076-0.078,0.113
					c-0.031,0.041-0.07,0.078-0.115,0.115c-0.041,0.039-0.092,0.074-0.148,0.105c-0.092,0.051-0.178,0.074-0.258,0.072
					c-0.08-0.004-0.15-0.027-0.211-0.072c-0.063-0.043-0.113-0.105-0.154-0.184c-0.043-0.078-0.07-0.168-0.088-0.27
					c-0.006-0.033-0.012-0.072-0.016-0.117c-0.006-0.043-0.012-0.084-0.012-0.119c-0.01-0.104-0.006-0.213,0.014-0.326
					c0.02-0.111,0.051-0.217,0.096-0.318c0.041-0.102,0.1-0.195,0.168-0.279C102.684,86.947,102.766,86.881,102.857,86.83z
					 M102.697,87.785c0.004,0.066,0.01,0.129,0.023,0.189c0.029,0.137,0.078,0.223,0.148,0.252s0.15,0.02,0.24-0.029
					s0.16-0.123,0.215-0.223c0.055-0.098,0.078-0.211,0.074-0.338c0-0.035-0.004-0.078-0.01-0.131
					c-0.008-0.049-0.014-0.092-0.021-0.123c-0.023-0.111-0.068-0.186-0.139-0.219c-0.072-0.033-0.15-0.025-0.24,0.025
					c-0.09,0.049-0.164,0.123-0.217,0.221C102.717,87.508,102.693,87.633,102.697,87.785z"/>
			</g>
			<g id="Eye_00000029731664635753849670000001526091733690823851_">
				<g>
					<path fill="#E1E1E1" d="M127.032,75.703c-1.086,0.596-1.945-0.25-1.955-0.26l-0.029-0.029l0.02-0.055
						c0.006-0.016,0.564-1.662,1.652-2.258c1.086-0.596,1.949,0.27,1.957,0.279l0.029,0.029l-0.018,0.057
						C128.681,73.48,128.12,75.105,127.032,75.703z M125.169,75.348c0.16,0.139,0.918,0.73,1.848,0.221
						c0.93-0.512,1.459-1.807,1.566-2.092c-0.158-0.143-0.918-0.75-1.848-0.24S125.276,75.059,125.169,75.348z"/>
				</g>
				<path fill="#E1E1E1" d="M126.757,73.406c-0.453,0.248-0.764,0.893-0.697,1.443c0.066,0.549,0.486,0.793,0.936,0.547
					c0.451-0.248,0.762-0.893,0.695-1.443C127.624,73.404,127.206,73.158,126.757,73.406z M126.933,74.883
					c-0.215,0.119-0.418,0-0.451-0.266c-0.031-0.264,0.119-0.578,0.336-0.695c0.219-0.119,0.422-0.002,0.453,0.264
					C127.304,74.451,127.151,74.764,126.933,74.883z"/>
			</g>
			<g>
				<path fill="#375A64" d="M99.947,72.232l-1.602,0.906l-0.016,1.895l1.865-1.055l-0.006,0.576l-2.436,1.377l0.047-5.346
					l2.404-1.361l-0.006,0.576l-1.834,1.039l-0.016,1.723l1.602-0.906L99.947,72.232z"/>
				<path fill="#375A64" d="M103.873,72.471l-0.57,0.322l-1.777-3.094l-0.035,4.119l-0.572,0.324l0.047-5.346l0.57-0.324
					l1.785,3.111l0.035-4.141l0.566-0.318L103.873,72.471z"/>
				<path fill="#375A64" d="M107.456,65.697l-1.191,0.674l-0.039,4.77l-0.57,0.322l0.041-4.771l-1.189,0.674l0.008-0.578
					l2.945-1.666L107.456,65.697z"/>
				<path fill="#375A64" d="M109.472,67.152l-0.797,0.451l-0.02,2.162l-0.572,0.322l0.047-5.346l1.268-0.717
					c0.443-0.25,0.779-0.305,1.004-0.16c0.227,0.143,0.338,0.479,0.332,1.006c-0.004,0.328-0.066,0.652-0.191,0.969
					c-0.127,0.316-0.303,0.602-0.529,0.854l0.857,1.775v0.045l-0.613,0.346L109.472,67.152z M108.679,67.027l0.691-0.391
					c0.238-0.137,0.428-0.334,0.572-0.596c0.143-0.262,0.217-0.545,0.219-0.848c0.006-0.688-0.254-0.881-0.781-0.586l-0.682,0.387
					L108.679,67.027z"/>
				<path fill="#375A64" d="M113.587,65.584l-1.529,0.865l-0.365,1.598l-0.584,0.33l1.504-6.17l0.488-0.277l1.416,4.521l-0.584,0.33
					L113.587,65.584z M112.21,65.789l1.236-0.699l-0.6-2.082L112.21,65.789z"/>
				<path fill="#375A64" d="M116.519,63.166l-0.795,0.451l-0.02,2.16l-0.572,0.324l0.045-5.346l1.27-0.719
					c0.445-0.25,0.779-0.303,1.004-0.16c0.225,0.145,0.336,0.48,0.332,1.006c-0.004,0.33-0.066,0.654-0.193,0.969
					c-0.125,0.316-0.301,0.602-0.527,0.854l0.857,1.777l-0.002,0.043l-0.611,0.348L116.519,63.166z M115.729,63.039l0.689-0.391
					c0.236-0.135,0.43-0.332,0.572-0.594c0.145-0.262,0.217-0.547,0.219-0.85c0.006-0.688-0.254-0.881-0.781-0.584l-0.684,0.389
					L115.729,63.039z"/>
			</g>
			<g>
				<path fill="#E1E1E1" d="M92.285,84.992c-0.021,0.303-0.121,0.582-0.303,0.836c-0.178,0.254-0.432,0.471-0.758,0.65
					c-0.324,0.18-0.582,0.219-0.773,0.115c-0.188-0.102-0.281-0.332-0.277-0.689l0.006-0.498c0.004-0.355,0.105-0.693,0.305-1.008
					c0.199-0.316,0.471-0.568,0.813-0.758c0.313-0.172,0.555-0.229,0.725-0.164c0.172,0.064,0.262,0.238,0.273,0.525l-0.414,0.229
					c-0.014-0.215-0.068-0.344-0.16-0.387c-0.094-0.043-0.236-0.012-0.428,0.094c-0.223,0.123-0.395,0.289-0.516,0.502
					c-0.121,0.211-0.182,0.459-0.186,0.742l-0.006,0.502c-0.002,0.275,0.051,0.459,0.16,0.545c0.109,0.088,0.271,0.072,0.482-0.047
					c0.215-0.115,0.369-0.246,0.463-0.387s0.154-0.334,0.18-0.576L92.285,84.992z"/>
				<path fill="#E1E1E1" d="M93.25,84.26l-0.012,1.072l-0.408,0.225l0.029-2.738l1.039-0.574c0.301-0.166,0.537-0.221,0.707-0.164
					c0.172,0.057,0.256,0.211,0.254,0.467c-0.002,0.262-0.088,0.512-0.252,0.744c-0.168,0.232-0.402,0.436-0.699,0.605L93.25,84.26z
					 M93.252,83.963l0.629-0.348c0.184-0.098,0.322-0.221,0.42-0.367c0.098-0.145,0.148-0.303,0.148-0.473
					c0.002-0.166-0.045-0.271-0.145-0.314s-0.234-0.018-0.41,0.078l-0.631,0.348L93.252,83.963z"/>
				<path fill="#E1E1E1" d="M96.887,82.115l-1.1,0.607l-0.012,1.209l-0.41,0.227l0.029-2.74l1.695-0.936l-0.002,0.297l-1.285,0.709
					l-0.012,0.939l1.1-0.607L96.887,82.115z"/>
			</g>
		</g>
	</g>
	<g id="Button">
		<g id="Shadow_00000132049904998912279580000001158249809654001026_" opacity="0.2">
			<path d="M55.08,138.204l80.88-44.334c0.334-0.184,0.637-0.045,0.68,0.307l1.145,9.475c0.043,0.352-0.193,0.787-0.527,0.969
				l-80.88,44.332c-0.334,0.184-0.639,0.047-0.68-0.307l-1.145-9.473C54.51,138.819,54.746,138.385,55.08,138.204z"/>
		</g>
		<g id="Speech_Bubble_00000031199487694649047190000012510271927297041817_">
			<path id="XMLID_00000066504214580908542800000002062432123805501883_" fill="#1A8CD1" d="M135.339,96.313L56.975,139.26
				c-0.369,0.203-0.631,0.682-0.584,1.07l1.016,8.404c0.049,0.389,0.424,0.852,0.842,1.035l1.428,0.633
				c0.414,0.184,1.053,0.17,1.42-0.033l78.366-42.947c0.367-0.201,0.627-0.678,0.58-1.068l-1.014-8.405
				c-0.047-0.389-0.424-0.852-0.84-1.037l-1.43-0.631C136.343,96.098,135.706,96.111,135.339,96.313z"/>
			<path id="XMLID_00000155863774540807315370000007309036182074470056_" opacity="0.2" d="M61.096,150.37
				c-0.354,0.197-1.045,0.215-1.422,0.035l-1.426-0.637c-0.416-0.18-0.793-0.645-0.842-1.033l-1.016-8.404
				c-0.023-0.201,0.039-0.428,0.152-0.627l2.922,1.322c-0.107,0.191-0.158,0.408-0.135,0.602l1.016,8.402
				C60.387,150.387,60.703,150.586,61.096,150.37z"/>
			<g id="XMLID_00000033334149792294354740000010032553457302984325_" opacity="0.2">
				<path fill="#FFFFFF" d="M139.005,97.838c-0.092-0.305-0.398-0.408-0.729-0.227l-78.364,42.95
					c-0.186,0.102-0.342,0.27-0.447,0.465l-2.926-1.322c0.105-0.186,0.256-0.346,0.436-0.443l78.366-42.948
					c0.365-0.201,1-0.217,1.42-0.033l1.428,0.633C138.563,97.08,138.911,97.477,139.005,97.838z"/>
			</g>
			<path fill="#1A8CD1" d="M138.276,97.611l-78.366,42.95c-0.367,0.199-0.629,0.68-0.58,1.066l0.203,1.701l0.813,6.703
				c0.045,0.389,0.383,0.541,0.75,0.338l78.366-42.947c0.367-0.201,0.627-0.678,0.58-1.068l-1.014-8.405
				C138.981,97.561,138.646,97.41,138.276,97.611z"/>
		</g>
		<g>
			<path fill="#FFFFFF" d="M95.467,127.6c0.041-0.023,0.078-0.023,0.111-0.004c0.035,0.02,0.055,0.055,0.061,0.104l0.057,0.477
				c0.006,0.051-0.004,0.102-0.027,0.154c-0.025,0.051-0.059,0.09-0.1,0.109l-2.416,1.324c-0.041,0.023-0.076,0.025-0.109,0.006
				c-0.035-0.021-0.055-0.055-0.061-0.105l-0.525-4.346c-0.006-0.049,0.004-0.1,0.029-0.15c0.027-0.053,0.059-0.09,0.098-0.113
				l0.447-0.244c0.041-0.021,0.078-0.023,0.111-0.004s0.055,0.055,0.061,0.104l0.445,3.688L95.467,127.6z"/>
			<path fill="#FFFFFF" d="M97.031,123.838c0.201-0.111,0.389-0.174,0.563-0.188c0.172-0.014,0.326,0.016,0.463,0.084
				c0.135,0.068,0.25,0.174,0.342,0.314c0.094,0.141,0.158,0.311,0.193,0.51c0.01,0.039,0.02,0.09,0.025,0.152
				c0.008,0.061,0.016,0.125,0.023,0.188s0.016,0.125,0.023,0.186c0.006,0.061,0.01,0.113,0.012,0.154
				c0.01,0.215-0.01,0.432-0.057,0.648c-0.049,0.217-0.125,0.426-0.229,0.623s-0.232,0.381-0.387,0.545
				c-0.154,0.166-0.332,0.305-0.535,0.416s-0.391,0.172-0.563,0.186c-0.172,0.016-0.326-0.012-0.461-0.08
				c-0.137-0.066-0.252-0.17-0.342-0.311c-0.092-0.141-0.156-0.311-0.197-0.51c-0.008-0.037-0.018-0.088-0.027-0.146
				c-0.006-0.061-0.016-0.121-0.023-0.184s-0.014-0.127-0.02-0.189c-0.008-0.064-0.008-0.117-0.012-0.158
				c-0.014-0.213,0.004-0.43,0.055-0.646c0.051-0.221,0.127-0.43,0.23-0.629c0.102-0.201,0.232-0.385,0.385-0.551
				C96.648,124.086,96.828,123.95,97.031,123.838z M97.879,124.987c-0.025-0.135-0.068-0.234-0.119-0.303
				c-0.055-0.068-0.115-0.115-0.186-0.133c-0.068-0.02-0.141-0.02-0.217,0s-0.152,0.051-0.23,0.094
				c-0.076,0.043-0.15,0.094-0.223,0.154c-0.07,0.061-0.135,0.135-0.189,0.223c-0.057,0.088-0.102,0.189-0.131,0.307
				c-0.031,0.113-0.043,0.244-0.037,0.389c0,0.037,0.002,0.084,0.008,0.141c0.004,0.055,0.01,0.109,0.016,0.168
				c0.008,0.059,0.016,0.115,0.023,0.17c0.01,0.057,0.02,0.096,0.023,0.127c0.029,0.135,0.07,0.234,0.123,0.305
				c0.053,0.066,0.115,0.109,0.184,0.131c0.068,0.02,0.141,0.02,0.217,0c0.076-0.021,0.154-0.053,0.23-0.096
				c0.078-0.041,0.15-0.094,0.223-0.152c0.07-0.061,0.135-0.137,0.191-0.223c0.055-0.088,0.1-0.191,0.131-0.307
				c0.029-0.113,0.045-0.244,0.037-0.389c0-0.035-0.002-0.08-0.01-0.135c-0.006-0.057-0.014-0.113-0.021-0.172
				c-0.006-0.059-0.014-0.113-0.02-0.168S97.889,125.02,97.879,124.987z"/>
			<path fill="#FFFFFF" d="M100.811,126.284c0.078-0.043,0.156-0.102,0.234-0.174c0.076-0.074,0.145-0.16,0.203-0.26
				c0.061-0.098,0.104-0.209,0.133-0.328c0.031-0.119,0.039-0.244,0.023-0.373l-0.031-0.25c-0.023,0.057-0.057,0.123-0.098,0.195
				c-0.043,0.072-0.096,0.148-0.16,0.225c-0.061,0.078-0.137,0.156-0.225,0.232c-0.086,0.076-0.186,0.146-0.301,0.209
				c-0.184,0.1-0.355,0.146-0.514,0.141c-0.16-0.006-0.301-0.053-0.424-0.141c-0.121-0.088-0.225-0.209-0.309-0.367
				c-0.082-0.158-0.141-0.338-0.174-0.541c-0.012-0.064-0.023-0.143-0.033-0.232c-0.012-0.09-0.02-0.168-0.023-0.238
				c-0.018-0.211-0.008-0.426,0.031-0.65c0.037-0.225,0.1-0.438,0.186-0.643c0.088-0.203,0.199-0.389,0.338-0.557
				c0.139-0.17,0.299-0.305,0.484-0.406c0.113-0.061,0.217-0.104,0.313-0.127c0.09-0.021,0.174-0.031,0.248-0.029
				c0.072,0.004,0.135,0.016,0.188,0.035c0.055,0.021,0.1,0.045,0.133,0.068l-0.02-0.154c-0.006-0.049,0.004-0.1,0.029-0.15
				c0.025-0.053,0.059-0.09,0.1-0.111l0.418-0.23c0.041-0.021,0.078-0.023,0.111-0.004s0.055,0.053,0.059,0.104l0.383,3.154
				c0.066,0.543-0.01,1.021-0.227,1.434c-0.213,0.41-0.539,0.736-0.977,0.977c-0.188,0.104-0.365,0.168-0.531,0.195
				c-0.168,0.025-0.316,0.023-0.447-0.014s-0.236-0.1-0.322-0.189c-0.086-0.088-0.139-0.199-0.164-0.33
				c-0.01-0.047,0-0.098,0.025-0.15c0.029-0.055,0.061-0.09,0.102-0.113l0.377-0.205c0.051-0.027,0.098-0.031,0.139-0.008
				c0.043,0.021,0.078,0.043,0.107,0.066c0.057,0.049,0.131,0.076,0.219,0.08S100.635,126.379,100.811,126.284z M99.836,124.036
				c0.004,0.133,0.018,0.258,0.045,0.377c0.059,0.279,0.158,0.449,0.295,0.508c0.143,0.059,0.301,0.041,0.482-0.059
				s0.324-0.246,0.432-0.445c0.107-0.197,0.156-0.422,0.145-0.676c0-0.07-0.008-0.158-0.02-0.26
				c-0.012-0.104-0.025-0.188-0.043-0.25c-0.045-0.223-0.139-0.367-0.277-0.436c-0.139-0.066-0.299-0.051-0.48,0.047
				c-0.18,0.1-0.324,0.248-0.434,0.443C99.871,123.483,99.824,123.731,99.836,124.036z"/>
			<path fill="#FFFFFF" d="M102.912,119.323c0.041-0.023,0.078-0.025,0.109-0.004c0.035,0.02,0.055,0.053,0.063,0.102l0.063,0.527
				c0.006,0.049-0.004,0.1-0.029,0.15c-0.025,0.053-0.059,0.09-0.098,0.111l-0.475,0.26c-0.041,0.021-0.078,0.023-0.111,0.004
				s-0.053-0.055-0.061-0.104l-0.063-0.525c-0.006-0.047,0.004-0.1,0.029-0.15c0.025-0.053,0.057-0.09,0.098-0.111L102.912,119.323z
				 M103.588,123.85c0.006,0.049-0.004,0.102-0.029,0.152s-0.057,0.088-0.096,0.111l-0.42,0.229
				c-0.041,0.023-0.078,0.023-0.111,0.006c-0.035-0.021-0.055-0.057-0.061-0.105l-0.379-3.135c-0.006-0.049,0.004-0.1,0.029-0.152
				c0.025-0.051,0.057-0.088,0.098-0.111l0.42-0.229c0.041-0.023,0.078-0.023,0.111-0.004c0.033,0.018,0.053,0.053,0.059,0.104
				L103.588,123.85z"/>
			<path fill="#FFFFFF" d="M107.04,121.958c0.006,0.049-0.004,0.1-0.029,0.152c-0.025,0.051-0.059,0.09-0.098,0.111l-0.42,0.229
				c-0.039,0.023-0.078,0.023-0.111,0.006c-0.033-0.021-0.053-0.057-0.059-0.105l-0.207-1.709c-0.031-0.268-0.109-0.455-0.232-0.561
				s-0.289-0.1-0.502,0.018c-0.197,0.107-0.34,0.271-0.432,0.496c-0.094,0.221-0.125,0.469-0.092,0.736l0.207,1.709
				c0.006,0.049-0.004,0.102-0.029,0.152c-0.025,0.053-0.059,0.09-0.098,0.111l-0.42,0.229c-0.041,0.023-0.078,0.023-0.111,0.006
				c-0.035-0.02-0.055-0.055-0.059-0.105l-0.378-3.135c-0.006-0.049,0.002-0.1,0.027-0.15c0.027-0.053,0.059-0.09,0.1-0.111
				l0.419-0.23c0.039-0.021,0.076-0.023,0.111-0.004c0.033,0.02,0.053,0.055,0.059,0.104l0.02,0.154
				c0.08-0.168,0.18-0.328,0.301-0.475c0.119-0.146,0.268-0.266,0.443-0.363c0.225-0.123,0.418-0.184,0.58-0.182
				c0.16,0.004,0.295,0.051,0.404,0.145c0.109,0.092,0.193,0.225,0.256,0.395c0.061,0.168,0.104,0.359,0.129,0.568L107.04,121.958z"
				/>
		</g>
	</g>
	<g id="Icon">
		<path fill="#1A2E35" d="M55.346,127.413l26.799-14.693l-1.492-8.234c-0.602-2.385-1.914-4.03-3.6-4.79
			c-0.758-0.34-1.508-0.678-2.266-1.02c-1.68-0.754-3.73-0.631-5.828,0.52l-9.146,5.014c-4.207,2.307-7.313,8.033-7.291,13.436
			l0.557,8.746L55.346,127.413z"/>
		<g>
			<g>
				<path fill="#375A64" d="M80.652,104.485c-0.602-2.385-1.914-4.03-3.602-4.79c-1.678-0.754-3.729-0.631-5.826,0.52l-9.148,5.014
					c-4.203,2.307-7.311,8.033-7.289,13.436l0.559,8.748l26.799-14.693L80.652,104.485z"/>
			</g>
		</g>
		<g>
			<path fill="#1A2E35" d="M69.805,82.201c1.59,0.717,2.711,2.297,2.984,4.57c0.549,4.545-2.494,10.143-6.797,12.502
				c-2.152,1.18-4.211,1.326-5.801,0.611c-0.963-0.436-1.221-0.551-2.188-0.986c-1.59-0.715-2.711-2.295-2.984-4.568
				c-0.549-4.547,2.496-10.145,6.797-12.502c2.152-1.18,4.213-1.328,5.801-0.611C68.582,81.652,68.84,81.768,69.805,82.201z"/>
			<path fill="#375A64" d="M65.992,99.273c-2.152,1.18-4.211,1.326-5.801,0.611c-1.588-0.717-2.709-2.299-2.982-4.57
				c-0.551-4.547,2.494-10.145,6.795-12.502c2.152-1.18,4.211-1.326,5.801-0.611c1.59,0.717,2.711,2.297,2.984,4.57
				C73.338,91.316,70.295,96.914,65.992,99.273z"/>
		</g>
	</g>
	<g id="Plant_00000118377366709855210660000011447699959036873885_">
		<g id="Pot_00000029754012283289297050000010972749429158412678_">
			<path id="XMLID_00000181781040157103022950000002108918670065402774_" fill="#2B454E" d="M32.832,161.407L8.244,160.86
				l2.309,10.646h0.002c0.166,1.283,1.08,2.549,2.75,3.564c3.775,2.291,9.977,2.428,13.848,0.305c1.846-1.012,2.82-2.355,2.936-3.73
				L32.832,161.407z"/>
			<path fill="#1A2E35" d="M29.674,168.6c0.564-0.311,1.057-0.645,1.496-0.998l1.51-5.627c-0.646,0.695-1.488,1.348-2.531,1.92
				c-5.252,2.881-13.568,2.773-18.869-0.174l0.682-2.508l-0.188-0.27l-3.529-0.08l2.309,10.643h0.002
				c0.166,1.281,1.08,2.549,2.75,3.564c2.691,1.633,6.605,2.166,10.039,1.572c-6.135,0.32-10.279-2.449-10.855-4.932
				c-0.23-0.992-0.621-3.182-0.621-3.182C16.926,171.243,24.723,171.311,29.674,168.6z"/>
			<path id="XMLID_00000125600935107046894750000013529846297949156275_" fill="#375A64" d="M34.18,158.301
				c-0.141,0.646-0.43,1.285-0.863,1.893c-0.684,0.984-1.736,1.898-3.145,2.674c-5.404,2.961-14.063,2.771-19.332-0.428
				c-1.373-0.836-2.383-1.795-3.025-2.809c-0.4-0.627-0.66-1.275-0.773-1.928H7.037c-0.424-2.326,0.934-4.713,4.051-6.422
				c5.404-2.967,14.061-2.775,19.33,0.426C33.455,153.553,34.707,155.997,34.18,158.301z"/>
			<path id="XMLID_00000036962201241936262520000011320133503974306961_" fill="#2B454E" d="M33.316,160.194
				c-0.684,0.984-1.736,1.898-3.145,2.674c-5.404,2.961-14.063,2.771-19.332-0.428c-1.373-0.836-2.383-1.795-3.025-2.809
				c-0.4-0.627-0.66-1.275-0.773-1.928H7.037l0.516,4.18c0.24,1.684,1.453,3.346,3.652,4.678c5.023,3.047,13.268,3.229,18.42,0.406
				c2.225-1.219,3.51-2.805,3.842-4.453l0.037-0.213l0.676-4C34.039,158.948,33.75,159.586,33.316,160.194z"/>
			<path id="XMLID_00000085252070847210250450000009036254866954823066_" fill="#1A2E35" d="M28.787,152.602
				c-4.393-2.668-11.605-2.828-16.107-0.355c-2.549,1.398-3.684,3.338-3.396,5.24c0.223,1.461,1.285,2.9,3.191,4.059
				c4.389,2.666,11.602,2.824,16.107,0.355c1.951-1.072,3.078-2.465,3.361-3.912C32.32,156.098,31.271,154.11,28.787,152.602z"/>
			<path id="XMLID_00000122706747167468118410000017180811102908958876_" fill="#FAFAFA" d="M9.996,159.264
				c0.539,0.822,1.359,1.602,2.479,2.281c4.389,2.666,11.602,2.824,16.107,0.355c1.146-0.631,2-1.373,2.574-2.17
				c0.002-1.539-0.996-3.094-3.002-4.313c-4.082-2.479-10.783-2.625-14.965-0.33C11.129,156.219,10.064,157.727,9.996,159.264z"/>
		</g>
		<g>
			<path fill="#1A8CD1" d="M21.533,154.735c-2.033-0.598-2.279-5.035-1.031-9.682c1.213-4.521,4.93-11.26,5.684-11.096
				c0.756,0.168,1.539,7.598,0.898,12.48C26.307,152.352,23.564,155.334,21.533,154.735z"/>
			<path opacity="0.4" d="M21.533,154.735c-2.033-0.598-2.279-5.035-1.031-9.682c1.213-4.521,4.93-11.26,5.684-11.096
				c0.756,0.168,1.539,7.598,0.898,12.48C26.307,152.352,23.564,155.334,21.533,154.735z"/>
			<path fill="#1A8CD1" d="M22.846,140.442c0.352,0.586,0.557,1.572,1.416,1.596c0.689,0.018,1.064-0.705,1.689-0.857
				c0.502-0.123,0.971,0.15,1.363,0.441c-0.004-0.178-0.006-0.355-0.012-0.533c-0.348-0.24-0.742-0.447-1.176-0.443
				c-0.387,0.002-0.701,0.203-1,0.424c-0.326,0.24-0.721,0.607-1.158,0.416c-0.492-0.217-0.621-0.844-0.865-1.266
				c-0.137-0.234-0.311-0.434-0.533-0.572c-0.059,0.125-0.117,0.248-0.174,0.373C22.578,140.118,22.734,140.256,22.846,140.442z
				 M25.311,138.667c0.295-0.133,0.471-0.42,0.703-0.633c0.295-0.273,0.688-0.322,1.059-0.182c0.012,0.006,0.023,0.016,0.035,0.02
				c-0.018-0.158-0.033-0.313-0.051-0.465c-0.061-0.021-0.127-0.041-0.191-0.053c-0.295-0.049-0.607-0.004-0.859,0.168
				c-0.285,0.197-0.449,0.539-0.752,0.713c-0.543,0.309-0.953-0.283-1.104-0.725c-0.068-0.199-0.117-0.402-0.18-0.6
				c-0.057,0.102-0.113,0.205-0.17,0.309c0.033,0.141,0.064,0.283,0.104,0.416C24.074,138.215,24.602,138.985,25.311,138.667z
				 M25.111,144.579c-0.377,0.221-0.701,0.596-1.133,0.709c-1.061,0.277-1.268-1.355-1.928-1.85
				c-0.279-0.209-0.619-0.293-0.949-0.271c-0.047,0.125-0.09,0.248-0.131,0.371c0.176-0.027,0.355-0.029,0.535,0.016
				c0.447,0.117,0.695,0.447,0.902,0.838c0.322,0.613,0.73,1.486,1.578,1.338c0.379-0.066,0.684-0.32,0.992-0.529
				c0.434-0.297,0.902-0.477,1.434-0.354c0.316,0.074,0.555,0.25,0.791,0.445c0.014-0.16,0.027-0.32,0.037-0.482
				c-0.287-0.225-0.598-0.4-0.967-0.453C25.871,144.299,25.465,144.377,25.111,144.579z M25.674,148.167
				c-0.463-0.125-0.967-0.047-1.398,0.152c-0.492,0.232-0.857,0.693-1.371,0.877c-1.121,0.396-1.26-1.219-2.064-1.635
				c-0.266-0.137-0.557-0.193-0.84-0.182c-0.021,0.127-0.041,0.252-0.059,0.379c0.107-0.006,0.217-0.004,0.322,0.014
				c0.555,0.088,0.883,0.432,1.129,0.914c0.377,0.742,0.881,1.35,1.793,0.93c0.486-0.223,0.84-0.656,1.34-0.855
				c0.545-0.219,1.203-0.225,1.656,0.188c0.086,0.076,0.188,0.221,0.307,0.391c0.043-0.156,0.084-0.32,0.129-0.482
				C26.371,148.536,26.074,148.276,25.674,148.167z"/>
			<path opacity="0.1" d="M21.533,154.735c2.031,0.6,4.773-2.383,5.551-8.297c0.201-1.543,0.262-3.34,0.227-5.082
				c-1.701,1.336-3.438,4.098-3.438,4.098s-1.029-2.889-1.887-4.516c-0.611,1.412-1.146,2.85-1.484,4.115
				C19.254,149.7,19.5,154.137,21.533,154.735z"/>
		</g>
		<g>
			<path fill="#1A8CD1" d="M19.813,157.155c-2.729,1.666-5.1-4.527-6.334-9.189c-1.234-4.664-0.096-16.756,1.273-17.387
				c0.971-0.449,5.809,10.516,6.691,15.82C22.082,150.237,21.982,155.829,19.813,157.155z"/>
			<path opacity="0.2" d="M19.813,157.155c-2.729,1.666-5.1-4.527-6.334-9.189c-1.234-4.664-0.096-16.756,1.273-17.387
				c0.971-0.449,5.809,10.516,6.691,15.82C22.082,150.237,21.982,155.829,19.813,157.155z"/>
			<path fill="#1A8CD1" d="M14.404,139.125c0.836,0.436,1.508,0.453,2.182-0.244c0.627-0.65,1.096-1.475,2.049-1.348
				c-0.088-0.215-0.176-0.428-0.266-0.639c-0.152-0.012-0.309,0-0.465,0.037c-0.838,0.205-1.232,1.064-1.83,1.6
				c-0.92,0.824-1.857-0.307-2.881-0.266c-0.031,0.002-0.063,0.006-0.094,0.01c-0.012,0.184-0.025,0.369-0.039,0.555
				C13.512,138.805,13.979,138.905,14.404,139.125z M21.613,147.624c-0.143-0.055-0.287-0.105-0.441-0.139
				c-0.443-0.094-0.906,0.002-1.275,0.26c-0.826,0.582-0.893,1.906-2.201,1.531c-0.998-0.287-1.732-0.963-2.795-0.459
				c-0.361,0.17-0.688,0.418-0.98,0.707c0.045,0.154,0.094,0.309,0.143,0.463c0.391-0.367,0.824-0.666,1.326-0.783
				c1.139-0.266,1.969,0.898,3.1,0.734c0.922-0.131,1.043-1.137,1.693-1.623c0.482-0.359,0.988-0.258,1.494-0.061
				C21.658,148.042,21.637,147.831,21.613,147.624z M14.549,134.729c0.305,0.441,0.736,0.93,1.324,0.643
				c0.633-0.307,0.697-1.064,1.109-1.549c-0.07-0.143-0.141-0.285-0.209-0.422c-0.402,0.514-0.621,1.641-1.365,1.584
				c-0.584-0.045-0.793-0.914-1.275-1.174c-0.168-0.09-0.33-0.119-0.484-0.105c-0.023,0.115-0.043,0.234-0.064,0.355
				c0.039-0.004,0.078-0.008,0.117-0.006C14.107,134.079,14.338,134.426,14.549,134.729z M16.371,143.969
				c1.057,0.252,1.604-1.002,2.098-1.691c0.367-0.514,0.914-1.041,1.502-1.215c-0.068-0.189-0.137-0.383-0.205-0.574
				c-0.197,0.039-0.389,0.102-0.559,0.193c-0.49,0.264-0.859,0.693-1.176,1.143c-0.33,0.473-0.611,1.107-1.113,1.418
				c-0.576,0.355-1.229-0.234-1.814-0.357c-0.545-0.113-1.113-0.076-1.641,0.1c-0.172,0.057-0.34,0.137-0.502,0.229
				c0.006,0.264,0.014,0.523,0.023,0.779c0.453-0.408,1.146-0.568,1.736-0.543C15.342,143.477,15.795,143.831,16.371,143.969z"/>
			<path opacity="0.1" d="M20.139,141.559c-1.463,1.676-2.258,3.52-2.258,3.52s-2.83-4.023-4.84-5.863
				c-0.188,3.285-0.1,6.721,0.438,8.75c1.234,4.662,3.605,10.855,6.334,9.189c2.17-1.326,2.27-6.918,1.631-10.756
				C21.221,145.057,20.74,143.35,20.139,141.559z"/>
		</g>
		<g>
			<path fill="#1A8CD1" d="M19.559,160.307c-4.924,0.156-9.453-2.922-12.35-6.742s-5.055-11.623-4.371-12.084
				c0.686-0.463,8.51,4.604,11.41,8.199C18.053,154.395,19.559,160.307,19.559,160.307z"/>
			<path opacity="0.4" d="M19.559,160.307c-4.924,0.156-9.453-2.922-12.35-6.742s-5.055-11.623-4.371-12.084
				c0.686-0.463,8.51,4.604,11.41,8.199C18.053,154.395,19.559,160.307,19.559,160.307z"/>
			<path fill="#1A8CD1" d="M9.098,147.754c0.299-0.459,0.145-1.02,0.094-1.52c-0.039-0.369,0.043-0.686,0.221-0.951
				c-0.182-0.137-0.363-0.271-0.547-0.404c-0.25,0.408-0.287,0.854-0.229,1.328c0.066,0.568,0.189,1.279-0.572,1.365
				c-0.83,0.096-1.959-0.67-2.639,0.135c-0.33,0.389-0.219,0.9-0.24,1.363c-0.01,0.195-0.08,0.406-0.191,0.596
				c0.084,0.188,0.172,0.375,0.26,0.561c0.199-0.232,0.34-0.525,0.385-0.826c0.084-0.568-0.125-1.313,0.65-1.418
				c0.535-0.072,1.043,0.186,1.57,0.236C8.328,148.262,8.824,148.176,9.098,147.754z M6.445,143.588
				c0.063-0.094,0.139-0.164,0.221-0.23c-0.146-0.096-0.293-0.188-0.436-0.279c-0.371,0.467-0.385,1.117-0.762,1.582
				c-0.25,0.309-0.566,0.324-0.932,0.242c-0.355-0.08-0.682-0.137-1.025,0.012c-0.074,0.033-0.143,0.07-0.209,0.113
				c0.035,0.119,0.068,0.24,0.105,0.359c0.15-0.08,0.324-0.131,0.518-0.133c0.373,0,0.713,0.203,1.09,0.186
				c0.26-0.012,0.48-0.135,0.66-0.32C6.088,144.686,6.121,144.069,6.445,143.588z M11.748,150.297
				c0.391-0.309,0.639-0.779,0.773-1.25c0.096-0.334,0.098-0.695,0.152-1.041c-0.15-0.141-0.301-0.281-0.457-0.422
				c-0.113,0.574-0.072,1.156-0.385,1.691c-0.352,0.613-0.867,0.783-1.547,0.768c-0.488-0.012-0.967,0.008-1.324,0.391
				c-0.328,0.354-0.439,0.846-0.518,1.309c-0.117,0.682-0.234,1.313-0.881,1.686c-0.111,0.064-0.225,0.111-0.342,0.152
				c0.111,0.146,0.23,0.291,0.346,0.436c0.268-0.113,0.514-0.277,0.719-0.51c0.844-0.957,0.219-2.91,1.967-2.869
				C10.803,150.649,11.295,150.655,11.748,150.297z M14.381,150.85c0.1-0.188,0.234-0.354,0.381-0.508
				c-0.135-0.18-0.275-0.359-0.414-0.537c-0.432,0.422-0.67,0.947-0.822,1.529c-0.164,0.621-0.26,1.303-0.682,1.816
				c-0.438,0.541-1.119,0.467-1.691,0.771c-0.488,0.258-0.865,0.689-1.074,1.199c-0.162,0.396-0.217,0.818-0.291,1.234
				c0.168,0.148,0.338,0.295,0.512,0.439c0.004-0.025,0.01-0.051,0.016-0.074c0.127-0.695,0.223-1.408,0.777-1.906
				c0.531-0.479,1.244-0.389,1.809-0.768C13.977,153.323,13.824,151.881,14.381,150.85z M16.467,152.946
				c-0.143,0.109-0.283,0.229-0.408,0.359c-0.859,0.902-0.781,2.102-1.113,3.223c-0.17,0.574-0.49,1.154-1.076,1.381
				c-0.475,0.184-1-0.016-1.414,0.344c-0.016,0.012-0.027,0.031-0.041,0.045c0.238,0.145,0.482,0.279,0.729,0.412
				c0.131-0.031,0.271-0.033,0.408-0.039c0.277-0.012,0.52-0.047,0.77-0.168c0.43-0.205,0.746-0.584,0.959-1
				c0.533-1.045,0.334-2.334,0.99-3.324c0.156-0.234,0.344-0.434,0.547-0.604C16.703,153.368,16.588,153.157,16.467,152.946z"/>
			<path opacity="0.2" d="M8.82,144.846c0.373,4.08,2.305,15.082,10.738,15.461c0,0-1.506-5.912-5.311-10.627
				C13.02,148.155,10.902,146.366,8.82,144.846z"/>
		</g>
		<g>
			<path fill="#1A8CD1" d="M19.559,160.307c-3.855-0.65-7.119-3.172-8.666-10.494c-1.545-7.324-1.73-10.619-0.545-11.316
				c1.371-0.805,6.484,6.656,8.113,9.924C22.547,156.629,19.559,160.307,19.559,160.307z"/>
			<path opacity="0.2" fill="#FFFFFF" d="M12.68,146.686c0.957,0.324,2.205,0.674,2.949-0.262c0.363-0.457,0.475-1.086,0.73-1.572
				c-0.164-0.252-0.332-0.502-0.502-0.756c-0.439,0.678-0.451,1.691-1.207,2.068c-0.566,0.283-1.227,0.072-1.787-0.109
				c-0.578-0.188-1.158-0.375-1.771-0.307c-0.342,0.039-0.652,0.148-0.936,0.305c0.039,0.215,0.082,0.441,0.123,0.666
				c0.125-0.068,0.258-0.129,0.391-0.176C11.359,146.301,12.01,146.459,12.68,146.686z M11.619,142.889
				c0.291,0.125,0.574,0.252,0.896,0.191c0.59-0.107,0.908-0.67,1.221-1.121c0.09-0.135,0.189-0.266,0.303-0.375
				c-0.117-0.152-0.234-0.303-0.354-0.447c-0.025,0.025-0.051,0.047-0.074,0.074c-0.377,0.434-0.703,1.33-1.385,1.328
				c-0.332-0.002-0.641-0.227-0.959-0.305c-0.275-0.064-0.553-0.074-0.832-0.035c-0.283,0.039-0.547,0.137-0.781,0.277
				c0.018,0.168,0.035,0.346,0.055,0.523c0.322-0.174,0.676-0.287,1.043-0.293C11.059,142.702,11.342,142.77,11.619,142.889z
				 M15.662,151.075c0.383-0.531,0.662-1.135,1.215-1.514c0.648-0.443,1.289-0.4,1.98-0.309c-0.125-0.271-0.254-0.547-0.395-0.83
				c-0.447-0.059-0.881-0.076-1.34,0.057c-0.607,0.174-1.119,0.541-1.498,1.043c-0.346,0.461-0.584,1.025-1.021,1.406
				c-0.803,0.703-1.854,0.049-2.73-0.145c-0.256-0.057-0.514-0.082-0.77-0.076c0.063,0.256,0.127,0.506,0.193,0.748
				c0.324,0.004,0.66,0.061,1.014,0.18C13.613,152.073,14.756,152.34,15.662,151.075z M20.086,152.59
				c-0.066,0.018-0.131,0.027-0.197,0.051c-0.525,0.188-0.98,0.523-1.332,0.955c-0.385,0.477-0.598,1.061-0.961,1.547
				c-0.428,0.57-0.891,0.705-1.551,0.479c-0.578-0.195-1.098-0.344-1.697-0.162c-0.412,0.125-0.777,0.357-1.092,0.65
				c0.127,0.197,0.258,0.383,0.393,0.566c0.246-0.205,0.535-0.383,0.84-0.467c0.49-0.137,0.885,0.002,1.33,0.195
				c1.1,0.479,2.053,0.211,2.754-0.771c0.344-0.479,0.547-1.047,0.928-1.496c0.229-0.268,0.506-0.465,0.814-0.596
				C20.248,153.235,20.176,152.918,20.086,152.59z"/>
			<path opacity="0.15" d="M18.461,148.42c-0.295-0.592-0.703-1.32-1.184-2.113c-1.787,5.137-2.492,12.666,2.281,14
				C19.559,160.307,22.547,156.629,18.461,148.42z"/>
		</g>
		<g>
			<path fill="#1A8CD1" d="M21.559,160.35c4.91,0.373,9.57-2.5,12.635-6.189c3.061-3.689,5.561-11.391,4.896-11.881
				c-0.662-0.492-8.703,4.225-11.76,7.688C23.322,154.512,21.559,160.35,21.559,160.35z"/>
			<path opacity="0.4" d="M21.559,160.35c4.91,0.373,9.57-2.5,12.635-6.189c3.061-3.689,5.561-11.391,4.896-11.881
				c-0.662-0.492-8.703,4.225-11.76,7.688C23.322,154.512,21.559,160.35,21.559,160.35z"/>
			<path fill="#1A8CD1" d="M33.777,148.79c0.529-0.025,1.047-0.262,1.58-0.166c0.77,0.141,0.529,0.873,0.588,1.447
				c0.027,0.301,0.158,0.602,0.348,0.84c0.094-0.182,0.191-0.363,0.283-0.549c-0.102-0.191-0.162-0.408-0.164-0.602
				c-0.002-0.465,0.133-0.971-0.182-1.373c-0.643-0.834-1.805-0.119-2.629-0.252c-0.756-0.119-0.604-0.822-0.51-1.387
				c0.078-0.473,0.059-0.92-0.172-1.338c-0.188,0.123-0.375,0.25-0.563,0.379c0.164,0.273,0.232,0.594,0.176,0.959
				c-0.074,0.498-0.248,1.053,0.027,1.523C32.816,148.704,33.307,148.813,33.777,148.79z M36.098,145.79
				c0.17,0.195,0.385,0.326,0.645,0.35c0.373,0.033,0.725-0.154,1.096-0.137c0.195,0.01,0.365,0.068,0.514,0.156
				c0.041-0.119,0.08-0.238,0.119-0.355c-0.064-0.045-0.131-0.086-0.201-0.121c-0.34-0.164-0.668-0.123-1.025-0.057
				c-0.371,0.064-0.686,0.035-0.922-0.285c-0.355-0.48-0.34-1.131-0.689-1.613c-0.148,0.084-0.297,0.172-0.449,0.26
				c0.078,0.068,0.154,0.145,0.211,0.24C35.697,144.719,35.703,145.34,36.098,145.79z M31.281,151.1
				c1.746,0.037,1.037,1.961,1.84,2.953c0.193,0.242,0.432,0.416,0.693,0.541c0.123-0.139,0.248-0.277,0.365-0.42
				c-0.115-0.045-0.227-0.098-0.336-0.166c-0.629-0.402-0.719-1.037-0.805-1.725c-0.057-0.463-0.146-0.961-0.461-1.328
				c-0.338-0.398-0.816-0.439-1.305-0.449c-0.68-0.014-1.188-0.207-1.512-0.834c-0.287-0.549-0.219-1.129-0.307-1.707
				c-0.162,0.133-0.322,0.268-0.475,0.402c0.035,0.346,0.023,0.707,0.104,1.045c0.115,0.477,0.342,0.957,0.719,1.283
				C30.238,151.073,30.73,151.088,31.281,151.1z M28.484,154.391c0.547,0.402,1.264,0.346,1.773,0.848
				c0.531,0.521,0.598,1.236,0.693,1.936c0.004,0.025,0.008,0.051,0.012,0.076c0.178-0.135,0.355-0.275,0.529-0.416
				c-0.053-0.42-0.09-0.844-0.234-1.246c-0.188-0.52-0.545-0.965-1.021-1.246c-0.559-0.328-1.24-0.285-1.656-0.844
				c-0.396-0.533-0.463-1.217-0.6-1.846c-0.127-0.588-0.342-1.123-0.754-1.564c-0.148,0.172-0.295,0.346-0.438,0.52
				c0.139,0.16,0.266,0.332,0.359,0.523C27.658,152.186,27.441,153.62,28.484,154.391z M24.594,153.747
				c0.197,0.178,0.373,0.385,0.518,0.627c0.615,1.018,0.359,2.297,0.846,3.365c0.193,0.424,0.494,0.816,0.914,1.041
				c0.244,0.131,0.484,0.178,0.76,0.201c0.137,0.012,0.277,0.02,0.408,0.057c0.252-0.121,0.5-0.246,0.744-0.379
				c-0.014-0.016-0.023-0.033-0.037-0.047c-0.4-0.379-0.934-0.203-1.398-0.406c-0.576-0.252-0.871-0.846-1.016-1.428
				c-0.283-1.133-0.15-2.328-0.971-3.27c-0.117-0.135-0.252-0.258-0.391-0.375C24.842,153.34,24.717,153.543,24.594,153.747z"/>
			<path opacity="0.2" d="M32.967,145.379C32.414,149.44,30,160.344,21.559,160.35c0,0,1.764-5.838,5.771-10.383
				C28.627,148.499,30.82,146.805,32.967,145.379z"/>
		</g>
		<g>
			<path fill="#1A8CD1" d="M21.559,160.35c3.877-0.479,7.25-2.854,9.119-10.102c1.865-7.248,2.197-10.531,1.041-11.281
				c-1.332-0.863-6.771,6.365-8.541,9.557C18.734,156.545,21.559,160.35,21.559,160.35z"/>
			<path opacity="0.2" fill="#FFFFFF" d="M31.043,146.993c0.133,0.053,0.262,0.119,0.383,0.193c0.051-0.223,0.104-0.447,0.15-0.66
				c-0.273-0.17-0.58-0.293-0.918-0.346c-0.611-0.096-1.197,0.066-1.783,0.229c-0.57,0.156-1.238,0.338-1.791,0.029
				c-0.738-0.41-0.705-1.424-1.113-2.119c-0.182,0.246-0.359,0.488-0.535,0.732c0.234,0.498,0.316,1.131,0.66,1.604
				c0.701,0.967,1.963,0.674,2.934,0.393C29.709,146.85,30.365,146.719,31.043,146.993z M31.129,143.157
				c0.369,0.021,0.717,0.15,1.031,0.34c0.027-0.178,0.053-0.354,0.078-0.521c-0.23-0.15-0.486-0.26-0.768-0.311
				c-0.277-0.053-0.557-0.055-0.834-0.002c-0.32,0.063-0.641,0.273-0.971,0.26c-0.682-0.025-0.969-0.938-1.324-1.387
				c-0.023-0.029-0.049-0.051-0.072-0.076c-0.125,0.139-0.248,0.283-0.375,0.43c0.111,0.115,0.205,0.25,0.289,0.389
				c0.291,0.465,0.586,1.041,1.17,1.174c0.318,0.074,0.605-0.039,0.902-0.15C30.539,143.194,30.824,143.137,31.129,143.157z
				 M29.182,152.006c0.357-0.102,0.695-0.145,1.02-0.133c0.076-0.24,0.152-0.488,0.225-0.74c-0.254-0.018-0.514-0.002-0.77,0.043
				c-0.887,0.154-1.965,0.762-2.736,0.023c-0.418-0.4-0.633-0.975-0.957-1.449c-0.357-0.52-0.852-0.908-1.453-1.109
				c-0.449-0.152-0.887-0.152-1.332-0.115c-0.154,0.277-0.297,0.547-0.432,0.813c0.693-0.063,1.336-0.076,1.963,0.395
				c0.535,0.404,0.789,1.02,1.146,1.566C26.707,152.602,27.859,152.387,29.182,152.006z M21.102,153.559
				c0.301,0.145,0.57,0.354,0.785,0.631c0.361,0.465,0.539,1.043,0.861,1.535c0.66,1.012,1.598,1.322,2.719,0.893
				c0.455-0.174,0.852-0.295,1.336-0.137c0.303,0.098,0.582,0.287,0.82,0.502c0.141-0.176,0.279-0.355,0.416-0.547
				c-0.301-0.307-0.656-0.555-1.063-0.697c-0.592-0.209-1.117-0.084-1.701,0.088c-0.67,0.195-1.129,0.041-1.529-0.547
				c-0.344-0.504-0.529-1.096-0.893-1.588c-0.332-0.447-0.771-0.803-1.289-1.014c-0.064-0.025-0.129-0.039-0.193-0.059
				C21.268,152.944,21.18,153.256,21.102,153.559z"/>
			<path opacity="0.15" d="M23.178,148.524c0.32-0.576,0.762-1.287,1.275-2.059c1.559,5.209,1.932,12.764-2.895,13.885
				C21.559,160.35,18.734,156.545,23.178,148.524z"/>
		</g>
		<g>
			<path fill="#1A8CD1" d="M20.539,161.131c3.264,0.072,4.447-4.346,4.197-7.926c-0.248-3.58-2.355-10.43-3.791-10.461
				s-3.844,6.719-4.248,10.283C16.293,156.594,17.277,161.059,20.539,161.131z"/>
			<path opacity="0.3" fill="#FFFFFF" d="M20.539,161.131c3.264,0.072,4.447-4.346,4.197-7.926
				c-0.248-3.58-2.355-10.43-3.791-10.461s-3.844,6.719-4.248,10.283C16.293,156.594,17.277,161.059,20.539,161.131z"/>
			<path opacity="0.2" fill="#FFFFFF" d="M20.824,147.395c0.521-0.094,0.861-0.508,1.234-0.842c0.303-0.273,0.654-0.428,1.018-0.5
				c-0.078-0.213-0.158-0.422-0.24-0.623c-0.508,0.123-0.969,0.406-1.395,0.816c-0.203,0.195-0.416,0.406-0.691,0.496
				c-0.398,0.129-0.635-0.09-0.887-0.354c-0.307-0.316-0.625-0.561-1.061-0.664c-0.01-0.004-0.021-0.004-0.033-0.006
				c-0.07,0.166-0.143,0.338-0.213,0.512c0.406,0.08,0.797,0.297,1.123,0.664C19.984,147.235,20.35,147.477,20.824,147.395z
				 M18.303,151.256c1.068,0.875,1.994-0.314,2.705-1.018c0.592-0.586,1.209-0.697,1.859-0.127c0.387,0.338,0.729,0.738,1.221,0.928
				c0.127,0.049,0.25,0.078,0.373,0.1c-0.039-0.203-0.078-0.41-0.121-0.619c-0.506-0.137-0.867-0.537-1.305-0.912
				c-0.953-0.816-1.836-0.502-2.625,0.363c-0.453,0.498-1.189,1.355-1.908,0.795c-0.422-0.33-0.613-0.881-1.057-1.203
				c-0.004-0.004-0.012-0.006-0.016-0.008c-0.051,0.178-0.1,0.355-0.145,0.531C17.701,150.379,17.904,150.93,18.303,151.256z
				 M19.436,155.194c0.598,0.828,1.363,1.047,2.213,0.365c0.414-0.332,0.693-0.813,1.143-1.104c0.631-0.404,1.336-0.17,1.971,0.094
				c0.006-0.193,0.006-0.387,0.004-0.58c-0.291-0.125-0.584-0.242-0.9-0.301c-0.496-0.098-0.984-0.033-1.41,0.254
				c-0.469,0.316-0.762,0.822-1.217,1.156c-0.244,0.182-0.633,0.404-0.947,0.281c-0.371-0.146-0.582-0.617-0.85-0.898
				c-0.336-0.357-0.771-0.621-1.244-0.75c-0.547-0.148-1.09-0.092-1.564,0.121c-0.01,0.184-0.018,0.369-0.021,0.557
				C17.604,153.979,18.73,154.215,19.436,155.194z M22.457,158.586c-0.531,0.391-1.188,0.598-1.854,0.512
				c-0.352-0.047-0.672-0.164-0.918-0.428c-0.176-0.189-0.303-0.42-0.482-0.607c-0.324-0.338-0.752-0.559-1.213-0.635
				c-0.348-0.059-0.695-0.027-1.027,0.063c0.053,0.201,0.111,0.398,0.176,0.59c0.541-0.162,1.098-0.143,1.621,0.262
				c0.385,0.297,0.561,0.781,0.971,1.061c0.369,0.254,0.826,0.348,1.266,0.357c0.467,0.01,0.941-0.096,1.359-0.305
				c0.475-0.234,0.816-0.654,1.279-0.906c0.119-0.066,0.248-0.119,0.379-0.162c0.096-0.234,0.182-0.48,0.26-0.732
				c-0.148,0.012-0.301,0.037-0.459,0.086C23.27,157.907,22.902,158.256,22.457,158.586z"/>
		</g>
	</g>
	<g id="Key_00000003078175053318973530000013170796231431423623_">
		<path id="XMLID_00000130617333867002306610000007404618490773988485_" fill="#1A8CD1" d="M134.396,154.645
			c-6.047-3.643-15.951-3.824-22.127-0.41c-2.586,1.432-4.211,2.396-4.658,4.313l-0.037,1.994c-0.021,1.484,0.582,2.982,1.82,4.346
			l-27.677,13.336l-0.035,1.992l3.041,1.828l8.574,0.158l3.406-1.883l0.035-1.883l2.715-1.449l3.744-0.26l1.503-0.832l0.213-3.338
			l2.791-1.543l4.033,0.988l5.324-2.943c5.648,1.463,12.436,0.938,17.098-1.641c3.096-1.713,4.666-4.004,4.701-6.322l0.035-1.973
			C138.657,157.045,137.112,156.28,134.396,154.645z M130.474,160.284c-1.75,0.969-4.557,0.916-6.268-0.115
			c-1.713-1.031-1.684-2.652,0.066-3.619s4.555-0.916,6.268,0.115S132.222,159.317,130.474,160.284z"/>
		<path id="XMLID_00000142145693406813702120000018181486523869392037_" opacity="0.2" d="M134.396,154.645
			c-6.047-3.643-15.951-3.824-22.127-0.41c-2.586,1.432-4.211,2.396-4.658,4.313l-0.037,1.994c-0.021,1.484,0.582,2.982,1.82,4.346
			l-27.677,13.336l-0.035,1.992l3.041,1.828l8.574,0.158l3.406-1.883l0.035-1.883l2.715-1.449l3.744-0.26l1.503-0.832l0.213-3.338
			l2.791-1.543l4.033,0.988l5.324-2.943c5.648,1.463,12.436,0.938,17.098-1.641c3.096-1.713,4.666-4.004,4.701-6.322l0.035-1.973
			C138.657,157.045,137.112,156.28,134.396,154.645z M130.474,160.284c-1.75,0.969-4.557,0.916-6.268-0.115
			c-1.713-1.031-1.684-2.652,0.066-3.619s4.555-0.916,6.268,0.115S132.222,159.317,130.474,160.284z"/>
		<path id="XMLID_00000081633778595328071360000008902815401725244074_" fill="#1A8CD1" d="M134.433,152.653
			c-6.045-3.641-15.951-3.824-22.127-0.408c-5.074,2.805-6.041,7.166-2.875,10.65l-27.714,15.328l3.041,1.83l8.576,0.158
			l3.406-1.885l-0.195-1.76l2.945-1.572l3.744-0.258l1.503-0.832l0.213-3.338l2.793-1.545l4.029,0.99l5.326-2.945
			c5.648,1.463,12.436,0.939,17.098-1.639C140.37,162.012,140.478,156.293,134.433,152.653z M130.511,158.292
			c-1.75,0.969-4.557,0.918-6.268-0.113c-1.715-1.031-1.684-2.652,0.064-3.621c1.75-0.967,4.557-0.914,6.27,0.117
			C132.288,155.706,132.261,157.327,130.511,158.292z"/>
		<path id="XMLID_00000006676965106531411560000001444404941188126893_" opacity="0.3" fill="#FFFFFF" d="M134.433,152.653
			c-6.045-3.641-15.951-3.824-22.127-0.408c-5.074,2.805-6.041,7.166-2.875,10.65l-27.714,15.328l3.041,1.83l8.576,0.158
			l3.406-1.885l-0.195-1.76l2.945-1.572l3.744-0.258l1.503-0.832l0.213-3.338l2.793-1.545l4.029,0.99l5.326-2.945
			c5.648,1.463,12.436,0.939,17.098-1.639C140.37,162.012,140.478,156.293,134.433,152.653z M130.511,158.292
			c-1.75,0.969-4.557,0.918-6.268-0.113c-1.715-1.031-1.684-2.652,0.064-3.621c1.75-0.967,4.557-0.914,6.27,0.117
			C132.288,155.706,132.261,157.327,130.511,158.292z"/>
		<g opacity="0.2">
			<path fill="#FFFFFF" d="M107.646,159.127l15.484-2.096c-0.398-0.867-0.004-1.818,1.178-2.475c1.75-0.967,4.557-0.914,6.27,0.117
				c0.578,0.348,0.951,0.764,1.133,1.197l5.652-0.764c-0.721-0.881-1.695-1.711-2.93-2.455c-0.176-0.105-0.365-0.199-0.547-0.299
				l-25.473,3.445C107.794,156.872,107.542,158,107.646,159.127z"/>
			<path fill="#FFFFFF" d="M137.958,162.106c1.189-1.877,1.246-3.949,0.176-5.875l-6.43,0.871c-0.189,0.439-0.588,0.855-1.193,1.189
				c-1.75,0.969-4.557,0.918-6.268-0.113c-0.031-0.018-0.057-0.039-0.084-0.057l-16.268,2.199c0.287,0.885,0.795,1.754,1.539,2.574
				l-7.339,4.061L137.958,162.106z"/>
		</g>
		<g id="XMLID_00000002349468671505848120000006369936001203793071_">
			<path fill="#1A8CD1" d="M123.118,166.071c-3.869-0.072-7.463-0.992-10.119-2.594c-2.316-1.393-3.625-3.178-3.594-4.896
				c0.031-1.717,1.406-3.453,3.771-4.762c2.715-1.502,6.342-2.287,10.209-2.217c3.865,0.07,7.459,0.992,10.117,2.592
				c2.316,1.396,3.627,3.182,3.594,4.896c-0.031,1.719-1.406,3.453-3.771,4.764C130.61,165.354,126.985,166.141,123.118,166.071z
				 M123.372,152.165c-3.768-0.07-7.293,0.693-9.924,2.146c-2.184,1.209-3.453,2.77-3.482,4.279
				c-0.025,1.512,1.184,3.117,3.322,4.406c2.576,1.551,6.068,2.441,9.84,2.512c3.77,0.07,7.295-0.693,9.926-2.146
				c2.184-1.209,3.455-2.77,3.48-4.281c0.029-1.51-1.182-3.115-3.32-4.406C130.638,153.125,127.144,152.235,123.372,152.165z"/>
		</g>
		<path id="XMLID_00000052063352112323984940000009087060471576830607_" opacity="0.1" d="M128.726,167.366l-0.035,1.99
			c-3.752,0.762-7.936,0.658-11.629-0.299l0.037-1.99C120.792,168.024,124.974,168.129,128.726,167.366z"/>
		<polygon id="XMLID_00000173851551646039128410000000508119380866172818_" opacity="0.1" points="111.772,170.012 111.737,172.002 
			107.704,171.014 107.743,169.022 		"/>
		<polygon id="XMLID_00000027587365051939228900000000299707972865524884_" opacity="0.1" points="104.95,170.567 104.913,172.557 
			104.7,175.895 104.737,173.905 		"/>
		<polygon id="XMLID_00000152946360185351730900000007401399972176851375_" opacity="0.1" points="103.234,174.737 103.197,176.727 
			99.453,176.987 99.49,174.995 		"/>
		
			<rect id="XMLID_00000090267149515379783260000002860776225178979736_" x="88.033" y="176.84" transform="matrix(0.0186 -0.9998 0.9998 0.0186 -93.7274 266.7636)" opacity="0.1" width="1.991" height="8.576"/>
		<polygon id="XMLID_00000084489567598288859420000009379038170216123580_" opacity="0.15" points="81.717,178.223 81.682,180.215 
			84.723,182.043 84.758,180.053 83.426,179.25 83.41,180.11 82.676,179.667 82.691,178.799 		"/>
		<polygon id="XMLID_00000176045083696638260240000015337538707440740264_" fill="#1A8CD1" points="82.691,178.799 83.426,179.25 
			83.41,180.11 82.676,179.667 		"/>
		<polygon id="XMLID_00000160881597854715149330000008857764915622770304_" opacity="0.3" fill="#FFFFFF" points="82.691,178.799 
			83.426,179.25 83.41,180.11 82.676,179.667 		"/>
		<polygon id="XMLID_00000166636595243208225940000014666049746565118887_" fill="#1A8CD1" points="82.691,178.799 82.676,179.667 
			111.095,163.948 110.36,163.497 		"/>
		<polygon id="XMLID_00000022526431887800980000000008659011502951298747_" opacity="0.15" points="110.36,163.497 110.343,164.364 
			111.095,163.948 		"/>
	</g>
	<g id="Chartacter_5_">
		<g id="Bottom_00000117634346516026586950000002072688584383322500_">
			<path fill="#DD8669" d="M161.487,124.792c-0.273,4.787,0.061,9.35-0.268,12.141c-0.031,0.26,1.695,1.611,3.443,1.471
				c1.75-0.143,2.264-0.719,2.279-0.904c0.061-0.645,0.738-1.514,0.828-2.152c0.568-4.004,1.295-7.068,2.037-9.91L161.487,124.792z"
				/>
			<path fill="#DD8669" d="M189.224,127.893l-7.885-0.859c0.736,4.068,1.514,8.291,2.086,11.146
				c0.355,1.777,0.654,2.521,0.654,2.521c0.336,1.838,4.605,2.152,5.525-0.752l-0.133-2.5
				C189.417,135.151,189.3,131.327,189.224,127.893z"/>
			<g>
				<g>
					<path fill="#1A2E35" d="M151.821,145.096c-0.109-0.002-0.301,1.234,0.279,1.773c0.67,0.621,2.658,1.664,5.322,1.371
						c2.662-0.297,3.416-0.826,4.498-1.717c1.084-0.893,2.08-1.83,3.289-2.076c1.119-0.229,2.828-0.652,3.193-0.998
						c0.363-0.346,0.352-1.926,0.352-1.926L151.821,145.096z"/>
					<path id="XMLID_00000030482404193408857380000005424396674412874133_" fill="#2B454E" d="M167.89,134.667
						c0,0,0.381,0.02,0.439,0.385c0.072,0.436,0.133,1.703,0.291,2.42c0.223,0.998,0.236,3.791,0.072,4.596
						s-2.482,1.254-3.654,1.684c-1.197,0.439-2.07,1.049-3.299,2.045c-1.271,1.031-3.217,1.791-4.949,1.74
						c-2.047-0.063-4.336-0.795-4.844-1.783c-0.625-1.223-0.695-2.385,2.373-3.766c0.58-0.262,2.375-1.291,3.072-1.723
						c0.766-0.459,1.494-0.998,2.152-1.605c0.275-0.258,0.545-0.521,0.795-0.807c0.201-0.232,0.34-0.578,0.441-0.871
						c0.191-0.572,0.129-1.197,0.236-1.793c0.01-0.055,0.023-0.109,0.059-0.152c0.033-0.041,0.086-0.064,0.137-0.082
						c0.492-0.172,0.986-0.09,1.49-0.043c0.508,0.045,1.008,0.199,1.488,0.379c0.262,0.098,0.535,0.225,0.678,0.467
						c0.102,0.174,0.123,0.383,0.123,0.586c-0.002,0.201-0.023,0.406,0.002,0.605c0.01,0.072,0.027,0.148,0.076,0.201
						c0.1,0.111,0.266,0.027,0.355-0.055c0.324-0.285,0.566-0.656,0.842-0.992c0.148-0.18,0.793-0.281,0.979-0.422
						c0.166-0.129,0.377-0.188,0.525-0.334C167.96,135.161,167.874,134.917,167.89,134.667z"/>
					<path fill="#375A64" d="M161.739,145.795c0.539-0.438,0.861-0.705,1.434-1.082v-0.002c0,0-3.264,1.244-4.686,0.197
						c-0.914-0.672-0.453-1.457-0.426-1.709c0.027-0.254-2.242-1.391-3.143-1.521l0,0c-0.254,0.139-0.467,0.248-0.6,0.309
						c-3.068,1.381-2.998,2.543-2.373,3.766c0.508,0.988,2.162,1.789,4.807,1.846C158.485,147.637,160.468,146.827,161.739,145.795z
						"/>
					<path fill="#1A2E35" d="M158.327,142.465c-1.906,0.734-1.107,1.115-0.582,1.205c0.527,0.09,3.227-1.43,5.199-2.965
						c2.059-1.602,3.859-3.301,4.625-3.889c0.285-0.219,0.592-0.488,0.867-0.742c-0.041-0.428-0.072-0.818-0.107-1.023
						c-0.059-0.365-0.479-0.48-0.479-0.48l-0.08,0.775c-0.148,0.146-0.359,0.209-0.557,0.275c-0.418,0.146-0.799,0.301-0.947,0.48
						c-0.275,0.336-0.518,0.707-0.842,0.992C163.728,139.211,160.233,141.729,158.327,142.465z"/>
					<g>
						<g>
							<path fill="#F0F0F0" d="M157.888,143.387c0.041,0,0.082-0.012,0.117-0.041c0.084-0.066,0.098-0.186,0.033-0.27
								c-0.518-0.682-2.033-1.605-3.428-1.48c-0.102,0.01-0.178,0.104-0.17,0.209c0.01,0.105,0.088,0.18,0.203,0.176
								c1.299-0.115,2.689,0.791,3.1,1.332C157.78,143.362,157.833,143.385,157.888,143.387z"/>
						</g>
						<g>
							<path fill="#F0F0F0" d="M159.558,142.467c0.041,0.004,0.084-0.01,0.121-0.037c0.082-0.063,0.1-0.184,0.037-0.27
								c-0.502-0.693-1.996-1.652-3.391-1.561c-0.105,0.006-0.184,0.098-0.176,0.205c0.008,0.104,0.092,0.184,0.197,0.178
								c1.303-0.08,2.672,0.855,3.07,1.408C159.452,142.438,159.503,142.465,159.558,142.467z"/>
						</g>
						<g>
							<path fill="#F0F0F0" d="M161.106,141.415c0.041,0,0.084-0.012,0.119-0.041c0.082-0.064,0.096-0.186,0.033-0.27
								c-0.52-0.684-2.035-1.607-3.428-1.479c-0.104,0.006-0.18,0.1-0.172,0.205c0.01,0.107,0.096,0.186,0.203,0.178
								c1.301-0.115,2.691,0.791,3.102,1.332C160.999,141.387,161.052,141.413,161.106,141.415z"/>
						</g>
						<g>
							<path fill="#F0F0F0" d="M162.474,140.461c0.041,0.002,0.084-0.008,0.121-0.037c0.084-0.061,0.104-0.182,0.043-0.268
								c-0.488-0.705-1.971-1.693-3.363-1.629c-0.102,0.004-0.182,0.096-0.178,0.201s0.088,0.186,0.195,0.184
								c1.301-0.057,2.654,0.908,3.041,1.467C162.368,140.428,162.419,140.456,162.474,140.461z"/>
						</g>
						<g>
							<path fill="#F0F0F0" d="M163.948,139.333c0.041,0.004,0.084-0.008,0.117-0.033c0.088-0.061,0.105-0.182,0.047-0.268
								c-0.674-0.996-2.291-1.725-3.686-1.652c-0.104,0.006-0.184,0.096-0.178,0.201s0.088,0.186,0.195,0.184
								c1.256-0.063,2.764,0.605,3.363,1.488C163.841,139.303,163.894,139.331,163.948,139.333z"/>
						</g>
					</g>
				</g>
			</g>
			<g>
				<g>
					<path fill="#1A2E35" d="M183.911,150.661c0.09,1.893,0.363,3.148,1.008,4.262c0.643,1.115,1.871,1.473,3.119,1.158
						c1.25-0.316,2.852-1.172,3.225-2.799c0.369-1.629,0.309-2.748,0.039-4.504L183.911,150.661z"/>
					<path id="XMLID_00000024704861138289511690000004779133873385947535_" fill="#2B454E" d="M189.472,137.45
						c0.436,0.148,0.521,2.738,0.797,5.281c0.293,2.729,0.752,3.555,1.016,5.789c0.303,2.555,0.121,3.408-0.76,4.945
						c-0.885,1.537-3.975,3.027-5.475,0.803c-1.221-1.811-1.213-3.521-1.078-6.068c0.139-2.635,0.123-4.072,0.035-6.074
						c-0.084-1.912-1.031-3.736-0.582-3.945c-0.084,0.037,0.262,1.324,0.293,1.436c0.064,0.234,0.127,0.504,0.262,0.709
						c0.24,0.357,0.361-0.223,0.363-0.441c0.002-0.377-0.117-0.682,0.174-0.992c0.199-0.217,0.508-0.34,0.77-0.445
						c0.305-0.125,0.619-0.211,0.938-0.27c0.652-0.115,1.322-0.115,1.982-0.096c0.262,0.008,0.604,0.088,0.76,0.334
						c0.039,0.061,0.061,0.129,0.072,0.201c0.049,0.25,0.02,0.51,0.068,0.758c0.012,0.07,0.037,0.254,0.102,0.293
						c0.021,0.016,0.172,0.027,0.176-0.023C189.386,139.622,189.517,137.897,189.472,137.45z"/>
					<path fill="#375A64" d="M191.187,147.647c0.047,0.369,0.275,2.668-0.373,3.104c-0.703,0.471-1.07-1.449-1.07-1.449
						s-1.635-0.529-4.027,0.525c0.119,0.396-0.262,1.699-0.912,1.418c-0.648-0.279-0.842-2.789-0.842-2.828
						c-0.121,2.445-0.098,4.094,1.088,5.852c1.5,2.225,4.59,0.734,5.475-0.803c0.881-1.537,1.063-2.391,0.76-4.945
						C191.255,148.264,191.229,147.877,191.187,147.647z"/>
					<path fill="#1A2E35" d="M189.556,149.463c0.002,0.922,0.807,0.611,0.939-0.686c0.201-1.943-0.254-3.805-0.227-6.047
						c-0.275-2.543-0.281-5.234-0.797-5.281c0.018,0.443-0.088,2.193-0.088,2.193c0.143,1.904,0.609,4.131,0.518,6.092
						C189.821,147.459,189.552,148.54,189.556,149.463z"/>
					<path fill="#1A2E35" d="M185.991,149.803c-0.16-0.906-0.443-1.168-0.607-2.887c-0.162-1.707-1.057-4.805-1.393-6.668
						c-0.09-0.576-0.564-2.051-0.566-2.068c-0.324,0.156-0.027,1.227,0.215,2.377c0.244,1.152,0.406,1.859,0.559,2.967
						c0.422,2.199,0.467,4.531,0.746,5.803S186.153,150.711,185.991,149.803z"/>
					<g>
						<g>
							<path fill="#F0F0F0" d="M185.788,149.846c0.023-0.002,0.047-0.008,0.07-0.02c0.018-0.012,1.889-0.977,3.959-0.391
								c0.1,0.027,0.205-0.035,0.232-0.137c0.029-0.105-0.031-0.213-0.133-0.242c-2.213-0.625-4.15,0.379-4.234,0.42
								c-0.092,0.051-0.131,0.168-0.08,0.264C185.638,149.815,185.714,149.854,185.788,149.846z"/>
						</g>
						<g>
							<path fill="#F0F0F0" d="M185.284,148.01c0.021-0.004,0.043-0.008,0.064-0.018s2.313-1.07,4.621-0.502
								c0.102,0.023,0.205-0.041,0.23-0.145c0.023-0.107-0.039-0.213-0.141-0.238c-2.443-0.598-4.781,0.486-4.873,0.529
								c-0.094,0.045-0.137,0.162-0.092,0.26C185.13,147.975,185.208,148.016,185.284,148.01z"/>
						</g>
						<g>
							<path fill="#F0F0F0" d="M190.247,145.993c0.07-0.006,0.135-0.055,0.16-0.129c0.035-0.104-0.016-0.215-0.117-0.25
								c-2.295-0.82-5.33,0.266-5.428,0.316c-0.094,0.049-0.131,0.166-0.082,0.262c0.049,0.098,0.164,0.133,0.256,0.084
								c0.023-0.01,2.992-1.059,5.129-0.293C190.19,145.995,190.218,145.997,190.247,145.993z"/>
						</g>
						<g>
							<path fill="#F0F0F0" d="M189.888,144.338c0.07-0.008,0.135-0.055,0.16-0.129c0.037-0.102-0.014-0.215-0.111-0.25
								c-2.525-0.953-5.137,0.453-5.229,0.508c-0.09,0.055-0.121,0.176-0.066,0.27c0.055,0.092,0.174,0.123,0.26,0.066
								c0.021-0.012,2.555-1.363,4.902-0.477C189.833,144.338,189.86,144.34,189.888,144.338z"/>
						</g>
						<g>
							<path fill="#ECECEC" d="M189.749,142.321c0.068-0.006,0.133-0.053,0.158-0.125c0.039-0.1-0.01-0.213-0.107-0.252
								c-2.365-0.932-5.166,0.504-5.264,0.563c-0.09,0.053-0.123,0.172-0.07,0.266c0.049,0.096,0.168,0.131,0.258,0.076
								c0.023-0.014,2.742-1.406,4.938-0.539C189.69,142.319,189.72,142.325,189.749,142.321z"/>
						</g>
					</g>
				</g>
			</g>
			<path fill="#375A64" d="M173.851,94.918l-2.23,12.174c0,0,0.518,3.666,0.271,7.188c-0.248,3.523-2.533,13.965-3.365,17.691
				c-3.951,2.283-7.469-0.342-7.469-0.342s-0.568-20.523-0.764-25.477c-0.197-4.956,0.969-25,1.373-32.838l25.031,0.625
				c0,0,0.367,4.23,0.645,10.539c0.275,6.313,0.857,23.227,0.857,23.227c2.369,7.555,1.201,12.451,1.338,26.469
				c-3.617,2.486-6.949,0.678-6.949,0.678s-3.381-13.838-4.678-19.449C177.294,112.725,175.089,101.092,173.851,94.918"/>
			<path fill="#2B454E" d="M164.294,85.617l-0.887,9.604c-0.074,1.537-0.48,4.893-0.541,6.428c-0.063,1.534-0.141,3.073-0.109,4.588
				c0.037,1.521,0.477,13.992,0.289,17.072c-0.369-3.428-0.865-13.959-0.98-17.057c-0.008-3.115,0.418-6.625,0.916-11.081
				C163.479,90.715,163.849,88.664,164.294,85.617z"/>
			<path fill="#2B454E" d="M178.192,84.275c1.061,5.074,2.699,18.154,3.061,21.653c0.379,3.498,3.291,17.326,3.543,20.852
				c-0.52-3.496-3.838-17.252-4.23-20.775C180.216,102.475,178.782,90.682,178.192,84.275z"/>
			<path fill="#2B454E" d="M172.06,85.32l1.791,9.598l-2.23,12.174l1.037-10.202l-1.945-10.496c0,0-4.059-1.334-5.029-5.633
				C167.688,84.246,172.06,85.32,172.06,85.32z"/>
		</g>
		<g id="Top_00000037681870966070978740000015225186394783484050_">
			<g id="Top_9_">
				<path fill="#DD8669" d="M166.522,42.861c-2.311,0.324-4.592,1.443-6.41,4.871c-1.496,2.822-1.877,5.287-4.238,9.744
					l-9.438-0.361l1.547,6.07c0,0,5.609,1.127,8.516,1.422c2.174,0.219,3.066-0.346,4.428-2.09c1.781-2.285,4.314-7.678,4.314-7.678
					L166.522,42.861z"/>
				<path fill="#1A8CD1" d="M166.665,42.725c-1.373,0.193-3.537,0.83-4.783,2.254s-2.379,3.424-3.537,6.623
					s-1.385,3.834-1.385,3.834s1.055,1.348,3.564,2.27c2.51,0.924,3.689,0.615,3.689,0.615l2.268-7.252L166.665,42.725z"/>
				<g id="Chest_6_">
					<g id="Chest_00000052815521601968857240000002021660366035213743_">
						<path fill="#FAFAFA" d="M175.659,78.378c-1.543,0-3.152-0.103-4.783-0.306c-7.143-0.89-8.644-3.33-8.858-3.772
							c0.08-1.258,0.771-12.237,0.843-18.056c0.094-7.776,3.06-11.887,4.101-13.09c0.492-0.114,3.296-0.509,5.782-0.828l6.694,0.302
							c3.594,0.89,5.236,1.305,6.936,1.738c0.479,1.167,2.579,6.817,1.063,12.494c-0.307,1.138-0.534,3.729-0.775,6.471
							c-0.089,1.004-0.177,2.002-0.267,2.901c-0.269,2.647-0.14,6.358,0.048,10.011C185.477,76.739,181.817,78.378,175.659,78.378z"
							/>
						<path fill="#E1E1E1" d="M172.722,42.839l6.644,0.292c3.384,0.838,5.028,1.252,6.635,1.661
							c0.589,1.508,2.345,6.705,0.948,11.935c-0.318,1.182-0.548,3.794-0.791,6.559c-0.089,1.002-0.176,1.998-0.267,2.895
							c-0.263,2.6-0.149,6.19,0.029,9.755c-1.244,0.586-4.714,1.936-10.261,1.936c-1.521,0-3.11-0.102-4.721-0.302
							c-6.493-0.809-8.112-2.888-8.408-3.373c0.112-1.763,0.767-12.287,0.836-17.947c0.089-7.33,2.762-11.302,3.858-12.625
							C168.017,43.474,170.481,43.127,172.722,42.839 M172.679,41.824c0,0-5.711,0.734-6.014,0.9
							c-0.969,1.086-4.211,5.264-4.311,13.514c-0.076,6.205-0.85,18.146-0.85,18.146s0.939,3.146,9.309,4.189
							c1.756,0.219,3.372,0.31,4.846,0.31c7.475,0,11.305-2.349,11.305-2.349c-0.199-3.809-0.336-7.588-0.066-10.252
							c0.326-3.246,0.619-7.775,1.027-9.293c1.764-6.602-1.184-13.053-1.184-13.053c-1.799-0.459-3.43-0.871-7.23-1.813
							L172.679,41.824L172.679,41.824z"/>
					</g>
				</g>
				<g id="Head_4_">
					<g id="XMLID_4532_">
						<g id="XMLID_4540_">
							<path fill="#1A2E35" d="M182.94,27.404c-0.48-1.16-1.141-1.73-1.566-1.898c-0.043-2.064-1.346-3.875-3.281-4.604
								c-1.291-0.486-2.707-0.525-4.084-0.441c-1.332,0.082-2.779,0.25-3.896-0.48c-0.043-0.029-0.09-0.061-0.143-0.057
								c-0.033,0.004-0.066,0.023-0.092,0.043c-0.266,0.193-0.34,0.572-0.254,0.887c0.086,0.316,0.307,0.578,0.545,0.801
								c-0.869-0.033-1.711,0.313-2.455,0.764c-0.809,0.49-1.564,1.146-1.916,2.023c-0.297,0.74-0.281,1.57-0.188,2.361
								c0.127-0.469,0.537-0.848,1.012-0.938c-0.139,0.025-0.252,0.795-0.268,0.918c-0.045,0.342-0.037,0.689,0.027,1.027
								c0.08,0.436,0.295,1.371,0.688,1.637c0.375,0.254,1,0.117,1.414,0.094c0.824-0.045,1.645-0.092,2.467-0.137
								c1.777-0.1,3.559-0.199,5.338-0.299c0.461-0.023,0.924-0.051,1.383-0.076c-0.098,0.475-0.15,1.059-0.092,1.748
								c0.137,1.572,1.883,3.188,1.883,3.188l-0.137,2.182l-0.113,3.135c0,0,0.791-0.197,1.182-0.924s1.264-1.863,2.002-4.48
								C183.55,29.809,183.425,28.566,182.94,27.404z"/>
							<path fill="#DD8669" d="M182.196,36.393c-1.631,0.773-2.359-0.52-2.359-0.52l-0.318,7.037
								c-3.158,4.143-11.461,2.385-8.02-0.709l0.031-1.982c0,0-0.543-0.018-1.404-0.164c-1.436-0.24-2.33-1.273-2.744-2.834
								c-0.609-2.311-0.822-6,0.082-9.914c0.176-0.756,0.508-1.58,1.209-1.916c1.734-0.838,3.316,0.408,5.713,1.369
								c0.992,0.396,3.406,0.592,4.045,0.299c-0.848,0.918-0.385,3.322-0.17,4.082c0.311,1.1,0.768,1.637,0.996,1.686
								c0.982,0.217,1.107-0.627,1.551-1.084c0.451-0.455,2.113-0.854,2.813,0.674C184.329,33.971,183.71,35.674,182.196,36.393z"/>
							<path fill="#C66150" d="M177.69,38.418c-0.354,1.588-2.52,2.615-6.172,2.668l0.012-0.867c0,0,1.119,0.025,2.682-0.217
								C175.925,39.736,177.69,38.418,177.69,38.418z"/>
						</g>
						<g id="XMLID_4535_">
							<path id="XMLID_4539_" fill="#1A2E35" d="M174.259,29.316l1.582,0.705c0.188-0.453-0.018-0.979-0.455-1.174
								C174.948,28.654,174.446,28.863,174.259,29.316z"/>
							<path id="XMLID_4538_" fill="#1A2E35" d="M168.243,29.631l1.68-0.467c-0.113-0.473-0.58-0.752-1.045-0.623
								C168.415,28.672,168.13,29.158,168.243,29.631z"/>
							<circle fill="#1A2E35" cx="174.535" cy="31.015" r="0.705"/>
							<path fill="#1A2E35" d="M169.927,30.863c-0.018,0.389-0.348,0.689-0.736,0.672s-0.691-0.346-0.672-0.736
								c0.018-0.389,0.346-0.689,0.736-0.672C169.702,30.146,169.946,30.416,169.927,30.863z"/>
							<path id="XMLID_4536_" fill="#C66150" d="M172.159,30.111l-0.76,4.174l-2.156-0.564
								C170.108,31.855,171.028,30.928,172.159,30.111z"/>
						</g>
					</g>
					<g>
						<path id="XMLID_00000031907286551626044800000006039012700444649132_" fill="#C66150" d="M173.729,34.857l-2.451,0.889
							c0.232,0.701,0.971,1.072,1.648,0.828C173.604,36.328,173.964,35.561,173.729,34.857z"/>
						<path fill="#FF9090" d="M173.481,35.311c0.104-0.025,0.211-0.035,0.313-0.037c0.01,0.566-0.322,1.104-0.867,1.301
							c-0.135,0.049-0.275,0.068-0.412,0.068C172.397,36.066,172.817,35.477,173.481,35.311z"/>
					</g>
				</g>
			</g>
			<g id="Tablet_5_">
				<g>
					<g id="XMLID_4490_">
						<g id="XMLID_4491_">
							<g id="XMLID_4492_">
								<path id="XMLID_4513_" fill="#1A8CD1" d="M144.554,48.445h-0.014l0.625-0.4v0.008c0.139-0.082,0.338-0.086,0.58,0.02
									l15.709,6.844c0.535,0.234,1.059,0.887,1.168,1.459l2.525,13.117c0.059,0.303-0.014,0.521-0.172,0.627l0.004,0.002
									l-0.646,0.41l0.002-0.008c-0.137,0.086-0.34,0.092-0.584-0.016l-15.709-6.844c-0.535-0.232-1.059-0.885-1.17-1.459
									c-0.496-2.578-2.029-10.539-2.523-13.117C144.286,48.766,144.374,48.543,144.554,48.445z"/>
								<path id="XMLID_4511_" opacity="0.7" fill="#FFFFFF" d="M144.554,48.445h-0.014l0.625-0.4v0.008
									c0.139-0.082,0.338-0.086,0.58,0.02l15.709,6.844c0.535,0.234,1.059,0.887,1.168,1.459l2.525,13.117
									c0.059,0.303-0.014,0.521-0.172,0.627l0.004,0.002l-0.646,0.41l0.002-0.008c-0.137,0.086-0.34,0.092-0.584-0.016
									l-15.709-6.844c-0.535-0.232-1.059-0.885-1.17-1.459c-0.496-2.578-2.029-10.539-2.523-13.117
									C144.286,48.766,144.374,48.543,144.554,48.445z"/>
								<path id="XMLID_4510_" fill="#1A8CD1" d="M161.433,55.758c0.277,0.291,0.496,0.674,0.564,1.02l2.525,13.111
									c0.055,0.295-0.004,0.51-0.148,0.619l0.605-0.385l-0.006-0.006c0.16-0.105,0.23-0.32,0.174-0.625l-2.525-13.119
									c-0.059-0.322-0.262-0.672-0.518-0.961L161.433,55.758z"/>
								<path id="XMLID_4495_" fill="#1A8CD1" d="M164.521,69.891l-2.523-13.115c-0.109-0.572-0.635-1.227-1.17-1.459l-15.709-6.846
									c-0.535-0.23-0.881,0.045-0.77,0.617c0.494,2.578,2.027,10.539,2.523,13.117c0.111,0.574,0.635,1.227,1.17,1.459
									l15.709,6.844C164.286,70.74,164.632,70.465,164.521,69.891z"/>
								<path id="XMLID_4493_" opacity="0.4" fill="#FFFFFF" d="M164.521,69.891l-2.523-13.115c-0.109-0.572-0.635-1.227-1.17-1.459
									l-15.709-6.846c-0.535-0.23-0.881,0.045-0.77,0.617c0.494,2.578,2.027,10.539,2.523,13.117
									c0.111,0.574,0.635,1.227,1.17,1.459l15.709,6.844C164.286,70.74,164.632,70.465,164.521,69.891z"/>
							</g>
						</g>
					</g>
					<path id="XMLID_4489_" fill="#375A64" d="M161.61,59.393l-0.473-2.453c-0.02-0.107-0.119-0.229-0.219-0.273l-1.082-0.469
						c-0.1-0.045-0.164,0.008-0.145,0.115c0.094,0.482,0.381,1.973,0.473,2.455c0.021,0.107,0.119,0.229,0.219,0.271l1.082,0.471
						C161.567,59.553,161.632,59.502,161.61,59.393z"/>
					<path id="XMLID_4487_" fill="#1A2E35" d="M161.003,57.49c-0.051-0.262-0.301-0.564-0.561-0.676
						c-0.26-0.113-0.428,0.008-0.379,0.268c0.051,0.262,0.303,0.564,0.563,0.678C160.884,57.873,161.052,57.752,161.003,57.49z"/>
					<path id="XMLID_4486_" fill="#1A2E35" d="M161.226,58.727c-0.051-0.262-0.301-0.564-0.559-0.676
						c-0.262-0.113-0.43,0.008-0.379,0.27c0.051,0.26,0.301,0.564,0.561,0.676C161.106,59.107,161.276,58.988,161.226,58.727z"/>
				</g>
				<g>
					<path fill="#DD8669" d="M144.724,56.803c-0.496-0.814-0.436-0.912-0.105-1.285c0.328-0.373,1.047-0.971,2.053-0.867
						c0.678,0.072,1.365,0.109,1.701,0.316c0.338,0.207-0.016,0.922-0.916,1.053c-1.416,0.211-1.438,0.59-1.438,0.59
						s1.307-0.191,1.824-0.182s1.441,0.324,2.023,0.463c0.58,0.135,0.639,0.902-0.377,1.09c0,0,0.734,0.174,1.064,0.254
						c0.746,0.176,0.973,0.598,0.346,1.018c-0.15,0.102-0.354,0.217-0.703,0.207c0,0,0.805,0.059,0.801,0.328
						c-0.008,0.77-0.521,0.934-2.18,1.283c-1.582,0.334-1.963,1.145-1.699,1.742c0,0-0.594-0.41-1.123-0.836
						c-0.385-0.311-0.705-0.652-0.475-1.273c0,0-0.887-0.049-0.9-0.6c-0.012-0.551,0.301-1.158,0.301-1.158s-0.5-0.295-0.42-0.943
						c0.082-0.648,0.395-0.938,0.395-0.938L144.724,56.803z"/>
					<path fill="#C66150" d="M149.489,57.98c-0.322-0.072-0.621-0.168-0.971-0.18c-0.359,0.006-0.664,0.131-0.971,0.23
						c-0.605,0.221-1.207,0.463-1.775,0.787c0.646-0.111,1.262-0.303,1.869-0.516c0.305-0.107,0.604-0.236,0.889-0.279
						C148.827,57.996,149.167,58.018,149.489,57.98z"/>
					<path fill="#C66150" d="M150.196,59.459c-0.328-0.125-0.703-0.16-1.057-0.111c-0.355,0.043-0.697,0.139-1.031,0.244
						c-0.664,0.221-1.311,0.49-1.916,0.848c0.689-0.146,1.348-0.365,2.006-0.576S149.491,59.42,150.196,59.459z"/>
				</g>
			</g>
			<g id="Arm_8_">
				<g id="Arm_14_">
					<path fill="#C66150" d="M175.479,54.533c-1.277-1.131-1.93-1.582-2.549-1.814c-0.619-0.234-2.77-1.35-3.607-1.633
						c-0.529-0.182-0.822,0.662-0.182,1.313c0.492,0.502,1.822,1.217,2.402,1.6c0.578,0.383,1.646,1.928,1.646,1.928L175.479,54.533
						z"/>
					<path fill="#DD8669" d="M192.062,49.033c-1.107-2.992-2.236-3.902-5.268-4.965c-3.33,2.74-1.672,10.572-1.672,10.572
						l2.672,8.182c0,0-6.475-2.322-7.348-2.988c-0.871-0.668-3.121-3.533-3.883-4.4c-1.037-1.178-1.609-1.08-2.189-1.043
						c-1.902,0.123-2.328,0.248-2.748,0.465c-0.42,0.221-0.428,0.701-0.428,0.701c-0.504,0.021-1.25-0.057-1.416,0.754
						c-0.107,0.537-0.082,0.654-0.082,0.654s-0.182,0.002-0.342,0.158c-0.455,0.445,0.117,2.172,0.535,2.615
						c0.293,0.311,0.742,0.385,1.346,0.354c0.51-0.025,0.316-0.559,0.316-0.559l0.705,0.102c1.438,1.213,1.332,3.371,3.313,4.016
						c0.418,0.135,1.295,0.197,2.428,0.686c4.225,1.828,9.572,6.824,13.42,7.482c3.754,0.645,4.291-1.545,4.318-3.871
						C195.778,64.234,193.167,52.018,192.062,49.033z"/>
					<g>
						<path fill="#C66150" d="M171.198,55.557l2.4-0.023l-2.33-0.277C171.226,55.357,171.204,55.457,171.198,55.557z"/>
						<path fill="#C66150" d="M169.7,56.965l2.594-0.117l-2.572-0.182C169.702,56.758,169.698,56.857,169.7,56.965z"/>
						<path fill="#C66150" d="M171.8,59.178c-0.273-0.338-0.279-0.521-0.279-0.521s-0.617-0.064-0.891-0.135
							c-0.111-0.037-0.225-0.078-0.334-0.129c-0.131-0.068-0.262-0.145-0.354-0.27c0.066,0.139,0.188,0.25,0.32,0.33
							c0.117,0.074,0.242,0.127,0.375,0.168l0.119,0.328c-0.098,0-0.193,0.029-0.275,0.08c-0.121,0.076-0.201,0.195-0.252,0.316
							c0.074-0.109,0.176-0.199,0.285-0.256c0.109-0.053,0.242-0.068,0.35-0.035c0.557,0.18,0.691,0.479,0.691,0.479l0.705,0.102
							C172.261,59.635,171.944,59.357,171.8,59.178z"/>
					</g>
				</g>
				<g>
					<path fill="#C66150" d="M187.794,62.822c1.621,0.475,3.639,2.322,4.018,3.244c-0.426-2.01-1.621-3.701-4.398-4.404
						L187.794,62.822z"/>
				</g>
			</g>
			<path fill="#1A8CD1" d="M186.741,43.938c2.656,0.727,4.215,1.512,5.205,4.283s2.895,11.68,2.895,11.68s-0.186,0.535-3.178,1.17
				s-4.904-0.109-4.904-0.109s-1.467-4.996-1.961-6.469C184.304,53.021,183.12,46.039,186.741,43.938z"/>
		</g>
	</g>
	<g id="Speech_Bubble_00000032614563375448966020000013663832492064658111_">
		<g id="Speech_Bubble_00000065071409747244119150000001705136734481716410_">
			<g>
				<path fill="#1A8CD1" d="M40.26,47.18l0.791-2.297c0.439-1.859-7.281,2.373-7.721,4.232l2.311,6.666
					c0.088,0.219,0.232,0.381,0.402,0.492c0.531,0.342,2.492,1.506,2.664,1.617c0.535,0.344,1.34,0.152,1.582-0.549l3.424-10.844
					C43.93,45.582,42.16,46.146,40.26,47.18z"/>
				<path opacity="0.2" fill="#FFFFFF" d="M40.26,47.18l0.791-2.297c0.439-1.859-7.281,2.373-7.721,4.232l2.311,6.666
					c0.088,0.219,0.232,0.381,0.402,0.492c0.531,0.342,2.492,1.506,2.664,1.617c0.535,0.344,1.34,0.152,1.582-0.549l3.424-10.844
					C43.93,45.582,42.16,46.146,40.26,47.18z"/>
			</g>
			<g id="XMLID_00000168105531540964821520000009519541973650908607_">
				<g>
					<path id="XMLID_00000121965864895681067690000018058535346576762017_" fill="#1A8CD1" d="M50.932,3.33L21.58,19.41
						c-0.549,0.301-1.004,1.051-1.018,1.676l-0.756,34.342c-0.016,0.625,0.408,1.389,0.947,1.709l1.77,1.053
						c0.537,0.318,1.418,0.334,1.965,0.033l29.352-16.08c0.547-0.301,1.004-1.051,1.018-1.676l0.756-34.342
						c0.014-0.623-0.41-1.389-0.947-1.709l-1.77-1.053C52.357,3.045,51.479,3.029,50.932,3.33z"/>
					<path id="XMLID_00000175317736259478237690000008620281225433681077_" opacity="0.2" fill="#FFFFFF" d="M50.932,3.33
						L21.58,19.41c-0.549,0.301-1.004,1.051-1.018,1.676l-0.756,34.342c-0.016,0.625,0.408,1.389,0.947,1.709l1.77,1.053
						c0.537,0.318,1.418,0.334,1.965,0.033l29.352-16.08c0.547-0.301,1.004-1.051,1.018-1.676l0.756-34.342
						c0.014-0.623-0.41-1.389-0.947-1.709l-1.77-1.053C52.357,3.045,51.479,3.029,50.932,3.33z"/>
				</g>
				<g>
					<path fill="#1A8CD1" d="M54.646,5.539l-29.352,16.08c-0.547,0.301-1.002,1.051-1.016,1.676l-0.758,34.34
						c-0.014,0.625,0.42,0.889,0.967,0.588l11.9-6.521l1.914,5.697c0.371,0.904,1.668,0.869,1.986-0.057l2.969-9.4l10.582-5.799
						c0.547-0.301,1.004-1.051,1.018-1.676l0.756-34.342C55.627,5.502,55.193,5.238,54.646,5.539z"/>
					<path opacity="0.4" fill="#FFFFFF" d="M54.646,5.539l-29.352,16.08c-0.547,0.301-1.002,1.051-1.016,1.676l-0.758,34.34
						c-0.014,0.625,0.42,0.889,0.967,0.588l11.9-6.521l1.914,5.697c0.371,0.904,1.668,0.869,1.986-0.057l2.969-9.4l10.582-5.799
						c0.547-0.301,1.004-1.051,1.018-1.676l0.756-34.342C55.627,5.502,55.193,5.238,54.646,5.539z"/>
				</g>
				<path id="XMLID_00000178892947039265806550000010156151552760763062_" opacity="0.7" fill="#FFFFFF" d="M55.605,5.949
					c-0.066-0.498-0.465-0.682-0.961-0.412l-29.348,16.08c-0.275,0.154-0.523,0.414-0.709,0.719l-3.695-2.244
					c0.182-0.291,0.422-0.539,0.689-0.682L50.934,3.328c0.545-0.301,1.424-0.285,1.963,0.035l1.768,1.051
					C55.152,4.705,55.551,5.363,55.605,5.949z"/>
			</g>
		</g>
		<path fill="#FAFAFA" d="M44.848,25.096l-0.961,0.527l0.09-4.137c0.068-3.07-1.775-4.529-4.107-3.25s-4.285,4.816-4.352,7.889
			l-0.092,4.137l-0.963,0.527c-0.842,0.463-1.547,1.738-1.572,2.846l-0.252,11.406c-0.02,0.936,0.457,1.475,1.145,1.305
			c3.615-0.885,7.402-2.961,11.068-6.07c0.348-0.293,0.652-0.709,0.867-1.172c0.215-0.457,0.348-0.965,0.357-1.432l0.252-11.404
			C46.352,25.162,45.691,24.633,44.848,25.096z M40.744,39.133l-2.703,1.48l0.563-4.221c-0.467-0.133-0.775-0.645-0.758-1.436
			c0.027-1.221,0.799-2.621,1.723-3.127c0.928-0.508,1.656,0.07,1.629,1.289c-0.016,0.791-0.354,1.656-0.84,2.309L40.744,39.133z
			 M42.148,26.576l-4.986,2.734l0.092-4.137c0.039-1.811,1.191-3.898,2.566-4.652c1.373-0.754,2.459,0.107,2.42,1.918L42.148,26.576
			z"/>
	</g>
</g>
</svg>
