<?xml version="1.0" encoding="utf-8"?>
<!-- Generator: Adobe Illustrator 16.0.0, SVG Export Plug-In . SVG Version: 6.00 Build 0)  -->
<!DOCTYPE svg PUBLIC "-//W3C//DTD SVG 1.1//EN" "http://www.w3.org/Graphics/SVG/1.1/DTD/svg11.dtd">
<svg version="1.1" id="Layer_1" xmlns="http://www.w3.org/2000/svg" xmlns:xlink="http://www.w3.org/1999/xlink" x="0px" y="0px"
	 width="457.942px" height="281.043px" viewBox="0 0 457.942 281.043" enable-background="new 0 0 457.942 281.043"
	 xml:space="preserve">
<g>
	<g>
		<path fill="#007CFF" d="M186.563,18.419c-14.148,1.703-27.793,5.326-39.893,11.01c-14.264,6.697-28.834,17.135-24.531,30.785
			c7.945,25.199,46.064,25.66,38.453,42.604c-8.619,19.191-2.838,41.705,35.846,47.966c73.475,11.891,162.295-57.686,137.35-95.918
			C318.256,31.063,261.692,9.384,186.563,18.419z"/>
		<path opacity="0.9" fill="#FFFFFF" d="M186.563,18.419c-14.148,1.703-27.793,5.326-39.893,11.01
			c-14.264,6.697-28.834,17.135-24.531,30.785c7.945,25.199,46.064,25.66,38.453,42.604c-8.619,19.191-2.838,41.705,35.846,47.966
			c73.475,11.891,162.295-57.686,137.35-95.918C318.256,31.063,261.692,9.384,186.563,18.419z"/>
	</g>
	<path fill="#F5F5F5" d="M148.733,114.023c-0.908,1.381-1.516,2.896-1.842,4.461l-2.49,0.234v4.824l2.49,0.234
		c0.324,1.563,0.934,3.08,1.842,4.459l-1.592,1.924l3.412,3.41l1.922-1.592c1.379,0.906,2.896,1.516,4.459,1.84l0.236,2.492h4.822
		l0.234-2.49c1.564-0.326,3.08-0.936,4.461-1.842l1.922,1.592l3.41-3.41l-1.59-1.924c0.906-1.379,1.516-2.896,1.84-4.459l2.49-0.234
		v-4.824l-2.49-0.234c-0.324-1.564-0.934-3.08-1.842-4.461l1.592-1.922l-3.41-3.41l-1.922,1.59c-1.381-0.904-2.896-1.516-4.461-1.84
		l-0.234-2.49h-4.822l-0.236,2.49c-1.563,0.324-3.08,0.934-4.459,1.84l-1.922-1.59l-3.412,3.41L148.733,114.023z M164.198,116.512
		c2.551,2.551,2.551,6.686,0,9.236s-6.684,2.551-9.234,0s-2.551-6.684,0-9.236C157.514,113.963,161.647,113.963,164.198,116.512z"/>
	<path fill="#F5F5F5" d="M269.674,124.039c-0.59,0.898-0.986,1.887-1.197,2.906l-1.625,0.154v3.141l1.625,0.154
		c0.211,1.018,0.607,2.006,1.197,2.906l-1.035,1.252l2.221,2.221l1.254-1.035c0.898,0.59,1.887,0.988,2.906,1.199l0.152,1.623h3.143
		l0.152-1.623c1.018-0.211,2.008-0.609,2.906-1.199l1.252,1.035l2.223-2.221l-1.037-1.252c0.59-0.9,0.988-1.889,1.199-2.906
		l1.623-0.154V127.1l-1.623-0.154c-0.211-1.02-0.609-2.006-1.199-2.906l1.037-1.252l-2.225-2.223l-1.25,1.037
		c-0.898-0.59-1.889-0.988-2.906-1.199l-0.152-1.623h-3.143l-0.152,1.623c-1.02,0.211-2.008,0.609-2.906,1.199l-1.254-1.037
		l-2.221,2.223L269.674,124.039z M279.752,125.662c1.66,1.66,1.66,4.354,0,6.016c-1.664,1.662-4.355,1.662-6.018,0
		s-1.66-4.354,0-6.016C275.397,124,278.088,124,279.752,125.662z"/>
	<path fill="#E1E1E1" d="M289.19,147.617c-0.609,0.928-1.02,1.943-1.236,2.994l-1.672,0.158v3.236l1.672,0.158
		c0.217,1.049,0.627,2.066,1.236,2.992l-1.068,1.291l2.289,2.289l1.289-1.068c0.926,0.609,1.943,1.018,2.994,1.236l0.156,1.672
		h3.238l0.158-1.672c1.049-0.219,2.066-0.627,2.992-1.236l1.291,1.068l2.289-2.289l-1.068-1.291
		c0.609-0.926,1.018-1.943,1.234-2.992l1.672-0.158v-3.236l-1.672-0.158c-0.217-1.051-0.625-2.066-1.234-2.994l1.068-1.289
		l-2.289-2.289l-1.291,1.066c-0.926-0.607-1.943-1.016-2.992-1.234l-0.158-1.672h-3.238l-0.156,1.672
		c-1.051,0.219-2.068,0.627-2.994,1.234l-1.289-1.066l-2.289,2.289L289.19,147.617z M299.569,149.289
		c1.711,1.711,1.711,4.486,0,6.197c-1.711,1.713-4.486,1.713-6.197,0c-1.713-1.711-1.713-4.486,0-6.197
		C295.083,147.578,297.858,147.578,299.569,149.289z"/>
	<path fill="#F5F5F5" d="M51.411,161.404c-1.434,2.18-2.395,4.574-2.908,7.047l-3.936,0.369l-0.002,7.623l3.938,0.371
		c0.512,2.471,1.475,4.867,2.908,7.049l-2.514,3.035l5.391,5.389l3.035-2.514c2.182,1.434,4.578,2.396,7.049,2.91l0.371,3.936h7.621
		l0.371-3.936c2.471-0.514,4.867-1.477,7.049-2.91l3.035,2.514l5.391-5.389l-2.516-3.037c1.434-2.18,2.396-4.576,2.91-7.047
		l3.934-0.371v-7.623l-3.934-0.371c-0.514-2.471-1.477-4.865-2.91-7.045l2.516-3.037l-5.391-5.391l-3.035,2.514
		c-2.182-1.432-4.578-2.396-7.049-2.908l-0.371-3.936h-7.621l-0.371,3.936c-2.471,0.514-4.867,1.477-7.049,2.908l-3.035-2.514
		l-5.391,5.391L51.411,161.404z M75.85,165.335c4.027,4.029,4.029,10.563,0,14.594c-4.031,4.029-10.564,4.029-14.594,0
		c-4.029-4.031-4.029-10.564,0-14.594S71.819,161.306,75.85,165.335z"/>
	<path fill="#F5F5F5" d="M369.305,165.492c-0.922,1.402-1.541,2.945-1.871,4.533l-2.533,0.24v4.902l2.533,0.238
		c0.33,1.588,0.949,3.129,1.871,4.533l-1.617,1.953l3.467,3.465l1.951-1.615c1.404,0.922,2.945,1.541,4.535,1.871l0.238,2.531h4.902
		l0.238-2.531c1.59-0.33,3.131-0.949,4.533-1.871l1.955,1.615l3.467-3.465l-1.617-1.953c0.92-1.404,1.541-2.945,1.871-4.533
		l2.531-0.238v-4.902l-2.531-0.24c-0.33-1.588-0.951-3.131-1.871-4.533l1.615-1.953l-3.465-3.467l-1.955,1.617
		c-1.402-0.922-2.943-1.541-4.533-1.871l-0.238-2.531h-4.902l-0.238,2.531c-1.59,0.33-3.131,0.949-4.533,1.871l-1.953-1.617
		l-3.467,3.467L369.305,165.492z M385.024,168.021c2.592,2.592,2.592,6.795,0,9.387s-6.795,2.592-9.387,0s-2.592-6.795,0-9.387
		S382.432,165.429,385.024,168.021z"/>
	<path fill="#E1E1E1" d="M44.641,205.025c-0.727,1.107-1.217,2.322-1.477,3.58l-2,0.186v3.871l2,0.189
		c0.26,1.254,0.75,2.471,1.477,3.578l-1.277,1.543l2.738,2.736l1.541-1.277c1.107,0.729,2.324,1.217,3.578,1.477l0.188,2h3.871
		l0.189-2c1.256-0.26,2.471-0.748,3.58-1.477l1.541,1.277l2.736-2.736l-1.275-1.543c0.727-1.107,1.215-2.324,1.477-3.578
		l1.998-0.189v-3.871l-1.998-0.188c-0.262-1.256-0.75-2.471-1.477-3.578l1.275-1.541l-2.736-2.738l-1.543,1.277
		c-1.107-0.729-2.322-1.219-3.578-1.479l-0.188-1.998h-3.873l-0.188,1.998c-1.254,0.26-2.471,0.75-3.578,1.479l-1.541-1.277
		l-2.738,2.738L44.641,205.025z M57.051,207.023c2.045,2.045,2.047,5.363,0,7.41c-2.047,2.045-5.363,2.045-7.41,0
		c-2.047-2.047-2.047-5.365,0-7.41C51.688,204.976,55.004,204.976,57.051,207.023z"/>
	<path fill="#E1E1E1" d="M294.336,117.049c-0.883,1.344-1.477,2.818-1.793,4.342l-2.424,0.229v4.695l2.424,0.229
		c0.316,1.521,0.91,2.998,1.793,4.342l-1.549,1.871l3.32,3.32l1.869-1.549c1.344,0.883,2.82,1.477,4.344,1.791l0.229,2.426h4.695
		l0.229-2.426c1.521-0.314,2.998-0.908,4.342-1.791l1.871,1.549l3.32-3.32l-1.549-1.871c0.883-1.344,1.477-2.82,1.791-4.342
		l2.426-0.229v-4.695l-2.426-0.229c-0.314-1.523-0.908-2.998-1.791-4.342l1.549-1.871l-3.32-3.32l-1.871,1.549
		c-1.344-0.883-2.82-1.477-4.342-1.793l-0.229-2.424h-4.695l-0.229,2.424c-1.523,0.316-3,0.91-4.344,1.791l-1.869-1.547l-3.32,3.32
		L294.336,117.049z M309.391,119.473c2.482,2.48,2.482,6.508,0,8.988c-2.482,2.484-6.508,2.482-8.99,0
		c-2.482-2.48-2.482-6.508,0-8.988C302.883,116.988,306.909,116.988,309.391,119.473z"/>
	<g>
		<g>
			<ellipse fill="#F5F5F5" cx="228.971" cy="271.555" rx="228.971" ry="4.387"/>
		</g>
	</g>
	<g>
		<path fill="#1A2E35" d="M54.633,239.712l-2.893-0.406c0.512-3.609,3.529-10.439,11.248-10.439c9.139,0,13.693,5.277,14.145,10.516
			l-2.893,0.252c-0.338-3.918-3.957-7.873-11.26-7.873C55.899,231.761,54.702,239.392,54.633,239.712z"/>
		<path fill="#1A2E35" d="M41.485,237.164h47.014c2.576,0,4.662,2.088,4.662,4.66v24.314c0,2.572-2.086,4.658-4.662,4.658H41.485
			c-2.574,0-4.662-2.086-4.662-4.658v-24.314C36.823,239.251,38.911,237.164,41.485,237.164z"/>
		<path opacity="0.2" fill="#FFFFFF" d="M41.485,237.164h47.014c2.576,0,4.662,2.088,4.662,4.66v24.314
			c0,2.572-2.086,4.658-4.662,4.658H41.485c-2.574,0-4.662-2.086-4.662-4.658v-24.314C36.823,239.251,38.911,237.164,41.485,237.164
			z"/>
		<path fill="#1A2E35" d="M77.163,271.319c-39.826,0-41.756-27.313-41.756-27.603l1.619-3.166
			c0.068,1.012,3.203,27.854,40.166,27.854c15.215,0,28.348,0,29.68-2.893c1.166-2.559-4.537-9.129-13.684-19.654v-4.072
			c11.656,13.42,18.256,20.639,16.314,24.893C107.459,271.145,98.659,271.319,77.163,271.319z"/>
	</g>
	<g>
		<g>
			<g>
				<g>
					<path fill="#007CFF" d="M399.598,89.159c5.35,7.26,3.801,17.483-3.459,22.833c-5.605,4.131-12.969,4.133-18.5,0.588
						l-4.725,1.314l0.563-5.152c-0.055-0.072-0.117-0.135-0.172-0.209c-5.352-7.261-3.803-17.483,3.459-22.835
						C384.024,80.349,394.249,81.897,399.598,89.159z"/>
					<path opacity="0.7" fill="#FFFFFF" d="M399.598,89.159c5.35,7.26,3.801,17.483-3.459,22.833
						c-5.605,4.131-12.969,4.133-18.5,0.588l-4.725,1.314l0.563-5.152c-0.055-0.072-0.117-0.135-0.172-0.209
						c-5.352-7.261-3.803-17.483,3.459-22.835C384.024,80.349,394.249,81.897,399.598,89.159z"/>
					<path fill="#007CFF" d="M400.655,87.567c-0.053,0-0.104-0.025-0.135-0.07c-2.865-4.213-7.945-6.883-13.037-6.883
						c-0.141,0-0.279,0.002-0.42,0.006c-0.08,0.008-0.166-0.068-0.168-0.16c-0.004-0.09,0.068-0.166,0.158-0.168
						c5.332-0.158,10.732,2.602,13.738,7.02c0.049,0.074,0.031,0.178-0.045,0.229C400.719,87.558,400.688,87.567,400.655,87.567z
						 M382.303,81.153c0.732-0.281,1.535-0.41,2.314-0.377c0.092,0.01,0.17-0.064,0.172-0.156c0.004-0.09-0.064-0.166-0.156-0.17
						c-0.83-0.039-1.674,0.098-2.447,0.396c-0.084,0.033-0.127,0.127-0.094,0.211c0.025,0.066,0.088,0.105,0.152,0.105
						C382.264,81.163,382.284,81.159,382.303,81.153z"/>
					<path opacity="0.7" fill="#FFFFFF" d="M400.655,87.567c-0.053,0-0.104-0.025-0.135-0.07c-2.865-4.213-7.945-6.883-13.037-6.883
						c-0.141,0-0.279,0.002-0.42,0.006c-0.08,0.008-0.166-0.068-0.168-0.16c-0.004-0.09,0.068-0.166,0.158-0.168
						c5.332-0.158,10.732,2.602,13.738,7.02c0.049,0.074,0.031,0.178-0.045,0.229C400.719,87.558,400.688,87.567,400.655,87.567z
						 M382.303,81.153c0.732-0.281,1.535-0.41,2.314-0.377c0.092,0.01,0.17-0.064,0.172-0.156c0.004-0.09-0.064-0.166-0.156-0.17
						c-0.83-0.039-1.674,0.098-2.447,0.396c-0.084,0.033-0.127,0.127-0.094,0.211c0.025,0.066,0.088,0.105,0.152,0.105
						C382.264,81.163,382.284,81.159,382.303,81.153z"/>
				</g>
			</g>
		</g>
		<circle fill="#007CFF" cx="380.569" cy="98.333" r="2.191"/>
		<circle fill="#007CFF" cx="387.281" cy="98.333" r="2.192"/>
		<circle fill="#007CFF" cx="393.993" cy="98.333" r="2.191"/>
	</g>
	<g>
		<g>
			<g>
				<g>
					<path fill="#007CFF" d="M152.51,75.44c-5.055-6.414-14.529-7.652-21.164-2.766c-5.121,3.773-7.035,10.092-5.324,15.729
						l-2.395,3.725l4.717,0.811c0.051,0.066,0.092,0.133,0.143,0.199c5.053,6.414,14.529,7.652,21.164,2.766
						S157.565,81.854,152.51,75.44z"/>
					<path opacity="0.7" fill="#FFFFFF" d="M152.51,75.44c-5.055-6.414-14.529-7.652-21.164-2.766
						c-5.121,3.773-7.035,10.092-5.324,15.729l-2.395,3.725l4.717,0.811c0.051,0.066,0.092,0.133,0.143,0.199
						c5.053,6.414,14.529,7.652,21.164,2.766S157.565,81.854,152.51,75.44z"/>
					<path fill="#007CFF" d="M156.977,88.55c-0.018,0-0.035-0.002-0.053-0.008c-0.086-0.029-0.131-0.123-0.102-0.207
						c1.49-4.445,0.467-9.648-2.605-13.256c-0.059-0.068-0.051-0.172,0.02-0.23c0.066-0.059,0.17-0.051,0.23,0.018
						c3.145,3.693,4.191,9.02,2.664,13.572C157.11,88.507,157.045,88.55,156.977,88.55z M155.374,92.481
						c0.467-0.592,0.811-1.287,0.992-2.008c0.021-0.088-0.031-0.178-0.119-0.199c-0.09-0.023-0.178,0.031-0.199,0.119
						c-0.172,0.678-0.492,1.33-0.932,1.885c-0.055,0.07-0.043,0.174,0.027,0.229c0.031,0.025,0.066,0.037,0.104,0.037
						C155.293,92.544,155.342,92.522,155.374,92.481z"/>
					<path opacity="0.7" fill="#FFFFFF" d="M156.977,88.55c-0.018,0-0.035-0.002-0.053-0.008c-0.086-0.029-0.131-0.123-0.102-0.207
						c1.49-4.445,0.467-9.648-2.605-13.256c-0.059-0.068-0.051-0.172,0.02-0.23c0.066-0.059,0.17-0.051,0.23,0.018
						c3.145,3.693,4.191,9.02,2.664,13.572C157.11,88.507,157.045,88.55,156.977,88.55z M155.374,92.481
						c0.467-0.592,0.811-1.287,0.992-2.008c0.021-0.088-0.031-0.178-0.119-0.199c-0.09-0.023-0.178,0.031-0.199,0.119
						c-0.172,0.678-0.492,1.33-0.932,1.885c-0.055,0.07-0.043,0.174,0.027,0.229c0.031,0.025,0.066,0.037,0.104,0.037
						C155.293,92.544,155.342,92.522,155.374,92.481z"/>
				</g>
			</g>
		</g>
		<ellipse fill="#007CFF" cx="146.127" cy="83.966" rx="2.027" ry="1.961"/>
		<ellipse fill="#007CFF" cx="139.92" cy="83.966" rx="2.027" ry="1.961"/>
		<ellipse fill="#007CFF" cx="133.713" cy="83.966" rx="2.027" ry="1.961"/>
	</g>
	<g>
		<g>
			<g>
				<g>
					<g>
						<path fill="#007CFF" d="M265.01,13.724c-11.359-0.133-20.676,8.967-20.809,20.324c-0.072,6.164,2.623,12.037,7.346,16
							c0.869,0.717,2.195,1.582,2.166,3.379c-0.002,0.055,0.092,4.494,0.092,4.494h21.633c0,0,0.092-4.613,0.092-4.666
							c0-1.58,1.225-2.264,2.127-2.977c4.785-3.836,7.602-9.613,7.68-15.746C285.469,23.173,276.37,13.856,265.01,13.724z"/>
						<path opacity="0.4" fill="#FFFFFF" d="M265.01,13.724c-11.359-0.133-20.676,8.967-20.809,20.324
							c-0.072,6.164,2.623,12.037,7.346,16c0.869,0.717,2.195,1.582,2.166,3.379c-0.002,0.055,0.092,4.494,0.092,4.494h21.633
							c0,0,0.092-4.613,0.092-4.666c0-1.58,1.225-2.264,2.127-2.977c4.785-3.836,7.602-9.613,7.68-15.746
							C285.469,23.173,276.37,13.856,265.01,13.724z"/>
						<path opacity="0.2" fill="#FFFFFF" enable-background="new    " d="M275.235,22.587c0,4.006-4.688,7.26-10.498,7.26
							c-5.813,0-10.498-3.254-10.498-7.26c0-4.004,4.686-7.266,10.498-7.266C270.547,15.321,275.235,18.575,275.235,22.587z"/>
					</g>
					<path fill="#FFFFFF" d="M248.954,42.192c-1.818-3.119-2.529-6.803-2.002-10.375s2.271-6.895,4.916-9.355l0.223,0.242
						c-2.588,2.41-4.299,5.662-4.814,9.162c-0.516,3.498,0.18,7.105,1.961,10.16L248.954,42.192z"/>
					<path fill="#1A2E35" d="M270.747,53.526c-1.049-2.766-1.922-5.611-2.615-8.516c-1.061,0.932-2.223,1.41-3.348,1.352
						c-0.906-0.047-1.814-0.426-2.748-1.154c-0.141,2.816-0.609,5.613-1.4,8.311l-0.631-0.184c0.828-2.813,1.293-5.732,1.396-8.67
						c-0.15-0.141-0.303-0.291-0.455-0.449c-2.301-2.398-3.377-5.367-2.877-7.941c0.189-0.977,0.777-1.93,1.676-1.93
						c0.814,0.021,1.414,0.822,1.689,2.258c0.492,2.564,0.703,5.178,0.633,7.781c0.961,0.844,1.865,1.277,2.75,1.322
						c1.328,0.068,2.459-0.768,3.143-1.43c-0.502-2.215-0.898-4.459-1.188-6.725c-0.105-0.82-0.186-1.621-0.006-2.398
						c0.221-0.955,0.834-1.674,1.564-1.83c1.27-0.275,2.299,1.08,2.65,2.561c0.701,2.938-0.182,6.289-2.248,8.535
						c-0.018,0.02-0.035,0.039-0.053,0.059c0.699,3.01,1.596,5.957,2.682,8.816L270.747,53.526z M259.715,35.001
						c-0.48,0-0.867,0.699-1.002,1.398c-0.459,2.367,0.553,5.117,2.705,7.361c0.002,0,0.004,0.002,0.004,0.004
						c0.023-2.357-0.186-4.719-0.633-7.039c-0.076-0.398-0.379-1.709-1.063-1.725C259.723,35.001,259.719,35.001,259.715,35.001z
						 M268.645,33.948c-0.059,0-0.117,0.004-0.176,0.018c-0.551,0.117-0.932,0.754-1.064,1.332c-0.154,0.676-0.08,1.412,0.016,2.17
						c0.27,2.094,0.631,4.172,1.08,6.221c1.715-2.059,2.453-5.084,1.842-7.654C270.086,34.962,269.401,33.948,268.645,33.948z"/>
				</g>
			</g>
			<path fill="#1A2E35" d="M276.862,59.228h-24.367c-0.582,0-1.053-0.471-1.053-1.053v-0.506c0-0.582,0.471-1.053,1.053-1.053
				h24.367c0.582,0,1.053,0.471,1.053,1.053v0.506C277.915,58.757,277.444,59.228,276.862,59.228z"/>
			<path opacity="0.3" fill="#FFFFFF" d="M276.862,59.228h-24.367c-0.582,0-1.053-0.471-1.053-1.053v-0.506
				c0-0.582,0.471-1.053,1.053-1.053h24.367c0.582,0,1.053,0.471,1.053,1.053v0.506C277.915,58.757,277.444,59.228,276.862,59.228z"
				/>
			<path fill="#1A2E35" d="M276.432,61.519h-23.51c-0.582,0-1.053-0.471-1.053-1.053v-0.42c0-0.582,0.471-1.053,1.053-1.053h23.51
				c0.582,0,1.055,0.471,1.055,1.053v0.42C277.487,61.048,277.014,61.519,276.432,61.519z"/>
			<path opacity="0.3" fill="#FFFFFF" d="M276.432,61.519h-23.51c-0.582,0-1.053-0.471-1.053-1.053v-0.42
				c0-0.582,0.471-1.053,1.053-1.053h23.51c0.582,0,1.055,0.471,1.055,1.053v0.42C277.487,61.048,277.014,61.519,276.432,61.519z"/>
			<g>
				<path fill="#1A2E35" d="M256.553,65.122c1.623,2.967,5.037,6.096,8.416,5.895c3.375-0.197,6.543-3.068,7.807-6.207
					L256.553,65.122z"/>
			</g>
			<path fill="#1A2E35" d="M274.87,66.073h-20.383c-0.582,0-1.053-0.471-1.053-1.051v-0.422c0-0.582,0.471-1.053,1.053-1.053h20.383
				c0.582,0,1.053,0.471,1.053,1.053v0.422C275.922,65.603,275.452,66.073,274.87,66.073z"/>
			<path opacity="0.3" fill="#FFFFFF" d="M274.87,66.073h-20.383c-0.582,0-1.053-0.471-1.053-1.051v-0.422
				c0-0.582,0.471-1.053,1.053-1.053h20.383c0.582,0,1.053,0.471,1.053,1.053v0.422C275.922,65.603,275.452,66.073,274.87,66.073z"
				/>
			<path fill="#1A2E35" d="M276.088,63.757h-22.82c-0.58,0-1.051-0.471-1.051-1.053v-0.422c0-0.58,0.471-1.053,1.051-1.053h22.82
				c0.58,0,1.051,0.473,1.051,1.053v0.422C277.139,63.286,276.668,63.757,276.088,63.757z"/>
			<path opacity="0.3" fill="#FFFFFF" d="M276.088,63.757h-22.82c-0.58,0-1.051-0.471-1.051-1.053v-0.422
				c0-0.58,0.471-1.053,1.051-1.053h22.82c0.58,0,1.051,0.473,1.051,1.053v0.422C277.139,63.286,276.668,63.757,276.088,63.757z"/>
		</g>
		<path fill="#1A2E35" d="M253.356,6.265c1.564,1.563,3.127,3.127,4.691,4.689c0.223,0.225,0.57-0.123,0.346-0.348
			c-1.563-1.563-3.127-3.127-4.689-4.689C253.479,5.692,253.131,6.04,253.356,6.265L253.356,6.265z"/>
		<path fill="#1A2E35" d="M265.583,9.11c0-2.957,0-5.916,0-8.873c0-0.316-0.492-0.316-0.492,0c0,2.957,0,5.916,0,8.873
			C265.09,9.427,265.583,9.429,265.583,9.11L265.583,9.11z"/>
		<path fill="#1A2E35" d="M272.086,11.335c1.691-1.689,3.381-3.381,5.072-5.07c0.223-0.223-0.125-0.572-0.35-0.348
			c-1.689,1.689-3.379,3.381-5.068,5.07C271.516,11.212,271.864,11.56,272.086,11.335L272.086,11.335z"/>
	</g>
	<g>
		<rect x="88.838" y="239.222" fill="#007CFF" width="285.408" height="30.553"/>
		<rect x="88.838" y="242.417" fill="#FFFFFF" width="98.059" height="24.162"/>
		<g>
			<path fill="#1A2E35" d="M88.838,248.373c29.824-0.322,63.285-0.324,93.111,0C152.124,248.695,118.663,248.691,88.838,248.373
				L88.838,248.373z"/>
			<path fill="#1A2E35" d="M88.838,251.238c29.824-0.32,63.285-0.322,93.111,0C152.124,251.56,118.663,251.558,88.838,251.238
				L88.838,251.238z"/>
			<path fill="#1A2E35" d="M88.838,254.103c29.824-0.32,63.285-0.322,93.111,0C152.124,254.425,118.663,254.423,88.838,254.103
				L88.838,254.103z"/>
			<path fill="#1A2E35" d="M88.838,256.968c29.824-0.318,63.285-0.322,93.111,0C152.124,257.292,118.663,257.289,88.838,256.968
				L88.838,256.968z"/>
			<path fill="#1A2E35" d="M88.838,259.835c29.824-0.32,63.285-0.322,93.111,0C152.124,260.158,118.663,260.156,88.838,259.835
				L88.838,259.835z"/>
			<path fill="#1A2E35" d="M88.838,262.701c29.824-0.32,63.285-0.324,93.111,0C152.124,263.023,118.663,263.021,88.838,262.701
				L88.838,262.701z"/>
			<path fill="#1A2E35" d="M88.838,245.505c29.824-0.32,63.285-0.322,93.111,0C152.124,245.83,118.663,245.826,88.838,245.505
				L88.838,245.505z"/>
		</g>
		<rect x="211.956" y="239.222" opacity="0.3" fill="#FFFFFF" width="8.756" height="30.553"/>
		<rect x="345.461" y="239.222" opacity="0.3" fill="#FFFFFF" width="8.754" height="30.553"/>
		<rect x="88.838" y="239.222" opacity="0.2" width="103.615" height="30.553"/>
	</g>
	<g>
		<rect x="131.92" y="174.732" fill="#007CFF" width="165.842" height="21.768"/>
		<rect x="131.92" y="177.009" fill="#FFFFFF" width="69.859" height="17.215"/>
		<g>
			<path fill="#1A2E35" d="M131.92,181.251c21.246-0.32,45.086-0.322,66.332,0C177.006,181.574,153.167,181.572,131.92,181.251
				L131.92,181.251z"/>
			<path fill="#1A2E35" d="M131.92,183.294c21.246-0.32,45.086-0.324,66.332,0C177.006,183.617,153.167,183.615,131.92,183.294
				L131.92,183.294z"/>
			<path fill="#1A2E35" d="M131.92,185.335c21.246-0.32,45.086-0.322,66.332,0C177.006,185.658,153.167,185.656,131.92,185.335
				L131.92,185.335z"/>
			<path fill="#1A2E35" d="M131.92,187.376c21.246-0.32,45.086-0.324,66.332,0C177.006,187.699,153.167,187.697,131.92,187.376
				L131.92,187.376z"/>
			<path fill="#1A2E35" d="M131.92,189.419c21.246-0.32,45.086-0.324,66.332,0C177.006,189.742,153.167,189.738,131.92,189.419
				L131.92,189.419z"/>
			<path fill="#1A2E35" d="M131.92,191.46c21.246-0.32,45.086-0.322,66.332,0C177.006,191.783,153.167,191.781,131.92,191.46
				L131.92,191.46z"/>
			<path fill="#1A2E35" d="M131.92,179.21c21.246-0.32,45.086-0.324,66.332,0C177.006,179.533,153.167,179.531,131.92,179.21
				L131.92,179.21z"/>
		</g>
		<rect x="284.788" y="174.732" opacity="0.3" width="6.236" height="21.768"/>
		<rect x="218.463" y="174.732" opacity="0.3" width="6.234" height="21.768"/>
		<rect x="131.92" y="174.732" opacity="0.2" width="73.818" height="21.768"/>
		<rect x="230.243" y="182.419" opacity="0.3" width="48.248" height="6.371"/>
	</g>
	<g>
		<rect x="71.42" y="226.416" fill="#1A2E35" width="232.785" height="12.807"/>
		<rect x="71.42" y="228.072" fill="#FFFFFF" width="97.807" height="9.496"/>
		<g>
			<path fill="#1A2E35" d="M72.09,229.953c29.826-0.32,63.287-0.322,93.111,0C135.377,230.275,101.917,230.273,72.09,229.953
				L72.09,229.953z"/>
			<path fill="#1A2E35" d="M72.09,232.818c29.826-0.318,63.287-0.32,93.111,0C135.377,233.142,101.917,233.138,72.09,232.818
				L72.09,232.818z"/>
			<path fill="#1A2E35" d="M72.09,235.685c29.826-0.32,63.287-0.324,93.111,0C135.377,236.007,101.917,236.003,72.09,235.685
				L72.09,235.685z"/>
		</g>
		<rect x="194.561" y="226.416" opacity="0.3" fill="#FFFFFF" width="2.459" height="12.807"/>
		<rect x="199.141" y="226.416" opacity="0.3" fill="#FFFFFF" width="2.459" height="12.807"/>
		<rect x="286.079" y="226.416" opacity="0.3" fill="#FFFFFF" width="2.457" height="12.807"/>
		<rect x="290.659" y="226.416" opacity="0.3" fill="#FFFFFF" width="2.457" height="12.807"/>
		<rect x="71.409" y="226.41" opacity="0.2" width="100.201" height="12.805"/>
	</g>
	<g>
		<rect x="116.608" y="196.386" fill="#1A2E35" width="232.785" height="12.807"/>
		<rect x="116.608" y="198.041" fill="#FFFFFF" width="97.807" height="9.498"/>
		<g>
			<path fill="#1A2E35" d="M117.28,199.923c29.824-0.32,63.285-0.322,93.111,0C180.565,200.246,147.104,200.244,117.28,199.923
				L117.28,199.923z"/>
			<path fill="#1A2E35" d="M117.28,202.789c29.824-0.32,63.285-0.322,93.111,0C180.565,203.113,147.104,203.109,117.28,202.789
				L117.28,202.789z"/>
			<path fill="#1A2E35" d="M117.28,205.656c29.824-0.322,63.285-0.324,93.111,0C180.565,205.978,147.104,205.976,117.28,205.656
				L117.28,205.656z"/>
		</g>
		<rect x="239.75" y="196.386" opacity="0.3" fill="#FFFFFF" width="2.457" height="12.807"/>
		<rect x="244.329" y="196.386" opacity="0.3" fill="#FFFFFF" width="2.459" height="12.807"/>
		<rect x="331.266" y="196.386" opacity="0.3" fill="#FFFFFF" width="2.457" height="12.807"/>
		<rect x="335.846" y="196.386" opacity="0.3" fill="#FFFFFF" width="2.457" height="12.807"/>
		<rect x="116.598" y="196.38" opacity="0.2" width="100.199" height="12.807"/>
	</g>
	<g>
		<g>
			<rect x="81.036" y="209.068" fill="#007CFF" width="232.787" height="17.473"/>
			<rect x="81.036" y="209.068" opacity="0.4" fill="#FFFFFF" width="232.787" height="17.473"/>
			<rect x="216.014" y="211.078" fill="#FFFFFF" width="97.809" height="13.811"/>
			<g>
				<path fill="#1A2E35" d="M313.151,217.273c-29.824,0.32-63.287,0.322-93.111,0C249.866,216.949,283.327,216.953,313.151,217.273
					L313.151,217.273z"/>
				<path fill="#1A2E35" d="M313.151,220.138c-29.824,0.322-63.287,0.324-93.111,0C249.866,219.816,283.327,219.818,313.151,220.138
					L313.151,220.138z"/>
				<path fill="#1A2E35" d="M313.151,223.005c-29.824,0.32-63.287,0.322-93.111,0C249.866,222.681,283.327,222.685,313.151,223.005
					L313.151,223.005z"/>
			</g>
			<g>
				<path fill="#1A2E35" d="M313.151,214.302c-29.824,0.32-63.287,0.322-93.111,0C249.866,213.98,283.327,213.982,313.151,214.302
					L313.151,214.302z"/>
			</g>
			<rect x="213.631" y="209.06" opacity="0.2" width="100.201" height="17.475"/>
		</g>
		<rect x="101.846" y="214.302" opacity="0.4" fill="#FFFFFF" width="91.838" height="5.836"/>
	</g>
	<g>
		<g>
			<g>
				<path fill="#1A2E35" enable-background="new    " d="M351.557,209.642c0,0-68.316-13.896-71.127,0.332
					c-4.012,20.309,45.34,32.434,71.391,30.836C377.87,239.21,351.557,209.642,351.557,209.642z"/>
				<path opacity="0.2" enable-background="new    " d="M351.557,209.642c0,0-68.316-13.896-71.127,0.332
					c-4.012,20.309,45.34,32.434,71.391,30.836C377.87,239.21,351.557,209.642,351.557,209.642z"/>
				<path opacity="0.2" enable-background="new    " d="M302.821,213.677l32.459,19.311l-4.074,6.168c0,0,2.338,3.254,6.303-7.068
					l-20.098-12.449c0,0,6.15-0.803,5.969-1.762c-0.311-1.576-13.953-4.191-20.176-5.365c-0.322-0.107-0.67,0.068-0.775,0.393
					C302.323,213.224,302.499,213.572,302.821,213.677z"/>
				<path opacity="0.2" enable-background="new    " d="M336.368,230.671l-5.262,9.119c6.852,0.99,13.789,1.33,20.715,1.02
					c2.275-0.082,4.52-0.557,6.621-1.404l1.838-3.607l-4.43-8.285L336.368,230.671z"/>
				<g>
					<g>
						<g>
							<g>
								<g>
									<polygon fill="#FDB470" points="325.715,227.421 340.151,235.992 337.813,242.945 320.954,235.958 									"/>
								</g>
							</g>
						</g>
					</g>
					<g>
						<g>
							<g>
								<g>
									<g>
										<g>
											<g>
												<g>
													<g>
														<g>
															<g>
																<g>
																	<path fill="#1A2E35" d="M348.02,238.066l-1.244,4.986c0,0-1.039,0.252-1.334,1.303
																		c-0.166,0.59,0.313,2.189,0.313,2.189l-3.324,13.742c-0.02-0.006-0.941-0.225-1.311-0.477
																		c-0.451-0.307-0.82-0.623-1.119-0.947c-1.041-1.133-1.199-2.814-1.275-4.061c-0.125-2.092-1.506-8.166-1.506-8.166
																		s-0.506-1.578-2.229-2.93c-0.961-0.756-1.422-1.73-1.354-2.344c0.141-1.252,1.023-1.746,2.191-1.641l1.359,0.127
																		c0.947-0.75,1.207-1.979,0.561-3.135c0,0-0.889-2.947,0.371-2.484c0.721,0.266,3.889,1.568,6.424,2.523
																		c0.59,0.225,1.15,0.434,1.641,0.617v0.002C347.272,237.783,348.02,238.066,348.02,238.066z"/>
																</g>
															</g>
														</g>
													</g>
												</g>
											</g>
											<g>
												<g>
													<g>
														<g>
															<path fill="#007CFF" d="M337.838,249.88c-0.041-0.076-0.025-0.172,0.039-0.232c0.283-0.277,0.639-0.48,1.047-0.578
																c0.211-0.053,0.32,0.291,0.105,0.342c-0.361,0.088-0.674,0.266-0.924,0.508c-0.084,0.08-0.211,0.064-0.268-0.037
																V249.88z"/>
														</g>
													</g>
												</g>
											</g>
											<g>
												<g>
													<g>
														<g>
															<path fill="#007CFF" d="M337.524,248.681c-0.041-0.076-0.023-0.172,0.039-0.232c0.285-0.277,0.641-0.48,1.045-0.578
																c0.215-0.051,0.322,0.291,0.107,0.344c-0.359,0.086-0.674,0.264-0.924,0.506c-0.084,0.08-0.213,0.066-0.266-0.035
																C337.524,248.683,337.524,248.683,337.524,248.681z"/>
														</g>
													</g>
												</g>
											</g>
											<g>
												<g>
													<g>
														<g>
															<path fill="#007CFF" d="M337.256,247.46c-0.041-0.076-0.023-0.172,0.039-0.232c0.283-0.277,0.641-0.482,1.045-0.58
																c0.215-0.051,0.324,0.293,0.107,0.344c-0.361,0.086-0.674,0.264-0.924,0.508c-0.084,0.08-0.211,0.064-0.266-0.037
																C337.258,247.462,337.258,247.46,337.256,247.46z"/>
														</g>
													</g>
												</g>
											</g>
										</g>
									</g>
								</g>
							</g>
						</g>
					</g>
					<g>
						<path opacity="0.2" fill="#FFFFFF" enable-background="new    " d="M346.184,237.371v0.002
							c1.088,0.41,1.836,0.693,1.836,0.693l-1.244,4.986c0,0-1.039,0.252-1.334,1.303c-0.166,0.59,0.313,2.189,0.313,2.189
							l-3.324,13.742c-0.02-0.006-0.941-0.225-1.311-0.477c-0.209-0.141-0.395-0.283-0.566-0.43l5.357-22.111
							C345.999,237.302,346.098,237.337,346.184,237.371z"/>
					</g>
					<path fill="#007CFF" d="M335.333,248.5c-0.352,0-0.682-0.094-0.947-0.271c-0.213-0.143-0.42-0.395-0.369-0.678
						c0.051-0.275,0.313-0.434,0.523-0.518c0.428-0.172,0.932-0.213,1.496-0.131c0.492,0.074,0.971,0.234,1.434,0.389l0.146,0.051
						l-0.119,0.096c-0.275,0.209-1.213,0.902-1.715,1.012C335.631,248.482,335.479,248.5,335.333,248.5z M335.495,247.025
						c-0.328,0-0.627,0.053-0.896,0.16c-0.141,0.055-0.383,0.182-0.42,0.395c-0.037,0.205,0.131,0.4,0.297,0.514
						c0.342,0.227,0.809,0.299,1.271,0.195c0.414-0.092,1.193-0.643,1.525-0.891c-0.41-0.137-0.834-0.27-1.262-0.334
						C335.833,247.037,335.661,247.025,335.495,247.025z"/>
					<path fill="#007CFF" d="M337.536,247.47l-0.125-0.092l0.049-0.064l-0.051,0.064c-0.391-0.293-0.795-0.596-1.137-0.959
						c-0.391-0.416-0.641-0.855-0.746-1.305c-0.051-0.221-0.068-0.525,0.131-0.725c0.205-0.201,0.529-0.176,0.766-0.082
						c0.424,0.166,0.779,0.537,0.979,1.021c0.193,0.477,0.156,1.641,0.141,1.986L337.536,247.47z M336.067,244.4
						c-0.111,0-0.219,0.029-0.295,0.107c-0.154,0.152-0.119,0.422-0.086,0.57c0.098,0.42,0.334,0.834,0.705,1.229
						c0.297,0.316,0.646,0.588,0.994,0.848c0.021-0.664-0.004-1.434-0.137-1.762c-0.182-0.443-0.504-0.781-0.887-0.932
						C336.272,244.425,336.167,244.4,336.067,244.4z"/>
				</g>
			</g>
		</g>
		<path fill="#FDB470" d="M322.252,167.3c0,0-1.828,22.133-2.455,23.336c-2.121,4.066-16.752,11.367-16.752,11.367l-7.611-1.361
			l-5.285,4.686l3.656,2.693l4.146-1.707c2.299,0.34,4.623,0.475,6.949,0.402c3.906-0.115,23.375-4.984,26.365-10.33
			c2.988-5.346,2.947-30.174,2.947-30.174L322.252,167.3z"/>
		<g>
			<path fill="#007CFF" d="M334.813,175.609c0,0,5.24-19.545-2.16-24.709c-7.4-5.164-12.375,21.641-12.375,21.641L334.813,175.609z"
				/>
			<path opacity="0.5" fill="#FFFFFF" d="M334.813,175.609c0,0,5.24-19.545-2.16-24.709c-7.4-5.164-12.375,21.641-12.375,21.641
				L334.813,175.609z"/>
			<path fill="#007CFF" d="M331.27,211.177l-0.701-25.678l-0.484-35.172l15.074-3.74l10.557-0.1l17.855,5.561l0.604,8.615
				c0,0-0.549,39.664-0.418,40.855c0.162,1.461,4.693,10.523,4.693,10.523C359.598,216.927,331.01,212.496,331.27,211.177z"/>
			<polygon opacity="0.2" points="330.463,174.691 330.209,159.375 327.516,174.068 			"/>
			<path opacity="0.2" d="M362.653,176.156c-0.471-0.078-2.389-0.645-2.389-0.645l4.357-14.924l-6.744,16.396l4.393,1.6
				L362.653,176.156z"/>
		</g>
		<g>
			<path fill="#FDB470" d="M364.327,163.962c0,0-2.959,24.598-5.016,26.951c-3.479,3.975-20.971,14.764-20.971,14.764l-8.973-2.854
				c-0.629-0.186-1.314-0.053-1.811,0.35l-5.938,4.814l0.596,0.471c0.256,0.205,0.619,0.236,0.91,0.08l0.93-0.496l-1.023,1.064
				l0.342,0.273c0.34,0.27,0.805,0.357,1.23,0.23l2.691-0.809l-2.455,1.742c0.572,0.455,1.355,0.596,2.064,0.371l3.939-1.25
				c2.729,0.539,5.498,0.854,8.283,0.939c4.686,0.148,26.547-8.221,30.498-13.992s7.504-29.361,7.504-29.361L364.327,163.962z"/>
			<g>
				<path fill="#007CFF" d="M376.561,179.908c0,0,4.852-22.357-2.551-27.521c-7.4-5.164-13.746,23.125-13.746,23.125
					L376.561,179.908z"/>
				<path opacity="0.5" fill="#FFFFFF" d="M376.561,179.908c0,0,4.852-22.357-2.551-27.521c-7.4-5.164-13.746,23.125-13.746,23.125
					L376.561,179.908z"/>
			</g>
		</g>
		<g>
			<g>
				<path fill="#1A2E35" d="M318.116,209.867l13.66-0.402l14.496-0.428c0,0.004,0,0.008,0,0.01c0.025,1.076-1.148,1.979-2.623,2.016
					l-14.482,0.43l-8.285,0.242c-0.014,0-0.027,0-0.039,0.002h-0.002l-23.057,0.68c-1.463,0.033-2.664-0.803-2.689-1.869
					L318.116,209.867z"/>
			</g>
			<path fill="#1A2E35" d="M297.36,212.318l25.721-0.76c0.445-0.016,0.793-0.316,0.779-0.672c-0.004-0.068-0.02-0.133-0.047-0.197
				l-12.217-25.896c-0.311-0.74-1.188-1.227-2.164-1.201l-25.738,0.758c-0.436,0.014-0.781,0.307-0.77,0.656
				c0.002,0.072,0.021,0.146,0.053,0.213l12.217,25.896C295.508,211.855,296.383,212.339,297.36,212.318z"/>
			<path opacity="0.7" fill="#FFFFFF" enable-background="new    " d="M283.694,184.349l25.738-0.758
				c0.977-0.025,1.854,0.461,2.164,1.201l11.756,24.922l8.424-0.25l14.496-0.428c0,0.004,0,0.008,0,0.01
				c0.025,1.076-1.148,1.979-2.623,2.016l-14.482,0.43l-8.285,0.242c-0.014,0-0.027,0-0.039,0.002h-0.002l-23.057,0.68
				c-0.463,0.01-0.895-0.074-1.277-0.219c-0.604-0.184-1.094-0.57-1.313-1.082l-12.217-25.896c-0.031-0.066-0.051-0.141-0.053-0.213
				C282.913,184.656,283.258,184.363,283.694,184.349z"/>
			<path fill="#FFFFFF" d="M299.563,197.861c0.594,1.242,1.746,2.074,2.58,1.873s1.025-1.355,0.447-2.602
				c-0.576-1.248-1.74-2.057-2.576-1.857C299.18,195.476,298.961,196.585,299.563,197.861z"/>
			<g opacity="0.3">
				
					<line fill="none" stroke="#000000" stroke-width="0" stroke-linecap="round" stroke-linejoin="round" x1="323.825" y1="209.699" x2="323.352" y2="209.714"/>
				<path d="M311.596,184.792l11.756,24.922l-1.193,0.033l-12.727-26.156C310.409,183.566,311.286,184.052,311.596,184.792z"/>
			</g>
		</g>
		<g>
			<g>
				<g>
					<g>
						<g>
							<g>
								<path fill="#FDB470" d="M356.165,148.351c0,0-2.729-5.402-0.961-14.353c-1.084-0.506,0.35-2.744,0.303-3.641l-11.293,8.422
									c0.523,2.768-0.008,8.248-0.406,10.578l4.355,3.957L356.165,148.351z"/>
								<path opacity="0.2" d="M344.506,140.438l6.551-0.523c-1.104,1.943-1.881,3.65-6.676,3.846
									C344.381,143.76,344.34,141.361,344.506,140.438z"/>
							</g>
							<g>
								<path fill="#1A2E35" d="M339.995,113.779c-2.012,2.371-2.887,9.223,1.703,9.004S343.454,109.701,339.995,113.779z"/>
								<path fill="#FDB470" d="M358.885,126.523c-2.539,7.207-3.826,11.322-8.6,13.996c-19.99,8.109-17.813-26.119-2.357-28.08
									C355.815,111.65,361.424,119.316,358.885,126.523z"/>
								<path fill="#1A2E35" d="M364.805,117.385c-1.035-7.029-12.451-6.676-15.869-5.416c-0.512,0.189,4.631,4.912,4.305,4.676
									l2.547,1.781c3.588,1.818-2.885,7.604,0.199,13.881C362.817,131.422,365.331,122.512,364.805,117.385z"/>
								<path fill="#FDB470" d="M360.042,133.461c-1.977,3.684-9.139,4.656-7.277-1.029
									C354.227,126.842,362.907,126.879,360.042,133.461z"/>
								<path fill="#1A2E35" d="M347.95,125.678c-0.492,1.777-2.295,1.229-1.775-0.523
									C346.667,123.377,348.469,123.928,347.95,125.678z"/>
								<path fill="#1A2E35" d="M340.333,123.693c-0.49,1.775-2.293,1.225-1.773-0.525
									C339.051,121.393,340.852,121.943,340.333,123.693z"/>
								<path fill="#FE8835" d="M342.895,123.967c0,0-3.439,3.053-4.633,4.355c0.775,1.24,2.699,1.318,2.699,1.318L342.895,123.967z
									"/>
								<path fill="#1A2E35" d="M350.627,122.635c-0.127,0.014-0.26-0.037-0.34-0.15c-0.965-1.32-2.311-1.273-2.324-1.273
									c-1.457-0.965,1.576-1.174,2.914,0.848C351.045,122.275,350.897,122.613,350.627,122.635z"/>
							</g>
							<path opacity="0.2" d="M354.967,132.363c-0.016,0-0.031-0.002-0.049-0.006c-0.086-0.029-0.133-0.121-0.105-0.207
								c0.346-1.088,1.633-2.15,2.701-2.229c0.494-0.037,1.154,0.102,1.576,0.963c0.041,0.082,0.008,0.18-0.074,0.219
								s-0.182,0.008-0.221-0.074c-0.273-0.559-0.697-0.822-1.258-0.781c-0.934,0.068-2.107,1.041-2.412,2.002
								C355.102,132.32,355.04,132.363,354.967,132.363z"/>
						</g>
						<path fill="#1A2E35" d="M338.034,119.607c-0.25-0.125-0.258-0.518-0.004-0.646c1.768-0.967,3.244-0.166,3.314-0.141
							c0.414,0.219,0.074,0.877-0.342,0.646C340.809,119.154,339.385,119.184,338.034,119.607z"/>
					</g>
				</g>
			</g>
			<path fill="#1A2E35" d="M361.858,128.629c0,0-5.066-7.236-11.25-10.607c-6.848-3.734-11.865-2.623-11.865-2.623
				s-1.174-1.15-0.42-1.801c0.756-0.652,1.459-0.082,1.459-0.082s7.344-7.826,16.115-5.324s11.691,7.92,11.336,8.313
				c-1.803,2-2.84-1.104-2.84-1.104s2.133,2.842-0.324,8.654l-0.727,2.273C363.342,126.328,363.942,128.982,361.858,128.629z"/>
			<path opacity="0.7" fill="#FFFFFF" d="M361.858,128.629c0,0-5.066-7.236-11.25-10.607c-6.848-3.734-11.865-2.623-11.865-2.623
				s-1.174-1.15-0.42-1.801c0.756-0.652,1.459-0.082,1.459-0.082s7.344-7.826,16.115-5.324s11.691,7.92,11.336,8.313
				c-1.803,2-2.84-1.104-2.84-1.104s2.133,2.842-0.324,8.654l-0.727,2.273C363.342,126.328,363.942,128.982,361.858,128.629z"/>
			<g>
				<path fill="#1A2E35" d="M350.461,117.695c-0.939-0.316-1.631-1.256-1.66-2.244c-0.02-0.65,0.219-1.275,0.385-1.904
					c0.166-0.631,0.256-1.328-0.043-1.908c-0.254-0.494-0.787-0.832-1.342-0.852c-0.557-0.02-1.111,0.279-1.4,0.756
					c0.209-0.391,0.064-0.895-0.227-1.229s-0.699-0.537-1.098-0.73c-0.719-0.35-1.523-0.707-2.287-0.479
					c-0.766,0.229-1.25,0.986-1.518,1.738c-0.344,0.971-0.436,2.059-0.084,3.027c0.467,1.297,1.666,2.221,2.961,2.691
					s2.693,0.553,4.068,0.633"/>
			</g>
			<path opacity="0.2" d="M364.674,115.906c0,0-0.998-3.326-5.111-4.994L364.674,115.906z"/>
			<path opacity="0.3" d="M362.854,126.188c-2.473-4.857-7.646-9.758-12.873-12.195l0.07-0.15
				c5.256,2.453,10.459,7.385,12.949,12.271L362.854,126.188z"/>
			<g>
				<path fill="#1A2E35" d="M341.543,132.371c0.539,0.947,1.008,1.934,1.4,2.949c0.188-0.039,0.379-0.074,0.564-0.123
					c2.545-0.57,3.541-1.67,3.861-2.727c0.146-0.52,0.172-1.066,0.068-1.596c-0.051-0.301-0.143-0.592-0.273-0.865
					c-1.17,1.107-3.494,1.822-4.758,2.15C341.858,132.277,341.543,132.371,341.543,132.371z"/>
				<path fill="#FFFFFF" d="M342.379,132.141l0.438,0.859c2.391-0.541,4-1.236,4.594-2.143c-0.051-0.303-0.143-0.594-0.273-0.867
					C345.959,131.111,343.643,131.813,342.379,132.141z"/>
				<path fill="#DD5753" d="M343.481,135.18c2.545-0.57,3.541-1.672,3.861-2.729c-0.963,0.234-1.877,0.637-2.701,1.189
					C344.104,134.02,343.7,134.559,343.481,135.18z"/>
			</g>
		</g>
		<g>
			<g>
				<g>
					<g>
						<g>
							<g>
								<polygon fill="#FDB470" points="311.87,239.173 295.379,242.33 292.52,235.576 309.774,229.626 								"/>
							</g>
						</g>
					</g>
				</g>
				<g>
					<g>
						<g>
							<g>
								<g>
									<g>
										<g>
											<g>
												<g>
													<g>
														<g>
															<g>
																<path fill="#1A2E35" d="M288.114,245.992l-2.373-4.559c0,0,0.609-0.875,0.135-1.857
																	c-0.268-0.553-1.686-1.432-1.686-1.432l-6.623-12.492c0.018-0.01,0.855-0.455,1.299-0.514
																	c0.541-0.07,1.025-0.078,1.463-0.031c1.531,0.158,2.766,1.311,3.648,2.193c1.479,1.482,6.541,5.115,6.541,5.115
																	s1.426,0.846,3.611,0.717c1.219-0.072,2.211,0.352,2.566,0.855c0.727,1.031,0.393,1.986-0.553,2.682l-1.102,0.809
																	c-0.211,1.188,0.406,2.279,1.66,2.717c0,0,2.617,1.617,1.367,2.105c-0.715,0.277-3.951,1.402-6.482,2.369
																	c-0.59,0.225-1.148,0.438-1.637,0.625h-0.002C288.862,245.71,288.114,245.992,288.114,245.992z"/>
															</g>
														</g>
													</g>
												</g>
											</g>
										</g>
										<g>
											<g>
												<g>
													<g>
														<path fill="#007CFF" d="M287.905,230.396c0.08,0.029,0.131,0.113,0.125,0.201c-0.029,0.396-0.16,0.783-0.398,1.127
															c-0.127,0.18-0.436-0.006-0.309-0.188c0.213-0.303,0.33-0.645,0.355-0.992c0.008-0.115,0.115-0.188,0.223-0.148
															C287.903,230.396,287.905,230.396,287.905,230.396z"/>
													</g>
												</g>
											</g>
										</g>
										<g>
											<g>
												<g>
													<g>
														<path fill="#007CFF" d="M288.934,231.087c0.08,0.029,0.131,0.111,0.125,0.197c-0.029,0.396-0.16,0.787-0.398,1.127
															c-0.127,0.182-0.436-0.002-0.309-0.186c0.213-0.305,0.33-0.645,0.355-0.992c0.01-0.115,0.115-0.189,0.223-0.148
															C288.932,231.085,288.934,231.085,288.934,231.087z"/>
													</g>
												</g>
											</g>
										</g>
										<g>
											<g>
												<g>
													<g>
														<path fill="#007CFF" d="M289.944,231.824c0.082,0.029,0.133,0.113,0.127,0.199c-0.029,0.396-0.162,0.785-0.4,1.127
															c-0.127,0.182-0.436-0.004-0.309-0.188c0.215-0.303,0.33-0.645,0.357-0.99c0.008-0.115,0.113-0.189,0.223-0.15
															L289.944,231.824z"/>
													</g>
												</g>
											</g>
										</g>
									</g>
								</g>
							</g>
						</g>
					</g>
				</g>
				<path opacity="0.2" fill="#FFFFFF" enable-background="new    " d="M285.875,239.576c-0.268-0.553-1.686-1.432-1.686-1.432
					l-6.623-12.492c0.018-0.01,0.855-0.455,1.299-0.514c0.248-0.031,0.482-0.047,0.707-0.055l10.65,20.107
					c-0.092,0.033-0.189,0.07-0.273,0.104h-0.002c-1.086,0.416-1.834,0.697-1.834,0.697l-2.373-4.559
					C285.741,241.433,286.35,240.558,285.875,239.576z"/>
				<path fill="#007CFF" d="M289.754,232.15l0.027-0.15c0.066-0.34,0.309-1.479,0.611-1.893c0.307-0.426,0.74-0.701,1.191-0.762
					c0.25-0.033,0.574,0.018,0.725,0.262c0.115,0.188,0.098,0.447-0.047,0.736c-0.209,0.412-0.555,0.777-1.033,1.088
					c-0.418,0.273-0.883,0.469-1.332,0.66L289.754,232.15z M291.729,229.5c-0.041,0-0.084,0.004-0.123,0.008
					c-0.406,0.055-0.799,0.307-1.082,0.695c-0.207,0.285-0.414,1.027-0.551,1.678c0.398-0.17,0.803-0.352,1.166-0.586
					c0.453-0.295,0.781-0.639,0.977-1.025c0.068-0.137,0.166-0.393,0.055-0.574C292.083,229.55,291.901,229.5,291.729,229.5z"/>
				<path fill="#007CFF" d="M292.12,233.724c-0.287,0-0.588-0.072-0.871-0.211c-0.459-0.227-1.205-1.123-1.422-1.393L289.729,232
					l0.152-0.012l0.008,0.08l0.002-0.08c0.484-0.043,0.984-0.086,1.48-0.037c0.568,0.051,1.047,0.213,1.422,0.482
					c0.262,0.186,0.398,0.408,0.385,0.627c-0.02,0.287-0.281,0.482-0.52,0.57C292.489,233.691,292.307,233.724,292.12,233.724z
					 M290.051,232.136c0.424,0.514,0.953,1.072,1.27,1.229c0.43,0.213,0.896,0.252,1.281,0.111c0.189-0.07,0.396-0.217,0.412-0.426
					c0.014-0.217-0.191-0.396-0.314-0.484c-0.354-0.252-0.805-0.404-1.344-0.453C290.924,232.074,290.485,232.101,290.051,232.136z"
					/>
			</g>
			<path fill="#1A2E35" d="M373.907,229.785c3.406-5.797,11.025-21.457-5.451-23.979c-16.479-2.521-70.471,25.115-70.471,25.115
				l3.777,10.35l50.732-9.537c0,0-6.699,9.516,1.746,8.842C366.508,238.994,369.375,235.964,373.907,229.785z"/>
			<path opacity="0.2" enable-background="new    " d="M351.292,232.048l13.854-4.811c0,0-11.518,7.521-15.795,8.502
				L351.292,232.048z"/>
		</g>
	</g>
	<g>
		<g>
			<polygon fill="#FDC2BC" points="250.292,93.358 255.25,87.618 260.305,89.405 256.858,96.122 			"/>
			<g>
				<g>
					<g>
						<g>
							<g>
								<g>
									<g>
										<path fill="#FDC2BC" d="M254.499,87.144c0,0-0.43-2.598,0.857-4.355c1.287-1.756,1.848-3.504,2.895-4.742
											c1.049-1.24,1.072,0.951,0.85,2.119s-0.463,2.494,0.439,2.52c0.906,0.025,7.764-3.652,9.014-3.475
											s0.326,1.121,0.326,1.121s1.689-0.848,2.209-0.27c0.135,0.148,0.203,0.717-0.504,1.223
											c-1.598,1.143-5.07,3.365-5.07,3.365c0.195-0.133,4.68-2.568,5.398-2.848c0.939-0.363,1.568-0.053,1.76,0.498
											c0.275,0.785-5.18,3.996-5.316,4.293c0,0,3.078-1.953,4.018-1.436c0.941,0.518-0.932,1.855-2.803,2.719
											c-1.719,0.793-4.881,2.797-6.703,3.434c-2.248,0.785-3.934,0.805-5.475-0.809
											C254.852,88.886,254.499,87.144,254.499,87.144z"/>
									</g>
								</g>
							</g>
						</g>
					</g>
				</g>
				<path opacity="0.3" d="M264.768,82.839c-0.025,0-0.053-0.014-0.068-0.037c-0.025-0.039-0.014-0.088,0.023-0.113
					c1.266-0.832,2.582-1.615,3.916-2.326c0.039-0.021,0.088-0.006,0.109,0.033c0.021,0.041,0.008,0.09-0.033,0.111
					c-1.328,0.709-2.643,1.49-3.902,2.318C264.799,82.833,264.784,82.839,264.768,82.839z"/>
				<path opacity="0.3" d="M266.227,87.511c-0.037,0-0.07-0.025-0.08-0.063c-0.43-1.885-1.441-3.658-2.844-4.988
					c-0.033-0.033-0.035-0.084-0.004-0.117c0.031-0.031,0.084-0.035,0.115-0.002c1.428,1.354,2.455,3.154,2.893,5.07
					c0.01,0.043-0.018,0.09-0.061,0.098C266.239,87.511,266.233,87.511,266.227,87.511z"/>
				<path opacity="0.3" d="M257.926,87.915c-0.027,0-0.055-0.012-0.07-0.041c-0.021-0.037-0.01-0.088,0.031-0.111
					c0.668-0.389,1.203-1.029,1.469-1.756s0.27-1.563,0.01-2.291c-0.014-0.043,0.008-0.09,0.051-0.104
					c0.043-0.016,0.088,0.006,0.104,0.049c0.273,0.764,0.268,1.639-0.01,2.402c-0.279,0.762-0.84,1.434-1.541,1.842
					C257.956,87.913,257.942,87.915,257.926,87.915z"/>
			</g>
		</g>
		<g>
			<polygon fill="#FDC2BC" points="271.917,186.654 274.481,178.974 255.92,168.621 251.887,180.273 			"/>
			<g>
				<path fill="#1A2E35" d="M272.194,176.294l-1.363,2.533c-0.309,0.574-0.303,1.26-0.023,1.848
					c1.211,2.535-0.133,3.227-2.863,3.809c-0.662,0.947,0.352,1.842,0.621,2.092l5.871,5.6c0.486,0.473,1.268,0.463,1.74-0.025
					c0.084-0.086,0.154-0.184,0.211-0.291c1.654-3.078,2.438-4.533,4.496-8.365l6.295-11.715c1.717-3.193-1.146-5.584-2.15-4.43
					c-4.486,5.213-8.479,8.467-11.182,9.369C273.364,176.896,273.325,176.427,272.194,176.294z"/>
				<path fill="#007CFF" d="M277.108,171.847c-0.049-0.369-0.27-0.693-0.596-0.875c-0.164-0.117-0.381-0.129-0.557-0.031
					c-0.992,0.49-1.213,4.455-1.23,4.904c-0.008,0.047,0.008,0.096,0.039,0.131c0.061,0.064,0.16,0.07,0.227,0.01
					c0.602-0.678,1.133-1.418,1.58-2.209C276.952,173.207,277.139,172.531,277.108,171.847z M276.088,171.267
					c0.074-0.043,0.168-0.035,0.234,0.02c0.229,0.141,0.389,0.373,0.434,0.639c0.152,1.008-1.014,2.621-1.689,3.463
					C275.194,173.761,275.545,171.541,276.088,171.267z"/>
				<path fill="#007CFF" d="M275.081,175.898c0.113-1.166-0.377-4-1.262-4.336c-0.184-0.078-0.457-0.064-0.746,0.334
					c-1.133,1.633,1.586,4.051,1.719,4.123c0.043,0.045,0.111,0.061,0.172,0.039c0.027-0.027,0.045-0.063,0.053-0.1L275.081,175.898
					z M273.299,172.093c0.205-0.305,0.32-0.244,0.363-0.221c0.553,0.18,1.074,2.326,1.064,3.652c-0.613-0.605-2.092-2.221-1.5-3.322
					L273.299,172.093z"/>
				<path fill="#007CFF" d="M275.325,178.646c-0.059,0-0.113-0.029-0.143-0.082c-0.52-0.916-0.609-2.051-0.242-3.035
					c0.031-0.086,0.127-0.131,0.213-0.098c0.084,0.033,0.127,0.127,0.094,0.211c-0.334,0.896-0.25,1.928,0.221,2.76
					c0.043,0.078,0.016,0.18-0.063,0.225C275.379,178.64,275.352,178.646,275.325,178.646z"/>
				<path fill="#007CFF" d="M277.356,177.708c-0.057,0-0.113-0.029-0.143-0.082c-0.518-0.916-0.609-2.049-0.24-3.037
					c0.031-0.084,0.125-0.127,0.211-0.096s0.127,0.125,0.096,0.211c-0.334,0.896-0.252,1.928,0.219,2.76
					c0.045,0.078,0.018,0.178-0.063,0.223C277.411,177.701,277.383,177.708,277.356,177.708z"/>
				<path fill="#007CFF" d="M279.407,176.285c-0.057,0-0.113-0.029-0.143-0.084c-0.52-0.914-0.609-2.049-0.24-3.035
					c0.031-0.084,0.123-0.127,0.211-0.096c0.084,0.033,0.127,0.127,0.096,0.211c-0.334,0.896-0.252,1.928,0.219,2.76
					c0.045,0.078,0.016,0.18-0.063,0.225C279.461,176.279,279.434,176.285,279.407,176.285z"/>
			</g>
			<polygon opacity="0.3" points="265.731,174.093 268.008,175.363 264.473,184.283 261.809,183.435 			"/>
			<path fill="#1A2E35" d="M214.145,135.129l9.26,5.662c11.893,0.588,52.072,0.918,52.189,15.212
				c3.945,16.85-32.441,15.244-56.629,15.48c-0.164,0.002-0.305,0.1-0.4,0.252c-0.215,0.336-2.563,1.539-5.561,2.016
				c-3.691,0.586-12.139,1.098-17.566,0.24c-9.359-1.48-12.059-10.371-10.268-22.877c0.736-5.138,3.574-9.31,4.439-15.714
				L214.145,135.129z"/>
			<path opacity="0.2" enable-background="new    " d="M188.77,154.146l0.057,0.584c0,0,30.602-5.066,49.244,7.186
				c0,0,20.199-4.957,24.307-8.729c-22.375,11.775-42.414-1.857-42.414-1.857l-9.871-4.41
				C202.026,143.316,193.907,146.068,188.77,154.146z"/>
			<polygon fill="#FDC2BC" points="223.415,173.964 226.948,181.25 247.461,175.681 242.2,164.527 			"/>
			<g>
				<path fill="#1A2E35" d="M231.475,181.095l-1.693-2.326c-0.383-0.525-1.004-0.818-1.654-0.822
					c-2.809-0.008-2.85-1.52-2.189-4.232c-0.566-1.006-1.814-0.482-2.154-0.348l-7.592,2.863c-0.639,0.234-0.967,0.941-0.732,1.578
					c0.041,0.113,0.1,0.221,0.172,0.318c2.057,2.824,3.029,4.16,5.588,7.678l7.826,10.752c2.133,2.932,5.529,1.389,4.924-0.018
					c-2.752-6.303-3.953-11.311-3.596-14.139C230.426,181.888,230.864,182.058,231.475,181.095z"/>
				<path fill="#007CFF" d="M233.35,187.453c0.354,0.117,0.742,0.059,1.047-0.158c0.176-0.096,0.283-0.287,0.271-0.488
					c-0.014-1.104-3.49-3.023-3.887-3.234c-0.039-0.025-0.09-0.035-0.135-0.021c-0.084,0.025-0.133,0.113-0.109,0.197
					c0.352,0.84,0.789,1.639,1.307,2.387C232.192,186.722,232.721,187.185,233.35,187.453z M234.317,186.785
					c0.006,0.086-0.043,0.166-0.121,0.203c-0.227,0.146-0.504,0.188-0.764,0.113c-0.975-0.299-1.922-2.049-2.387-3.023
					C232.456,184.898,234.303,186.177,234.317,186.785z"/>
				<path fill="#007CFF" d="M230.579,183.871c1.002,0.607,3.77,1.393,4.455,0.74c0.15-0.131,0.256-0.383,0.021-0.816
					c-0.979-1.727-4.338-0.326-4.461-0.238c-0.061,0.02-0.102,0.074-0.107,0.137c0.012,0.037,0.035,0.068,0.066,0.092
					L230.579,183.871z M234.782,183.914c0.186,0.316,0.078,0.395,0.041,0.422c-0.402,0.422-2.563-0.039-3.754-0.625
					c0.813-0.289,2.908-0.918,3.643,0.092L234.782,183.914z"/>
				<path fill="#007CFF" d="M230.854,184.181c-0.043,0-0.084-0.016-0.117-0.051c-0.662-0.689-1.629-1.063-2.58-1
					c-0.092,0.014-0.17-0.063-0.176-0.152s0.063-0.168,0.152-0.174c1.051-0.08,2.111,0.34,2.84,1.1
					c0.063,0.064,0.061,0.168-0.004,0.232C230.936,184.166,230.897,184.181,230.854,184.181z"/>
				<path fill="#007CFF" d="M230.819,186.419c-0.043,0-0.086-0.018-0.117-0.053c-0.662-0.688-1.631-1.059-2.582-0.998
					c-0.082,0.016-0.168-0.063-0.174-0.152c-0.008-0.09,0.061-0.168,0.152-0.174c1.049-0.07,2.111,0.34,2.838,1.098
					c0.064,0.066,0.063,0.17-0.004,0.232C230.901,186.404,230.86,186.419,230.819,186.419z"/>
				<path fill="#007CFF" d="M231.213,188.884c-0.043,0-0.086-0.016-0.119-0.051c-0.662-0.689-1.627-1.061-2.58-1
					c-0.082,0.014-0.168-0.063-0.176-0.152c-0.006-0.09,0.063-0.168,0.152-0.174c1.053-0.078,2.113,0.34,2.842,1.1
					c0.061,0.064,0.059,0.168-0.006,0.232C231.293,188.869,231.254,188.884,231.213,188.884z"/>
			</g>
			<path fill="#1A2E35" d="M266.377,173.435c0,0-47.105-26.369-63.285-26.871c-16.178-0.5-18.012,11.709-12.061,21.105
				c5.951,9.398,20.883,4.844,20.883,4.844s-11.811-2.988-10.35-6.193c1.463-3.201,5.826,1.77,5.826,1.77
				s28.619,11.752,54.158,15.916L266.377,173.435z"/>
			<polygon opacity="0.2" enable-background="new    " points="242.106,160.38 257.268,169.132 258.868,168.962 244.516,159.923 			
				"/>
			<path opacity="0.2" enable-background="new    " d="M218.043,172.115c0,0-15.279-6.061-15.109-6.061
				c0.168,0,9.629,7.09,12.727,7.057L218.043,172.115z"/>
		</g>
		<path fill="#007CFF" d="M221.292,89.575c0,0,1.844-0.424,8.604,7.451c4.588,5.349,11.555,9.284,11.555,9.284
			c0.6-1.287,11.131-16.735,11.131-16.735l6.699,3.803c0,0-9.836,25.437-16.232,26.435c-6.395,0.998-21.301-11.859-21.301-11.859
			L221.292,89.575z"/>
		<path fill="#007CFF" d="M184.518,98.929c2.912,8.751,3.049,28.526,2.018,39.45h36.039c5.682-21.793,0.764-37.296,0.279-42.401
			c-0.604-6.211-1.563-6.447-1.563-6.447s-6.74-0.658-12.605-0.613c-4.543,0.17-9.066,0.662-13.537,1.471
			c-3.328,0.557-6.621,1.297-9.865,2.221c-1.393,0.396-2.201,1.846-1.805,3.238c0.012,0.045,0.027,0.088,0.041,0.131
			C183.868,96.956,184.206,97.96,184.518,98.929z"/>
		<path opacity="0.2" enable-background="new    " d="M186.536,138.379c0.859-10.176,7.463-21.912,6.424-32.072
			c3.068,4.355,4.084,12.906,5.326,22.455c0.406,3.109,11.691,6.256,12.223,9.465L186.536,138.379z"/>
		<path fill="#E3887B" d="M192.237,91.548c-1.684,2.402,18.979,6.266,18.979,6.266s12.094-7.846-2.027-9.07
			C206.311,88.487,194.893,87.776,192.237,91.548z"/>
		<path fill="#007CFF" d="M211.891,102.264c0,0,11.135-9.19,5.371-14.688c-5.764-5.5-32.883-7.957-30.59,4.566
			c0,0,3.488-1.031,7.016,2.33C201.114,101.577,211.891,102.264,211.891,102.264z"/>
		<path opacity="0.2" enable-background="new    " d="M210.959,99.622c0,0,6.303-4.895,4.084-9.307
			c-2.221-4.412-15.336-9.244-24.736-3.16c2.254,1.154,4.348,2.598,6.23,4.293C200.264,94.636,210.959,99.622,210.959,99.622z"/>
		<path opacity="0.2" enable-background="new    " d="M208.567,100.245c0.006,0.348-0.273,0.633-0.621,0.639
			c-0.348,0.004-0.633-0.273-0.639-0.623c-0.006-0.348,0.271-0.633,0.619-0.639c0.008,0,0.014,0,0.02,0
			C208.288,99.628,208.561,99.903,208.567,100.245z"/>
		<path opacity="0.2" enable-background="new    " d="M214.852,98.435c0.004,0.344-0.27,0.625-0.613,0.631c-0.002,0-0.006,0-0.01,0
			c-0.344,0.043-0.658-0.203-0.701-0.551c-0.041-0.344,0.205-0.658,0.551-0.701c0.051-0.006,0.102-0.006,0.15,0
			C214.573,97.813,214.852,98.093,214.852,98.435z"/>
		<path fill="#1A2E35" d="M220.708,104.738c0.004,0.348-0.273,0.633-0.623,0.639c-0.348,0.006-0.635-0.273-0.639-0.621
			c-0.006-0.348,0.273-0.635,0.621-0.639c0.004,0,0.006,0,0.01,0C220.42,104.117,220.702,104.393,220.708,104.738z"/>
		<path fill="#1A2E35" d="M207.141,107.953c0,0.344-0.277,0.621-0.621,0.621c-0.342,0-0.619-0.277-0.619-0.621
			c0-0.342,0.277-0.621,0.619-0.621l0,0C206.864,107.332,207.141,107.611,207.141,107.953z"/>
		<path fill="#1A2E35" d="M219.93,105.004L219.93,105.004c0,0-2.439-0.33-2.859-3.444c-0.049-1.506-1.287-2.701-2.795-2.695
			c-0.127,0-0.238-0.092-0.238-0.219c-0.01-0.121,0.08-0.227,0.201-0.236c0.006-0.002,0.014-0.002,0.02-0.002
			c1.734,0.004,3.168,1.355,3.27,3.088c0.365,2.741,2.439,3.05,2.457,3.06c0.123,0.014,0.213,0.125,0.201,0.248
			C220.167,104.926,220.055,105.014,219.93,105.004z"/>
		<path fill="#1A2E35" d="M206.52,107.953c-0.121,0-0.223-0.098-0.227-0.219c-0.051-1.604,0.537-3.16,1.633-4.33
			c0.432-0.379,0.686-0.916,0.705-1.488c-0.049-0.573-0.293-1.114-0.695-1.526c-0.102-0.072-0.127-0.215-0.053-0.318
			c0.072-0.102,0.215-0.127,0.318-0.053c0.018,0.012,0.033,0.025,0.045,0.041c0.496,0.488,0.795,1.137,0.84,1.829
			c-0.014,0.695-0.314,1.357-0.83,1.826c-1,1.078-1.541,2.504-1.508,3.975c0.006,0.123-0.086,0.23-0.209,0.246L206.52,107.953z"/>
		<g>
			<path fill="#007CFF" d="M230.745,155.177l1.813,0.328c0,0-0.504-1.631,5.916-3.76c6.416-2.131,12.816-3.285,12.816-3.285
				s-11.609-0.582-11.912-0.582c-0.301,0-11.043,3.813-11.043,3.813L230.745,155.177z"/>
			<path fill="#ECECEC" d="M226.147,143.33c0.32,0.004,25.143,5.13,25.143,5.13s-17.26-0.633-20.545,6.717l-20.09-8.25
				C210.655,146.927,216.288,143.18,226.147,143.33z"/>
			<path fill="#007CFF" d="M268.008,143.326v1.082c0,0-11.15-1.293-16.719,4.052l-0.299-2.568l7.387-3.389L268.008,143.326z"/>
			<path fill="#ECECEC" d="M245.456,138.313c0,0-13.465-3.563-18.414,5.184l24.248,4.964c0,0,1.119-6.664,16.719-5.134
				L245.456,138.313z"/>
		</g>
		<path fill="#007CFF" d="M184.219,93.167c-0.57,0.203-4.268,3.295-4.09,10.538c0.26,10.615,2.875,32.611,4.09,34.674
			c1.213,2.064,33.346,11.072,33.824,11.593c0.477,0.521,2.143-5.607,2.143-5.607l-24.738-15.693c0,0-1.465-22.111-2.047-25.428
			C192.817,99.929,191.131,90.688,184.219,93.167z"/>
		<path fill="#FDC2BC" d="M219.905,145.363l1.387,0.623c0,0,6.549-0.516,8.209,1.138c1.66,1.654,2.592,9.207,2.592,9.207
			l-14.049-6.359L219.905,145.363z"/>
		<g>
			<g>
				<g>
					<g>
						<path fill="#FDC2BC" d="M197.237,92.257c0,0,2.988,1.975,7.199,4.535c0.879,0.533,5.357,2.504,6.332,2.83l1.813-1.555
							c0.088-0.277,0.145-0.572,0.172-0.875c0.182-2.033-0.48-4.736-2.266-5.729c-2.012-1.119-3.068-2.186-3.066-4.152
							c-0.014-1.113,0.193-2.297,0.471-3.461l-2.254-0.891L197.1,76.8C198.688,81.183,200.643,88.944,197.237,92.257z"/>
					</g>
					<path opacity="0.2" d="M207.43,87.741c-2.209-0.857-4.758-2.561-4.887-4.969c-0.049-1.018,0.01-1.996,0.146-2.641l4.982,4.727
						C207.483,85.786,207.456,86.382,207.43,87.741z"/>
					<path fill="#FDC2BC" d="M194.299,68.718c1.938,7.396,2.6,10.561,7.131,13.852c6.814,4.953,15.451,1.469,15.758-6.232
						c0.273-6.93-2.941-17.859-10.84-19.789C198.569,54.647,192.362,61.323,194.299,68.718z"/>
					<path fill="#1A2E35" d="M204.831,69.497c0.17,0.787,0.709,1.367,1.203,1.297c0.496-0.072,0.762-0.77,0.592-1.559
						c-0.17-0.787-0.709-1.367-1.203-1.297C204.926,68.011,204.663,68.708,204.831,69.497z"/>
					<path fill="#1A2E35" d="M212.454,68.188c0.164,0.762,0.701,1.324,1.193,1.252c0.494-0.072,0.762-0.748,0.596-1.512
						s-0.701-1.326-1.195-1.254S212.288,67.423,212.454,68.188z"/>
					<path fill="#1A2E35" d="M202.407,67.038c0.098-0.006,0.189-0.049,0.252-0.129c0.979-1.266,2.344-1.105,2.359-1.104
						c0.203,0.023,0.381-0.117,0.393-0.322c0.01-0.203-0.146-0.389-0.352-0.416c-0.072-0.01-1.785-0.211-3,1.357
						c-0.121,0.156-0.086,0.391,0.08,0.525C202.219,67.013,202.315,67.042,202.407,67.038z"/>
					<path fill="#1A2E35" d="M213.7,64.106c0.072-0.037,0.125-0.104,0.145-0.191c0.039-0.182-0.08-0.385-0.268-0.451
						c-1.877-0.68-3.027,0.264-3.074,0.307c-0.137,0.115-0.137,0.334-0.002,0.49c0.135,0.154,0.354,0.188,0.49,0.074
						c0.043-0.037,0.949-0.756,2.441-0.215C213.528,64.155,213.625,64.147,213.7,64.106z"/>
					<path fill="#EC837E" d="M209.76,68.259c0,0,1.643,2.615,3.26,4.148c0.283,0.268,0.215,0.738-0.125,0.932
						c-0.871,0.494-2.008,0.367-2.008,0.367L209.76,68.259z"/>
				</g>
				<path fill="#1A2E35" d="M205.143,68.019l1.656-0.693C206.799,67.325,206.073,68.767,205.143,68.019z"/>
				<path fill="#1A2E35" d="M212.793,66.745l1.656-0.693C214.45,66.052,213.719,67.495,212.793,66.745z"/>
				<path fill="#1A2E35" d="M197.52,78.554c-25.176-15.59,2.963-26.182,2.963-26.182c11.309-7.918,11.701,4.123,11.701,4.123
					c5.664,5.912-2.354,11.086-2.354,11.086c3.377-4.859-1.85-7.764-1.85-7.764c0.803,6.463-5.5,8.996-5.5,8.996
					c2.467-5.83,0.893-8.842,0.893-8.842c-1.807,10.387-6.998,12.471-6.998,12.471L197.52,78.554z"/>
				<path fill="#FDC2BC" d="M193.047,75.218c1.143,1.393,2.744,2.119,4.121,2.23c2.07,0.168,2.564-3.197,1.555-5.076
					c-0.908-1.693-3.059-2.553-4.928-1.842C191.954,71.233,191.739,73.624,193.047,75.218z"/>
			</g>
		</g>
		<path opacity="0.2" d="M198.012,74.192c-0.074,0-0.139-0.051-0.158-0.125c-0.15-0.592-0.461-1.141-0.896-1.58
			c-0.283-0.287-0.74-0.645-1.307-0.703c-0.512-0.053-1.025,0.184-1.223,0.568c-0.043,0.08-0.141,0.113-0.221,0.07
			c-0.082-0.041-0.113-0.141-0.072-0.221c0.264-0.508,0.9-0.816,1.549-0.746c0.664,0.072,1.188,0.475,1.508,0.799
			c0.477,0.484,0.814,1.082,0.98,1.732c0.021,0.088-0.031,0.176-0.119,0.199C198.04,74.19,198.026,74.192,198.012,74.192z"/>
		<g>
			<path fill="#1A2E35" d="M210.76,76.431c-0.566,0.73-1.08,1.5-1.535,2.307c-0.152-0.057-0.311-0.109-0.459-0.172
				c-2.07-0.789-2.773-1.834-2.914-2.762c-0.061-0.453-0.014-0.916,0.137-1.348c0.08-0.246,0.191-0.48,0.336-0.695
				c0.848,1.076,2.715,1.955,3.734,2.385C210.508,76.31,210.76,76.431,210.76,76.431z"/>
			<path fill="#FFFFFF" d="M210.086,76.136l-0.475,0.668c-1.941-0.746-3.209-1.525-3.598-2.361c0.078-0.246,0.191-0.48,0.334-0.693
				C207.202,74.833,209.063,75.706,210.086,76.136z"/>
			<path fill="#DD5753" d="M208.792,78.554c-2.07-0.789-2.773-1.836-2.914-2.762c0.781,0.314,1.5,0.764,2.123,1.328
				C208.407,77.503,208.682,78.005,208.792,78.554z"/>
		</g>
	</g>
	<g>
		<g>
			<g>
				<g>
					<g>
						<g>
							<polygon fill="#9A5454" points="155.633,233.39 164.067,248.81 171.428,246.623 164.741,228.724 							"/>
						</g>
					</g>
				</g>
			</g>
			<g>
				<g>
					<g>
						<g>
							<g>
								<g>
									<g>
										<g>
											<g>
												<g>
													<g>
														<g>
															<path fill="#1A2E35" d="M165.948,257.121l5.264-1.121c0,0,0.301-1.074,1.412-1.344
																c0.623-0.152,2.279,0.406,2.279,0.406l14.498-2.969c-0.002-0.023-0.199-0.996-0.449-1.393
																c-0.303-0.484-0.621-0.881-0.947-1.205c-1.148-1.131-2.902-1.361-4.205-1.484c-2.182-0.207-8.484-1.877-8.484-1.877
																s-1.633-0.588-2.984-2.438c-0.756-1.033-1.758-1.553-2.402-1.504c-1.314,0.1-1.863,1.006-1.797,2.234l0.08,1.426
																c-0.82,0.961-2.111,1.191-3.299,0.471c0,0-3.049-1.039-2.611,0.297c0.25,0.762,1.496,4.125,2.402,6.814
																c0.211,0.625,0.412,1.217,0.586,1.738h0.002C165.678,256.328,165.948,257.121,165.948,257.121z"/>
														</g>
													</g>
												</g>
											</g>
										</g>
									</g>
									<g>
										<g>
											<g>
												<g>
													<path fill="#007CFF" d="M178.684,246.902c-0.078-0.045-0.18-0.029-0.244,0.031c-0.301,0.289-0.527,0.652-0.645,1.074
														c-0.061,0.223,0.293,0.348,0.355,0.125c0.104-0.375,0.301-0.697,0.564-0.949c0.088-0.084,0.076-0.219-0.027-0.279
														C178.686,246.904,178.686,246.902,178.684,246.902z"/>
												</g>
											</g>
										</g>
									</g>
									<g>
										<g>
											<g>
												<g>
													<path fill="#007CFF" d="M177.442,246.529c-0.078-0.045-0.178-0.029-0.244,0.031c-0.301,0.289-0.527,0.652-0.645,1.074
														c-0.061,0.221,0.295,0.348,0.355,0.125c0.105-0.375,0.303-0.695,0.563-0.949c0.09-0.084,0.078-0.219-0.025-0.279
														C177.446,246.531,177.442,246.531,177.442,246.529z"/>
												</g>
											</g>
										</g>
									</g>
									<g>
										<g>
											<g>
												<g>
													<path fill="#007CFF" d="M176.172,246.205c-0.076-0.047-0.178-0.031-0.244,0.031c-0.301,0.289-0.525,0.652-0.643,1.074
														c-0.063,0.221,0.293,0.348,0.354,0.123c0.105-0.373,0.303-0.693,0.566-0.947c0.088-0.084,0.074-0.219-0.029-0.279
														C176.176,246.207,176.174,246.205,176.172,246.205z"/>
												</g>
											</g>
										</g>
									</g>
								</g>
							</g>
						</g>
					</g>
				</g>
			</g>
			<path opacity="0.2" fill="#FFFFFF" enable-background="new    " d="M172.624,254.656c0.623-0.152,2.279,0.406,2.279,0.406
				l14.498-2.969c-0.002-0.023-0.199-0.996-0.449-1.393c-0.139-0.221-0.281-0.422-0.428-0.607l-23.332,4.789
				c0.031,0.096,0.066,0.199,0.098,0.291h0.002c0.387,1.154,0.656,1.947,0.656,1.947l5.264-1.121
				C171.211,256,171.512,254.925,172.624,254.656z"/>
			<path fill="#007CFF" d="M176.04,246.572l-0.045-0.148c-0.146-0.49-0.297-0.996-0.355-1.518c-0.068-0.592-0.002-1.117,0.189-1.559
				c0.137-0.307,0.334-0.494,0.561-0.525c0.295-0.041,0.551,0.184,0.691,0.408c0.25,0.404,0.316,0.939,0.18,1.469
				c-0.135,0.518-0.893,1.473-1.123,1.754L176.04,246.572z M176.461,242.98c-0.016,0-0.033,0.002-0.049,0.006
				c-0.227,0.031-0.369,0.281-0.434,0.428c-0.182,0.414-0.242,0.91-0.178,1.475c0.053,0.455,0.178,0.902,0.307,1.338
				c0.436-0.543,0.9-1.209,0.992-1.568c0.127-0.488,0.066-0.975-0.16-1.342C176.836,243.15,176.659,242.98,176.461,242.98z"/>
			<path fill="#007CFF" d="M175.877,246.496c-0.465,0-1.496-0.025-1.934-0.223c-0.5-0.227-0.875-0.611-1.033-1.059
				c-0.09-0.248-0.105-0.59,0.113-0.795c0.168-0.156,0.436-0.193,0.758-0.107c0.467,0.125,0.916,0.402,1.338,0.826
				c0.369,0.373,0.67,0.809,0.959,1.227l0.09,0.127l-0.154,0.002C175.977,246.496,175.93,246.496,175.877,246.496z M173.463,244.429
				c-0.117,0-0.238,0.027-0.326,0.109c-0.162,0.15-0.145,0.42-0.072,0.621c0.143,0.406,0.486,0.758,0.945,0.963
				c0.338,0.154,1.148,0.207,1.846,0.207c-0.26-0.371-0.531-0.75-0.854-1.074c-0.4-0.404-0.824-0.668-1.262-0.785
				C173.668,244.451,173.569,244.429,173.463,244.429z"/>
		</g>
		<g>
			<g>
				<g>
					<g>
						<g>
							<polygon fill="#9A5454" points="120.78,244.699 116.928,261.849 123.903,265.066 130.698,247.21 							"/>
						</g>
					</g>
				</g>
			</g>
			<g>
				<g>
					<g>
						<g>
							<g>
								<g>
									<g>
										<g>
											<g>
												<g>
													<g>
														<g>
															<path fill="#1A2E35" d="M112.852,269.33l4.693,2.638c0,0,0.938-0.611,1.949-0.08
																c0.568,0.297,1.443,1.813,1.443,1.813l12.85,7.344c0.01-0.018,0.506-0.879,0.58-1.342
																c0.092-0.564,0.115-1.072,0.082-1.531c-0.113-1.605-1.279-2.938-2.176-3.891c-1.5-1.596-5.133-7.013-5.133-7.013
																s-0.838-1.52-0.631-3.805c0.117-1.273-0.293-2.324-0.811-2.713c-1.053-0.793-2.063-0.477-2.822,0.49l-0.883,1.125
																c-1.252,0.182-2.373-0.502-2.789-1.826c0,0-1.604-2.793-2.156-1.502c-0.316,0.738-1.602,4.088-2.695,6.703
																c-0.254,0.611-0.498,1.188-0.709,1.693v0.002C113.174,268.556,112.852,269.33,112.852,269.33z"/>
														</g>
													</g>
												</g>
											</g>
										</g>
									</g>
									<g>
										<g>
											<g>
												<g>
													<path fill="#007CFF" d="M129.167,270.066c-0.029-0.084-0.115-0.139-0.205-0.137c-0.416,0.018-0.826,0.143-1.191,0.381
														c-0.195,0.127-0.012,0.455,0.184,0.328c0.326-0.211,0.686-0.322,1.051-0.338c0.119-0.006,0.201-0.115,0.162-0.229
														C129.167,270.072,129.167,270.07,129.167,270.066z"/>
												</g>
											</g>
										</g>
									</g>
									<g>
										<g>
											<g>
												<g>
													<path fill="#007CFF" d="M128.479,268.966c-0.027-0.086-0.115-0.141-0.205-0.137c-0.416,0.018-0.826,0.143-1.191,0.381
														c-0.193,0.125-0.01,0.455,0.184,0.326c0.326-0.211,0.686-0.32,1.049-0.338c0.123-0.006,0.203-0.113,0.166-0.227
														C128.481,268.968,128.479,268.968,128.479,268.966z"/>
												</g>
											</g>
										</g>
									</g>
									<g>
										<g>
											<g>
												<g>
													<path fill="#007CFF" d="M127.741,267.886c-0.029-0.086-0.113-0.141-0.205-0.139c-0.416,0.018-0.826,0.143-1.191,0.381
														c-0.191,0.127-0.01,0.455,0.186,0.328c0.324-0.213,0.686-0.324,1.049-0.338c0.121-0.008,0.201-0.115,0.164-0.23
														C127.743,267.888,127.741,267.888,127.741,267.886z"/>
												</g>
											</g>
										</g>
									</g>
								</g>
							</g>
						</g>
					</g>
				</g>
			</g>
			<path opacity="0.2" fill="#FFFFFF" enable-background="new    " d="M119.495,271.887c0.568,0.297,1.443,1.813,1.443,1.813
				l12.85,7.344c0.01-0.018,0.506-0.879,0.58-1.342c0.043-0.26,0.066-0.504,0.082-0.738l-20.686-11.812
				c-0.039,0.092-0.082,0.193-0.119,0.281l0,0c-0.471,1.123-0.793,1.896-0.793,1.896l4.693,2.638
				C117.545,271.967,118.483,271.356,119.495,271.887z"/>
			<path fill="#007CFF" d="M127.397,268.072l0.064-0.141c0.215-0.463,0.436-0.943,0.736-1.375c0.34-0.488,0.734-0.842,1.172-1.043
				c0.303-0.143,0.576-0.15,0.766-0.025c0.252,0.164,0.295,0.504,0.25,0.764c-0.078,0.467-0.381,0.912-0.834,1.221
				c-0.443,0.301-1.645,0.516-2.002,0.574L127.397,268.072z M129.821,265.564c-0.143,0-0.289,0.055-0.381,0.098
				c-0.412,0.189-0.783,0.523-1.107,0.988c-0.264,0.377-0.465,0.797-0.656,1.209c0.688-0.121,1.477-0.314,1.783-0.523
				c0.414-0.281,0.693-0.688,0.764-1.111c0.035-0.211,0.008-0.479-0.178-0.6C129.979,265.58,129.901,265.564,129.821,265.564z"/>
			<path fill="#007CFF" d="M127.545,268.099l-0.117-0.102c-0.273-0.236-1.186-1.045-1.408-1.533
				c-0.225-0.498-0.254-1.037-0.076-1.477c0.1-0.246,0.313-0.512,0.609-0.521c0.006,0,0.012,0,0.02,0
				c0.221,0,0.443,0.148,0.623,0.42c0.268,0.402,0.422,0.906,0.457,1.502c0.031,0.525-0.029,1.049-0.09,1.557L127.545,268.099z
				 M126.573,264.63c-0.004,0-0.01,0-0.014,0c-0.221,0.008-0.383,0.221-0.463,0.42c-0.16,0.396-0.135,0.889,0.072,1.346
				c0.154,0.34,0.727,0.914,1.25,1.375c0.053-0.451,0.098-0.916,0.068-1.371c-0.031-0.568-0.178-1.045-0.428-1.422
				C126.971,264.847,126.793,264.63,126.573,264.63z"/>
		</g>
		<g>
			<path fill="#9A5454" d="M127.516,132.66c0,0,2.434,21.664,3.082,22.826c2.199,3.93,16.768,10.67,16.768,10.67l7.43-1.557
				l5.322,4.445l-3.51,2.75l-4.117-1.557c-2.248,0.4-4.525,0.602-6.809,0.598c-3.838,0-22.34-4.691-25.428-9.85
				c-3.09-5.158-4.508-29.046-4.508-29.046L127.516,132.66z"/>
			<g>
				<path fill="#007CFF" d="M115.432,141.176c0,0-5.709-19.025,1.404-24.307c7.111-5.283,12.768,20.875,12.768,20.875
					L115.432,141.176z"/>
				<path fill="#007CFF" d="M119.936,175.974l-0.055-25.215l-0.541-34.529l-14.188-2.025l-12.082-0.109l-16.354,5.082l-0.344,8.473
					c0,0,1.689,38.902,1.594,40.076c-0.115,1.438-0.479,12.109-0.479,12.109C96.129,184.083,120.231,177.259,119.936,175.974z"/>
				<polygon opacity="0.2" points="119.672,140.148 118.911,123.887 122.547,139.453 				"/>
				<path opacity="0.2" d="M88.129,142.518c0.459-0.088,2.781-0.85,2.781-0.85l-5.164-14.369l7.09,15.895l-4.262,1.697
					L88.129,142.518z"/>
			</g>
			<g>
				<path fill="#9A5454" d="M86.133,130.602c0,0,3.615,24.052,5.703,26.3c3.527,3.799,21.004,13.879,21.004,13.879l8.721-3.059
					c0.611-0.199,1.289-0.09,1.787,0.291l5.965,4.553l-0.57,0.479c-0.246,0.209-0.602,0.25-0.891,0.107l-0.928-0.461l1.037,1.016
					l-0.328,0.275c-0.328,0.275-0.781,0.375-1.199,0.262l-2.668-0.715l2.461,1.639c-0.549,0.463-1.314,0.623-2.016,0.424l-3.9-1.111
					c-2.66,0.607-5.371,0.996-8.102,1.158c-4.594,0.283-26.287-7.295-30.33-12.846c-4.045-5.549-8.213-28.593-8.213-28.593
					L86.133,130.602z"/>
				<g>
					<path fill="#007CFF" d="M74.59,146.603c0,0-5.406-21.798,1.705-27.08c7.113-5.283,14.158,22.293,14.158,22.293L74.59,146.603z"
						/>
				</g>
			</g>
			<g>
				<g>
					<path fill="#1A2E35" d="M132.805,174.308h-13.416h-14.236c0,0.004,0,0.006,0,0.01c0.008,1.057,1.186,1.908,2.635,1.902h14.223
						h8.137c0.014,0,0.025,0,0.037,0h0.002h22.645c1.436-0.01,2.592-0.863,2.582-1.912H132.805z"/>
				</g>
				<path fill="#1A2E35" d="M153.245,176.113h-25.262c-0.436-0.004-0.787-0.289-0.783-0.639c0.002-0.066,0.016-0.131,0.041-0.193
					l11.236-25.766c0.285-0.734,1.131-1.236,2.09-1.24h25.277c0.428,0,0.775,0.277,0.773,0.621c0,0.072-0.016,0.143-0.047,0.211
					l-11.236,25.764C155.045,175.603,154.202,176.105,153.245,176.113z"/>
				<path opacity="0.7" fill="#FFFFFF" enable-background="new    " d="M165.844,148.275h-25.277
					c-0.959,0.004-1.805,0.506-2.09,1.24l-10.814,24.793h-8.273h-14.236c0,0.002,0,0.006,0,0.01
					c0.008,1.057,1.186,1.908,2.635,1.902h14.223h8.137c0.014,0,0.025,0,0.037,0h0.002h22.645c0.455-0.004,0.875-0.098,1.246-0.25
					c0.586-0.199,1.057-0.592,1.258-1.1l11.236-25.764c0.031-0.068,0.047-0.139,0.047-0.211
					C166.62,148.552,166.272,148.275,165.844,148.275z"/>
				<path fill="#FFFFFF" d="M150.663,161.992c-0.545,1.236-1.652,2.084-2.477,1.912c-0.824-0.174-1.045-1.301-0.516-2.539
					c0.531-1.24,1.65-2.07,2.475-1.896C150.971,159.64,151.217,160.722,150.663,161.992z"/>
				<g opacity="0.3">
					
						<line fill="none" stroke="#000000" stroke-width="0" stroke-linecap="round" stroke-linejoin="round" x1="127.2" y1="174.308" x2="127.663" y2="174.308"/>
					<path d="M138.477,149.515l-10.814,24.793h1.172l11.732-26.033C139.608,148.279,138.762,148.781,138.477,149.515z"/>
				</g>
			</g>
		</g>
		<g>
			<g>
				<path fill="#1A2E35" d="M112.542,84.177l0.797,0.469c0.934,0.02,1.811,0.725,2.031,1.633c0.219,0.908-0.24,1.936-1.064,2.381
					c-0.123,0.064-0.268,0.133-0.311,0.266c-0.07,0.215,0.154,0.396,0.326,0.545c0.838,0.725,0.734,2.168-0.02,2.98
					c-0.756,0.814-1.955,1.074-3.059,0.986C110.954,90.317,112.809,87.298,112.542,84.177z"/>
			</g>
			<g>
				<path fill="#1A2E35" d="M88.782,92.958c-1.188,0.059-2.375-0.676-2.855-1.764c-0.133-0.299-0.217-0.633-0.162-0.957
					c0.148-0.879,1.154-1.281,2.014-1.523c-0.959-0.232-1.602-1.186-1.785-2.154c-0.084-0.441-0.092-0.908,0.053-1.336
					c0.242-0.719,0.885-1.246,1.59-1.529c0.703-0.283,1.471-0.357,2.227-0.432l4.352,13.807c-0.973,0.219-1.98,0.352-2.963,0.186
					c-0.98-0.17-1.939-0.668-2.486-1.5C88.215,94.923,88.165,93.741,88.782,92.958z"/>
			</g>
			<path fill="#9A5454" d="M91.217,114.672c4.016-3.424,3.824-12.926,3.104-18.091l11.447,9.921
				c-0.275,0.584-0.512,1.188-0.705,1.805c-0.387,1.1-0.484,2.281-0.283,3.432c0.205,0.949,1.264,3.592,1.264,3.592
				s0.576,2.957-7.213,2.818C95.409,118.455,91.217,114.672,91.217,114.672z"/>
			<path opacity="0.2" enable-background="new    " d="M96.374,101.838c-0.686,6.027,5.355,8.949,8.412,9.912
				c-0.203-1.15-0.105-2.334,0.283-3.434L96.374,101.838z"/>
			<g>
				<g>
					<path fill="#9A5454" d="M92.36,92.075c1.414,7.125,2.063,11.169,6.291,14.343c6.361,4.771,14.857,0.418,15.666-7.001
						c0.727-6.676-1.707-17.203-9.328-19.063C97.477,78.522,90.948,84.952,92.36,92.075z"/>
					<path fill="#1A2E35" d="M90.27,83.562c0.486-4.088,10.689-5.443,13.811-3.787c0.467,0.248-5.186,3.975-4.838,3.799
						l-2.719,1.322c-0.451-0.039-1.244,0.57-1.514,1.951c0,0,1.795,10.969-0.992,14.57c-2.744-0.893-3.477-5.236-4.639-7.73
						C87.651,89.97,85.432,84.487,90.27,83.562z"/>
					<path fill="#9A5454" d="M90.241,98.438c0.836,1.773,2.443,2.994,4.006,3.513c2.348,0.781,2.857-1.667,2.346-3.903
						c-0.461-2.012-1.404-4.414-3.828-4.229C90.375,94.005,89.282,96.411,90.241,98.438z"/>
					<path fill="#1A2E35" d="M102.305,92.435c0.098,0.734,0.578,1.275,1.072,1.207c0.496-0.068,0.816-0.719,0.717-1.455
						c-0.098-0.734-0.578-1.273-1.07-1.205C102.528,91.05,102.208,91.7,102.305,92.435z"/>
					<path fill="#1A2E35" d="M109.743,92.007c0.098,0.734,0.578,1.277,1.072,1.209c0.496-0.068,0.816-0.721,0.719-1.455
						c-0.1-0.736-0.58-1.277-1.074-1.207C109.965,90.62,109.645,91.272,109.743,92.007z"/>
					<path fill="#7C3636" d="M108.188,91.884c0,0,2.881,3.344,3.848,4.732c-0.93,1.061-2.801,0.865-2.801,0.865L108.188,91.884z"/>
					<path fill="#1A2E35" d="M100.907,89.563c0.119,0.031,0.254,0,0.348-0.092c1.123-1.109,2.416-0.881,2.43-0.877
						c0.193,0.035,0.383-0.088,0.424-0.275c0.039-0.186-0.086-0.367-0.279-0.404c-0.068-0.014-1.688-0.301-3.082,1.072
						c-0.139,0.139-0.139,0.357,0.002,0.49C100.795,89.521,100.848,89.55,100.907,89.563z"/>
					<path opacity="0.2" d="M95.327,98.116c-0.074,0-0.141-0.049-0.158-0.123c-0.148-0.582-0.453-1.119-0.881-1.551
						c-0.275-0.281-0.725-0.629-1.281-0.689c-0.502-0.055-1.004,0.182-1.197,0.557c-0.041,0.082-0.141,0.113-0.221,0.072
						c-0.08-0.043-0.111-0.141-0.07-0.221c0.258-0.502,0.887-0.803,1.523-0.734c0.652,0.07,1.166,0.465,1.48,0.785
						c0.469,0.475,0.801,1.063,0.963,1.701c0.021,0.088-0.031,0.176-0.119,0.199C95.354,98.114,95.338,98.116,95.327,98.116z"/>
					<path fill="#1A2E35" d="M113.514,88.458c0.064-0.021,0.123-0.063,0.166-0.119c0.119-0.154,0.09-0.373-0.066-0.488
						c-1.57-1.152-3.113-0.604-3.184-0.588c-0.186,0.066-0.283,0.266-0.217,0.447c0.066,0.18,0.268,0.271,0.453,0.207
						c0.063-0.025,1.258-0.432,2.516,0.494C113.282,88.483,113.405,88.497,113.514,88.458z"/>
				</g>
				<g>
					<path fill="#1A2E35" d="M87.875,80.302c0.375-1.729,2.555-2.348,4.279-2.195c-0.316-2.025,2.273-3.506,3.996-3.645
						c1.795-0.143,2.518,0.48,2.518,0.48c-0.135,0.043,0.426-1.068,0.799-1.527c1.377-1.689,3.779-2.424,5.84-1.781
						s3.662,2.621,3.895,4.813c0.982-1.223,2.975-1.4,4.154-0.371s1.324,3.072,0.303,4.262c1.32-0.068,2.572,1.152,2.57,2.508
						c-0.004,1.355-1.262,2.566-2.582,2.488c0.094,1.514,0.145,3.41,0.238,4.926l-2.703-5.305c-1.105-0.25-1.365-0.701-1.709-1.809
						c-0.619,1.51-1.861,1.529-3.455,1.646c-1.596,0.117-3.223-0.746-4.051-2.148c-0.652,1.576-2.084,2.875-3.75,3.02
						c-1.666,0.146-3.432-1.096-3.621-2.797c-0.814,1.561-2.824,2.338-4.447,1.719S87.499,82.03,87.875,80.302z"/>
				</g>
				<g>
					<path fill="#1A2E35" d="M108.961,99.921c-0.613,0.791-1.168,1.627-1.662,2.497c-0.162-0.059-0.334-0.117-0.494-0.186
						c-2.24-0.853-3.002-1.985-3.152-2.987c-0.068-0.492-0.016-0.992,0.146-1.461c0.086-0.268,0.207-0.518,0.363-0.752
						c0.918,1.164,2.938,2.119,4.043,2.582C108.69,99.794,108.961,99.921,108.961,99.921z"/>
					<path fill="#FFFFFF" d="M108.231,99.603l-0.51,0.725c-2.102-0.809-3.475-1.65-3.895-2.557c0.086-0.266,0.207-0.52,0.363-0.75
						C105.112,98.192,107.127,99.138,108.231,99.603z"/>
					<path fill="#DD5753" d="M106.833,102.219c-2.24-0.853-3-1.985-3.152-2.987c0.844,0.34,1.623,0.826,2.299,1.438
						C106.417,101.083,106.715,101.627,106.833,102.219z"/>
				</g>
			</g>
		</g>
		<g>
			<g id="freepik--Character--inject-281_1_">
				<path fill="#1A2E35" d="M147.975,200.507c-0.277,2.748-0.871,6.506-1.59,9.174c-1.949,7.531-4.176,14.779-6.973,22.26
					c-5.412,14.785-9.785,28.5-9.785,28.5l-13.746-4.121c0,0,9.09-42.777,15.219-47.148H93.514c-0.703,0-1.404-0.047-2.1-0.143
					c6.473-0.838,16.561-4.826,25.922-8.814c8.27-3.533,16.006-7.068,20.195-8.402l0,0
					C142.661,194.003,148.37,196.195,147.975,200.507z"/>
				<path opacity="0.6" enable-background="new    " d="M137.542,191.851c-4.199,1.365-11.936,4.869-20.195,8.404
					c-9.361,3.988-19.449,7.977-25.922,8.814c-10.906-1.455-15.006-14.451-3.605-29.438c7.402,0,14.844,7.07,14.844,7.07
					S125.04,186.591,137.542,191.851z"/>
				<path fill="#1A2E35" d="M168.149,237.88l-9.088,5.502c0,0-7.584-15.924-14.834-33.889c0.717-2.668,1.217-5.391,1.494-8.139
					c0.395-4.311-3.029-7.352-8.158-9.492l0,0c-4.201,1.363-11.936,4.867-20.197,8.402c-9.361,3.988-19.449,7.977-25.922,8.816
					c-0.742,0.098-1.49,0.152-2.242,0.16c-12.439,0-16.73-10.906-11.713-29.406c7.402,0,20.074-0.797,20.074-0.797
					s24.459-5.877,42.059-3.877c8.57,1.01,15.508,7.436,17.168,15.904C161.323,213.523,168.149,237.88,168.149,237.88z"/>
				<path fill="#1A2E35" d="M169.584,238.548l-10.523,4.834c0,0-7.584-15.924-14.834-33.889c0.717-2.668,1.217-5.391,1.494-8.139
					c0.395-4.311-3.029-7.352-8.158-9.492l0,0c-4.201,1.363-11.936,4.867-20.197,8.402c-9.361,3.988-19.449,7.977-25.922,8.816
					c-0.742,0.098-1.49,0.152-2.242,0.16c-12.439,0-16.73-10.906-11.713-29.406c7.402,0,20.074-0.797,20.074-0.797
					s24.459-5.877,42.059-3.877c8.57,1.01,15.508,7.436,17.168,15.904C161.323,213.523,169.584,238.548,169.584,238.548z"/>
			</g>
			<path opacity="0.2" enable-background="new    " d="M147.975,200.507c-0.277,2.748-0.871,6.506-1.59,9.174
				c-1.949,7.531-4.176,14.779-6.973,22.26c-5.412,14.785-9.785,28.5-9.785,28.5l-13.746-4.121c0,0,9.09-42.777,15.219-47.148
				H93.514c-0.703,0-1.404-0.047-2.1-0.143c6.473-0.838,16.561-4.826,25.922-8.814c8.27-3.533,16.006-7.068,20.195-8.402l0,0
				C142.661,194.003,148.37,196.195,147.975,200.507z"/>
		</g>
		<ellipse fill="#FFFFFF" cx="106.054" cy="144.639" rx="3.337" ry="10.646"/>
	</g>
</g>
</svg>
