<?xml version="1.0" encoding="utf-8"?>
<!-- Generator: Adobe Illustrator 16.0.0, SVG Export Plug-In . SVG Version: 6.00 Build 0)  -->
<!DOCTYPE svg PUBLIC "-//W3C//DTD SVG 1.1//EN" "http://www.w3.org/Graphics/SVG/1.1/DTD/svg11.dtd">
<svg version="1.1" id="Layer_1" xmlns="http://www.w3.org/2000/svg" xmlns:xlink="http://www.w3.org/1999/xlink" x="0px" y="0px"
	 width="119.864px" height="61.966px" viewBox="0 0 119.864 61.966" enable-background="new 0 0 119.864 61.966"
	 xml:space="preserve">
<g>
	<path fill="#FFFFFF" d="M42.178,33.345l-3.755-1.104c-2.426-0.772-4.087-3.093-4.087-5.624c0-3.313,2.654-5.953,5.967-5.953h7.396
		v2.639h-5.188c-1,0-1.879,0.77-1.879,1.876c0,0.662,0.442,1.438,1.218,1.654l3.642,1.219c2.538,0.767,3.862,3.306,3.862,6.185
		c0,3.638-2.979,6.618-6.624,6.618h-7.838v-2.98h6.737c0.989,0,2.095-0.993,2.095-2.319C43.725,34.563,43.174,33.68,42.178,33.345
		 M7.723,33.345l-3.75-1.104C1.654,31.469,0,29.148,0,26.618c0-3.313,2.65-5.953,5.964-5.953h7.394v2.639H8.169
		c-0.991,0-1.876,0.77-1.876,1.876c0,0.662,0.443,1.438,1.215,1.654l3.643,1.219c2.432,0.767,3.754,3.306,3.754,6.185
		c0,3.638-2.875,6.618-6.519,6.618H0.554v-2.98h6.73c0.999,0,2.096-0.993,2.096-2.319C9.38,34.563,8.72,33.68,7.723,33.345
		 M24.846,41.517c-4.532,0-8.068-3.198-8.068-7.172V20.78h6.075v14.11c0,1.776,1.546,3.204,3.534,3.204
		c1.879,0,3.538-1.427,3.538-3.204V20.78h2.868v13.564C32.793,38.319,29.264,41.517,24.846,41.517"/>
	<path fill="#FFFFFF" d="M66.551,20.665c2.975,0.346,6.462,0.706,10.025,0.998l0.401,0.034l19.635,19.636h23.252V20.665H66.551z"/>
	<path fill="#FFFFFF" d="M88.135,45.117c-3.582,0-7.638-0.232-11.59-0.544c0.798,9.169,1.99,17.43,1.99,17.43h20.667
		c0,0-1.198-8.301-1.998-17.507C93.698,45.04,90.654,45.117,88.135,45.117"/>
	<path fill="#FFFFFF" d="M76.489,22.759c-9.641-0.797-18.622-2.094-18.622-2.094v20.668c0,0,17.871,2.688,30.269,2.688
		c2.653,0,5.643-0.088,8.999-0.618L76.489,22.759z"/>
	<rect x="78.535" fill="#FFFFFF" width="20.667" height="19.575"/>
	<path fill="#FFFFFF" d="M97.704,42.429l0.463,0.464l0.041,0.422c0.029,0.338,0.055,0.679,0.082,1.013
		c0.278,3.197,0.599,6.3,0.912,8.98V42.429H97.704z"/>
</g>
</svg>
