<?xml version="1.0" encoding="utf-8"?>
<!-- Generator: Adobe Illustrator 16.0.0, SVG Export Plug-In . SVG Version: 6.00 Build 0)  -->
<!DOCTYPE svg PUBLIC "-//W3C//DTD SVG 1.1//EN" "http://www.w3.org/Graphics/SVG/1.1/DTD/svg11.dtd">
<svg version="1.1" id="Layer_1" xmlns="http://www.w3.org/2000/svg" xmlns:xlink="http://www.w3.org/1999/xlink" x="0px" y="0px"
	 width="250px" height="61.433px" viewBox="0 0 250 61.433" enable-background="new 0 0 250 61.433" xml:space="preserve">
<g>
	<polygon fill="#FFFFFF" points="5.726,27.175 5.726,22.321 3.721,26.003 3.09,26.003 1.07,22.321 1.07,27.175 0,27.175 0,20.358 
		1.152,20.358 3.408,24.523 5.661,20.358 6.816,20.358 6.816,27.175 	"/>
	<rect x="10.267" y="20.358" fill="#FFFFFF" width="1.075" height="6.817"/>
	<polygon fill="#FFFFFF" points="15.874,22.357 15.874,27.175 14.798,27.175 14.798,20.358 15.679,20.358 19.541,25.285 
		19.541,20.371 20.62,20.371 20.62,27.175 19.681,27.175 	"/>
	<rect x="24.073" y="20.358" fill="#FFFFFF" width="1.075" height="6.817"/>
	<path fill="#FFFFFF" d="M32.638,21.964c-0.153-0.163-0.4-0.319-0.751-0.47c-0.357-0.145-0.718-0.226-1.09-0.226
		c-0.449,0-0.779,0.081-1,0.246c-0.223,0.164-0.33,0.396-0.33,0.699c0,0.091,0.01,0.179,0.037,0.251
		c0.022,0.076,0.054,0.142,0.097,0.201c0.039,0.054,0.092,0.107,0.174,0.162c0.08,0.054,0.155,0.103,0.231,0.14
		c0.076,0.039,0.185,0.075,0.314,0.12c0.134,0.044,0.258,0.075,0.372,0.108c0.12,0.026,0.27,0.065,0.459,0.112
		c0.297,0.071,0.556,0.14,0.766,0.21c0.212,0.071,0.417,0.163,0.61,0.271c0.201,0.107,0.356,0.226,0.476,0.361
		c0.118,0.129,0.209,0.292,0.286,0.48c0.07,0.195,0.103,0.412,0.103,0.654c0,0.276-0.043,0.519-0.129,0.735
		c-0.082,0.221-0.206,0.404-0.352,0.556c-0.15,0.146-0.335,0.276-0.546,0.378c-0.209,0.097-0.441,0.174-0.685,0.216
		c-0.238,0.044-0.504,0.071-0.782,0.071c-0.519,0-1.022-0.081-1.507-0.239c-0.488-0.155-0.918-0.383-1.309-0.681l0.494-0.923
		c0.192,0.206,0.518,0.401,0.965,0.588c0.444,0.189,0.903,0.282,1.373,0.282c0.427,0,0.751-0.069,0.983-0.223
		c0.233-0.149,0.346-0.366,0.346-0.647c0-0.114-0.021-0.216-0.054-0.302c-0.033-0.098-0.092-0.178-0.18-0.25
		c-0.084-0.074-0.172-0.135-0.259-0.188c-0.092-0.053-0.215-0.107-0.378-0.167c-0.167-0.054-0.313-0.097-0.453-0.141
		c-0.135-0.037-0.319-0.087-0.551-0.14c-0.356-0.098-0.653-0.196-0.891-0.292c-0.227-0.098-0.437-0.212-0.621-0.357
		c-0.178-0.134-0.308-0.301-0.389-0.497c-0.081-0.195-0.12-0.42-0.12-0.68c0-0.33,0.061-0.626,0.188-0.891
		c0.125-0.266,0.304-0.48,0.519-0.655c0.228-0.166,0.486-0.296,0.784-0.395c0.302-0.086,0.627-0.134,0.982-0.134
		c0.838,0,1.604,0.259,2.301,0.773L32.638,21.964z"/>
	<polygon fill="#FFFFFF" points="41.386,21.311 39.125,21.311 39.125,27.175 38.033,27.175 38.033,21.311 35.765,21.311 
		35.765,20.358 41.386,20.358 	"/>
	<path fill="#FFFFFF" d="M48.889,26.225v0.95h-4.671v-6.817h4.59v0.953h-3.517v1.938h3.041v0.892h-3.041v2.084H48.889z
		 M46.981,19.657l-0.691-0.209l0.545-1.056h1.012L46.981,19.657z"/>
	<path fill="#FFFFFF" d="M51.918,27.175v-6.817h2.969c0.297,0,0.577,0.067,0.843,0.195c0.27,0.125,0.492,0.297,0.675,0.503
		c0.178,0.212,0.325,0.449,0.433,0.712c0.103,0.264,0.155,0.536,0.155,0.807c0,0.464-0.119,0.882-0.367,1.252
		c-0.243,0.376-0.562,0.625-0.961,0.755l1.604,2.593h-1.21l-1.484-2.37h-1.583v2.37H51.918z M52.993,23.854h1.884
		c0.296,0,0.541-0.129,0.735-0.379c0.195-0.243,0.292-0.545,0.292-0.9c0-0.348-0.11-0.644-0.33-0.892
		c-0.217-0.25-0.47-0.372-0.757-0.372h-1.825V23.854z"/>
	<rect x="60.182" y="20.358" fill="#FFFFFF" width="1.074" height="6.817"/>
	<path fill="#FFFFFF" d="M64.281,23.768c0-0.452,0.081-0.885,0.248-1.308c0.167-0.42,0.395-0.788,0.686-1.1
		c0.285-0.314,0.632-0.573,1.042-0.761c0.41-0.189,0.844-0.287,1.302-0.287c0.476,0,0.919,0.103,1.329,0.302
		c0.41,0.2,0.753,0.464,1.031,0.789c0.281,0.329,0.498,0.697,0.653,1.111c0.163,0.412,0.243,0.833,0.243,1.266
		c0,0.447-0.086,0.879-0.253,1.301c-0.167,0.417-0.396,0.783-0.675,1.103c-0.287,0.313-0.633,0.567-1.042,0.754
		c-0.412,0.192-0.843,0.284-1.302,0.284c-0.384,0-0.747-0.06-1.085-0.19c-0.346-0.125-0.649-0.298-0.914-0.52
		c-0.26-0.227-0.486-0.48-0.674-0.772c-0.195-0.292-0.341-0.604-0.443-0.945C64.329,24.458,64.281,24.113,64.281,23.768
		 M67.552,26.252c0.331,0,0.632-0.07,0.914-0.216c0.276-0.146,0.502-0.335,0.681-0.572c0.184-0.233,0.318-0.497,0.417-0.788
		c0.097-0.298,0.151-0.6,0.151-0.908c0-0.324-0.061-0.631-0.156-0.928c-0.11-0.299-0.256-0.564-0.435-0.796
		c-0.183-0.226-0.41-0.411-0.686-0.55c-0.274-0.135-0.566-0.199-0.886-0.199c-0.333,0-0.636,0.068-0.917,0.21
		c-0.281,0.144-0.508,0.333-0.692,0.566c-0.184,0.232-0.325,0.496-0.421,0.794c-0.103,0.291-0.151,0.592-0.151,0.902
		c0,0.432,0.086,0.832,0.26,1.21c0.172,0.372,0.431,0.68,0.767,0.918C66.738,26.133,67.121,26.252,67.552,26.252"/>
	<path fill="#FFFFFF" d="M78.132,27.175v-6.817h2.421c0.529,0,1.016,0.086,1.443,0.266c0.426,0.179,0.773,0.42,1.046,0.735
		c0.27,0.307,0.476,0.669,0.621,1.074c0.139,0.406,0.211,0.848,0.211,1.324c0,1.03-0.301,1.858-0.908,2.483
		c-0.606,0.621-1.41,0.935-2.414,0.935H78.132z M80.553,21.311h-1.345v4.914h1.345c0.464,0,0.869-0.107,1.209-0.329
		c0.341-0.217,0.594-0.508,0.762-0.88c0.167-0.367,0.254-0.784,0.254-1.258c0-0.725-0.2-1.318-0.595-1.767
		C81.789,21.537,81.244,21.311,80.553,21.311"/>
	<path fill="#FFFFFF" d="M88.645,20.358h1.015l2.65,6.817h-1.134l-0.718-1.852h-2.629l-0.714,1.852h-1.143L88.645,20.358z
		 M90.246,24.523l-1.095-2.981l-1.128,2.981H90.246z"/>
	<path fill="#FFFFFF" d="M57.508,36.06c-0.028-0.016-0.065-0.043-0.114-0.071c-0.043-0.026-0.141-0.074-0.28-0.146
		c-0.146-0.07-0.294-0.14-0.428-0.189c-0.135-0.059-0.296-0.107-0.475-0.15c-0.185-0.044-0.356-0.071-0.507-0.071
		c-0.363,0-0.546,0.114-0.546,0.341c0,0.048,0.006,0.096,0.021,0.135c0.017,0.036,0.049,0.075,0.092,0.108
		c0.044,0.038,0.086,0.065,0.131,0.092c0.042,0.028,0.108,0.054,0.191,0.087c0.094,0.032,0.166,0.055,0.228,0.069
		c0.065,0.022,0.158,0.048,0.288,0.091c0.125,0.04,0.232,0.071,0.312,0.099c0.277,0.081,0.51,0.161,0.703,0.248
		c0.188,0.081,0.377,0.178,0.556,0.298c0.184,0.112,0.33,0.242,0.437,0.382c0.112,0.141,0.195,0.313,0.26,0.508
		c0.065,0.2,0.097,0.421,0.097,0.675c0,0.313-0.051,0.598-0.152,0.854c-0.097,0.254-0.231,0.458-0.393,0.621
		c-0.168,0.157-0.362,0.292-0.589,0.399c-0.227,0.107-0.465,0.184-0.703,0.229c-0.237,0.042-0.491,0.063-0.754,0.063
		c-0.493,0-1.007-0.075-1.542-0.221c-0.54-0.146-1.015-0.335-1.424-0.579l0.809-1.637c0.033,0.017,0.075,0.05,0.129,0.082
		c0.053,0.032,0.167,0.092,0.335,0.179c0.168,0.084,0.34,0.16,0.503,0.226c0.167,0.065,0.362,0.125,0.589,0.179
		c0.228,0.059,0.436,0.081,0.631,0.081c0.367,0,0.546-0.097,0.546-0.297c0-0.076-0.021-0.14-0.07-0.201
		c-0.048-0.06-0.125-0.112-0.237-0.162c-0.108-0.042-0.217-0.087-0.314-0.117c-0.103-0.035-0.249-0.081-0.432-0.132
		c-0.184-0.058-0.34-0.102-0.459-0.145c-0.615-0.203-1.059-0.454-1.323-0.739c-0.276-0.292-0.412-0.681-0.412-1.173
		c0-0.367,0.071-0.696,0.212-0.995c0.14-0.295,0.324-0.539,0.563-0.722c0.238-0.188,0.507-0.335,0.809-0.432
		c0.304-0.103,0.626-0.152,0.963-0.152c0.733,0,1.582,0.244,2.553,0.735L57.508,36.06z"/>
	<path fill="#FFFFFF" d="M62.623,33.834h2.091l2.163,6.81h-1.894l-0.411-1.334h-1.82l-0.406,1.334h-1.905L62.623,33.834z
		 M64.27,38.063l-0.604-2.397l-0.633,2.397H64.27z"/>
	<path fill="#FFFFFF" d="M72.084,40.703c-0.427,0-0.81-0.064-1.156-0.178c-0.344-0.119-0.631-0.28-0.869-0.49
		c-0.238-0.206-0.438-0.449-0.594-0.741c-0.157-0.287-0.275-0.594-0.351-0.918c-0.07-0.33-0.103-0.674-0.103-1.047v-3.495h1.875
		v3.495c0,0.236,0.02,0.455,0.069,0.653c0.042,0.201,0.107,0.377,0.205,0.54c0.091,0.167,0.216,0.292,0.374,0.385
		c0.156,0.09,0.339,0.139,0.55,0.139s0.399-0.049,0.557-0.146c0.161-0.092,0.286-0.221,0.378-0.382
		c0.092-0.171,0.162-0.347,0.206-0.547c0.047-0.2,0.069-0.412,0.069-0.642v-3.495h1.869v3.495c0,0.49-0.064,0.935-0.184,1.333
		c-0.13,0.405-0.313,0.757-0.563,1.063c-0.242,0.309-0.567,0.544-0.961,0.719C73.057,40.617,72.603,40.703,72.084,40.703
		 M72.663,33.543l-1.158-0.309l0.481-1.361h1.622L72.663,33.543z"/>
	<path fill="#FFFFFF" d="M78.154,40.645v-6.81h2.62c0.55,0,1.049,0.086,1.491,0.265c0.437,0.173,0.8,0.415,1.081,0.729
		c0.28,0.307,0.497,0.668,0.642,1.075c0.152,0.409,0.226,0.852,0.226,1.327c0,1.034-0.313,1.858-0.938,2.479
		c-0.626,0.623-1.458,0.935-2.501,0.935H78.154z M80.774,35.46h-0.751v3.554h0.751c0.48,0,0.859-0.162,1.128-0.496
		c0.274-0.332,0.41-0.763,0.41-1.288c0-0.534-0.135-0.966-0.41-1.286C81.628,35.622,81.25,35.46,80.774,35.46"/>
	<polygon fill="#FFFFFF" points="91.802,39.014 91.802,40.645 86.946,40.645 86.946,33.834 91.717,33.834 91.717,35.46 
		88.821,35.46 88.821,36.421 91.295,36.421 91.295,37.939 88.821,37.939 88.821,39.014 	"/>
	<path fill="#FFFFFF" d="M127.263,57.586c0,0.189-0.01,0.367-0.037,0.534c-0.032,0.169-0.077,0.33-0.142,0.488
		c-0.069,0.155-0.149,0.291-0.253,0.403c-0.103,0.115-0.231,0.199-0.395,0.271c-0.156,0.069-0.34,0.104-0.546,0.104
		c-0.204,0-0.389-0.034-0.545-0.104c-0.156-0.064-0.285-0.151-0.388-0.265c-0.104-0.116-0.189-0.243-0.254-0.4
		c-0.065-0.156-0.119-0.323-0.146-0.491c-0.027-0.169-0.038-0.352-0.038-0.541v-2.554h-0.799v2.554c0,0.271,0.022,0.524,0.07,0.762
		c0.05,0.238,0.125,0.47,0.232,0.688c0.109,0.215,0.249,0.405,0.412,0.555c0.167,0.157,0.367,0.282,0.615,0.374
		c0.25,0.091,0.528,0.14,0.841,0.14c0.373,0,0.709-0.071,0.99-0.201c0.285-0.128,0.514-0.313,0.685-0.545
		c0.167-0.238,0.293-0.502,0.378-0.799c0.081-0.297,0.124-0.622,0.124-0.973v-2.554h-0.805V57.586z M134.047,58.673l-2.852-3.641
		h-0.653v5.033h0.788v-3.558l2.813,3.558h0.697v-5.022h-0.794V58.673z M137.39,60.065h0.794v-5.033h-0.794V60.065z M142.192,55.032
		l-1.978,5.033h0.848l0.524-1.367h1.938l0.535,1.367h0.836l-1.961-5.033H142.192z M141.73,58.11l0.834-2.203l0.81,2.203H141.73z
		 M141.759,54.367c0.005-0.031,0.022-0.07,0.042-0.111c0.023-0.043,0.059-0.083,0.108-0.114c0.056-0.031,0.115-0.05,0.185-0.05
		c0.087,0,0.172,0.027,0.266,0.077c0.096,0.053,0.192,0.103,0.306,0.155c0.11,0.049,0.229,0.075,0.347,0.075
		s0.232-0.026,0.329-0.075c0.097-0.048,0.174-0.108,0.232-0.179c0.06-0.068,0.107-0.145,0.146-0.227
		c0.044-0.08,0.07-0.15,0.081-0.205c0.018-0.059,0.028-0.103,0.028-0.137h-0.45c0,0.019,0,0.03-0.004,0.052
		c-0.006,0.021-0.017,0.053-0.027,0.085c-0.016,0.038-0.037,0.07-0.066,0.097c-0.026,0.034-0.063,0.062-0.112,0.082
		c-0.054,0.026-0.107,0.038-0.174,0.038c-0.095,0-0.188-0.031-0.286-0.081c-0.094-0.049-0.199-0.102-0.301-0.157
		c-0.108-0.047-0.223-0.075-0.341-0.075c-0.108,0-0.213,0.021-0.303,0.071c-0.092,0.049-0.164,0.102-0.217,0.173
		c-0.054,0.069-0.102,0.14-0.139,0.22c-0.039,0.082-0.064,0.151-0.077,0.212c-0.014,0.058-0.021,0.106-0.021,0.141h0.438
		C141.748,54.417,141.753,54.395,141.759,54.367 M150.589,55.804c-0.2-0.236-0.454-0.431-0.762-0.582
		c-0.307-0.146-0.632-0.222-0.977-0.222c-0.341,0-0.66,0.068-0.969,0.211c-0.295,0.139-0.554,0.329-0.764,0.563
		c-0.219,0.229-0.388,0.508-0.503,0.814c-0.13,0.313-0.191,0.631-0.191,0.969c0,0.25,0.038,0.504,0.114,0.752
		c0.07,0.25,0.179,0.483,0.325,0.698c0.141,0.216,0.309,0.406,0.5,0.567s0.412,0.294,0.666,0.39c0.258,0.091,0.523,0.14,0.805,0.14
		c0.34,0,0.658-0.071,0.962-0.211c0.302-0.141,0.556-0.323,0.767-0.561c0.209-0.233,0.377-0.504,0.502-0.811
		c0.124-0.308,0.185-0.632,0.185-0.965c0-0.316-0.055-0.623-0.173-0.932C150.955,56.317,150.793,56.048,150.589,55.804
		 M150.324,58.219c-0.068,0.216-0.173,0.416-0.302,0.582c-0.13,0.18-0.303,0.318-0.508,0.429c-0.206,0.103-0.427,0.157-0.67,0.157
		c-0.323,0-0.605-0.087-0.854-0.268c-0.254-0.172-0.437-0.398-0.566-0.673c-0.131-0.282-0.195-0.578-0.195-0.89
		c0-0.236,0.038-0.455,0.113-0.672c0.075-0.215,0.178-0.41,0.314-0.589c0.128-0.168,0.302-0.313,0.507-0.416
		c0.204-0.102,0.432-0.154,0.681-0.154c0.232,0,0.448,0.048,0.653,0.15c0.198,0.102,0.366,0.237,0.502,0.405
		c0.135,0.166,0.242,0.36,0.324,0.583c0.075,0.221,0.113,0.447,0.113,0.692C150.438,57.78,150.399,58.002,150.324,58.219
		 M157.442,57.829h2.241v-0.664h-2.241v-1.432h2.592v-0.701h-3.385v5.033h3.45v-0.702h-2.657V57.829z M168.973,57.598
		c0.179-0.277,0.266-0.584,0.266-0.928c0-0.195-0.033-0.396-0.114-0.59c-0.08-0.2-0.184-0.374-0.318-0.529
		c-0.13-0.156-0.298-0.28-0.495-0.372c-0.202-0.099-0.405-0.146-0.623-0.146h-2.194v5.033h0.795v-1.749h1.167l1.098,1.749h0.89
		l-1.182-1.911C168.553,58.061,168.794,57.874,168.973,57.598 M167.677,57.614h-1.389v-1.881h1.345c0.212,0,0.4,0.099,0.561,0.281
		c0.163,0.179,0.245,0.4,0.245,0.655c0,0.264-0.074,0.486-0.216,0.668C168.076,57.521,167.898,57.614,167.677,57.614
		 M172.386,57.829h2.246v-0.664h-2.246v-1.432h2.593v-0.701h-3.387v5.033h3.451v-0.702h-2.657V57.829z M180.276,59.04
		c-0.151,0.122-0.313,0.215-0.48,0.27c-0.163,0.054-0.329,0.082-0.502,0.082c-0.304,0-0.583-0.088-0.838-0.26
		c-0.248-0.169-0.441-0.395-0.577-0.675c-0.14-0.282-0.211-0.589-0.211-0.913c0-0.179,0.021-0.351,0.065-0.523
		c0.043-0.174,0.112-0.342,0.199-0.498c0.092-0.155,0.194-0.297,0.324-0.409c0.125-0.12,0.275-0.211,0.448-0.281
		c0.173-0.077,0.361-0.106,0.565-0.106c0.131,0,0.256,0.008,0.374,0.041c0.118,0.027,0.244,0.07,0.362,0.13
		c0.118,0.054,0.231,0.14,0.329,0.249c0.103,0.107,0.188,0.231,0.254,0.377l0.627-0.42c-0.174-0.329-0.422-0.595-0.758-0.795
		c-0.334-0.2-0.717-0.303-1.159-0.303c-0.298,0-0.577,0.05-0.844,0.147c-0.26,0.09-0.486,0.226-0.68,0.388
		c-0.189,0.162-0.356,0.351-0.498,0.565c-0.139,0.212-0.243,0.438-0.313,0.683c-0.069,0.242-0.103,0.487-0.103,0.729
		c0,0.319,0.06,0.632,0.178,0.939c0.125,0.313,0.286,0.592,0.492,0.837c0.211,0.242,0.46,0.441,0.767,0.588
		c0.302,0.15,0.627,0.227,0.967,0.227c0.271,0,0.54-0.043,0.805-0.128c0.265-0.092,0.513-0.229,0.739-0.406
		c0.224-0.183,0.386-0.394,0.483-0.637l-0.659-0.372C180.551,58.752,180.432,58.908,180.276,59.04 M187.227,55.804
		c-0.204-0.236-0.458-0.431-0.762-0.582c-0.308-0.146-0.631-0.222-0.981-0.222c-0.336,0-0.659,0.068-0.963,0.211
		c-0.302,0.139-0.561,0.329-0.77,0.563c-0.212,0.229-0.38,0.508-0.504,0.814c-0.124,0.313-0.185,0.631-0.185,0.969
		c0,0.25,0.038,0.504,0.109,0.752c0.075,0.25,0.183,0.483,0.325,0.698c0.145,0.216,0.307,0.406,0.501,0.567s0.415,0.294,0.669,0.39
		c0.254,0.091,0.523,0.14,0.799,0.14c0.346,0,0.665-0.071,0.968-0.211c0.304-0.141,0.562-0.323,0.767-0.561
		c0.21-0.233,0.378-0.504,0.502-0.811c0.123-0.308,0.185-0.632,0.185-0.965c0-0.316-0.062-0.623-0.18-0.932
		C187.595,56.317,187.433,56.048,187.227,55.804 M186.962,58.219c-0.069,0.216-0.171,0.416-0.301,0.582
		c-0.136,0.18-0.304,0.318-0.508,0.429c-0.205,0.103-0.428,0.157-0.676,0.157c-0.318,0-0.599-0.087-0.853-0.268
		c-0.25-0.172-0.438-0.398-0.568-0.673c-0.123-0.282-0.19-0.578-0.19-0.89c0-0.236,0.04-0.455,0.11-0.672
		c0.074-0.215,0.178-0.41,0.313-0.589c0.134-0.168,0.307-0.313,0.508-0.416c0.211-0.102,0.437-0.154,0.68-0.154
		c0.238,0,0.454,0.048,0.659,0.15c0.199,0.102,0.367,0.237,0.503,0.405c0.135,0.166,0.236,0.36,0.317,0.583
		c0.075,0.221,0.119,0.447,0.119,0.692C187.076,57.78,187.038,58.002,186.962,58.219 M193.632,58.673l-2.849-3.641h-0.656v5.033
		h0.794v-3.558l2.81,3.558h0.696v-5.022h-0.795V58.673z M200.226,57.837c-0.084-0.098-0.203-0.19-0.35-0.271
		c-0.146-0.075-0.291-0.142-0.454-0.195c-0.151-0.054-0.346-0.107-0.563-0.155c-0.139-0.038-0.253-0.064-0.34-0.088
		c-0.085-0.021-0.178-0.049-0.274-0.08c-0.098-0.033-0.173-0.059-0.232-0.086c-0.055-0.027-0.113-0.06-0.166-0.104
		c-0.061-0.036-0.104-0.08-0.131-0.117c-0.032-0.044-0.054-0.098-0.071-0.151c-0.021-0.054-0.032-0.113-0.032-0.184
		c0-0.223,0.088-0.394,0.248-0.519c0.163-0.119,0.405-0.18,0.735-0.18c0.274,0,0.545,0.055,0.805,0.164
		c0.258,0.113,0.443,0.227,0.556,0.351l0.358-0.653C199.8,55.188,199.233,55,198.617,55c-0.265,0-0.507,0.032-0.724,0.103
		c-0.222,0.063-0.415,0.163-0.578,0.292c-0.167,0.125-0.292,0.286-0.39,0.481c-0.09,0.193-0.138,0.413-0.138,0.652
		c0,0.194,0.03,0.361,0.09,0.502c0.06,0.146,0.157,0.271,0.292,0.375c0.129,0.102,0.28,0.187,0.459,0.262
		c0.168,0.072,0.389,0.14,0.654,0.211c0.166,0.04,0.308,0.075,0.405,0.103c0.103,0.031,0.209,0.066,0.334,0.108
		c0.118,0.043,0.215,0.081,0.281,0.119c0.064,0.037,0.129,0.087,0.189,0.14c0.064,0.055,0.107,0.114,0.135,0.185
		c0.021,0.063,0.037,0.141,0.037,0.22c0,0.211-0.086,0.367-0.254,0.481c-0.174,0.108-0.416,0.168-0.729,0.168
		c-0.345,0-0.686-0.069-1.016-0.21c-0.329-0.143-0.561-0.289-0.707-0.439l-0.367,0.688c0.286,0.215,0.611,0.383,0.966,0.5
		c0.356,0.114,0.729,0.176,1.114,0.176c0.205,0,0.399-0.018,0.583-0.051c0.178-0.033,0.346-0.085,0.501-0.163
		c0.156-0.074,0.292-0.167,0.401-0.279c0.113-0.107,0.201-0.248,0.259-0.404c0.07-0.164,0.102-0.346,0.102-0.546
		c0-0.179-0.031-0.342-0.079-0.48C200.384,58.051,200.314,57.933,200.226,57.837 M202.262,55.733h1.681v4.332h0.805v-4.332h1.67
		v-0.701h-4.155V55.733z M211.983,57.598c0.178-0.277,0.271-0.584,0.271-0.928c0-0.195-0.041-0.396-0.118-0.59
		c-0.082-0.2-0.185-0.374-0.319-0.529c-0.136-0.156-0.298-0.28-0.497-0.372c-0.2-0.099-0.404-0.146-0.622-0.146h-2.191v5.033h0.794
		v-1.749h1.166l1.097,1.749h0.89l-1.183-1.911C211.568,58.061,211.806,57.874,211.983,57.598 M210.688,57.614h-1.387v-1.881h1.343
		c0.213,0,0.4,0.099,0.563,0.281c0.161,0.179,0.242,0.4,0.242,0.655c0,0.264-0.075,0.486-0.215,0.668
		C211.088,57.521,210.908,57.614,210.688,57.614 M218.071,57.586c0,0.189-0.017,0.367-0.044,0.534
		c-0.021,0.169-0.069,0.33-0.141,0.488c-0.064,0.155-0.15,0.291-0.249,0.403c-0.101,0.115-0.237,0.199-0.394,0.271
		c-0.162,0.069-0.345,0.104-0.552,0.104c-0.199,0-0.383-0.034-0.538-0.104c-0.163-0.064-0.294-0.151-0.396-0.265
		c-0.096-0.116-0.183-0.243-0.254-0.4c-0.068-0.156-0.117-0.323-0.145-0.491c-0.021-0.169-0.039-0.352-0.039-0.541v-2.554h-0.793
		v2.554c0,0.271,0.022,0.524,0.071,0.762c0.049,0.238,0.123,0.47,0.23,0.688c0.108,0.215,0.244,0.405,0.406,0.555
		c0.167,0.157,0.372,0.282,0.619,0.374c0.251,0.091,0.531,0.14,0.838,0.14c0.38,0,0.708-0.071,0.994-0.201
		c0.285-0.128,0.515-0.313,0.682-0.545c0.167-0.238,0.298-0.502,0.378-0.799s0.129-0.622,0.129-0.973v-2.554h-0.804V57.586z
		 M224.439,59.04c-0.153,0.122-0.313,0.215-0.476,0.27c-0.169,0.054-0.336,0.082-0.509,0.082c-0.304,0-0.584-0.088-0.837-0.26
		c-0.249-0.169-0.443-0.395-0.579-0.675c-0.14-0.282-0.204-0.589-0.204-0.913c0-0.179,0.023-0.351,0.064-0.523
		c0.043-0.174,0.108-0.342,0.194-0.498c0.093-0.155,0.201-0.297,0.324-0.409c0.126-0.12,0.276-0.211,0.447-0.281
		c0.174-0.077,0.37-0.106,0.57-0.106c0.128,0,0.251,0.008,0.372,0.041c0.119,0.027,0.241,0.07,0.36,0.13
		c0.118,0.054,0.231,0.14,0.333,0.249c0.1,0.107,0.186,0.231,0.25,0.377l0.626-0.42c-0.171-0.329-0.42-0.595-0.755-0.795
		c-0.336-0.2-0.718-0.303-1.162-0.303c-0.297,0-0.572,0.05-0.842,0.147c-0.26,0.09-0.484,0.226-0.676,0.388
		c-0.193,0.162-0.361,0.351-0.5,0.565c-0.143,0.212-0.244,0.438-0.315,0.683c-0.065,0.242-0.103,0.487-0.103,0.729
		c0,0.301,0.056,0.603,0.168,0.9c0.107,0.298,0.26,0.567,0.447,0.812c0.195,0.235,0.434,0.437,0.708,0.594
		c0.28,0.161,0.584,0.254,0.902,0.28c0.253,0.161,0.384,0.341,0.384,0.523c0,0.108-0.038,0.189-0.114,0.248
		c-0.074,0.062-0.178,0.083-0.314,0.083c-0.155,0-0.317-0.048-0.501-0.146l-0.194,0.414c0.265,0.142,0.54,0.207,0.832,0.207
		c0.243,0,0.438-0.06,0.567-0.179c0.14-0.119,0.21-0.28,0.21-0.486c0-0.248-0.125-0.476-0.367-0.682
		c0.375-0.054,0.72-0.178,1.036-0.382c0.319-0.2,0.537-0.454,0.666-0.767l-0.659-0.372C224.713,58.752,224.595,58.908,224.439,59.04
		 M228.993,55.032l-1.975,5.033h0.843l0.524-1.367h1.939l0.536,1.367h0.835l-1.955-5.033H228.993z M228.53,58.11l0.832-2.203
		l0.805,2.203H228.53z M228.564,54.367c0-0.031,0.017-0.07,0.037-0.111c0.022-0.043,0.062-0.083,0.109-0.114s0.112-0.05,0.184-0.05
		c0.086,0,0.172,0.027,0.264,0.077c0.097,0.053,0.2,0.103,0.309,0.155c0.111,0.049,0.226,0.075,0.351,0.075
		c0.119,0,0.228-0.026,0.325-0.075c0.096-0.048,0.178-0.108,0.23-0.179c0.06-0.068,0.108-0.145,0.146-0.227
		c0.043-0.08,0.069-0.15,0.082-0.205c0.021-0.059,0.025-0.103,0.025-0.137h-0.446c0,0.019,0,0.03-0.008,0.052
		c-0.005,0.021-0.009,0.053-0.025,0.085c-0.016,0.038-0.039,0.07-0.063,0.097c-0.027,0.034-0.066,0.062-0.113,0.082
		c-0.054,0.026-0.11,0.038-0.175,0.038c-0.092,0-0.187-0.031-0.285-0.081c-0.099-0.049-0.2-0.102-0.308-0.157
		c-0.102-0.047-0.216-0.075-0.334-0.075c-0.109,0-0.213,0.021-0.304,0.071c-0.092,0.049-0.161,0.102-0.217,0.173
		c-0.054,0.069-0.103,0.14-0.14,0.22c-0.038,0.082-0.065,0.151-0.077,0.212c-0.016,0.058-0.021,0.106-0.021,0.141h0.438
		C228.547,54.417,228.554,54.395,228.564,54.367 M237.875,56.625c-0.119-0.308-0.281-0.577-0.486-0.821
		c-0.204-0.236-0.453-0.431-0.762-0.582c-0.302-0.146-0.631-0.222-0.983-0.222c-0.334,0-0.653,0.068-0.956,0.211
		c-0.307,0.139-0.562,0.329-0.771,0.563c-0.217,0.229-0.384,0.508-0.505,0.814c-0.122,0.313-0.188,0.631-0.188,0.969
		c0,0.25,0.037,0.504,0.107,0.752c0.075,0.25,0.185,0.483,0.33,0.698c0.142,0.216,0.308,0.406,0.503,0.567
		c0.188,0.161,0.416,0.294,0.669,0.39c0.254,0.091,0.519,0.14,0.801,0.14c0.339,0,0.663-0.071,0.961-0.211
		c0.301-0.141,0.563-0.323,0.772-0.561c0.209-0.233,0.371-0.504,0.496-0.811c0.124-0.308,0.188-0.632,0.188-0.965
		C238.053,57.24,237.988,56.934,237.875,56.625 M237.13,58.219c-0.076,0.216-0.173,0.416-0.31,0.582
		c-0.128,0.18-0.302,0.318-0.505,0.429c-0.206,0.103-0.428,0.157-0.677,0.157c-0.317,0-0.6-0.087-0.846-0.268
		c-0.25-0.172-0.444-0.398-0.568-0.673c-0.132-0.282-0.195-0.578-0.195-0.89c0-0.236,0.038-0.455,0.114-0.672
		c0.075-0.215,0.178-0.41,0.313-0.589c0.13-0.168,0.303-0.313,0.509-0.416c0.205-0.102,0.432-0.154,0.674-0.154
		c0.237,0,0.46,0.048,0.659,0.15c0.2,0.102,0.368,0.237,0.503,0.405c0.135,0.166,0.244,0.36,0.317,0.583
		c0.081,0.221,0.12,0.447,0.12,0.692C237.238,57.78,237.207,58.002,237.13,58.219"/>
	<path fill="#FFFFFF" d="M126.523,4.276h1.724c-0.151,0.416-0.585,0.752-1.264,0.752c-0.967,0-1.643-0.697-1.643-1.658
		c0-0.979,0.676-1.701,1.615-1.701c0.598,0,1.123,0.284,1.404,0.797l1.469-0.873C129.234,0.6,128.148,0,126.977,0
		c-1.867,0-3.359,1.485-3.359,3.363c0,1.875,1.48,3.344,3.366,3.344c1.77,0,3.109-1.302,3.109-3.3V2.909h-3.569V4.276z M135.834,0
		c-1.879,0-3.365,1.485-3.365,3.353c0,1.862,1.486,3.354,3.365,3.354c1.854,0,3.343-1.492,3.343-3.354
		C139.177,1.485,137.688,0,135.834,0 M135.834,4.935c-0.858,0-1.521-0.68-1.521-1.582c0-0.908,0.663-1.582,1.521-1.582
		c0.831,0,1.484,0.673,1.484,1.582C137.318,4.255,136.665,4.935,135.834,4.935 M144.152,4.099l-1.491-3.949h-1.858l2.478,6.405
		h1.729l2.507-6.405h-1.858L144.152,4.099z M149.769,6.555h4.585V4.991H151.5V4.038h1.885V2.663H151.5V1.711h2.854V0.15h-4.585
		V6.555z M162.334,2.23c0-1.189-0.959-2.08-2.212-2.08h-3.101v6.405h1.705V4.341h0.726l1.268,2.214h1.913l-1.421-2.467
		C161.894,3.73,162.334,3.05,162.334,2.23 M159.931,2.883h-1.204V1.685h1.204c0.411,0,0.66,0.28,0.66,0.604
		C160.591,2.597,160.337,2.883,159.931,2.883 M169.055,3.531l-2.594-3.381h-1.454v6.405h1.708V3.179l2.583,3.376h1.462V0.15h-1.705
		V3.531z M176.609,0c-1.873,0-3.365,1.485-3.365,3.353c0,1.862,1.492,3.354,3.365,3.354c1.857,0,3.344-1.492,3.344-3.354
		C179.953,1.485,178.467,0,176.609,0 M176.609,4.935c-0.857,0-1.518-0.68-1.518-1.582c0-0.908,0.66-1.582,1.518-1.582
		c0.837,0,1.49,0.673,1.49,1.582C178.1,4.255,177.446,4.935,176.609,4.935 M186.684,6.555h1.732V4.216h1.886V2.771h-1.886V1.685
		h2.855V0.15h-4.588V6.555z M193.859,6.555h4.59V4.991h-2.854V4.038h1.889V2.663h-1.889V1.711h2.854V0.15h-4.59V6.555z
		 M203.727,0.15h-2.608v6.405h2.608c1.948,0,3.419-1.367,3.419-3.202C207.146,1.512,205.675,0.15,203.727,0.15 M203.64,4.888h-0.783
		V1.813h0.783c1.021,0,1.714,0.606,1.714,1.54C205.354,4.282,204.66,4.888,203.64,4.888 M209.631,6.555h4.589V4.991h-2.853V4.038
		h1.885V2.663h-1.885V1.711h2.853V0.15h-4.589V6.555z M222.202,2.23c0-1.189-0.961-2.08-2.214-2.08h-3.099v6.405h1.704V4.341h0.727
		l1.271,2.214h1.914l-1.426-2.467C221.761,3.73,222.202,3.05,222.202,2.23 M219.799,2.883h-1.205V1.685h1.205
		c0.416,0,0.658,0.28,0.658,0.604C220.457,2.597,220.203,2.883,219.799,2.883 M227.073,0.15l-2.678,6.405h1.799l0.447-1.102h2.532
		l0.454,1.102h1.787l-2.704-6.405H227.073z M227.264,3.925l0.642-1.571l0.638,1.571H227.264z M235.489,4.903V0.15h-1.822v6.405
		h4.517V4.903H235.489z"/>
	<path fill="#FFFFFF" d="M238.421,36.153h-12.146v-22.89h12.146V36.153z M226.754,35.669h11.187V13.739h-11.187V35.669z"/>
	<path fill="#FFFFFF" d="M250.092,47.482H237.94V35.669h12.151V47.482z M238.421,47.006h11.189V36.153h-11.189V47.006z"/>
	<path fill="#FFFFFF" d="M238.421,47.482h-12.146V35.669h12.146V47.482z M226.754,47.006h11.187V36.153h-11.187V47.006z"/>
	<path fill="#FFFFFF" d="M224.785,47.482h-12.146V13.263h12.146V47.482z M213.118,47.006h11.185V13.739h-11.185V47.006z"/>
	<path fill="#FFFFFF" d="M198.52,47.482h-11.509V28.255h11.509V47.482z M187.492,47.006h10.554V28.737h-10.554V47.006z"/>
	<path fill="#FFFFFF" d="M211.146,26.008h-13.101V13.263h13.101V26.008z M198.52,25.527h12.146V13.739H198.52V25.527z"/>
	<path fill="#FFFFFF" d="M202.14,47.488h-4.094V25.527h4.094c6.054,0,10.973,4.927,10.973,10.982
		C213.112,42.563,208.193,47.488,202.14,47.488 M198.52,47.006h3.62c5.788,0,10.499-4.709,10.499-10.497
		c0-5.79-4.711-10.5-10.499-10.5h-3.62V47.006z"/>
	<path fill="#FFFFFF" d="M198.526,28.737h-3.774c-4.269,0-7.741-3.473-7.741-7.74c0-4.267,3.473-7.733,7.741-7.733h3.774V28.737z
		 M194.752,13.739c-4.005,0-7.26,3.256-7.26,7.258c0,4.002,3.255,7.258,7.26,7.258h3.294V13.739H194.752z"/>
	<path fill="#FFFFFF" d="M126.173,27.279h-2.943V13.263h2.943c3.861,0,7.009,3.144,7.009,7.005
		C133.182,24.135,130.034,27.279,126.173,27.279 M123.71,26.797h2.462c3.601,0,6.529-2.927,6.529-6.528
		c0-3.598-2.929-6.53-6.529-6.53h-2.462V26.797z"/>
	<path fill="#FFFFFF" d="M123.71,27.279h-12.147V13.263h12.147V27.279z M112.039,26.803h11.191V13.739h-11.191V26.803z"/>
	<path fill="#FFFFFF" d="M123.71,47.482h-12.147V26.797h12.147V47.482z M112.039,47.006h11.191V27.279h-11.191V47.006z"/>
	<path fill="#FFFFFF" d="M127.306,47.488h-4.076V26.797h4.076c5.703,0,10.343,4.644,10.343,10.349
		C137.648,42.843,133.009,47.488,127.306,47.488 M123.71,47.006h3.595c5.439,0,9.862-4.428,9.862-9.86
		c0-5.439-4.423-9.866-9.862-9.866h-3.595V47.006z"/>
	<path fill="#FFFFFF" d="M159.781,47.488h-22.613V33.64h13.616L159.781,47.488z M137.648,47.006H158.9l-8.382-12.884h-12.87V47.006z
		"/>
	<path fill="#FFFFFF" d="M193.513,47.488h-40.979l20.491-34.457L193.513,47.488z M153.375,47.006h39.296l-19.646-33.035
		L153.375,47.006z"/>
	<path fill="#FFFFFF" d="M193.513,47.488h-6.502V36.557L193.513,47.488z M187.492,47.006h5.179l-5.179-8.711V47.006z"/>
	<path fill="#FFFFFF" d="M159.781,47.488h-7.248l3.461-5.829L159.781,47.488z M153.375,47.006h5.525l-2.884-4.438L153.375,47.006z"
		/>
	<path fill="#FFFFFF" d="M185.574,47.488h-25.102v-0.244c0-6.919,5.632-12.551,12.552-12.551c6.917,0,12.55,5.632,12.55,12.551
		V47.488z M160.953,47.006h24.136c-0.124-6.545-5.487-11.833-12.064-11.833C166.45,35.173,161.082,40.461,160.953,47.006"/>
	<path fill="#FFFFFF" d="M137.536,13.263h-0.368v20.859h13.924L137.536,13.263z M137.648,14.306l12.563,19.334h-12.563V14.306z"/>
	<path fill="#FFFFFF" d="M150.648,13.263h-13.48v0.308l13.281,20.442l0.069,0.109h0.13c5.756,0,10.429-4.678,10.429-10.431
		C161.077,17.941,156.404,13.263,150.648,13.263 M150.784,33.64l-12.936-19.901h12.8c5.493,0,9.953,4.466,9.953,9.952
		C160.602,29.136,156.206,33.569,150.784,33.64"/>
</g>
</svg>
