<?xml version="1.0" encoding="UTF-8" standalone="no"?>
<!-- Generator: Adobe Illustrator 16.0.0, SVG Export Plug-In . SVG Version: 6.00 Build 0)  -->

<svg
   version="1.1"
   x="0px"
   y="0px"
   width="200px"
   height="64.995px"
   viewBox="0 0 200 64.995"
   enable-background="new 0 0 200 64.995"
   xml:space="preserve"
   id="svg58"
   sodipodi:docname="logoNovo.svg"
   inkscape:version="1.1.2 (0a00cf5339, 2022-02-04)"
   xmlns:inkscape="http://www.inkscape.org/namespaces/inkscape"
   xmlns:sodipodi="http://sodipodi.sourceforge.net/DTD/sodipodi-0.dtd"
   xmlns="http://www.w3.org/2000/svg"
   xmlns:svg="http://www.w3.org/2000/svg"><defs
   id="defs62">
	

		
		
	</defs><sodipodi:namedview
   id="namedview60"
   pagecolor="#ffffff"
   bordercolor="#111111"
   borderopacity="1"
   inkscape:pageshadow="0"
   inkscape:pageopacity="0"
   inkscape:pagecheckerboard="1"
   showgrid="false"
   inkscape:zoom="4.3807663"
   inkscape:cx="138.67437"
   inkscape:cy="14.381046"
   inkscape:window-width="1920"
   inkscape:window-height="1043"
   inkscape:window-x="1920"
   inkscape:window-y="0"
   inkscape:window-maximized="1"
   inkscape:current-layer="svg58" />
<g
   id="DESIGNED_BY_FREEPIK">
</g>

<g
   id="g16889"><g
     id="g15461"><g
       id="g53">
			<path
   fill="#1d1d1b"
   d="m 35.517,51.022 c 0.152,0.192 0.331,0.381 0.495,0.571 0.161,-0.19 0.308,-0.381 0.466,-0.571 -0.237,0 -0.478,0.004 -0.714,0.004 -0.095,0 -0.163,-0.004 -0.247,-0.004 z"
   id="path29" />
			<path
   fill="none"
   d="m 16.992,42.495 c -0.024,-0.004 -0.05,-0.008 -0.082,-0.012 0.032,0.004 0.058,0.008 0.082,0.012 z"
   id="path31" />
			<path
   fill="#1d1d1b"
   d="m 42.503,43.06 c -0.513,0.012 -1.036,0.02 -1.566,0.059 v 0 c 0.288,-0.036 0.592,-0.036 0.875,-0.041 0.234,-0.004 0.462,-0.011 0.691,-0.018 z"
   id="path33" />
			<path
   fill="#1d1d1b"
   d="m 16.992,42.495 c 0.585,0.116 1.201,0.243 1.813,0.339 h 0.001 c -0.609,-0.096 -1.229,-0.223 -1.814,-0.339 z"
   id="path35" />
			<path
   fill="#1d1d1b"
   d="m 14.51,41.976 v 0 c 0.778,0.19 1.58,0.342 2.4,0.507 -0.819,-0.167 -1.622,-0.316 -2.4,-0.507 z"
   id="path37" />
			<path
   fill="#1d1d1b"
   d="m 18.805,42.834 c 0.229,0.039 0.455,0.094 0.678,0.115 -0.226,-0.021 -0.445,-0.081 -0.678,-0.115 z"
   id="path39" />
			<path
   fill="#1d1d1b"
   d="m 19.482,42.949 c 0.073,0.008 0.143,0.015 0.19,0.034 v 0 c -0.047,-0.019 -0.117,-0.026 -0.19,-0.034 z"
   id="path41" />
			<path
   fill="#1a8cd1"
   d="m 31.221,56.618 c 3.449,-3.094 7.046,-7.31 10.402,-12.234 -0.241,0.003 -0.456,0.007 -0.686,0.01 -0.317,0.004 -0.606,0.001 -0.91,0.002 -1.692,2.399 -3.41,4.626 -5.147,6.626 -5.721,-0.287 -10.769,-3.124 -14.064,-7.4 -0.112,-0.174 -0.248,-0.347 -0.381,-0.503 -0.109,-0.046 -0.216,-0.061 -0.329,-0.072 -0.121,-0.022 -0.277,-0.022 -0.433,-0.063 v -0.001 c -0.048,-0.019 -0.118,-0.026 -0.19,-0.034 -0.223,-0.021 -0.449,-0.076 -0.678,-0.115 -0.612,-0.096 -1.228,-0.223 -1.813,-0.339 -0.024,-0.004 -0.05,-0.008 -0.082,-0.012 -0.821,-0.165 -1.623,-0.317 -2.4,-0.507 0.817,1.762 1.865,3.428 3.067,4.913 -0.703,2.822 -1.094,5.391 -1.094,7.563 v 0 c 0,3.355 0.936,5.676 2.705,6.719 2.703,1.558 6.959,-0.053 12.033,-4.553 z M 19.846,60.03 c -1.702,-0.992 -2.079,-3.58 -2.079,-5.578 v 0 c 0,-1.841 0.321,-3.997 0.885,-6.35 0.198,0.225 0.403,0.457 0.621,0.675 3.135,3.132 7.157,5.386 11.635,6.338 -0.19,0.164 -0.381,0.352 -0.579,0.529 -4.52,4.043 -8.339,5.632 -10.483,4.386 z"
   id="path43" />
			<polygon
   fill="#1d1d1b"
   points="19.673,42.983 19.673,42.982 "
   id="polygon45" />
			<path
   fill="#86cbf9"
   d="m 44.131,40.551 c 0.485,-0.764 0.991,-1.567 1.434,-2.381 0.844,-1.458 1.652,-2.895 2.385,-4.348 0.246,-0.473 0.478,-0.948 0.729,-1.427 1.498,-3.016 2.77,-5.988 3.791,-8.823 1.344,2.571 2.106,5.522 2.106,8.644 0,2.47 -0.491,4.835 -1.361,7.002 0.127,0.316 0.285,0.662 0.391,0.97 0.661,1.693 1.227,3.323 1.675,4.887 2.443,-3.671 3.867,-8.107 3.867,-12.859 0,-5.408 -1.839,-10.382 -4.929,-14.357 0.259,-1.047 0.474,-2.047 0.634,-3.016 1.884,-0.226 3.285,-1.803 3.285,-3.745 0,-1.904 -1.401,-3.457 -3.244,-3.713 C 54.473,5.747 53.69,4.529 52.553,3.862 49.845,2.311 45.57,3.925 40.55,8.421 40.275,8.667 40,8.91 39.733,9.179 38.457,8.957 37.124,8.815 35.763,8.815 c -0.924,0 -1.854,0.083 -2.764,0.19 1.238,1.132 2.479,2.38 3.771,3.809 0.194,0.221 0.389,0.441 0.581,0.662 5.984,0.481 11.198,3.813 14.259,8.618 -0.966,2.813 -2.231,5.824 -3.691,8.875 -0.254,0.485 -0.468,0.959 -0.703,1.436 -0.884,1.7 -1.789,3.411 -2.788,5.114 -0.606,1.051 -1.211,2.08 -1.875,3.09 0.283,-0.007 0.542,-0.013 0.854,-0.021 0.238,-0.018 0.45,-0.028 0.724,-0.037 z M 41.313,9.481 c 0.024,-0.012 0.058,-0.052 0.098,-0.095 4.518,-4.021 8.339,-5.62 10.485,-4.38 0.859,0.514 1.373,1.419 1.67,2.458 -1.666,0.378 -2.917,1.87 -2.917,3.636 0,1.799 1.241,3.286 2.902,3.67 -0.104,0.597 -0.231,1.219 -0.374,1.847 -3.099,-3.458 -7.225,-5.993 -11.864,-7.136 z"
   id="path47" />
			<path
   fill="#013c65"
   d="m 33.533,42.989 c 2.557,0.096 5.06,0.134 7.404,0.129 0.538,-0.039 1.067,-0.046 1.587,-0.059 2.331,-0.036 4.47,-0.18 6.312,-0.359 0.353,-0.037 0.617,-0.344 0.585,-0.717 -0.042,-0.354 -0.353,-0.622 -0.715,-0.58 -1.569,0.15 -3.371,0.251 -5.299,0.33 -0.533,0.013 -1.074,0.051 -1.597,0.051 -2.555,0.042 -5.32,0.023 -8.152,-0.085 -0.133,-1.949 -1.752,-3.489 -3.74,-3.489 -1.815,0 -3.332,1.298 -3.678,3.013 -1.808,-0.168 -3.553,-0.379 -5.263,-0.626 -0.422,-0.05 -0.875,-0.139 -1.313,-0.209 -0.303,-0.031 -0.612,-0.09 -0.915,-0.127 0.159,0.349 0.159,0.349 0,0 -1.175,-2.454 -1.803,-5.178 -1.803,-8.045 0,-2.598 0.533,-5.067 1.485,-7.319 0.184,-0.409 0.367,-0.817 0.568,-1.229 -0.022,-0.045 -0.042,-0.106 -0.091,-0.19 0,0 0,-0.013 0,-0.034 0.035,0.083 0.061,0.165 0.091,0.225 0.257,-0.486 0.539,-0.978 0.841,-1.455 3.037,-4.829 8.187,-8.164 14.147,-8.733 0.277,0.286 0.536,0.622 0.849,0.933 0.259,0.305 0.571,0.653 0.861,0.972 2.826,3.305 5.804,7.304 8.661,11.974 0.719,1.222 1.401,2.444 2.095,3.641 0.19,-0.332 0.342,-0.685 0.512,-1.047 0.062,-0.115 0.119,-0.236 0.18,-0.381 C 46.597,28.619 46.041,27.648 45.448,26.679 42.591,21.996 39.553,17.85 36.551,14.398 36.238,14.053 35.98,13.731 35.667,13.387 v 0 C 34.266,11.849 32.869,10.435 31.508,9.228 26.235,4.51 21.507,2.477 18.609,4.236 16.903,5.277 16.037,7.427 16.037,10.625 v 0 c 0,2.134 0.392,4.65 1.129,7.422 -1.495,1.961 -2.686,4.16 -3.508,6.532 C 5.945,26.68 2.5,30.314 2.5,32.217 c 0,1.501 0.685,2.877 2.033,4.115 1.955,1.774 5.297,3.141 9.362,4.168 1.671,0.43 3.467,0.811 5.337,1.095 -0.003,0.017 5.052,0.712 6.974,0.894 0.254,1.826 1.819,3.238 3.713,3.238 1.722,0.001 3.165,-1.165 3.614,-2.738 z M 17.344,10.623 v 0 c 0,-1.863 0.329,-4.294 1.947,-5.274 2.087,-1.295 5.99,0.263 10.625,4.22 -4.598,1.191 -8.668,3.756 -11.718,7.224 -0.553,-2.288 -0.854,-4.377 -0.854,-6.17 z M 5.391,35.366 C 4.33,34.385 3.807,33.353 3.807,32.217 c 0,-1.227 2.952,-4.197 9.391,-6.138 -0.53,1.958 -0.817,4.014 -0.817,6.138 0,2.388 0.341,4.713 1.008,6.857 C 9.938,38.133 7.104,36.93 5.391,35.366 Z"
   id="path49" />
			<path
   fill="#1a8cd1"
   d="m 53.129,60.815 c 0.801,-0.494 1.393,-1.238 1.835,-2.207 0.029,0 0.061,0.018 0.09,0.018 2.077,0 3.779,-1.691 3.779,-3.762 0,-1.938 -1.503,-3.543 -3.4,-3.738 -0.218,-1.489 -0.568,-3.088 -1.042,-4.77 -0.495,-1.776 -1.125,-3.618 -1.883,-5.582 -0.867,-2.226 -1.917,-4.57 -3.095,-6.93 -0.134,0.252 -0.261,0.488 -0.413,0.763 -0.096,0.202 -0.217,0.447 -0.334,0.669 1.163,2.377 2.185,4.717 3,6.947 -2.892,4.613 -7.737,7.868 -13.369,8.628 -0.466,0.584 -0.931,1.137 -1.395,1.695 -0.91,1.062 -1.825,2.059 -2.756,2.992 0.546,0.051 1.08,0.066 1.618,0.066 1.32,0 2.613,-0.107 3.877,-0.324 0.465,0.424 0.926,0.848 1.361,1.258 5.141,4.383 9.452,5.9 12.127,4.277 z M 41.224,54.952 c 4.797,-1.146 9.04,-3.774 12.155,-7.357 0.33,1.271 0.571,2.488 0.755,3.632 -1.628,0.409 -2.823,1.891 -2.823,3.638 0,1.584 0.958,2.918 2.329,3.469 -0.287,0.561 -0.67,1.051 -1.213,1.363 -2.096,1.299 -5.95,-0.227 -10.542,-4.17 -0.226,-0.184 -0.441,-0.376 -0.661,-0.575 z"
   id="path51" />
		</g><g
       aria-label="PESQUISA"
       transform="scale(0.82310211,1.2149161)"
       id="text4043"
       style="font-size:23.2317px;line-height:1.25;font-family:MetroDF;-inkscape-font-specification:'MetroDF, Normal';fill:#013c65;stroke-width:0.580792"><path
         d="m 96.012883,40.436947 h -8.014937 v 5.947315 H 85.256605 V 30.09884 H 96.2452 q 3.229206,0 4.43725,1.208048 1.20805,1.184817 1.20805,4.390792 0,2.857499 -1.62622,3.926157 -1.254508,0.81311 -4.251397,0.81311 z m 0.232317,-7.64323 h -8.247254 v 4.925121 h 8.293717 q 1.440366,0 2.067622,-0.418171 0.789877,-0.534329 0.789877,-1.904999 0,-1.579756 -0.650487,-2.090854 -0.627256,-0.511097 -2.253475,-0.511097 z"
         id="path12460" /><path
         d="m 122.91516,41.5753 q 0,3.113048 -2.02116,4.065548 -1.51006,0.743414 -6.01701,0.743414 h -3.60091 q -3.41506,0 -4.97158,-0.580792 -1.69592,-0.627256 -2.34641,-2.323171 -0.58079,-1.556523 -0.58079,-4.971584 0,-3.670608 0.5111,-5.250364 0.58079,-1.858536 2.25347,-2.555487 1.60299,-0.673719 5.18067,-0.673719 h 3.60092 q 4.29786,0 6.17963,1.23128 1.76561,1.138353 1.76561,3.55445 h -2.62518 q 0,-1.556524 -1.48683,-2.021158 -0.9525,-0.27878 -3.94939,-0.27878 h -3.32213 q -3.32214,0 -4.29787,0.627256 -1.20805,0.789877 -1.23128,3.670608 v 2.346402 q -0.0232,3.252438 1.16159,4.112011 0.92926,0.673719 4.29786,0.673719 h 3.41506 q 3.06659,0 3.97262,-0.27878 1.48683,-0.441402 1.4636,-2.090853 z m -5.92408,-2.416097 h -11.08152 l 0.0232,-2.369633 h 11.05829 z"
         id="path12462" /><path
         d="m 143.75398,41.598532 q 0,2.694877 -1.3939,3.809999 -1.23128,0.975731 -3.97262,0.975731 h -8.15433 q -5.36652,0 -5.34329,-4.623108 h 2.81103 q 0,2.137316 3.02012,2.137316 h 7.03921 q 1.4636,0 2.18378,-0.394939 0.9525,-0.534329 0.9525,-1.904999 0,-1.556524 -1.64945,-2.114085 -0.99897,-0.348476 -2.95043,-0.348476 -0.78988,0 -2.3464,0.0697 -1.55652,0.04646 -2.3464,0.04646 -3.08982,0 -4.64634,-0.766646 -2.16055,-1.09189 -2.16055,-3.856463 0,-2.509023 1.48683,-3.600913 1.27774,-0.929268 3.90292,-0.929268 h 7.75939 q 5.73823,0 5.73823,4.599877 h -2.92719 q 0,-2.137317 -3.06659,-2.137317 h -7.31798 q -2.53226,0 -2.53226,2.114085 0,2.207011 4.62311,2.207011 0.72018,0 2.13732,-0.0697 1.44036,-0.09293 2.16055,-0.09293 3.15951,0 4.78573,0.859572 2.20701,1.161585 2.20701,4.019085 z"
         id="path12464" /><path
         d="m 166.26549,44.223714 -1.48683,2.346402 -1.76561,-1.138354 q -1.62622,0.9525 -6.04024,0.9525 h -2.99689 q -3.43829,0 -4.99481,-0.580792 -1.69592,-0.627256 -2.34641,-2.323171 -0.55756,-1.533292 -0.55756,-4.994815 0,-3.647377 0.48787,-5.227133 0.58079,-1.858536 2.23024,-2.555487 1.64945,-0.696951 5.22713,-0.696951 h 2.97366 q 3.50799,0 5.11098,0.627256 1.76561,0.673719 2.41609,2.439328 0.60403,1.602988 0.60403,5.110975 0,3.484755 -0.48787,4.994815 z m -3.92616,-6.713962 q 0,-2.32317 -0.46463,-3.298901 -0.46463,-0.998963 -1.69591,-1.277744 -0.85958,-0.209085 -3.29891,-0.209085 h -2.69487 q -3.3686,0 -4.25141,0.696951 -1.06865,0.859573 -1.06865,4.112011 v 1.556524 q 0,3.159511 1.09189,3.995853 0.85957,0.627255 4.15847,0.627255 l 5.22713,0.02323 q 0.5808,0 1.20805,0.0697 l -2.67164,-1.788841 1.57975,-2.276706 3.04336,1.997926 -0.16263,-1.022195 z"
         id="path12466" /><path
         d="m 176.13896,46.384262 q -3.36859,0 -5.25036,-1.742377 -1.88177,-1.76561 -1.88177,-5.110975 v -9.43207 h 2.76457 v 9.780546 q 0,1.928231 1.18482,3.020121 1.20805,1.068658 3.18274,1.068658 h 3.41506 q 1.9747,0 3.15951,-1.068658 1.20805,-1.09189 1.20805,-3.020121 V 30.09884 h 2.76457 v 9.43207 q 0,3.345365 -1.88176,5.110975 -1.88177,1.742377 -5.25037,1.742377 z"
         id="path12468" /><path
         d="m 193.05161,46.384262 h -2.76457 V 30.09884 h 2.76457 z"
         id="path12470" /><path
         d="m 214.70352,41.598532 q 0,2.694877 -1.3939,3.809999 -1.23128,0.975731 -3.97262,0.975731 h -8.15433 q -5.36652,0 -5.34329,-4.623108 h 2.81104 q 0,2.137316 3.02012,2.137316 h 7.03921 q 1.46359,0 2.18378,-0.394939 0.9525,-0.534329 0.9525,-1.904999 0,-1.556524 -1.64946,-2.114085 -0.99896,-0.348476 -2.95042,-0.348476 -0.78988,0 -2.3464,0.0697 -1.55653,0.04646 -2.3464,0.04646 -3.08982,0 -4.64635,-0.766646 -2.16054,-1.09189 -2.16054,-3.856463 0,-2.509023 1.48683,-3.600913 1.27774,-0.929268 3.90292,-0.929268 h 7.75939 q 5.73823,0 5.73823,4.599877 h -2.92719 q 0,-2.137317 -3.06659,-2.137317 h -7.31798 q -2.53226,0 -2.53226,2.114085 0,2.207011 4.62311,2.207011 0.72018,0 2.13731,-0.0697 1.44037,-0.09293 2.16055,-0.09293 3.15951,0 4.78573,0.859572 2.20701,1.161585 2.20701,4.019085 z"
         id="path12472" /><path
         d="m 220.23267,36.743106 h 13.2653 q -0.0232,-2.764572 -1.13835,-3.531218 -0.88281,-0.627256 -3.85647,-0.627256 h -3.32213 q -2.92719,0 -3.81,0.650487 -1.11512,0.789878 -1.13835,3.507987 z m 13.28853,2.462561 h -13.28853 v 7.178595 h -2.76457 v -9.664387 q 0,-4.042316 1.69591,-5.412987 1.48683,-1.208048 5.6453,-1.208048 h 4.11201 q 4.08878,0 5.62208,1.23128 1.74237,1.393902 1.74237,5.389755 v 9.664387 h -2.76457 z"
         id="path12474" /></g><g
       aria-label="FOMENTO A"
       transform="scale(0.7387976,1.3535507)"
       id="text9662"
       style="font-size:21.5668px;line-height:1.25;font-family:MetroDF;-inkscape-font-specification:'MetroDF, Normal';fill:#013c65;stroke-width:0.539168"><path
         d="m 91.943537,14.205484 h 10.654003 v 2.178247 H 91.943537 v 6.707274 h -2.415482 l 0.02157,-7.850315 q 0,-3.127185 0.496036,-4.529027 Q 90.606395,9.1157195 92.180771,8.4902823 93.66888,7.8864119 96.9039,7.8864119 h 2.803684 q 4.076126,0 5.607366,0.9920728 1.46654,0.9489391 1.76848,3.6016553 h -2.43705 q -0.34507,-1.509676 -1.55281,-1.941012 -0.86267,-0.301935 -3.49382,-0.301935 h -2.544882 q -3.062486,0 -3.925157,0.582304 -1.099907,0.711704 -1.186174,3.385987 z"
         id="path15395" /><path
         d="m 126.21317,16.383731 q 0,3.019352 -0.71171,4.44276 -0.7117,1.401842 -2.41548,1.876312 -1.35871,0.388202 -4.44276,0.388202 h -2.78212 q -3.17032,0 -4.61529,-0.53917 -1.59595,-0.582303 -2.17825,-2.15668 -0.53917,-1.466542 -0.53917,-4.636861 0,-3.364421 0.4529,-4.830963 0.53917,-1.7253443 2.11355,-2.3939151 1.48811,-0.647004 4.8094,-0.647004 h 2.76055 q 3.55852,0 5.11133,0.7332712 1.57437,0.7332712 2.04884,2.6311499 0.38821,1.423408 0.38821,5.132898 z m -2.58802,-0.08627 v -1.444976 q 0,-2.15668 -0.43134,-3.062485 -0.43133,-0.927373 -1.57437,-1.186174 -0.79797,-0.194102 -3.06249,-0.194102 h -2.50175 q -3.12718,0 -3.94672,0.647004 -0.99207,0.797972 -0.99207,3.817324 v 1.444975 q 0,2.933085 1.01364,3.70949 0.79797,0.582303 3.86045,0.582303 h 2.60959 q 2.22138,0 2.99778,-0.172534 1.14304,-0.237235 1.57438,-1.121474 0.4529,-0.905805 0.4529,-3.019351 z"
         id="path15397" /><path
         d="m 155.02639,23.091005 -0.0216,-7.785614 q 0,-2.372348 -0.9705,-3.580089 -1.20775,-1.509676 -3.98986,-1.509676 h -0.69014 q -2.88995,0 -3.98986,1.61751 -0.88424,1.315575 -0.88424,4.485894 v 6.771975 h -2.39391 v -6.59944 q 0,-3.040919 -0.90581,-4.485894 -1.12147,-1.790045 -3.88202,-1.790045 h -0.75484 q -2.86838,0 -3.98986,1.768478 -0.9058,1.423409 -0.9058,4.572161 l 0.0216,6.53474 h -2.54488 V 7.9726791 h 2.52332 v 1.9194451 q 1.44497,-1.9194451 4.55059,-1.9194451 h 1.42341 q 4.03299,0 5.56424,2.8683839 1.57437,-2.8683839 5.54266,-2.8683839 h 1.85475 q 6.75041,0 6.75041,7.3758449 v 7.742481 z"
         id="path15399" /><path
         d="m 178.2538,18.626678 q 0,2.889951 -1.87631,3.77419 -1.40184,0.690137 -5.5858,0.690137 h -3.34286 q -3.17032,0 -4.61529,-0.53917 -1.57438,-0.582303 -2.17825,-2.15668 -0.53917,-1.444975 -0.53917,-4.615295 0,-3.407554 0.47447,-4.874096 0.53917,-1.7253441 2.09198,-2.3723481 1.48811,-0.6254372 4.8094,-0.6254372 h 3.34285 q 3.98986,0 5.73677,1.1430404 1.63908,1.0567729 1.63908,3.2997199 h -2.43705 q 0,-1.444975 -1.38028,-1.876311 -0.88424,-0.258802 -3.66635,-0.258802 h -3.08406 q -3.08405,0 -3.98985,0.582304 -1.12148,0.733271 -1.14304,3.407554 v 2.178247 q -0.0216,3.019352 1.07834,3.817323 0.86267,0.625437 3.98985,0.625437 h 3.17032 q 2.84682,0 3.68793,-0.258801 1.38027,-0.409769 1.3587,-1.941012 z m -5.49953,-2.242947 H 162.4669 l 0.0216,-2.199814 h 10.2658 z"
         id="path15401" /><path
         d="m 194.36418,23.091005 v -9.079622 q 0,-1.790044 -1.12148,-2.782117 -1.0999,-1.01364 -2.93308,-1.01364 h -3.14875 q -1.74691,0 -2.91152,1.056773 -1.16461,1.035207 -1.16461,2.738984 v 9.079622 h -2.56645 V 7.9726791 h 2.56645 v 1.9841455 q 1.38028,-1.9841455 4.07613,-1.9841455 h 3.14875 q 3.12719,0 4.8741,1.6390767 1.74691,1.6175102 1.74691,4.7231292 v 8.75612 z"
         id="path15403" /><path
         d="m 214.18404,10.280327 h -6.81511 v 12.810678 h -2.56645 V 10.280327 h -6.79354 V 7.9726791 h 16.1751 z"
         id="path15405" /><path
         d="m 233.18435,16.383731 q 0,3.019352 -0.71171,4.44276 -0.7117,1.401842 -2.41548,1.876312 -1.3587,0.388202 -4.44276,0.388202 h -2.78211 q -3.17032,0 -4.6153,-0.53917 -1.59594,-0.582303 -2.17825,-2.15668 -0.53917,-1.466542 -0.53917,-4.636861 0,-3.364421 0.45291,-4.830963 0.53917,-1.7253443 2.11354,-2.3939151 1.48811,-0.647004 4.8094,-0.647004 h 2.76055 q 3.55852,0 5.11133,0.7332712 1.57438,0.7332712 2.04885,2.6311499 0.3882,1.423408 0.3882,5.132898 z m -2.58802,-0.08627 v -1.444976 q 0,-2.15668 -0.43133,-3.062485 -0.43134,-0.927373 -1.57438,-1.186174 -0.79797,-0.194102 -3.06248,-0.194102 h -2.50175 q -3.12719,0 -3.94673,0.647004 -0.99207,0.797972 -0.99207,3.817324 v 1.444975 q 0,2.933085 1.01364,3.70949 0.79797,0.582303 3.86046,0.582303 h 2.60958 q 2.22138,0 2.99778,-0.172534 1.14304,-0.237235 1.57438,-1.121474 0.4529,-0.905805 0.4529,-3.019351 z"
         id="path15407" /><path
         d="m 248.34578,14.140784 h 12.31464 q -0.0216,-2.566449 -1.05677,-3.278154 -0.81954,-0.582303 -3.58009,-0.582303 h -3.08405 q -2.71742,0 -3.53696,0.60387 -1.0352,0.733271 -1.05677,3.256587 z m 12.33621,2.28608 h -12.33621 v 6.664141 h -2.56645 v -8.971788 q 0,-3.752623 1.57438,-5.0250643 1.38027,-1.1214736 5.24073,-1.1214736 h 3.81732 q 3.79576,0 5.21917,1.1430404 1.61751,1.2940075 1.61751,5.0034975 v 8.971788 h -2.56645 z"
         id="path15409" /></g></g><g
     aria-label="`"
     transform="scale(1.1132042,0.89830778)"
     id="text9325"
     style="font-size:17.9077px;line-height:1.25;fill:#013c65;stroke-width:0.447694"><path
       d="m 160.85374,12.214987 2.46581,3.270254 h -1.33783 l -2.85054,-3.270254 z"
       id="path16754" /></g></g></svg>
