<?xml version="1.0" encoding="utf-8"?>
<!-- Generator: Adobe Illustrator 16.0.0, SVG Export Plug-In . SVG Version: 6.00 Build 0)  -->
<!DOCTYPE svg PUBLIC "-//W3C//DTD SVG 1.1//EN" "http://www.w3.org/Graphics/SVG/1.1/DTD/svg11.dtd">
<svg version="1.1" id="Layer_1" xmlns="http://www.w3.org/2000/svg" xmlns:xlink="http://www.w3.org/1999/xlink" x="0px" y="0px"
	 width="250px" height="70.486px" viewBox="0 0 250 70.486" enable-background="new 0 0 250 70.486" xml:space="preserve">
<g>
	<g>
		<path fill="#FFFFFF" d="M98.387,28.027H76.786c-0.516,0-0.813,0.296-0.813,0.814v40.726c0,0.52,0.297,0.816,0.813,0.816h3.024
			c0.517,0,0.814-0.297,0.814-0.816l0.02-18.546h11.929c0.519,0,0.814-0.296,0.814-0.815v-2.492c0-0.518-0.295-0.814-0.814-0.814
			l-11.948-0.017l0.02-14.733h17.743c0.52,0,0.816-0.297,0.816-0.814v-2.494C99.203,28.323,98.907,28.027,98.387,28.027"/>
		<path fill="#FFFFFF" d="M104.946,28.028h-3.026c-0.516,0-0.816,0.297-0.816,0.814v40.727c0,0.517,0.301,0.813,0.816,0.813h3.026
			c0.517,0,0.816-0.297,0.816-0.813V28.842C105.762,28.325,105.463,28.028,104.946,28.028"/>
		<path fill="#FFFFFF" d="M129.95,29.462c-1.865-1.021-4.788-1.542-7.227-1.542s-4.992,0.521-6.855,1.542
			c-1.872,1.025-3.338,2.492-4.362,4.362c-1.022,1.861-1.539,4.028-1.539,6.426v17.966c0,2.403,0.519,4.559,1.539,6.401
			c1.024,1.847,2.49,3.306,4.362,4.326c1.863,1.025,4.416,1.543,6.855,1.543s5.362-0.518,7.227-1.543
			c1.867-1.021,3.343-2.478,4.39-4.325c1.04-1.844,1.569-3.999,1.569-6.402V40.25c0-2.402-0.529-4.564-1.569-6.428
			C133.293,31.952,131.817,30.487,129.95,29.462 M131.254,40.132v18.266c0,2.381-0.717,4.326-2.131,5.778
			c-1.415,1.452-4.058,2.189-6.4,2.189c-2.301,0-4.558-0.737-5.966-2.189c-1.418-1.45-2.137-3.397-2.137-5.778V40.132
			c0-2.422,0.719-4.396,2.137-5.872c1.412-1.471,3.667-2.217,5.966-2.217c2.339,0,4.98,0.746,6.395,2.217
			C130.537,35.736,131.254,37.71,131.254,40.132"/>
		<path fill="#FFFFFF" d="M152.31,27.92c-3.64,0-6.989,1.091-9.218,3.239c-2.23,2.149-3.359,5.048-3.359,8.616v18.8
			c0,3.565,1.129,6.475,3.356,8.645c2.231,2.171,6.317,3.267,9.96,3.267c3.681,0,6.681-1.089,8.907-3.237
			c2.229-2.147,3.361-5.025,3.361-8.554v-0.417c0-0.52-0.294-0.815-0.803-0.815l0,0l-3.037-0.178c-0.517,0-0.815,0.274-0.815,0.755
			v0.831c0,2.224-0.706,4.047-2.1,5.421c-1.394,1.376-3.253,2.073-5.514,2.073c-2.263,0-5.214-0.688-6.591-2.043
			c-1.374-1.353-2.07-3.19-2.07-5.451V39.538c0-2.263,0.696-4.097,2.07-5.452c1.377-1.355,3.59-2.043,5.852-2.043
			c2.263,0,4.859,0.697,6.253,2.072c1.394,1.376,2.1,3.201,2.1,5.423v0.829c0,0.481,0.297,0.756,0.821,0.756l3.021-0.119
			c0.516,0,0.813-0.295,0.813-0.813v-0.534c0-3.527-1.133-6.398-3.363-8.526C159.728,28.999,155.99,27.92,152.31,27.92"/>
		<path fill="#FFFFFF" d="M187.696,50.966l-0.002-0.003c2.286-0.646,4.114-1.953,5.439-3.879c1.325-1.927,1.997-4.655,1.997-7.381
			c0-2.277-0.456-4.329-1.36-6.095c-0.905-1.771-2.19-3.157-3.823-4.125c-1.626-0.965-3.513-1.456-5.6-1.456h-14.062
			c-0.519,0-0.816,0.297-0.816,0.814v40.727c0,0.517,0.298,0.813,0.816,0.813h3.025c0.521,0,0.816-0.297,0.816-0.813l0.016-18.177
			h9.137l0.03,0.04l7.356,18.335c0.152,0.403,0.45,0.615,0.861,0.615h3.144c0.481,0,0.755-0.253,0.755-0.695l-0.073-0.322
			L187.696,50.966z M190.474,39.703c0,2.228-0.618,4.424-1.842,5.801c-1.218,1.369-2.839,2.065-4.819,2.065l-9.685-0.021V32.164
			l0.016-0.012h9.669c1.98,0,3.602,0.691,4.819,2.06C189.855,35.59,190.474,37.438,190.474,39.703"/>
		<path fill="#FFFFFF" d="M223.979,28.027h-3.03c-0.516,0-0.812,0.296-0.812,0.814v29.318c0,2.46-0.719,4.469-2.138,5.959
			c-1.41,1.491-3.848,2.247-6.148,2.247c-2.303,0-4.738-0.756-6.152-2.247c-1.416-1.49-2.134-3.496-2.134-5.959V28.841
			c0-0.518-0.298-0.814-0.815-0.814h-3.027c-0.518,0-0.813,0.296-0.813,0.814v29.081c0,2.479,0.518,4.689,1.536,6.573
			c1.028,1.89,2.493,3.377,4.363,4.42c1.864,1.042,4.598,1.571,7.042,1.571c2.44,0,5.177-0.529,7.041-1.571
			c1.87-1.043,3.337-2.53,4.356-4.42c1.027-1.884,1.545-4.094,1.545-6.573V28.841C224.793,28.323,224.493,28.027,223.979,28.027"/>
		<path fill="#FFFFFF" d="M250.135,31.631v-2.79c0-0.518-0.298-0.814-0.813-0.814h-21.781c-0.519,0-0.815,0.296-0.815,0.814v2.494
			c0,0.517,0.297,0.812,0.815,0.812l17.414,0.002l-18.035,33.4c-0.129,0.304-0.194,0.964-0.194,1.228v2.79
			c0,0.518,0.297,0.816,0.815,0.816h21.781c0.515,0,0.813-0.299,0.813-0.816v-2.492c0-0.517-0.298-0.814-0.813-0.814l-17.417-0.001
			l18.039-33.778C250.071,32.137,250.135,31.856,250.135,31.631"/>
		<path fill="#FFFFFF" d="M65.36,64.891c-0.022-0.038-0.043-0.09-0.08-0.15l-0.031-0.051c-0.036-0.055-0.085-0.109-0.14-0.171
			l-1.28-1.258V34.096l1.056-1.037v-3.525c0.009-0.368-0.016-0.672-0.21-0.929c-0.224-0.303-0.571-0.478-0.943-0.478h-1.804V16.819
			c0-0.393-0.203-0.761-0.541-0.985l-0.134-0.085l0.084-0.142c0.71-1.171,1.089-2.5,1.089-3.852c0-3.153-2.106-6.046-5.126-7.035
			l-0.099-0.031l-0.558-3.365C56.486,0.422,55.733,0.006,55.057,0c-0.646,0.016-1.379,0.427-1.543,1.303l-0.617,3.375l-0.098,0.03
			c-3.045,0.97-5.169,3.87-5.169,7.048c0,1.343,0.369,2.666,1.074,3.832l0.084,0.135l-0.131,0.092
			c-0.323,0.217-0.513,0.583-0.513,0.971v8.964h-2.405v-5.752l0.82-0.784v-2.924c0-0.645-0.526-1.169-1.174-1.169h-3.39
			c-0.249,0-0.532,0.033-0.707,0.236l-0.682,0.785h-1.052l0.278-0.888c0.082-0.359-0.01-0.737-0.248-1.023
			c-0.234-0.298-0.582-0.465-0.962-0.465H26.766c-0.376,0-0.748,0.177-0.966,0.464c-0.247,0.302-0.33,0.686-0.234,1.085l0.138,0.827
			h-1.085l-0.595-0.785c-0.172-0.202-0.457-0.25-0.725-0.25h-3.392c-0.645,0-1.175,0.525-1.175,1.174v2.932l0.832,0.784v5.752
			h-2.426v-8.93c0-0.398-0.197-0.765-0.527-0.982l-0.139-0.088l0.083-0.142c0.713-1.167,1.091-2.498,1.091-3.852
			c0-3.153-2.113-6.046-5.129-7.039L12.42,4.686l-0.567-3.365C11.7,0.414,10.934,0,10.282,0C9.473,0.016,8.865,0.529,8.73,1.299
			L8.112,4.677l-0.099,0.03c-3.042,0.974-5.165,3.87-5.165,7.048c0,1.347,0.37,2.669,1.076,3.832l0.08,0.135l-0.129,0.092
			c-0.325,0.22-0.509,0.573-0.509,0.971v11.36H1.595c-0.377,0-0.724,0.17-0.948,0.474c-0.197,0.26-0.226,0.563-0.216,0.892v3.547
			l1.017,0.949v29.253L0.26,64.553c-0.215,0.213-0.333,0.501-0.333,0.811v3.985c0,0.651,0.528,1.183,1.176,1.183h15.123l2.514-2.561
			h27.825l2.523,2.561h15.183c0.648,0,1.176-0.531,1.176-1.183v-3.626C65.447,65.561,65.416,65.032,65.36,64.891 M62.365,67.153
			H50.479l-2.56-2.561H17.228l-2.56,2.561H3.286v-0.996l1.533-1.564V33.496l-1.002-0.93V31h2.921V18.412l0.97-0.99v-2.471
			c-0.125-0.106-0.246-0.218-0.358-0.336c-0.266-0.251-0.482-0.542-0.641-0.876C6.403,13.17,6.23,12.521,6.23,11.832
			c0-2.225,1.801-4.026,4.024-4.026s4.027,1.801,4.027,4.026c0,0.894-0.295,1.717-0.788,2.383c-0.036,0.054-0.078,0.104-0.115,0.154
			c-0.016,0.017-0.025,0.031-0.038,0.047c-0.064,0.075-0.129,0.15-0.202,0.223c-0.104,0.104-0.209,0.207-0.326,0.303v2.48
			l0.952,0.97v10.687h7.346l1.807-1.862v-8.003h6.46v-2.066h6.542v2.093l6.462-0.027v7.837l1.982,2.028h7.156v-10.7l0.968-0.971
			v-2.45c-0.151-0.12-0.29-0.256-0.419-0.398c-0.235-0.217-0.416-0.47-0.559-0.757c-0.325-0.583-0.513-1.256-0.513-1.971
			c0-2.225,1.802-4.026,4.022-4.026c2.225,0,4.029,1.801,4.029,4.026c0,0.884-0.29,1.7-0.774,2.362
			c-0.042,0.064-0.084,0.124-0.135,0.184c-0.01,0.013-0.019,0.021-0.028,0.035c-0.063,0.067-0.123,0.141-0.19,0.206
			c-0.106,0.11-0.212,0.213-0.33,0.311v2.478l0.963,0.913v12.659h2.972v1.761l-1.065,1.064v30.889l1.905,1.91V67.153z"/>
	</g>
</g>
</svg>
