<?xml version="1.0" encoding="utf-8"?>
<!-- Generator: Adobe Illustrator 16.0.0, SVG Export Plug-In . SVG Version: 6.00 Build 0)  -->
<!DOCTYPE svg PUBLIC "-//W3C//DTD SVG 1.1//EN" "http://www.w3.org/Graphics/SVG/1.1/DTD/svg11.dtd">
<svg version="1.1" id="Layer_1" xmlns="http://www.w3.org/2000/svg" xmlns:xlink="http://www.w3.org/1999/xlink" x="0px" y="0px"
	 width="250px" height="61.966px" viewBox="0 0 250 61.966" enable-background="new 0 0 250 61.966" xml:space="preserve">
<g>
	<path fill="#FFFFFF" d="M34.959,50.614c0.172,0.195,0.346,0.383,0.521,0.576c0.165-0.193,0.33-0.391,0.495-0.587
		c-0.252,0.011-0.504,0.018-0.755,0.018C35.132,50.621,35.045,50.615,34.959,50.614z"/>
	<path fill="#FFFFFF" d="M15.344,41.584c-0.027-0.005-0.055-0.01-0.082-0.016C15.29,41.574,15.317,41.579,15.344,41.584z"/>
	<path fill="#FFFFFF" d="M42.354,42.182c-0.542,0.015-1.096,0.024-1.658,0.032l0,0c0.306-0.002,0.625-0.005,0.925-0.011
		C41.871,42.198,42.11,42.189,42.354,42.182z"/>
	<path fill="#FFFFFF" d="M15.344,41.584c0.63,0.125,1.269,0.241,1.919,0.354c0-0.002,0.002-0.003,0.002-0.006
		C16.618,41.819,15.972,41.709,15.344,41.584z"/>
	<path fill="#FFFFFF" d="M12.715,41.01L12.715,41.01c0.826,0.199,1.675,0.384,2.548,0.559C14.391,41.394,13.541,41.209,12.715,41.01
		z"/>
	<path fill="#FFFFFF" d="M17.264,41.938c0.242,0.041,0.481,0.086,0.727,0.125c-0.246-0.04-0.48-0.089-0.725-0.131
		C17.266,41.935,17.264,41.936,17.264,41.938z"/>
	<path fill="#FFFFFF" d="M17.99,42.063c0.069,0.011,0.14,0.02,0.209,0.03l0,0C18.13,42.082,18.06,42.073,17.99,42.063z"/>
	<path fill="#FFFFFF" d="M30.385,56.54c3.673-3.278,7.47-7.761,11.04-12.957c-0.244,0.004-0.482,0.01-0.729,0.014
		c-0.313,0.004-0.642,0.002-0.962,0.003c-1.781,2.541-3.613,4.884-5.452,6.986c-6.056-0.284-11.403-3.287-14.867-7.813
		c-0.141-0.186-0.286-0.369-0.422-0.56c-0.117-0.018-0.234-0.035-0.352-0.053c-0.148-0.022-0.293-0.044-0.438-0.068
		c-0.001,0-0.002,0-0.003,0c-0.07-0.011-0.14-0.02-0.209-0.03c-0.246-0.039-0.484-0.084-0.727-0.125
		c-0.65-0.112-1.29-0.229-1.919-0.354c-0.027-0.005-0.055-0.01-0.082-0.016c-0.873-0.175-1.722-0.359-2.548-0.559
		c0.866,1.886,1.976,3.632,3.266,5.227c-0.763,2.991-1.176,5.711-1.176,8.012c0,0,0,0,0,0.001c0,3.548,0.989,6,2.863,7.093
		C20.53,63.011,25.047,61.305,30.385,56.54z M18.364,60.147c-1.799-1.05-2.177-3.785-2.177-5.898v-0.001
		c0.001-1.953,0.319-4.233,0.902-6.727c0.221,0.24,0.439,0.484,0.67,0.715c3.322,3.311,7.581,5.679,12.343,6.681
		c-0.212,0.197-0.426,0.402-0.637,0.591C24.68,59.779,20.635,61.468,18.364,60.147z"/>
	<polygon fill="#FFFFFF" points="18.2,42.093 18.2,42.093 18.203,42.093 	"/>
	<path fill="#FFFFFF" d="M44.077,39.524c0.514-0.828,1.022-1.664,1.521-2.517c0.893-1.532,1.731-3.07,2.524-4.603
		c0.261-0.506,0.523-1.011,0.773-1.515c1.584-3.193,2.932-6.342,4.01-9.339c1.424,2.743,2.231,5.853,2.231,9.15
		c0,2.619-0.519,5.115-1.441,7.408c0.139,0.343,0.282,0.688,0.414,1.027c0.699,1.791,1.289,3.523,1.778,5.185
		c2.581-3.907,4.089-8.586,4.089-13.62c0-5.727-1.95-10.996-5.215-15.191c0.276-1.111,0.499-2.18,0.674-3.205
		c1.968-0.237,3.493-1.909,3.493-3.943c0-2.018-1.504-3.681-3.453-3.937c-0.446-1.75-1.279-3.019-2.481-3.717
		c-2.863-1.668-7.379,0.036-12.718,4.8c-0.285,0.254-0.571,0.529-0.856,0.797c-1.366-0.234-2.769-0.363-4.202-0.363
		c-0.991,0-1.966,0.068-2.923,0.183c1.308,1.199,2.643,2.545,3.992,4.036c0.202,0.226,0.408,0.465,0.613,0.697
		c6.336,0.533,11.836,4.042,15.093,9.12c-1.022,2.992-2.336,6.166-3.904,9.404c-0.245,0.505-0.495,1.011-0.751,1.518
		c-0.908,1.799-1.885,3.608-2.936,5.411c-0.65,1.117-1.32,2.202-1.995,3.272c0.296-0.008,0.597-0.015,0.889-0.026
		C43.561,39.547,43.817,39.536,44.077,39.524z M41.081,6.647c0.039-0.035,0.078-0.073,0.115-0.107
		c4.785-4.27,8.832-5.961,11.101-4.639c0.91,0.53,1.455,1.493,1.774,2.588c-1.769,0.402-3.091,1.981-3.091,3.872
		c0,1.884,1.313,3.459,3.072,3.868c-0.11,0.633-0.246,1.287-0.395,1.953C50.374,10.521,46.018,7.846,41.081,6.647z"/>
	<path fill="#FFFFFF" d="M32.854,42.103c2.711,0.109,5.36,0.144,7.841,0.111c0.571-0.008,1.133-0.018,1.682-0.032
		c2.47-0.064,4.734-0.195,6.681-0.382c0.38-0.038,0.657-0.37,0.622-0.755c-0.036-0.38-0.375-0.659-0.755-0.622
		c-1.662,0.16-3.57,0.277-5.63,0.35c-0.548,0.02-1.105,0.035-1.675,0.048c-2.701,0.058-5.629,0.035-8.627-0.077
		c-0.146-2.064-1.86-3.695-3.961-3.695c-1.926,0-3.53,1.369-3.896,3.187c-1.892-0.178-3.761-0.398-5.571-0.664
		c-0.467-0.068-0.929-0.143-1.388-0.218c-0.322-0.051-0.652-0.1-0.972-0.156c0.188,0.392,0.188,0.392,0,0
		c-1.221-2.58-1.906-5.46-1.906-8.499c0-2.75,0.569-5.366,1.582-7.749c0.184-0.435,0.377-0.865,0.592-1.283
		c-0.025-0.065-0.046-0.129-0.071-0.195c-0.009-0.021-0.017-0.042-0.022-0.062c0.032,0.086,0.061,0.171,0.094,0.257
		c0.273-0.535,0.57-1.055,0.888-1.561c3.214-5.097,8.672-8.641,14.977-9.235c0.293,0.314,0.59,0.646,0.887,0.976
		c0.307,0.342,0.615,0.691,0.925,1.049c3.012,3.477,6.127,7.711,9.146,12.661c0.788,1.292,1.523,2.584,2.234,3.875
		c0.188-0.374,0.375-0.748,0.554-1.12c0.064-0.133,0.125-0.263,0.188-0.395c-0.578-1.027-1.17-2.056-1.796-3.081
		c-3.024-4.959-6.244-9.349-9.427-13.005c-0.308-0.353-0.614-0.708-0.921-1.047c-0.001,0-0.001,0-0.002,0
		c-1.493-1.651-2.972-3.133-4.413-4.425c-5.58-4.997-10.599-7.153-13.655-5.29c-1.807,1.103-2.725,3.379-2.725,6.769c0,0,0,0,0,0
		c0,2.256,0.417,4.92,1.195,7.858c-1.582,2.071-2.844,4.4-3.713,6.912C3.648,24.839,0,28.684,0,30.701
		c0,1.594,0.725,3.06,2.155,4.359c2.066,1.877,5.605,3.325,9.91,4.413c1.769,0.447,3.671,0.831,5.65,1.161
		c-0.003,0.009,5.348,0.747,7.385,0.943c0.271,1.934,1.926,3.422,3.933,3.422C30.854,44.998,32.384,43.773,32.854,42.103z
		 M15.717,7.839C15.717,7.839,15.717,7.839,15.717,7.839c0-1.976,0.357-4.549,2.061-5.589c2.211-1.348,6.341,0.276,11.25,4.473
		c-4.885,1.258-9.181,3.972-12.411,7.647C16.035,11.948,15.717,9.736,15.717,7.839z M3.084,34.037
		c-1.145-1.041-1.702-2.132-1.702-3.336c0-1.302,3.127-4.444,9.946-6.5c-0.563,2.072-0.867,4.25-0.867,6.5
		c0,2.526,0.38,4.965,1.084,7.261C7.875,36.962,4.883,35.67,3.084,34.037z"/>
	<path fill="#FFFFFF" d="M53.603,60.979c0.848-0.518,1.493-1.304,1.947-2.332c0.032,0.002,0.064,0.006,0.096,0.006
		c2.195,0,3.976-1.78,3.976-3.977c0-2.061-1.569-3.755-3.578-3.954c-0.233-1.573-0.603-3.269-1.104-5.057
		c-0.525-1.878-1.193-3.856-1.99-5.907c-0.924-2.371-2.031-4.837-3.283-7.34c-0.139,0.271-0.275,0.542-0.416,0.814
		c-0.121,0.234-0.25,0.467-0.374,0.702c1.233,2.524,2.314,5.002,3.193,7.366c-3.077,4.877-8.209,8.326-14.172,9.132
		c-0.491,0.611-0.983,1.204-1.477,1.782c-0.964,1.13-1.931,2.192-2.895,3.183c0.56,0.038,1.122,0.063,1.692,0.063
		c1.397,0,2.768-0.123,4.103-0.346c0.493,0.457,0.982,0.901,1.469,1.32C46.226,61.089,50.776,62.702,53.603,60.979z M41.001,54.773
		c5.078-1.216,9.547-3.994,12.871-7.803c0.349,1.353,0.617,2.643,0.8,3.855c-1.724,0.437-3,1.992-3,3.85
		c0,1.664,1.022,3.087,2.473,3.68c-0.304,0.593-0.705,1.103-1.261,1.443c-2.243,1.367-6.322-0.243-11.192-4.416
		C41.461,55.186,41.231,54.98,41.001,54.773z"/>
	<g>
		<path fill="#FFFFFF" d="M73.78,19.542v5.994h-2.749V10.987h14.962v2.149H73.78v4.256h11.388v2.149H73.78z"/>
		<path fill="#FFFFFF" d="M92.772,25.536c-0.827,0-1.53-0.085-2.108-0.259c-0.578-0.172-1.05-0.412-1.416-0.722
			c-0.365-0.312-0.629-0.679-0.794-1.105s-0.249-0.903-0.249-1.427V14.5c0-0.523,0.084-1,0.249-1.427s0.43-0.796,0.794-1.105
			c0.366-0.311,0.838-0.551,1.416-0.723c0.578-0.173,1.281-0.258,2.108-0.258h9.609c0.827,0,1.529,0.085,2.107,0.258
			c0.58,0.172,1.052,0.413,1.415,0.723c0.366,0.309,0.631,0.678,0.797,1.105c0.165,0.427,0.247,0.904,0.247,1.427v7.521
			c0,0.524-0.082,1-0.247,1.427c-0.166,0.427-0.431,0.794-0.797,1.105c-0.363,0.311-0.835,0.55-1.415,0.722
			c-0.579,0.173-1.281,0.259-2.107,0.259H92.772z M104.199,14.479c0-0.895-0.605-1.342-1.818-1.342h-9.609
			c-1.213,0-1.818,0.448-1.818,1.342v7.564c0,0.896,0.605,1.343,1.818,1.343h9.609c1.213,0,1.818-0.448,1.818-1.343V14.479z"/>
		<path fill="#FFFFFF" d="M129.971,25.536V15.348l-7.398,10.188h-2.253l-7.419-10.167v10.167h-2.543V10.987h2.563l8.638,11.882
			l8.598-11.882h2.355v14.548H129.971z"/>
		<path fill="#FFFFFF" d="M136.026,25.536V10.987h14.961v2.149h-12.212v3.637h11.591v2.15h-11.591v4.463h12.212v2.149H136.026z"/>
		<path fill="#FFFFFF" d="M172.067,25.536l-15.52-11.325v11.325h-2.399V10.987h2.377l14.486,10.808V10.987h2.398v14.548H172.067z"/>
		<path fill="#FFFFFF" d="M183.681,25.536V13.137h-7.626v-2.149h17.795v2.149h-7.42v12.399H183.681z"/>
		<path fill="#FFFFFF" d="M200.399,25.536c-0.828,0-1.529-0.085-2.108-0.259c-0.577-0.172-1.051-0.412-1.415-0.722
			c-0.366-0.312-0.631-0.679-0.796-1.105c-0.166-0.427-0.248-0.903-0.248-1.427V14.5c0-0.523,0.082-1,0.248-1.427
			c0.165-0.427,0.43-0.796,0.796-1.105c0.364-0.311,0.838-0.551,1.415-0.723c0.579-0.173,1.28-0.258,2.108-0.258h9.609
			c0.827,0,1.528,0.085,2.108,0.258c0.576,0.172,1.05,0.413,1.414,0.723c0.365,0.309,0.63,0.678,0.796,1.105
			c0.167,0.427,0.248,0.904,0.248,1.427v7.521c0,0.524-0.081,1-0.248,1.427c-0.166,0.427-0.431,0.794-0.796,1.105
			c-0.364,0.311-0.838,0.55-1.414,0.722c-0.58,0.173-1.281,0.259-2.108,0.259H200.399z M211.828,14.479
			c0-0.895-0.606-1.342-1.819-1.342h-9.609c-1.213,0-1.818,0.448-1.818,1.342v7.564c0,0.896,0.605,1.343,1.818,1.343h9.609
			c1.213,0,1.819-0.448,1.819-1.343V14.479z"/>
		<path fill="#FFFFFF" d="M106.639,40.122v5.373h-2.749V30.947h11.925c0.827,0,1.529,0.086,2.108,0.259
			c0.579,0.172,1.05,0.413,1.416,0.723c0.364,0.309,0.63,0.679,0.794,1.105c0.167,0.427,0.249,0.902,0.249,1.426v2.148
			c0,0.523-0.083,0.999-0.249,1.427c-0.164,0.427-0.43,0.795-0.794,1.105c-0.366,0.309-0.837,0.551-1.416,0.723
			c-0.579,0.173-1.282,0.258-2.108,0.258H106.639z M117.634,34.44c0-0.896-0.606-1.343-1.819-1.343h-9.176v4.877h9.176
			c1.213,0,1.819-0.448,1.819-1.343V34.44z"/>
		<path fill="#FFFFFF" d="M122.924,45.495V30.947h14.961v2.149h-12.213v3.637h11.594v2.149h-11.594v4.464h12.213v2.148H122.924z"/>
		<path fill="#FFFFFF" d="M141.026,45.495v-2.148h12.647c1.211,0,1.818-0.447,1.818-1.343v-1.84c0-0.896-0.607-1.343-1.818-1.343
			h-8.555c-0.827,0-1.531-0.085-2.108-0.258c-0.58-0.172-1.05-0.414-1.416-0.724c-0.364-0.31-0.629-0.678-0.796-1.106
			c-0.164-0.427-0.248-0.902-0.248-1.425v-0.847c0-0.524,0.084-1,0.248-1.426c0.167-0.427,0.432-0.796,0.796-1.105
			c0.366-0.31,0.836-0.551,1.416-0.723c0.577-0.173,1.281-0.259,2.108-0.259h12.316v2.149h-12.316c-1.213,0-1.819,0.447-1.819,1.343
			v0.888c0,0.895,0.606,1.343,1.819,1.343h8.555c0.828,0,1.53,0.086,2.108,0.259c0.58,0.172,1.049,0.412,1.415,0.722
			c0.364,0.31,0.632,0.68,0.796,1.106c0.166,0.427,0.248,0.902,0.248,1.425v1.799c0,0.523-0.082,0.999-0.248,1.426
			c-0.164,0.427-0.432,0.795-0.796,1.105c-0.366,0.309-0.835,0.55-1.415,0.723c-0.578,0.173-1.28,0.258-2.108,0.258H141.026z"/>
		<path fill="#FFFFFF" d="M174.857,48.719l-1.756-3.224h-7.523c-0.827,0-1.529-0.085-2.109-0.258
			c-0.576-0.173-1.048-0.414-1.413-0.723c-0.367-0.311-0.631-0.679-0.796-1.105c-0.169-0.427-0.25-0.902-0.25-1.426v-7.522
			c0-0.524,0.081-1,0.25-1.426c0.165-0.427,0.429-0.796,0.796-1.105c0.365-0.31,0.837-0.551,1.413-0.723
			c0.58-0.173,1.282-0.259,2.109-0.259h9.609c0.826,0,1.528,0.086,2.107,0.259c0.578,0.172,1.052,0.413,1.415,0.723
			c0.367,0.309,0.631,0.679,0.796,1.105s0.249,0.902,0.249,1.426v7.522c0,0.964-0.293,1.759-0.88,2.387
			c-0.584,0.626-1.566,0.995-2.943,1.105l1.858,3.243H174.857z M177.006,34.44c0-0.896-0.605-1.343-1.818-1.343h-9.609
			c-1.213,0-1.819,0.447-1.819,1.343v7.564c0,0.896,0.606,1.343,1.819,1.343h9.609c1.213,0,1.818-0.447,1.818-1.343V34.44z"/>
		<path fill="#FFFFFF" d="M187.462,45.495c-0.826,0-1.528-0.085-2.106-0.258c-0.58-0.173-1.053-0.414-1.417-0.723
			c-0.366-0.311-0.63-0.679-0.795-1.105c-0.167-0.427-0.248-0.902-0.248-1.426V30.947h2.749v11.057c0,0.896,0.606,1.343,1.817,1.343
			h9.032c1.213,0,1.817-0.447,1.817-1.343V30.947h2.75v11.036c0,0.523-0.053,0.999-0.157,1.426
			c-0.103,0.427-0.301,0.795-0.599,1.105c-0.297,0.309-0.702,0.55-1.219,0.723s-1.187,0.258-2.016,0.258H187.462z"/>
		<path fill="#FFFFFF" d="M204.409,45.495V30.947h2.748v14.548H204.409z"/>
		<path fill="#FFFFFF" d="M210.754,45.495v-2.148h12.646c1.214,0,1.819-0.447,1.819-1.343v-1.84c0-0.896-0.605-1.343-1.819-1.343
			h-8.556c-0.825,0-1.529-0.085-2.107-0.258s-1.051-0.414-1.415-0.724c-0.365-0.31-0.63-0.678-0.796-1.106
			c-0.166-0.427-0.249-0.902-0.249-1.425v-0.847c0-0.524,0.083-1,0.249-1.426s0.431-0.796,0.796-1.105
			c0.364-0.31,0.837-0.551,1.415-0.723c0.578-0.173,1.282-0.259,2.107-0.259h12.317v2.149h-12.317c-1.214,0-1.816,0.447-1.816,1.343
			v0.888c0,0.895,0.603,1.343,1.816,1.343h8.556c0.828,0,1.529,0.086,2.108,0.259c0.58,0.172,1.052,0.412,1.416,0.722
			c0.365,0.31,0.629,0.68,0.795,1.106c0.166,0.427,0.248,0.902,0.248,1.425v1.799c0,0.523-0.082,0.999-0.248,1.426
			s-0.43,0.795-0.795,1.105c-0.364,0.309-0.836,0.55-1.416,0.723c-0.579,0.173-1.28,0.258-2.108,0.258H210.754z"/>
		<g>
			<polygon fill="#FFFFFF" points="83.01,28.249 76.222,26.82 76.222,29.159 83.01,29.966 			"/>
			<path fill="#FFFFFF" d="M90.896,45.594l-9.625-14.571h-2.008l-9.687,14.571h3.063l1.144-1.758h5.084h3.096h4.703l1.124,1.758
				H90.896z M75.185,41.684l5.092-7.825l5.012,7.825H75.185z"/>
		</g>
		<g>
			<path fill="#FFFFFF" d="M250.076,45.594l-9.622-14.571h-2.008l-9.688,14.571h3.063l1.144-1.758h5.085h3.096h4.701l1.126,1.758
				H250.076z M234.365,41.684l5.094-7.825l5.012,7.825H234.365z"/>
		</g>
	</g>
	<g>
		<path fill="#FFFFFF" d="M127.293,54.073c-0.244-0.145-0.425-0.145-0.658-0.153h-1.165v1.724h1.029c0.063-0.01,0.289,0,0.497-0.045
			c0.668-0.153,0.677-0.668,0.677-0.875c0-0.063,0-0.344-0.243-0.551C127.374,54.118,127.348,54.11,127.293,54.073z"/>
		<path fill="#FFFFFF" d="M189.938,56.682c-0.035-0.019-0.135-0.09-0.243-0.127c-0.118-0.035-0.299-0.053-0.569-0.071h-1.184v1.797
			h1.237c0.424-0.028,0.614-0.065,0.813-0.236c0.172-0.135,0.279-0.307,0.279-0.658C190.271,57.277,190.271,56.936,189.938,56.682z"
			/>
		<path fill="#FFFFFF" d="M112.313,54.056c-0.227-0.146-0.47-0.254-0.894-0.226c-0.101,0-0.479,0.009-0.839,0.307
			c-0.064,0.054-0.226,0.19-0.344,0.406c-0.171,0.29-0.243,0.649-0.262,0.749c-0.026,0.136-0.089,0.479-0.089,0.875
			c0,0.145,0.008,0.949,0.324,1.508c0.145,0.253,0.498,0.758,1.283,0.758c0.46,0,0.74-0.181,0.893-0.298
			c0.162-0.137,0.271-0.271,0.316-0.333c0.306-0.453,0.406-1.13,0.406-1.661c0-0.118-0.009-1.073-0.378-1.652
			C112.619,54.309,112.482,54.173,112.313,54.056z"/>
		<path fill="#FFFFFF" d="M189.252,55.472c0.044-0.008,0.468,0,0.657-0.352c0.101-0.181,0.118-0.36,0.118-0.415
			c0-0.071,0-0.099-0.036-0.198c-0.018-0.091-0.082-0.279-0.325-0.414c-0.233-0.128-0.55-0.128-0.784-0.136h-0.94v1.523h1.039
			C189.071,55.48,189.161,55.48,189.252,55.472z"/>
		<path fill="#FFFFFF" d="M176.175,54.137c-0.189-0.09-0.379-0.127-0.767-0.127h-0.894l0.008,1.788c0.289,0.009,0.586,0.009,0.886,0
			c0.071,0,0.479,0.009,0.795-0.172c0.143-0.081,0.225-0.171,0.26-0.235c0.081-0.099,0.155-0.271,0.155-0.523
			c0-0.298-0.119-0.496-0.254-0.613C176.327,54.219,176.238,54.165,176.175,54.137z"/>
		<path fill="#FFFFFF" d="M169.817,54.137c-0.189-0.09-0.379-0.127-0.767-0.127h-0.895l0.01,1.788c0.288,0.009,0.586,0.009,0.885,0
			c0.071,0,0.478,0.009,0.793-0.172c0.146-0.081,0.226-0.171,0.263-0.235c0.081-0.099,0.153-0.271,0.153-0.523
			c0-0.298-0.118-0.496-0.252-0.613C169.972,54.219,169.88,54.165,169.817,54.137z"/>
		<polygon fill="#FFFFFF" points="132.893,56.845 134.815,56.845 133.85,54.19 		"/>
		<path fill="#FFFFFF" d="M231.277,54.073c-0.242-0.145-0.425-0.145-0.658-0.153h-1.164v1.724h1.03c0.062-0.01,0.287,0,0.496-0.045
			c0.667-0.153,0.677-0.668,0.677-0.875c0-0.063,0-0.344-0.245-0.551C231.359,54.118,231.333,54.11,231.277,54.073z"/>
		<path fill="#FFFFFF" d="M104.825,54.073c-0.244-0.145-0.423-0.145-0.659-0.153h-1.164v1.724h1.03c0.062-0.01,0.288,0,0.498-0.045
			c0.667-0.153,0.675-0.668,0.675-0.875c0-0.063,0-0.344-0.243-0.551C104.906,54.118,104.88,54.11,104.825,54.073z"/>
		<polygon fill="#FFFFFF" points="150.123,56.845 152.045,56.845 151.079,54.19 		"/>
		<path fill="#FFFFFF" d="M98.324,54.137c-0.19-0.09-0.38-0.127-0.768-0.127h-0.894l0.01,1.788c0.288,0.009,0.585,0.009,0.884,0
			c0.073,0,0.479,0.009,0.794-0.172c0.144-0.081,0.226-0.171,0.263-0.235c0.081-0.099,0.152-0.271,0.152-0.523
			c0-0.298-0.117-0.496-0.252-0.613C98.478,54.219,98.387,54.165,98.324,54.137z"/>
		<path fill="#FFFFFF" d="M71.137,50.858v10.528h178.939V50.858H71.137z M79.817,56.936c-0.016,0.513-0.043,1.01-0.404,1.524
			c-0.109,0.153-0.227,0.279-0.291,0.333c-0.133,0.127-0.287,0.218-0.324,0.244c-0.351,0.208-0.866,0.425-1.678,0.425
			c-0.208,0-0.667,0-1.209-0.217c-0.127-0.055-0.344-0.153-0.587-0.342c-0.145-0.11-0.362-0.298-0.56-0.669
			c-0.243-0.47-0.298-0.948-0.307-1.923v-3.375h1.39v3.61c0.009,0.245,0.009,0.486,0.035,0.686c0.02,0.1,0.064,0.577,0.471,0.895
			c0.37,0.288,0.739,0.27,0.858,0.27c0.09,0,0.387,0,0.685-0.182c0.09-0.053,0.189-0.144,0.253-0.217
			c0.036-0.043,0.163-0.188,0.225-0.367c0.082-0.218,0.073-0.417,0.063-0.643v-4.052h1.38V56.936z M89.552,59.309h-1.31l0.083-5.497
			l-0.126,0.452l-1.733,5.045h-1.418l-1.615-4.648c-0.081-0.289-0.163-0.56-0.254-0.821l0.109,5.47h-1.317v-6.372h2.185
			c0.089,0.252,0.189,0.506,0.28,0.767c0.089,0.271,0.17,0.551,0.261,0.83c0.18,0.543,0.352,1.083,0.533,1.634
			c0.09,0.29,0.19,0.568,0.271,0.858c0.1,0.343,0.18,0.687,0.261,1.019c0.083-0.332,0.165-0.668,0.263-1.011
			c0.162-0.56,0.352-1.128,0.541-1.688c0.162-0.504,0.316-1.009,0.478-1.506c0.109-0.307,0.208-0.605,0.308-0.902h2.202V59.309z
			 M99.551,56.33c-0.252,0.217-0.613,0.333-0.658,0.342c-0.434,0.137-1.182,0.146-2.23,0.146v2.491h-1.389v-6.372h2.211
			c0.695,0,1.768,0,2.338,0.82c0.325,0.479,0.332,0.975,0.332,1.129C100.155,54.967,100.174,55.798,99.551,56.33z M105.404,59.309
			c-0.208-0.623-0.262-0.83-0.345-1.453c-0.071-0.507-0.081-0.794-0.332-1.011c-0.155-0.136-0.335-0.173-0.688-0.182h-1.037v2.646
			h-1.373v-6.372h2.754c0.217,0,0.441,0,0.667,0.017c0.073,0.01,0.722,0.055,1.147,0.489c0.035,0.035,0.108,0.117,0.17,0.225
			c0.11,0.172,0.236,0.451,0.236,0.884c0,0.083,0.009,0.517-0.226,0.877c-0.09,0.145-0.209,0.243-0.261,0.288
			c-0.037,0.037-0.153,0.135-0.262,0.189c-0.109,0.063-0.199,0.1-0.415,0.171c0.081,0.019,0.225,0.027,0.451,0.173
			c0.027,0.018,0.116,0.072,0.189,0.153c0.063,0.071,0.089,0.117,0.135,0.197c0.152,0.308,0.163,0.562,0.244,1.174
			c0.109,0.795,0.262,1.13,0.478,1.535H105.404z M114.27,57.594c-0.234,0.586-0.965,1.868-2.788,1.868
			c-1.066,0-2.04-0.479-2.573-1.408c-0.225-0.406-0.326-0.803-0.362-0.966c-0.1-0.451-0.108-0.829-0.108-1.002
			c0-0.731,0.199-1.517,0.625-2.112c0.097-0.126,0.232-0.289,0.35-0.396c0.09-0.09,0.271-0.243,0.56-0.396
			c0.415-0.228,0.875-0.38,1.554-0.389c0.061,0,0.884-0.044,1.65,0.424c0.092,0.055,0.209,0.136,0.38,0.298
			c0.082,0.072,0.279,0.271,0.45,0.533c0.507,0.786,0.543,1.769,0.543,2.039C114.55,56.33,114.523,56.943,114.27,57.594z
			 M120.457,54.281c-0.063-0.116-0.146-0.198-0.181-0.226c-0.325-0.271-0.839-0.262-0.93-0.262c-0.235,0-0.911,0.036-1.347,0.622
			c-0.206,0.298-0.404,0.813-0.404,1.652c0,0.162,0,0.334,0.017,0.505c0.092,0.902,0.479,1.336,0.823,1.544
			c0.387,0.225,0.838,0.225,1.001,0.225c0.388,0,0.712-0.044,1.217-0.171V56.87h-1.425v-1.081h2.725l-0.008,3.176
			c-0.541,0.172-0.929,0.299-1.733,0.407c-0.1,0.018-0.469,0.071-0.804,0.071c-0.298,0-1.435-0.008-2.238-0.713
			c-0.38-0.325-0.559-0.695-0.642-0.857c-0.36-0.749-0.379-1.515-0.379-1.805c0-1.092,0.363-1.751,0.606-2.104
			c0.125-0.171,0.28-0.351,0.432-0.487c0.605-0.515,1.453-0.694,2.238-0.694c0.217,0,1.472,0.009,2.147,0.776
			c0.173,0.197,0.281,0.45,0.308,0.523c0.109,0.279,0.136,0.46,0.154,0.856h-1.425C120.619,54.741,120.619,54.543,120.457,54.281z
			 M127.871,59.309c-0.207-0.623-0.261-0.83-0.344-1.453c-0.072-0.507-0.079-0.794-0.334-1.011
			c-0.151-0.136-0.333-0.173-0.687-0.182h-1.037v2.646h-1.371v-6.372h2.753c0.217,0,0.441,0,0.668,0.017
			c0.072,0.01,0.721,0.055,1.146,0.489c0.035,0.035,0.108,0.117,0.171,0.225c0.109,0.172,0.236,0.451,0.236,0.884
			c0,0.083,0.008,0.517-0.227,0.877c-0.09,0.145-0.208,0.243-0.262,0.288c-0.036,0.037-0.152,0.135-0.262,0.189
			c-0.109,0.063-0.198,0.1-0.416,0.171c0.082,0.019,0.227,0.027,0.454,0.173c0.026,0.018,0.115,0.072,0.188,0.153
			c0.063,0.071,0.09,0.117,0.135,0.197c0.153,0.308,0.163,0.562,0.244,1.174c0.108,0.795,0.263,1.13,0.479,1.535H127.871z
			 M135.717,59.309l-0.514-1.399h-2.698l-0.497,1.399h-1.434l2.49-6.372h1.599l2.491,6.372H135.717z M146.264,59.309h-1.31
			l0.083-5.497l-0.128,0.452l-1.733,5.045h-1.416l-1.616-4.648c-0.081-0.289-0.161-0.56-0.252-0.821l0.108,5.47h-1.317v-6.372h2.183
			c0.091,0.252,0.19,0.506,0.281,0.767c0.09,0.271,0.171,0.551,0.263,0.83c0.178,0.543,0.351,1.083,0.532,1.634
			c0.089,0.29,0.188,0.568,0.27,0.858c0.099,0.343,0.18,0.687,0.261,1.019c0.081-0.332,0.164-0.668,0.263-1.011
			c0.163-0.56,0.353-1.128,0.541-1.688c0.163-0.504,0.315-1.009,0.479-1.506c0.106-0.307,0.206-0.605,0.307-0.902h2.202V59.309z
			 M152.947,59.309l-0.516-1.399h-2.698l-0.495,1.399h-1.435l2.49-6.372h1.598l2.492,6.372H152.947z M162.801,59.309h-1.544
			l-2.428-6.372h1.498l1.697,5.08l0.262-0.811l1.436-4.27h1.498L162.801,59.309z M171.046,56.33
			c-0.253,0.217-0.614,0.333-0.659,0.342c-0.435,0.137-1.184,0.146-2.23,0.146v2.491h-1.39v-6.372h2.211c0.695,0,1.771,0,2.338,0.82
			c0.326,0.479,0.334,0.975,0.334,1.129C171.649,54.967,171.669,55.798,171.046,56.33z M177.402,56.33
			c-0.253,0.217-0.613,0.333-0.659,0.342c-0.434,0.137-1.183,0.146-2.229,0.146v2.491h-1.391v-6.372h2.212
			c0.695,0,1.768,0,2.338,0.82c0.326,0.479,0.333,0.975,0.333,1.129C178.007,54.967,178.026,55.798,177.402,56.33z M184.4,58.451
			c-0.135,0.181-0.306,0.333-0.496,0.46c-0.325,0.226-0.885,0.515-1.842,0.515c-1.173,0-1.749-0.469-2.085-0.857
			c-0.776-0.876-0.804-2.066-0.804-2.446c0.009-1.109,0.38-2.257,1.319-2.86c0.677-0.442,1.5-0.479,1.723-0.479
			c0.932,0,1.553,0.315,1.852,0.541c0.089,0.063,0.269,0.208,0.424,0.452c0.243,0.389,0.281,0.712,0.325,1.146h-1.435
			c0-0.379-0.155-0.668-0.317-0.821c-0.298-0.279-0.794-0.279-0.903-0.279c-1.009,0-1.316,0.848-1.397,1.155
			c-0.063,0.226-0.136,0.632-0.136,1.228c0,0.154-0.009,1.137,0.479,1.733c0.352,0.414,0.83,0.442,1.019,0.442
			c0.162,0,0.641-0.028,0.975-0.382c0.326-0.351,0.353-0.837,0.353-0.854h1.428C184.87,57.188,184.816,57.901,184.4,58.451z
			 M191.31,58.479c-0.145,0.189-0.227,0.27-0.325,0.342c-0.1,0.083-0.19,0.145-0.396,0.227c-0.497,0.217-1.004,0.235-2.032,0.262
			h-1.959v-6.372h2.879c0.714,0.026,1.139,0.18,1.453,0.487c0.108,0.101,0.181,0.181,0.208,0.217c0.1,0.136,0.252,0.46,0.252,0.857
			c0,0.071,0,0.523-0.271,0.866c-0.018,0.026-0.081,0.1-0.172,0.171c-0.171,0.153-0.271,0.208-0.343,0.244
			c-0.136,0.063-0.198,0.081-0.433,0.153c0.361,0.063,0.73,0.144,1.092,0.524c0.164,0.161,0.179,0.225,0.226,0.323
			c0.108,0.253,0.146,0.408,0.146,0.668C191.635,57.602,191.642,58.017,191.31,58.479z M197.869,57.708
			c-1.009,0-1.826-0.818-1.826-1.827c0-1.007,0.817-1.824,1.826-1.824s1.825,0.817,1.825,1.824
			C199.694,56.89,198.878,57.708,197.869,57.708z M208.151,53.982h-2.627v1.526h2.5v1.083h-2.5v2.717h-1.391v-6.372h4.018V53.982z
			 M211.123,59.309h-1.39v-6.372h1.39V59.309z M218.814,57.594c-0.234,0.586-0.966,1.868-2.788,1.868
			c-1.063,0-2.04-0.479-2.572-1.408c-0.227-0.406-0.323-0.803-0.36-0.966c-0.099-0.451-0.108-0.829-0.108-1.002
			c0-0.731,0.199-1.517,0.623-2.112c0.098-0.126,0.233-0.289,0.351-0.396c0.091-0.09,0.271-0.243,0.561-0.396
			c0.416-0.228,0.875-0.38,1.553-0.389c0.062,0,0.883-0.044,1.651,0.424c0.09,0.055,0.208,0.136,0.379,0.298
			c0.082,0.072,0.281,0.271,0.45,0.533c0.506,0.786,0.541,1.769,0.541,2.039C219.094,56.33,219.067,56.943,218.814,57.594z
			 M225.886,58.451c-0.136,0.181-0.307,0.333-0.495,0.46c-0.326,0.226-0.885,0.515-1.842,0.515c-1.174,0-1.75-0.469-2.084-0.857
			c-0.776-0.876-0.806-2.066-0.806-2.446c0.011-1.109,0.381-2.257,1.319-2.86c0.676-0.442,1.499-0.479,1.724-0.479
			c0.931,0,1.554,0.315,1.85,0.541c0.091,0.063,0.271,0.208,0.425,0.452c0.244,0.389,0.279,0.712,0.324,1.146h-1.434
			c0-0.379-0.152-0.668-0.316-0.821c-0.299-0.279-0.793-0.279-0.902-0.279c-1.012,0-1.318,0.848-1.399,1.155
			c-0.063,0.226-0.136,0.632-0.136,1.228c0,0.154-0.009,1.137,0.479,1.733c0.354,0.414,0.829,0.442,1.02,0.442
			c0.163,0,0.641-0.028,0.975-0.382c0.327-0.351,0.354-0.837,0.354-0.854h1.426C226.355,57.188,226.301,57.901,225.886,58.451z
			 M231.855,59.309c-0.207-0.623-0.26-0.83-0.343-1.453c-0.071-0.507-0.082-0.794-0.332-1.011c-0.154-0.136-0.334-0.173-0.688-0.182
			h-1.038v2.646h-1.371v-6.372h2.753c0.218,0,0.44,0,0.668,0.017c0.071,0.01,0.721,0.055,1.146,0.489
			c0.037,0.035,0.108,0.117,0.17,0.225c0.11,0.172,0.237,0.451,0.237,0.884c0,0.083,0.008,0.517-0.228,0.877
			c-0.09,0.145-0.206,0.243-0.26,0.288c-0.036,0.037-0.153,0.135-0.263,0.189c-0.107,0.063-0.198,0.1-0.416,0.171
			c0.082,0.019,0.226,0.027,0.451,0.173c0.029,0.018,0.119,0.072,0.191,0.153c0.063,0.071,0.09,0.117,0.135,0.197
			c0.151,0.308,0.161,0.562,0.244,1.174c0.107,0.795,0.262,1.13,0.477,1.535H231.855z M240.516,56.936
			c-0.019,0.513-0.046,1.01-0.408,1.524c-0.106,0.153-0.223,0.279-0.287,0.333c-0.136,0.127-0.289,0.218-0.325,0.244
			c-0.353,0.208-0.866,0.425-1.68,0.425c-0.206,0-0.666,0-1.208-0.217c-0.127-0.055-0.344-0.153-0.586-0.342
			c-0.146-0.11-0.362-0.298-0.56-0.669c-0.244-0.47-0.299-0.948-0.308-1.923v-3.375h1.391v3.61c0.008,0.245,0.008,0.486,0.035,0.686
			c0.018,0.1,0.063,0.577,0.47,0.895c0.37,0.288,0.739,0.27,0.857,0.27c0.089,0,0.389,0,0.685-0.182
			c0.093-0.053,0.19-0.144,0.253-0.217c0.037-0.043,0.163-0.188,0.228-0.367c0.081-0.218,0.07-0.417,0.063-0.643v-4.052h1.381
			V56.936z M247.036,59.309h-4.901v-1.282l3.258-4.025h-3.096v-1.064h4.657v1.156l-3.304,4.142h3.386V59.309z"/>
		<path fill="#FFFFFF" d="M216.856,54.056c-0.225-0.146-0.469-0.254-0.892-0.226c-0.102,0-0.481,0.009-0.841,0.307
			c-0.063,0.054-0.226,0.19-0.344,0.406c-0.171,0.29-0.242,0.649-0.261,0.749c-0.026,0.136-0.09,0.479-0.09,0.875
			c0,0.145,0.009,0.949,0.323,1.508c0.146,0.253,0.497,0.758,1.282,0.758c0.461,0,0.739-0.181,0.894-0.298
			c0.161-0.137,0.271-0.271,0.314-0.333c0.309-0.453,0.407-1.13,0.407-1.661c0-0.118-0.01-1.073-0.378-1.652
			C217.164,54.309,217.027,54.173,216.856,54.056z"/>
	</g>
</g>
</svg>
