<?xml version="1.0" encoding="UTF-8"?>
<svg id="Layer_1" xmlns="http://www.w3.org/2000/svg" version="1.1" viewBox="0 0 694.5 226.8">
  <!-- Generator: Adobe Illustrator 29.0.0, SVG Export Plug-In . SVG Version: 2.1.0 Build 186)  -->
  <defs>
    <style>
      .st0 {
        fill: #231f20;
      }
    </style>
  </defs>
  <g>
    <path class="st0" d="M273.6,93.4h-59.7c-1.4,0-2.3.8-2.3,2.3v112.6c0,1.4.8,2.3,2.3,2.3h8.4c1.4,0,2.3-.8,2.3-2.3v-51.3h33c1.4,0,2.3-.8,2.3-2.3v-6.9c0-1.4-.8-2.3-2.3-2.3h-33s0-40.8,0-40.8h49c1.4,0,2.3-.8,2.3-2.3v-6.9c0-1.4-.8-2.3-2.3-2.3Z"/>
    <path class="st0" d="M283.4,93.4h8.4c1.2,0,2.3,1,2.3,2.3v112.6c0,1.2-1,2.3-2.3,2.3h-8.4c-1.2,0-2.3-1-2.3-2.3v-112.6c0-1.2,1-2.3,2.3-2.3Z"/>
    <path class="st0" d="M360.8,97.3c-5.2-2.8-13.2-4.3-20-4.3s-13.8,1.4-18.9,4.3c-5.2,2.8-9.2,6.9-12.1,12.1-2.8,5.2-4.3,11.1-4.3,17.8v49.7c0,6.6,1.4,12.6,4.3,17.7,2.8,5.1,6.9,9.1,12.1,12,5.1,2.8,12.2,4.3,18.9,4.3s14.8-1.4,20-4.3c5.2-2.8,9.2-6.9,12.1-12,2.9-5.1,4.3-11,4.3-17.7v-49.7c0-6.6-1.5-12.6-4.3-17.8-2.9-5.2-7-9.2-12.1-12ZM364.4,126.8v50.5c0,6.6-2,12-5.9,16-3.9,4-11.2,6-17.7,6s-12.6-2-16.5-6c-3.9-4-5.9-9.4-5.9-16v-50.5c0-6.7,2-12.2,5.9-16.2,3.9-4.1,10.1-6.1,16.5-6.1s13.8,2.1,17.7,6.1c3.9,4.1,5.9,9.5,5.9,16.2Z"/>
    <path class="st0" d="M422.6,93.1c-10.1,0-19.3,3-25.5,8.9-6.2,5.9-9.3,14-9.3,23.8v52c0,9.9,3.1,17.9,9.3,23.9,6.2,6,17.5,9,27.5,9s18.5-3,24.6-8.9c6.2-5.9,9.3-13.9,9.3-23.6v-1.1c0-1.4-.8-2.3-2.2-2.3h0l-8.4-.5c-1.4,0-2.3.8-2.3,2.1v2.3c0,6.1-2,11.2-5.8,15-3.9,3.8-9,5.7-15.2,5.7s-14.4-1.9-18.2-5.6c-3.8-3.7-5.7-8.8-5.7-15.1v-53.4c0-6.3,1.9-11.3,5.7-15.1,3.8-3.7,9.9-5.6,16.2-5.6s13.4,1.9,17.3,5.7c3.9,3.8,5.8,8.8,5.8,15v2.3c0,1.3.8,2.1,2.3,2.1h0l8.3-.3c1.4,0,2.3-.8,2.3-2.3v-1.5c0-9.7-3.1-17.7-9.3-23.6-6.2-5.9-16.5-8.9-26.7-8.9Z"/>
    <path class="st0" d="M520.4,156.8h0c6.3-1.8,11.4-5.4,15-10.7,3.7-5.3,5.5-12.9,5.5-20.4s-1.3-12-3.8-16.8c-2.5-4.9-6.1-8.7-10.6-11.4-4.5-2.7-9.7-4-15.5-4h-38.9c-1.4,0-2.3.8-2.3,2.3v112.6c0,1.4.8,2.3,2.3,2.3h8.4c1.4,0,2.3-.8,2.3-2.3v-50.2h25.4c0,.1,20.3,50.8,20.3,50.8.4,1.1,1.2,1.7,2.4,1.7h8.7c1.3,0,2.1-.7,2.1-1.9l-.2-.9-21.2-50.8ZM528.1,125.7c0,6.2-1.7,12.2-5.1,16-3.4,3.8-7.8,5.7-13.3,5.7h-26.8v-42.6h0s26.7,0,26.7,0c5.5,0,10,1.9,13.3,5.7,3.4,3.8,5.1,8.9,5.1,15.2Z"/>
    <path class="st0" d="M620.7,93.4h-8.4c-1.4,0-2.3.8-2.3,2.3v81c0,6.8-2,12.3-5.9,16.5-3.9,4.1-10.6,6.2-17,6.2s-13.1-2.1-17-6.2c-3.9-4.1-5.9-9.7-5.9-16.5v-81c0-1.4-.8-2.3-2.3-2.3h-8.4c-1.4,0-2.3.8-2.3,2.3v80.4c0,6.9,1.4,13,4.3,18.2,2.8,5.2,6.9,9.3,12,12.2,5.1,2.9,12.7,4.3,19.5,4.3s14.3-1.5,19.5-4.3c5.2-2.9,9.2-7,12-12.2,2.8-5.2,4.3-11.3,4.3-18.2v-80.4c0-1.4-.8-2.3-2.3-2.3Z"/>
    <path class="st0" d="M693,103.3v-7.7c0-1.4-.8-2.3-2.3-2.3h-60.2c-1.4,0-2.3.8-2.3,2.3v6.9c0,1.4.8,2.3,2.3,2.3h48.1s-49.8,92.3-49.8,92.3c-.4.8-.5,2.7-.5,3.4v7.7c0,1.4.8,2.3,2.3,2.3h60.2c1.4,0,2.3-.8,2.3-2.3v-6.9c0-1.4-.8-2.3-2.3-2.3h-48.1s49.9-93.4,49.9-93.4c.4-.9.5-1.7.5-2.3Z"/>
  </g>
  <path class="st0" d="M182.3,195.3c0-.1-.1-.3-.2-.4h0c-.1-.3-.2-.4-.4-.6l-3.5-3.5v-80.6l2.9-2.9v-9.7c0-1,0-1.9-.6-2.6-.6-.8-1.6-1.3-2.6-1.3h-5v-31.3c0-1.1-.6-2.1-1.5-2.7l-.4-.2.2-.4c2-3.2,3-6.9,3-10.6,0-8.7-5.8-16.7-14.2-19.4h-.3c0,0-1.5-9.4-1.5-9.4-.4-2.5-2.5-3.6-4.4-3.7-1.8,0-3.8,1.2-4.3,3.6l-1.7,9.3h-.3c-8.4,2.8-14.3,10.8-14.3,19.6s1,7.4,3,10.6l.2.4-.4.3c-.9.6-1.4,1.6-1.4,2.7v24.8h-6.7v-15.9l2.3-2.2v-8.1c0-1.8-1.5-3.2-3.2-3.2h-9.4c-.7,0-1.5,0-2,.7l-1.9,2.2h-2.9l.8-2.5c.2-1,0-2-.7-2.8-.6-.8-1.6-1.3-2.7-1.3h-32.8c-1,0-2.1.5-2.7,1.3-.7.8-.9,1.9-.6,3l.4,2.3h-3l-1.6-2.2c-.5-.6-1.3-.7-2-.7h-9.4c-1.8,0-3.2,1.4-3.2,3.2v8.1l2.3,2.2v15.9h-6.7v-24.7c0-1.1-.5-2.1-1.5-2.7l-.4-.3.2-.4c2-3.2,3-6.9,3-10.6,0-8.7-5.8-16.7-14.2-19.5h-.3c0,0-1.6-9.4-1.6-9.4-.4-2.5-2.5-3.7-4.3-3.7-2.2,0-3.9,1.5-4.3,3.6l-1.7,9.3h-.3c-8.4,2.8-14.3,10.8-14.3,19.6s1,7.4,3,10.6l.2.4-.4.3c-.9.6-1.4,1.6-1.4,2.7v31.4h-4.9c-1,0-2,.5-2.6,1.3-.5.7-.6,1.6-.6,2.5v9.8l2.8,2.6v80.8l-3.3,3.6c-.6.6-.9,1.4-.9,2.2v11c0,1.8,1.5,3.3,3.3,3.3h41.8l6.9-7.1h76.9l7,7.1h42c1.8,0,3.2-1.5,3.2-3.3v-10c0-.4,0-1.9-.2-2.3M174,201.5h-32.8l-7.1-7.1H49.3l-7.1,7.1H10.8v-2.8l4.2-4.3v-85.9l-2.8-2.6v-4.3h8.1v-34.8l2.7-2.7v-6.8c-.4-.3-.7-.6-1-.9-.7-.7-1.3-1.5-1.8-2.4-.8-1.6-1.3-3.4-1.3-5.3,0-6.1,5-11.1,11.1-11.1s11.1,5,11.1,11.1-.8,4.7-2.2,6.6c0,.1-.2.3-.3.4,0,0,0,0,0,.1-.2.2-.4.4-.6.6-.3.3-.6.6-.9.8v6.9l2.6,2.7v29.5h20.3l5-5.1v-22.1h17.9v-5.7h18.1v5.8h17.9c0,0,0,21.6,0,21.6l5.5,5.6h19.8v-29.6l2.7-2.7v-6.8c-.4-.3-.8-.7-1.2-1.1-.6-.6-1.1-1.3-1.5-2.1-.9-1.6-1.4-3.5-1.4-5.4,0-6.1,5-11.1,11.1-11.1s11.1,5,11.1,11.1-.8,4.7-2.1,6.5c-.1.2-.2.3-.4.5,0,0,0,0,0,0-.2.2-.3.4-.5.6-.3.3-.6.6-.9.9v6.8l2.7,2.5v35h8.2v4.9l-2.9,2.9v85.4l5.3,5.3v1.5Z"/>
</svg>